%
M48
M72
T01C0.01575
T02C0.02400
T03C0.03200
T04C0.03346
T05C0.04000
T06C0.05200
%
T01
X135265Y85658
X135848Y90193
X142745Y88452
X152981Y88808
X166367Y88808
X184009Y85732
X190383Y85265
X210068Y84083
X229753Y73847
X233728Y73454
X232902Y86052
X256131Y82115
X262831Y79366
X259280Y74597
X254950Y74597
X230146Y53769
X225028Y57706
X207743Y59280
X203769Y59413
X188058Y58099
X184083Y59058
X182336Y67327
X164388Y64830
X159280Y62036
X163120Y71250
X159145Y72801
X155910Y75187
X162861Y41995
X156131Y39239
X146263Y30109
X199400Y21091
X203375Y21091
X208099Y21091
X227353Y37233
X215580Y41170
X203375Y105343
X278178Y170304
X330934Y121879
T02
X314005Y138217
X286446Y158394
X291367Y161839
X273158Y183493
X273650Y188906
X287430Y198257
X275127Y214497
X266269Y208099
X259379Y203178
X254457Y203178
X262824Y175619
X250028Y175127
X260855Y162331
X256918Y137725
X268237Y130343
X264792Y126898
X262824Y120009
X269713Y114103
X224438Y100324
X215087Y90481
X204753Y89989
X193926Y100816
X184083Y104753
X188513Y114103
X171780Y122961
X148650Y113611
X108296Y97863
X104359Y101308
X75324Y107706
X54654Y122961
X81721Y176111
X65481Y183493
X55639Y183001
X39398Y191859
X60068Y207607
X39398Y208099
X24143Y215973
X19221Y215973
X42843Y224831
X57607Y222863
X79261Y242548
X92056Y249438
X96485Y240087
X101406Y240580
X133887Y252391
X139300Y237627
X117154Y210560
X119123Y193335
X111249Y192351
X134871Y191859
X156524Y200225
X162430Y200225
X176702Y196780
X183591Y177095
X162922Y169713
X157017Y170698
X132410Y146583
X202784Y190875
X212135Y200225
X211643Y214497
X213611Y180048
X206721Y122961
X242646Y73749
X247076Y62922
X229359Y60461
X270698Y72272
X186052Y72765
X154064Y23552
X145206Y16662
X161446Y7804
X356328Y138709
X333198Y186446
X328276Y186446
X325324Y195796
X336150Y197272
X354851Y204654
X352883Y212528
X344024Y212528
X322371Y229261
X307607Y227784
X287922Y221387
X265776Y238611
X272666Y245501
X279064Y241072
X283493Y253375
X272666Y266662
X262331Y266662
X265776Y253375
X308099Y270107
X309083Y248946
X346977Y245501
T03
X30753Y195658
X18753Y195658
T04
X249083Y20698
X264044Y20698
T05
X139320Y13060
X129320Y13060
X119320Y13060
X109320Y13060
T06
X58887Y25422
X324241Y25422
M30
