G75*
%MOIN*%
%OFA0B0*%
%FSLAX25Y25*%
%IPPOS*%
%LPD*%
%AMOC8*
5,1,8,0,0,1.08239X$1,22.5*
%
%ADD10C,0.00600*%
%ADD11C,0.01600*%
%ADD12C,0.00800*%
%ADD13C,0.00100*%
%ADD14C,0.00500*%
%ADD15C,0.02200*%
%ADD16R,0.01800X0.03000*%
%ADD17C,0.00400*%
%ADD18C,0.00000*%
%ADD19C,0.02559*%
%ADD20C,0.00787*%
%ADD21C,0.00394*%
%ADD22C,0.00200*%
%ADD23C,0.02000*%
%ADD24C,0.00300*%
%ADD25C,0.01200*%
%ADD26R,0.03000X0.01800*%
%ADD27C,0.01000*%
%ADD28R,0.04724X0.00787*%
%ADD29R,0.00787X0.04724*%
D10*
X0052887Y0019422D02*
X0052887Y0021422D01*
X0052887Y0019422D02*
X0054887Y0019422D01*
X0062887Y0019422D02*
X0064887Y0019422D01*
X0064887Y0021422D01*
X0064887Y0029422D02*
X0064887Y0031422D01*
X0062887Y0031422D01*
X0054887Y0031422D02*
X0052887Y0031422D01*
X0052887Y0029422D01*
X0017248Y0045407D02*
X0010843Y0045407D01*
X0017248Y0049677D01*
X0010843Y0049677D01*
X0010843Y0051853D02*
X0010843Y0053988D01*
X0010843Y0052920D02*
X0017248Y0052920D01*
X0017248Y0051853D02*
X0017248Y0053988D01*
X0016180Y0056150D02*
X0011910Y0056150D01*
X0010843Y0057217D01*
X0010843Y0059352D01*
X0011910Y0060420D01*
X0010843Y0062595D02*
X0010843Y0065798D01*
X0011910Y0066865D01*
X0012978Y0066865D01*
X0014045Y0065798D01*
X0014045Y0062595D01*
X0016180Y0060420D02*
X0017248Y0059352D01*
X0017248Y0057217D01*
X0016180Y0056150D01*
X0017248Y0062595D02*
X0010843Y0062595D01*
X0014045Y0065798D02*
X0015113Y0066865D01*
X0016180Y0066865D01*
X0017248Y0065798D01*
X0017248Y0062595D01*
X0017248Y0069041D02*
X0010843Y0069041D01*
X0010843Y0072243D01*
X0011910Y0073311D01*
X0014045Y0073311D01*
X0015113Y0072243D01*
X0015113Y0069041D01*
X0012978Y0081932D02*
X0017248Y0084067D01*
X0012978Y0086202D01*
X0011910Y0088377D02*
X0010843Y0089445D01*
X0010843Y0091580D01*
X0011910Y0092647D01*
X0012978Y0092647D01*
X0014045Y0091580D01*
X0015113Y0092647D01*
X0016180Y0092647D01*
X0017248Y0091580D01*
X0017248Y0089445D01*
X0016180Y0088377D01*
X0014045Y0090512D02*
X0014045Y0091580D01*
X0104320Y0015560D02*
X0106820Y0018060D01*
X0111820Y0018060D01*
X0114320Y0015560D01*
X0116820Y0018060D01*
X0121820Y0018060D01*
X0124320Y0015560D01*
X0124320Y0010560D01*
X0121820Y0008060D01*
X0116820Y0008060D01*
X0114320Y0010560D01*
X0111820Y0008060D01*
X0106820Y0008060D01*
X0104320Y0010560D01*
X0104320Y0015560D01*
X0114320Y0015560D02*
X0114320Y0010560D01*
X0124320Y0010560D02*
X0126820Y0008060D01*
X0131820Y0008060D01*
X0134320Y0010560D01*
X0136820Y0008060D01*
X0141820Y0008060D01*
X0144320Y0010560D01*
X0144320Y0015560D01*
X0141820Y0018060D01*
X0136820Y0018060D01*
X0134320Y0015560D01*
X0134320Y0010560D01*
X0134320Y0015560D02*
X0131820Y0018060D01*
X0126820Y0018060D01*
X0124320Y0015560D01*
X0183443Y0099360D02*
X0185578Y0099360D01*
X0186646Y0100427D01*
X0186646Y0105765D01*
X0188821Y0104698D02*
X0189889Y0105765D01*
X0192024Y0105765D01*
X0193091Y0104698D01*
X0195267Y0104698D02*
X0196334Y0105765D01*
X0198469Y0105765D01*
X0199537Y0104698D01*
X0199537Y0100427D01*
X0198469Y0099360D01*
X0196334Y0099360D01*
X0195267Y0100427D01*
X0193091Y0100427D02*
X0192024Y0099360D01*
X0189889Y0099360D01*
X0188821Y0100427D01*
X0189889Y0102563D02*
X0188821Y0103630D01*
X0188821Y0104698D01*
X0189889Y0102563D02*
X0192024Y0102563D01*
X0193091Y0101495D01*
X0193091Y0100427D01*
X0190956Y0098292D02*
X0190956Y0106833D01*
X0195267Y0104698D02*
X0195267Y0103630D01*
X0196334Y0102563D01*
X0199537Y0102563D01*
X0183443Y0099360D02*
X0182376Y0100427D01*
X0182376Y0105765D01*
X0116769Y0197666D02*
X0116769Y0204044D01*
X0113225Y0204044D02*
X0112855Y0204044D01*
X0109485Y0204044D02*
X0109115Y0204044D01*
X0105572Y0204044D02*
X0105572Y0197666D01*
X0109115Y0197666D02*
X0113225Y0197666D01*
X0088973Y0239867D02*
X0088973Y0246017D01*
X0077772Y0246017D02*
X0077772Y0239867D01*
X0355067Y0080837D02*
X0355067Y0078702D01*
X0356135Y0077635D01*
X0357202Y0077635D01*
X0358270Y0078702D01*
X0358270Y0080837D01*
X0359337Y0081905D01*
X0360405Y0081905D01*
X0361472Y0080837D01*
X0361472Y0078702D01*
X0360405Y0077635D01*
X0359337Y0077635D01*
X0358270Y0078702D01*
X0358270Y0080837D02*
X0357202Y0081905D01*
X0356135Y0081905D01*
X0355067Y0080837D01*
X0356135Y0075459D02*
X0355067Y0074392D01*
X0355067Y0072257D01*
X0356135Y0071189D01*
X0360405Y0071189D01*
X0356135Y0075459D01*
X0360405Y0075459D01*
X0361472Y0074392D01*
X0361472Y0072257D01*
X0360405Y0071189D01*
X0360405Y0069014D02*
X0356135Y0069014D01*
X0355067Y0067946D01*
X0355067Y0065811D01*
X0356135Y0064744D01*
X0357202Y0064744D01*
X0358270Y0065811D01*
X0358270Y0069014D01*
X0360405Y0069014D02*
X0361472Y0067946D01*
X0361472Y0065811D01*
X0360405Y0064744D01*
X0361472Y0062568D02*
X0361472Y0058298D01*
X0361472Y0060433D02*
X0355067Y0060433D01*
X0357202Y0058298D01*
X0356135Y0056123D02*
X0360405Y0051853D01*
X0361472Y0052920D01*
X0361472Y0055055D01*
X0360405Y0056123D01*
X0356135Y0056123D01*
X0355067Y0055055D01*
X0355067Y0052920D01*
X0356135Y0051853D01*
X0360405Y0051853D01*
X0361472Y0049677D02*
X0361472Y0045407D01*
X0357202Y0049677D01*
X0356135Y0049677D01*
X0355067Y0048610D01*
X0355067Y0046475D01*
X0356135Y0045407D01*
X0365567Y0045407D02*
X0365567Y0049677D01*
X0365567Y0047542D02*
X0371972Y0047542D01*
X0370905Y0051853D02*
X0368770Y0051853D01*
X0367702Y0052920D01*
X0367702Y0055055D01*
X0368770Y0056123D01*
X0370905Y0056123D01*
X0371972Y0055055D01*
X0371972Y0052920D01*
X0370905Y0051853D01*
X0371972Y0058298D02*
X0367702Y0058298D01*
X0367702Y0061501D01*
X0368770Y0062568D01*
X0371972Y0062568D01*
X0370905Y0064744D02*
X0367702Y0064744D01*
X0370905Y0064744D02*
X0371972Y0065811D01*
X0371972Y0069014D01*
X0373040Y0069014D02*
X0374108Y0067946D01*
X0374108Y0066879D01*
X0373040Y0069014D02*
X0367702Y0069014D01*
X0366635Y0071189D02*
X0370905Y0071189D01*
X0371972Y0072257D01*
X0371972Y0074392D01*
X0370905Y0075459D01*
X0368770Y0075459D01*
X0368770Y0073324D01*
X0366635Y0071189D02*
X0365567Y0072257D01*
X0365567Y0074392D01*
X0366635Y0075459D01*
X0365567Y0077635D02*
X0370905Y0077635D01*
X0371972Y0078702D01*
X0371972Y0080837D01*
X0370905Y0081905D01*
X0365567Y0081905D01*
X0366635Y0084080D02*
X0370905Y0084080D01*
X0371972Y0085148D01*
X0371972Y0087283D01*
X0370905Y0088350D01*
X0366635Y0088350D01*
X0365567Y0087283D01*
X0365567Y0085148D01*
X0366635Y0084080D01*
X0330241Y0031422D02*
X0328241Y0031422D01*
X0330241Y0031422D02*
X0330241Y0029422D01*
X0330241Y0021422D02*
X0330241Y0019422D01*
X0328241Y0019422D01*
X0320241Y0019422D02*
X0318241Y0019422D01*
X0318241Y0021422D01*
X0318241Y0029422D02*
X0318241Y0031422D01*
X0320241Y0031422D01*
D11*
X0379477Y0001800D02*
X0006800Y0001800D01*
X0006660Y0001802D01*
X0006520Y0001808D01*
X0006380Y0001818D01*
X0006240Y0001831D01*
X0006101Y0001849D01*
X0005962Y0001871D01*
X0005825Y0001896D01*
X0005687Y0001925D01*
X0005551Y0001958D01*
X0005416Y0001995D01*
X0005282Y0002036D01*
X0005149Y0002081D01*
X0005017Y0002129D01*
X0004887Y0002181D01*
X0004758Y0002236D01*
X0004631Y0002295D01*
X0004505Y0002358D01*
X0004381Y0002424D01*
X0004260Y0002493D01*
X0004140Y0002566D01*
X0004022Y0002643D01*
X0003907Y0002722D01*
X0003793Y0002805D01*
X0003683Y0002891D01*
X0003574Y0002980D01*
X0003468Y0003072D01*
X0003365Y0003167D01*
X0003264Y0003264D01*
X0003167Y0003365D01*
X0003072Y0003468D01*
X0002980Y0003574D01*
X0002891Y0003683D01*
X0002805Y0003793D01*
X0002722Y0003907D01*
X0002643Y0004022D01*
X0002566Y0004140D01*
X0002493Y0004260D01*
X0002424Y0004381D01*
X0002358Y0004505D01*
X0002295Y0004631D01*
X0002236Y0004758D01*
X0002181Y0004887D01*
X0002129Y0005017D01*
X0002081Y0005149D01*
X0002036Y0005282D01*
X0001995Y0005416D01*
X0001958Y0005551D01*
X0001925Y0005687D01*
X0001896Y0005825D01*
X0001871Y0005962D01*
X0001849Y0006101D01*
X0001831Y0006240D01*
X0001818Y0006380D01*
X0001808Y0006520D01*
X0001802Y0006660D01*
X0001800Y0006800D01*
X0001800Y0277509D01*
X0001802Y0277649D01*
X0001808Y0277789D01*
X0001818Y0277929D01*
X0001831Y0278069D01*
X0001849Y0278208D01*
X0001871Y0278347D01*
X0001896Y0278484D01*
X0001925Y0278622D01*
X0001958Y0278758D01*
X0001995Y0278893D01*
X0002036Y0279027D01*
X0002081Y0279160D01*
X0002129Y0279292D01*
X0002181Y0279422D01*
X0002236Y0279551D01*
X0002295Y0279678D01*
X0002358Y0279804D01*
X0002424Y0279928D01*
X0002493Y0280049D01*
X0002566Y0280169D01*
X0002643Y0280287D01*
X0002722Y0280402D01*
X0002805Y0280516D01*
X0002891Y0280626D01*
X0002980Y0280735D01*
X0003072Y0280841D01*
X0003167Y0280944D01*
X0003264Y0281045D01*
X0003365Y0281142D01*
X0003468Y0281237D01*
X0003574Y0281329D01*
X0003683Y0281418D01*
X0003793Y0281504D01*
X0003907Y0281587D01*
X0004022Y0281666D01*
X0004140Y0281743D01*
X0004260Y0281816D01*
X0004381Y0281885D01*
X0004505Y0281951D01*
X0004631Y0282014D01*
X0004758Y0282073D01*
X0004887Y0282128D01*
X0005017Y0282180D01*
X0005149Y0282228D01*
X0005282Y0282273D01*
X0005416Y0282314D01*
X0005551Y0282351D01*
X0005687Y0282384D01*
X0005825Y0282413D01*
X0005962Y0282438D01*
X0006101Y0282460D01*
X0006240Y0282478D01*
X0006380Y0282491D01*
X0006520Y0282501D01*
X0006660Y0282507D01*
X0006800Y0282509D01*
X0379477Y0282509D01*
X0379617Y0282507D01*
X0379757Y0282501D01*
X0379897Y0282491D01*
X0380037Y0282478D01*
X0380176Y0282460D01*
X0380315Y0282438D01*
X0380452Y0282413D01*
X0380590Y0282384D01*
X0380726Y0282351D01*
X0380861Y0282314D01*
X0380995Y0282273D01*
X0381128Y0282228D01*
X0381260Y0282180D01*
X0381390Y0282128D01*
X0381519Y0282073D01*
X0381646Y0282014D01*
X0381772Y0281951D01*
X0381896Y0281885D01*
X0382017Y0281816D01*
X0382137Y0281743D01*
X0382255Y0281666D01*
X0382370Y0281587D01*
X0382484Y0281504D01*
X0382594Y0281418D01*
X0382703Y0281329D01*
X0382809Y0281237D01*
X0382912Y0281142D01*
X0383013Y0281045D01*
X0383110Y0280944D01*
X0383205Y0280841D01*
X0383297Y0280735D01*
X0383386Y0280626D01*
X0383472Y0280516D01*
X0383555Y0280402D01*
X0383634Y0280287D01*
X0383711Y0280169D01*
X0383784Y0280049D01*
X0383853Y0279928D01*
X0383919Y0279804D01*
X0383982Y0279678D01*
X0384041Y0279551D01*
X0384096Y0279422D01*
X0384148Y0279292D01*
X0384196Y0279160D01*
X0384241Y0279027D01*
X0384282Y0278893D01*
X0384319Y0278758D01*
X0384352Y0278622D01*
X0384381Y0278484D01*
X0384406Y0278347D01*
X0384428Y0278208D01*
X0384446Y0278069D01*
X0384459Y0277929D01*
X0384469Y0277789D01*
X0384475Y0277649D01*
X0384477Y0277509D01*
X0384477Y0006800D01*
X0384475Y0006660D01*
X0384469Y0006520D01*
X0384459Y0006380D01*
X0384446Y0006240D01*
X0384428Y0006101D01*
X0384406Y0005962D01*
X0384381Y0005825D01*
X0384352Y0005687D01*
X0384319Y0005551D01*
X0384282Y0005416D01*
X0384241Y0005282D01*
X0384196Y0005149D01*
X0384148Y0005017D01*
X0384096Y0004887D01*
X0384041Y0004758D01*
X0383982Y0004631D01*
X0383919Y0004505D01*
X0383853Y0004381D01*
X0383784Y0004260D01*
X0383711Y0004140D01*
X0383634Y0004022D01*
X0383555Y0003907D01*
X0383472Y0003793D01*
X0383386Y0003683D01*
X0383297Y0003574D01*
X0383205Y0003468D01*
X0383110Y0003365D01*
X0383013Y0003264D01*
X0382912Y0003167D01*
X0382809Y0003072D01*
X0382703Y0002980D01*
X0382594Y0002891D01*
X0382484Y0002805D01*
X0382370Y0002722D01*
X0382255Y0002643D01*
X0382137Y0002566D01*
X0382017Y0002493D01*
X0381896Y0002424D01*
X0381772Y0002358D01*
X0381646Y0002295D01*
X0381519Y0002236D01*
X0381390Y0002181D01*
X0381260Y0002129D01*
X0381128Y0002081D01*
X0380995Y0002036D01*
X0380861Y0001995D01*
X0380726Y0001958D01*
X0380590Y0001925D01*
X0380452Y0001896D01*
X0380315Y0001871D01*
X0380176Y0001849D01*
X0380037Y0001831D01*
X0379897Y0001818D01*
X0379757Y0001808D01*
X0379617Y0001802D01*
X0379477Y0001800D01*
D12*
X0215973Y0055737D02*
X0214398Y0054162D01*
X0179753Y0054162D01*
X0178178Y0055737D01*
X0178178Y0090383D01*
X0179753Y0091957D01*
X0214398Y0091957D01*
X0215973Y0090383D01*
X0215973Y0055737D01*
X0181485Y0029517D02*
X0169359Y0029517D01*
X0165422Y0024517D02*
X0165422Y0014635D01*
X0169359Y0009517D02*
X0181485Y0009517D01*
X0185422Y0014635D02*
X0185422Y0024398D01*
X0170422Y0019517D02*
X0170424Y0019658D01*
X0170430Y0019799D01*
X0170440Y0019939D01*
X0170454Y0020079D01*
X0170472Y0020219D01*
X0170493Y0020358D01*
X0170519Y0020497D01*
X0170548Y0020635D01*
X0170582Y0020771D01*
X0170619Y0020907D01*
X0170660Y0021042D01*
X0170705Y0021176D01*
X0170754Y0021308D01*
X0170806Y0021439D01*
X0170862Y0021568D01*
X0170922Y0021695D01*
X0170985Y0021821D01*
X0171051Y0021945D01*
X0171122Y0022068D01*
X0171195Y0022188D01*
X0171272Y0022306D01*
X0171352Y0022422D01*
X0171436Y0022535D01*
X0171522Y0022646D01*
X0171612Y0022755D01*
X0171705Y0022861D01*
X0171800Y0022964D01*
X0171899Y0023065D01*
X0172000Y0023163D01*
X0172104Y0023258D01*
X0172211Y0023350D01*
X0172320Y0023439D01*
X0172432Y0023524D01*
X0172546Y0023607D01*
X0172662Y0023687D01*
X0172781Y0023763D01*
X0172902Y0023835D01*
X0173024Y0023905D01*
X0173149Y0023970D01*
X0173275Y0024033D01*
X0173403Y0024091D01*
X0173533Y0024146D01*
X0173664Y0024198D01*
X0173797Y0024245D01*
X0173931Y0024289D01*
X0174066Y0024330D01*
X0174202Y0024366D01*
X0174339Y0024398D01*
X0174477Y0024427D01*
X0174615Y0024452D01*
X0174755Y0024472D01*
X0174895Y0024489D01*
X0175035Y0024502D01*
X0175176Y0024511D01*
X0175316Y0024516D01*
X0175457Y0024517D01*
X0175598Y0024514D01*
X0175739Y0024507D01*
X0175879Y0024496D01*
X0176019Y0024481D01*
X0176159Y0024462D01*
X0176298Y0024440D01*
X0176436Y0024413D01*
X0176574Y0024383D01*
X0176710Y0024348D01*
X0176846Y0024310D01*
X0176980Y0024268D01*
X0177114Y0024222D01*
X0177246Y0024173D01*
X0177376Y0024119D01*
X0177505Y0024062D01*
X0177632Y0024002D01*
X0177758Y0023938D01*
X0177881Y0023870D01*
X0178003Y0023799D01*
X0178123Y0023725D01*
X0178240Y0023647D01*
X0178355Y0023566D01*
X0178468Y0023482D01*
X0178579Y0023395D01*
X0178687Y0023304D01*
X0178792Y0023211D01*
X0178895Y0023114D01*
X0178995Y0023015D01*
X0179092Y0022913D01*
X0179186Y0022808D01*
X0179277Y0022701D01*
X0179365Y0022591D01*
X0179450Y0022479D01*
X0179532Y0022364D01*
X0179611Y0022247D01*
X0179686Y0022128D01*
X0179758Y0022007D01*
X0179826Y0021884D01*
X0179891Y0021759D01*
X0179953Y0021632D01*
X0180010Y0021503D01*
X0180065Y0021373D01*
X0180115Y0021242D01*
X0180162Y0021109D01*
X0180205Y0020975D01*
X0180244Y0020839D01*
X0180279Y0020703D01*
X0180311Y0020566D01*
X0180338Y0020428D01*
X0180362Y0020289D01*
X0180382Y0020149D01*
X0180398Y0020009D01*
X0180410Y0019869D01*
X0180418Y0019728D01*
X0180422Y0019587D01*
X0180422Y0019447D01*
X0180418Y0019306D01*
X0180410Y0019165D01*
X0180398Y0019025D01*
X0180382Y0018885D01*
X0180362Y0018745D01*
X0180338Y0018606D01*
X0180311Y0018468D01*
X0180279Y0018331D01*
X0180244Y0018195D01*
X0180205Y0018059D01*
X0180162Y0017925D01*
X0180115Y0017792D01*
X0180065Y0017661D01*
X0180010Y0017531D01*
X0179953Y0017402D01*
X0179891Y0017275D01*
X0179826Y0017150D01*
X0179758Y0017027D01*
X0179686Y0016906D01*
X0179611Y0016787D01*
X0179532Y0016670D01*
X0179450Y0016555D01*
X0179365Y0016443D01*
X0179277Y0016333D01*
X0179186Y0016226D01*
X0179092Y0016121D01*
X0178995Y0016019D01*
X0178895Y0015920D01*
X0178792Y0015823D01*
X0178687Y0015730D01*
X0178579Y0015639D01*
X0178468Y0015552D01*
X0178355Y0015468D01*
X0178240Y0015387D01*
X0178123Y0015309D01*
X0178003Y0015235D01*
X0177881Y0015164D01*
X0177758Y0015096D01*
X0177632Y0015032D01*
X0177505Y0014972D01*
X0177376Y0014915D01*
X0177246Y0014861D01*
X0177114Y0014812D01*
X0176980Y0014766D01*
X0176846Y0014724D01*
X0176710Y0014686D01*
X0176574Y0014651D01*
X0176436Y0014621D01*
X0176298Y0014594D01*
X0176159Y0014572D01*
X0176019Y0014553D01*
X0175879Y0014538D01*
X0175739Y0014527D01*
X0175598Y0014520D01*
X0175457Y0014517D01*
X0175316Y0014518D01*
X0175176Y0014523D01*
X0175035Y0014532D01*
X0174895Y0014545D01*
X0174755Y0014562D01*
X0174615Y0014582D01*
X0174477Y0014607D01*
X0174339Y0014636D01*
X0174202Y0014668D01*
X0174066Y0014704D01*
X0173931Y0014745D01*
X0173797Y0014789D01*
X0173664Y0014836D01*
X0173533Y0014888D01*
X0173403Y0014943D01*
X0173275Y0015001D01*
X0173149Y0015064D01*
X0173024Y0015129D01*
X0172902Y0015199D01*
X0172781Y0015271D01*
X0172662Y0015347D01*
X0172546Y0015427D01*
X0172432Y0015510D01*
X0172320Y0015595D01*
X0172211Y0015684D01*
X0172104Y0015776D01*
X0172000Y0015871D01*
X0171899Y0015969D01*
X0171800Y0016070D01*
X0171705Y0016173D01*
X0171612Y0016279D01*
X0171522Y0016388D01*
X0171436Y0016499D01*
X0171352Y0016612D01*
X0171272Y0016728D01*
X0171195Y0016846D01*
X0171122Y0016966D01*
X0171051Y0017089D01*
X0170985Y0017213D01*
X0170922Y0017339D01*
X0170862Y0017466D01*
X0170806Y0017595D01*
X0170754Y0017726D01*
X0170705Y0017858D01*
X0170660Y0017992D01*
X0170619Y0018127D01*
X0170582Y0018263D01*
X0170548Y0018399D01*
X0170519Y0018537D01*
X0170493Y0018676D01*
X0170472Y0018815D01*
X0170454Y0018955D01*
X0170440Y0019095D01*
X0170430Y0019235D01*
X0170424Y0019376D01*
X0170422Y0019517D01*
X0168769Y0120186D02*
X0166957Y0120186D01*
X0166037Y0121406D01*
X0165146Y0120186D02*
X0166957Y0120186D01*
X0167057Y0120246D02*
X0167817Y0121406D01*
X0130146Y0141446D02*
X0130146Y0151209D01*
X0126209Y0156328D02*
X0114083Y0156328D01*
X0110146Y0151328D02*
X0110146Y0141446D01*
X0114083Y0136328D02*
X0126209Y0136328D01*
X0115146Y0146328D02*
X0115148Y0146469D01*
X0115154Y0146610D01*
X0115164Y0146750D01*
X0115178Y0146890D01*
X0115196Y0147030D01*
X0115217Y0147169D01*
X0115243Y0147308D01*
X0115272Y0147446D01*
X0115306Y0147582D01*
X0115343Y0147718D01*
X0115384Y0147853D01*
X0115429Y0147987D01*
X0115478Y0148119D01*
X0115530Y0148250D01*
X0115586Y0148379D01*
X0115646Y0148506D01*
X0115709Y0148632D01*
X0115775Y0148756D01*
X0115846Y0148879D01*
X0115919Y0148999D01*
X0115996Y0149117D01*
X0116076Y0149233D01*
X0116160Y0149346D01*
X0116246Y0149457D01*
X0116336Y0149566D01*
X0116429Y0149672D01*
X0116524Y0149775D01*
X0116623Y0149876D01*
X0116724Y0149974D01*
X0116828Y0150069D01*
X0116935Y0150161D01*
X0117044Y0150250D01*
X0117156Y0150335D01*
X0117270Y0150418D01*
X0117386Y0150498D01*
X0117505Y0150574D01*
X0117626Y0150646D01*
X0117748Y0150716D01*
X0117873Y0150781D01*
X0117999Y0150844D01*
X0118127Y0150902D01*
X0118257Y0150957D01*
X0118388Y0151009D01*
X0118521Y0151056D01*
X0118655Y0151100D01*
X0118790Y0151141D01*
X0118926Y0151177D01*
X0119063Y0151209D01*
X0119201Y0151238D01*
X0119339Y0151263D01*
X0119479Y0151283D01*
X0119619Y0151300D01*
X0119759Y0151313D01*
X0119900Y0151322D01*
X0120040Y0151327D01*
X0120181Y0151328D01*
X0120322Y0151325D01*
X0120463Y0151318D01*
X0120603Y0151307D01*
X0120743Y0151292D01*
X0120883Y0151273D01*
X0121022Y0151251D01*
X0121160Y0151224D01*
X0121298Y0151194D01*
X0121434Y0151159D01*
X0121570Y0151121D01*
X0121704Y0151079D01*
X0121838Y0151033D01*
X0121970Y0150984D01*
X0122100Y0150930D01*
X0122229Y0150873D01*
X0122356Y0150813D01*
X0122482Y0150749D01*
X0122605Y0150681D01*
X0122727Y0150610D01*
X0122847Y0150536D01*
X0122964Y0150458D01*
X0123079Y0150377D01*
X0123192Y0150293D01*
X0123303Y0150206D01*
X0123411Y0150115D01*
X0123516Y0150022D01*
X0123619Y0149925D01*
X0123719Y0149826D01*
X0123816Y0149724D01*
X0123910Y0149619D01*
X0124001Y0149512D01*
X0124089Y0149402D01*
X0124174Y0149290D01*
X0124256Y0149175D01*
X0124335Y0149058D01*
X0124410Y0148939D01*
X0124482Y0148818D01*
X0124550Y0148695D01*
X0124615Y0148570D01*
X0124677Y0148443D01*
X0124734Y0148314D01*
X0124789Y0148184D01*
X0124839Y0148053D01*
X0124886Y0147920D01*
X0124929Y0147786D01*
X0124968Y0147650D01*
X0125003Y0147514D01*
X0125035Y0147377D01*
X0125062Y0147239D01*
X0125086Y0147100D01*
X0125106Y0146960D01*
X0125122Y0146820D01*
X0125134Y0146680D01*
X0125142Y0146539D01*
X0125146Y0146398D01*
X0125146Y0146258D01*
X0125142Y0146117D01*
X0125134Y0145976D01*
X0125122Y0145836D01*
X0125106Y0145696D01*
X0125086Y0145556D01*
X0125062Y0145417D01*
X0125035Y0145279D01*
X0125003Y0145142D01*
X0124968Y0145006D01*
X0124929Y0144870D01*
X0124886Y0144736D01*
X0124839Y0144603D01*
X0124789Y0144472D01*
X0124734Y0144342D01*
X0124677Y0144213D01*
X0124615Y0144086D01*
X0124550Y0143961D01*
X0124482Y0143838D01*
X0124410Y0143717D01*
X0124335Y0143598D01*
X0124256Y0143481D01*
X0124174Y0143366D01*
X0124089Y0143254D01*
X0124001Y0143144D01*
X0123910Y0143037D01*
X0123816Y0142932D01*
X0123719Y0142830D01*
X0123619Y0142731D01*
X0123516Y0142634D01*
X0123411Y0142541D01*
X0123303Y0142450D01*
X0123192Y0142363D01*
X0123079Y0142279D01*
X0122964Y0142198D01*
X0122847Y0142120D01*
X0122727Y0142046D01*
X0122605Y0141975D01*
X0122482Y0141907D01*
X0122356Y0141843D01*
X0122229Y0141783D01*
X0122100Y0141726D01*
X0121970Y0141672D01*
X0121838Y0141623D01*
X0121704Y0141577D01*
X0121570Y0141535D01*
X0121434Y0141497D01*
X0121298Y0141462D01*
X0121160Y0141432D01*
X0121022Y0141405D01*
X0120883Y0141383D01*
X0120743Y0141364D01*
X0120603Y0141349D01*
X0120463Y0141338D01*
X0120322Y0141331D01*
X0120181Y0141328D01*
X0120040Y0141329D01*
X0119900Y0141334D01*
X0119759Y0141343D01*
X0119619Y0141356D01*
X0119479Y0141373D01*
X0119339Y0141393D01*
X0119201Y0141418D01*
X0119063Y0141447D01*
X0118926Y0141479D01*
X0118790Y0141515D01*
X0118655Y0141556D01*
X0118521Y0141600D01*
X0118388Y0141647D01*
X0118257Y0141699D01*
X0118127Y0141754D01*
X0117999Y0141812D01*
X0117873Y0141875D01*
X0117748Y0141940D01*
X0117626Y0142010D01*
X0117505Y0142082D01*
X0117386Y0142158D01*
X0117270Y0142238D01*
X0117156Y0142321D01*
X0117044Y0142406D01*
X0116935Y0142495D01*
X0116828Y0142587D01*
X0116724Y0142682D01*
X0116623Y0142780D01*
X0116524Y0142881D01*
X0116429Y0142984D01*
X0116336Y0143090D01*
X0116246Y0143199D01*
X0116160Y0143310D01*
X0116076Y0143423D01*
X0115996Y0143539D01*
X0115919Y0143657D01*
X0115846Y0143777D01*
X0115775Y0143900D01*
X0115709Y0144024D01*
X0115646Y0144150D01*
X0115586Y0144277D01*
X0115530Y0144406D01*
X0115478Y0144537D01*
X0115429Y0144669D01*
X0115384Y0144803D01*
X0115343Y0144938D01*
X0115306Y0145074D01*
X0115272Y0145210D01*
X0115243Y0145348D01*
X0115217Y0145487D01*
X0115196Y0145626D01*
X0115178Y0145766D01*
X0115164Y0145906D01*
X0115154Y0146046D01*
X0115148Y0146187D01*
X0115146Y0146328D01*
X0079070Y0175339D02*
X0053270Y0175339D01*
X0053270Y0188339D01*
X0079070Y0188339D01*
X0079070Y0175339D01*
X0124477Y0207981D02*
X0129989Y0207981D01*
X0129989Y0213099D01*
X0124477Y0213099D01*
X0129989Y0213099D02*
X0131564Y0213099D01*
X0131564Y0207981D02*
X0129989Y0207981D01*
X0159601Y0238184D02*
X0158066Y0239719D01*
X0164205Y0245857D01*
X0164205Y0239719D01*
X0162670Y0238184D01*
X0159601Y0238184D01*
X0158066Y0239719D02*
X0158066Y0245857D01*
X0159601Y0247392D01*
X0162670Y0247392D01*
X0164205Y0245857D01*
X0171878Y0245857D02*
X0171878Y0244323D01*
X0173413Y0242788D01*
X0178016Y0242788D01*
X0178016Y0239719D02*
X0178016Y0245857D01*
X0176482Y0247392D01*
X0173413Y0247392D01*
X0171878Y0245857D01*
X0181086Y0242788D02*
X0185690Y0242788D01*
X0187224Y0241254D01*
X0187224Y0239719D01*
X0185690Y0238184D01*
X0182620Y0238184D01*
X0181086Y0239719D01*
X0181086Y0242788D01*
X0184155Y0245857D01*
X0187224Y0247392D01*
X0190294Y0244323D02*
X0191828Y0245857D01*
X0191828Y0248927D01*
X0194898Y0248927D02*
X0194898Y0245857D01*
X0193363Y0244323D01*
X0207175Y0247392D02*
X0207175Y0238184D01*
X0211779Y0238184D01*
X0213313Y0239719D01*
X0213313Y0245857D01*
X0211779Y0247392D01*
X0207175Y0247392D01*
X0216383Y0244323D02*
X0217917Y0244323D01*
X0217917Y0238184D01*
X0216383Y0238184D02*
X0219452Y0238184D01*
X0222521Y0238184D02*
X0227125Y0238184D01*
X0228660Y0239719D01*
X0227125Y0241254D01*
X0224056Y0241254D01*
X0222521Y0242788D01*
X0224056Y0244323D01*
X0228660Y0244323D01*
X0231729Y0244323D02*
X0236333Y0244323D01*
X0237868Y0242788D01*
X0237868Y0239719D01*
X0236333Y0238184D01*
X0231729Y0238184D01*
X0231729Y0235115D02*
X0231729Y0244323D01*
X0240937Y0247392D02*
X0242472Y0247392D01*
X0242472Y0238184D01*
X0244006Y0238184D02*
X0240937Y0238184D01*
X0247075Y0239719D02*
X0248610Y0241254D01*
X0253214Y0241254D01*
X0253214Y0242788D02*
X0253214Y0238184D01*
X0248610Y0238184D01*
X0247075Y0239719D01*
X0248610Y0244323D02*
X0251679Y0244323D01*
X0253214Y0242788D01*
X0256283Y0244323D02*
X0256283Y0239719D01*
X0257818Y0238184D01*
X0262422Y0238184D01*
X0262422Y0236650D02*
X0260887Y0235115D01*
X0259353Y0235115D01*
X0262422Y0236650D02*
X0262422Y0244323D01*
X0217917Y0247392D02*
X0217917Y0248927D01*
X0178016Y0239719D02*
X0176482Y0238184D01*
X0173413Y0238184D01*
X0171878Y0239719D01*
X0168809Y0239719D02*
X0168809Y0238184D01*
X0167274Y0238184D01*
X0167274Y0239719D01*
X0168809Y0239719D01*
X0106800Y0248060D02*
X0095776Y0248060D01*
X0095776Y0264989D01*
X0106800Y0264989D01*
X0106800Y0248060D01*
X0068926Y0246761D02*
X0068926Y0237312D01*
X0061052Y0237312D01*
X0061052Y0232902D02*
X0068926Y0232902D01*
X0068926Y0223454D01*
X0061052Y0223454D01*
X0053178Y0223454D02*
X0046879Y0223454D01*
X0045304Y0225028D01*
X0045304Y0231328D01*
X0046879Y0232902D01*
X0053178Y0232902D01*
X0053178Y0237312D02*
X0046879Y0237312D01*
X0045304Y0238887D01*
X0045304Y0245186D01*
X0046879Y0246761D01*
X0053178Y0246761D01*
X0061052Y0246761D02*
X0068926Y0246761D01*
X0062666Y0250461D02*
X0042981Y0250461D01*
X0042981Y0260757D01*
X0042981Y0266150D02*
X0042981Y0276446D01*
X0062666Y0276446D01*
X0068965Y0271328D01*
X0068965Y0266150D01*
X0068965Y0260757D02*
X0068965Y0255580D01*
X0062666Y0250461D01*
X0068178Y0260757D02*
X0068107Y0260461D01*
X0068030Y0260167D01*
X0067946Y0259874D01*
X0067854Y0259584D01*
X0067756Y0259296D01*
X0067650Y0259011D01*
X0067538Y0258728D01*
X0067418Y0258448D01*
X0067292Y0258171D01*
X0067159Y0257897D01*
X0067020Y0257627D01*
X0066874Y0257360D01*
X0066722Y0257096D01*
X0066563Y0256837D01*
X0066398Y0256581D01*
X0066227Y0256329D01*
X0066049Y0256082D01*
X0065866Y0255839D01*
X0065677Y0255601D01*
X0065482Y0255367D01*
X0065282Y0255138D01*
X0065076Y0254914D01*
X0064864Y0254695D01*
X0064648Y0254481D01*
X0064426Y0254273D01*
X0064199Y0254070D01*
X0063968Y0253873D01*
X0063731Y0253681D01*
X0063490Y0253495D01*
X0063245Y0253315D01*
X0062995Y0253141D01*
X0062741Y0252974D01*
X0062483Y0252812D01*
X0062222Y0252657D01*
X0061956Y0252508D01*
X0061687Y0252366D01*
X0061415Y0252230D01*
X0061139Y0252101D01*
X0060861Y0251979D01*
X0060579Y0251863D01*
X0060295Y0251754D01*
X0060008Y0251653D01*
X0059719Y0251558D01*
X0059427Y0251470D01*
X0059134Y0251390D01*
X0058838Y0251317D01*
X0058541Y0251251D01*
X0058243Y0251192D01*
X0057943Y0251140D01*
X0057642Y0251096D01*
X0057340Y0251059D01*
X0057037Y0251029D01*
X0056733Y0251007D01*
X0056429Y0250992D01*
X0056125Y0250985D01*
X0055821Y0250985D01*
X0055517Y0250992D01*
X0055213Y0251007D01*
X0054909Y0251029D01*
X0054606Y0251059D01*
X0054304Y0251096D01*
X0054003Y0251140D01*
X0053703Y0251192D01*
X0053405Y0251251D01*
X0053108Y0251317D01*
X0052812Y0251390D01*
X0052519Y0251470D01*
X0052227Y0251558D01*
X0051938Y0251653D01*
X0051651Y0251754D01*
X0051367Y0251863D01*
X0051085Y0251979D01*
X0050807Y0252101D01*
X0050531Y0252230D01*
X0050259Y0252366D01*
X0049990Y0252508D01*
X0049724Y0252657D01*
X0049463Y0252812D01*
X0049205Y0252974D01*
X0048951Y0253141D01*
X0048701Y0253315D01*
X0048456Y0253495D01*
X0048215Y0253681D01*
X0047978Y0253873D01*
X0047747Y0254070D01*
X0047520Y0254273D01*
X0047298Y0254481D01*
X0047082Y0254695D01*
X0046870Y0254914D01*
X0046664Y0255138D01*
X0046464Y0255367D01*
X0046269Y0255601D01*
X0046080Y0255839D01*
X0045897Y0256082D01*
X0045719Y0256329D01*
X0045548Y0256581D01*
X0045383Y0256837D01*
X0045224Y0257096D01*
X0045072Y0257360D01*
X0044926Y0257627D01*
X0044787Y0257897D01*
X0044654Y0258171D01*
X0044528Y0258448D01*
X0044408Y0258728D01*
X0044296Y0259011D01*
X0044190Y0259296D01*
X0044092Y0259584D01*
X0044000Y0259874D01*
X0043916Y0260167D01*
X0043839Y0260461D01*
X0043768Y0260757D01*
X0034359Y0263493D02*
X0034359Y0265304D01*
X0033139Y0264383D01*
X0034359Y0265304D02*
X0034359Y0267115D01*
X0033139Y0266164D02*
X0034298Y0265404D01*
X0019517Y0265831D02*
X0018296Y0264910D01*
X0018296Y0263099D01*
X0019517Y0264050D02*
X0018357Y0264810D01*
X0018296Y0264910D02*
X0018296Y0266721D01*
X0043768Y0266151D02*
X0043834Y0266447D01*
X0043907Y0266743D01*
X0043986Y0267036D01*
X0044073Y0267327D01*
X0044168Y0267616D01*
X0044269Y0267903D01*
X0044377Y0268187D01*
X0044492Y0268469D01*
X0044614Y0268747D01*
X0044742Y0269023D01*
X0044878Y0269295D01*
X0045020Y0269564D01*
X0045168Y0269829D01*
X0045323Y0270091D01*
X0045484Y0270348D01*
X0045651Y0270602D01*
X0045825Y0270852D01*
X0046004Y0271097D01*
X0046190Y0271338D01*
X0046381Y0271574D01*
X0046578Y0271806D01*
X0046781Y0272032D01*
X0046989Y0272254D01*
X0047202Y0272471D01*
X0047421Y0272682D01*
X0047645Y0272888D01*
X0047873Y0273088D01*
X0048107Y0273283D01*
X0048345Y0273472D01*
X0048588Y0273655D01*
X0048835Y0273832D01*
X0049086Y0274003D01*
X0049342Y0274168D01*
X0049601Y0274326D01*
X0049864Y0274479D01*
X0050131Y0274624D01*
X0050401Y0274763D01*
X0050675Y0274896D01*
X0050951Y0275022D01*
X0051231Y0275141D01*
X0051514Y0275253D01*
X0051799Y0275358D01*
X0052087Y0275457D01*
X0052377Y0275548D01*
X0052669Y0275632D01*
X0052963Y0275709D01*
X0053259Y0275779D01*
X0053556Y0275841D01*
X0053855Y0275897D01*
X0054155Y0275945D01*
X0054457Y0275985D01*
X0054759Y0276019D01*
X0055062Y0276045D01*
X0055365Y0276063D01*
X0055669Y0276074D01*
X0055973Y0276078D01*
X0056277Y0276074D01*
X0056581Y0276063D01*
X0056884Y0276045D01*
X0057187Y0276019D01*
X0057489Y0275985D01*
X0057791Y0275945D01*
X0058091Y0275897D01*
X0058390Y0275841D01*
X0058687Y0275779D01*
X0058983Y0275709D01*
X0059277Y0275632D01*
X0059569Y0275548D01*
X0059859Y0275457D01*
X0060147Y0275358D01*
X0060432Y0275253D01*
X0060715Y0275141D01*
X0060995Y0275022D01*
X0061271Y0274896D01*
X0061545Y0274763D01*
X0061815Y0274624D01*
X0062082Y0274479D01*
X0062345Y0274326D01*
X0062604Y0274168D01*
X0062860Y0274003D01*
X0063111Y0273832D01*
X0063358Y0273655D01*
X0063601Y0273472D01*
X0063839Y0273283D01*
X0064073Y0273088D01*
X0064301Y0272888D01*
X0064525Y0272682D01*
X0064744Y0272471D01*
X0064957Y0272254D01*
X0065165Y0272032D01*
X0065368Y0271806D01*
X0065565Y0271574D01*
X0065756Y0271338D01*
X0065942Y0271097D01*
X0066121Y0270852D01*
X0066295Y0270602D01*
X0066462Y0270348D01*
X0066623Y0270091D01*
X0066778Y0269829D01*
X0066926Y0269564D01*
X0067068Y0269295D01*
X0067204Y0269023D01*
X0067332Y0268747D01*
X0067454Y0268469D01*
X0067569Y0268187D01*
X0067677Y0267903D01*
X0067778Y0267616D01*
X0067873Y0267327D01*
X0067960Y0267036D01*
X0068039Y0266743D01*
X0068112Y0266447D01*
X0068178Y0266151D01*
X0210368Y0122115D02*
X0211288Y0120894D01*
X0213099Y0120894D01*
X0212148Y0122115D02*
X0211388Y0120955D01*
X0211288Y0120894D02*
X0209477Y0120894D01*
D13*
X0214087Y0122167D02*
X0214087Y0122918D01*
X0214337Y0123168D01*
X0215338Y0123168D01*
X0215588Y0122918D01*
X0215588Y0122167D01*
X0214087Y0122167D01*
X0214337Y0123641D02*
X0214087Y0123891D01*
X0214087Y0124391D01*
X0214337Y0124641D01*
X0214587Y0124641D01*
X0214838Y0124391D01*
X0215088Y0124641D01*
X0215338Y0124641D01*
X0215588Y0124391D01*
X0215588Y0123891D01*
X0215338Y0123641D01*
X0214838Y0124141D02*
X0214838Y0124391D01*
X0171257Y0123933D02*
X0171257Y0122932D01*
X0170257Y0123933D01*
X0170006Y0123933D01*
X0169756Y0123682D01*
X0169756Y0123182D01*
X0170006Y0122932D01*
X0170006Y0122459D02*
X0169756Y0122209D01*
X0169756Y0121459D01*
X0171257Y0121459D01*
X0171257Y0122209D01*
X0171007Y0122459D01*
X0170006Y0122459D01*
X0119171Y0153378D02*
X0118170Y0153378D01*
X0118670Y0153378D02*
X0118670Y0154879D01*
X0118170Y0154378D01*
X0117697Y0154629D02*
X0117447Y0154879D01*
X0116947Y0154879D01*
X0116696Y0154629D01*
X0116696Y0154378D01*
X0116947Y0154128D01*
X0117447Y0154128D01*
X0117697Y0153878D01*
X0117697Y0153628D01*
X0117447Y0153378D01*
X0116947Y0153378D01*
X0116696Y0153628D01*
X0066176Y0199639D02*
X0066176Y0201141D01*
X0065426Y0200390D01*
X0066426Y0200390D01*
X0064953Y0199890D02*
X0064703Y0199639D01*
X0064202Y0199639D01*
X0063952Y0199890D01*
X0063952Y0200890D01*
X0064202Y0201141D01*
X0064703Y0201141D01*
X0064953Y0200890D01*
X0063470Y0201141D02*
X0062970Y0201141D01*
X0063220Y0201141D02*
X0063220Y0199639D01*
X0062970Y0199639D02*
X0063470Y0199639D01*
X0061352Y0215559D02*
X0060352Y0215559D01*
X0061352Y0216560D01*
X0061352Y0216810D01*
X0061102Y0217060D01*
X0060602Y0217060D01*
X0060352Y0216810D01*
X0059879Y0217060D02*
X0059379Y0216810D01*
X0058878Y0216309D01*
X0059629Y0216309D01*
X0059879Y0216059D01*
X0059879Y0215809D01*
X0059629Y0215559D01*
X0059129Y0215559D01*
X0058878Y0215809D01*
X0058878Y0216309D01*
X0058406Y0216309D02*
X0058156Y0216059D01*
X0057405Y0216059D01*
X0057405Y0215559D02*
X0057405Y0217060D01*
X0058156Y0217060D01*
X0058406Y0216810D01*
X0058406Y0216309D01*
X0057906Y0216059D02*
X0058406Y0215559D01*
X0062995Y0221191D02*
X0063496Y0221191D01*
X0063746Y0221441D01*
X0064218Y0221441D02*
X0064469Y0221191D01*
X0064969Y0221191D01*
X0065219Y0221441D01*
X0065219Y0221691D01*
X0064969Y0221942D01*
X0064719Y0221942D01*
X0064969Y0221942D02*
X0065219Y0222192D01*
X0065219Y0222442D01*
X0064969Y0222692D01*
X0064469Y0222692D01*
X0064218Y0222442D01*
X0063746Y0222442D02*
X0063496Y0222692D01*
X0062995Y0222692D01*
X0062745Y0222442D01*
X0062745Y0221441D01*
X0062995Y0221191D01*
X0065692Y0221441D02*
X0065942Y0221191D01*
X0066442Y0221191D01*
X0066693Y0221441D01*
X0066693Y0222442D01*
X0066442Y0222692D01*
X0065942Y0222692D01*
X0065692Y0222442D01*
X0065692Y0222192D01*
X0065942Y0221942D01*
X0066693Y0221942D01*
X0077366Y0217021D02*
X0077366Y0215519D01*
X0077366Y0216020D02*
X0078116Y0216020D01*
X0078367Y0216270D01*
X0078367Y0216770D01*
X0078116Y0217021D01*
X0077366Y0217021D01*
X0077866Y0216020D02*
X0078367Y0215519D01*
X0078839Y0215770D02*
X0079089Y0215519D01*
X0079590Y0215519D01*
X0079840Y0215770D01*
X0079840Y0216020D01*
X0079590Y0216270D01*
X0078839Y0216270D01*
X0078839Y0215770D01*
X0078839Y0216270D02*
X0079339Y0216770D01*
X0079840Y0217021D01*
X0080312Y0216270D02*
X0080813Y0216770D01*
X0081313Y0217021D01*
X0081063Y0216270D02*
X0080312Y0216270D01*
X0080312Y0215770D01*
X0080562Y0215519D01*
X0081063Y0215519D01*
X0081313Y0215770D01*
X0081313Y0216020D01*
X0081063Y0216270D01*
X0066442Y0235049D02*
X0065942Y0235049D01*
X0065692Y0235299D01*
X0065692Y0235550D01*
X0065942Y0235800D01*
X0066442Y0235800D01*
X0066693Y0235550D01*
X0066693Y0235299D01*
X0066442Y0235049D01*
X0066442Y0235800D02*
X0066693Y0236050D01*
X0066693Y0236300D01*
X0066442Y0236550D01*
X0065942Y0236550D01*
X0065692Y0236300D01*
X0065692Y0236050D01*
X0065942Y0235800D01*
X0065219Y0236050D02*
X0064969Y0235800D01*
X0065219Y0235550D01*
X0065219Y0235299D01*
X0064969Y0235049D01*
X0064469Y0235049D01*
X0064218Y0235299D01*
X0063746Y0235299D02*
X0063496Y0235049D01*
X0062995Y0235049D01*
X0062745Y0235299D01*
X0062745Y0236300D01*
X0062995Y0236550D01*
X0063496Y0236550D01*
X0063746Y0236300D01*
X0064218Y0236300D02*
X0064469Y0236550D01*
X0064969Y0236550D01*
X0065219Y0236300D01*
X0065219Y0236050D01*
X0064969Y0235800D02*
X0064719Y0235800D01*
X0080078Y0256069D02*
X0080579Y0256069D01*
X0080829Y0256319D01*
X0081301Y0256820D02*
X0082052Y0257570D01*
X0082052Y0256069D01*
X0082774Y0256319D02*
X0083775Y0257320D01*
X0083775Y0256319D01*
X0083525Y0256069D01*
X0083025Y0256069D01*
X0082774Y0256319D01*
X0082774Y0257320D01*
X0083025Y0257570D01*
X0083525Y0257570D01*
X0083775Y0257320D01*
X0082302Y0256820D02*
X0081301Y0256820D01*
X0080829Y0257320D02*
X0080579Y0257570D01*
X0080078Y0257570D01*
X0079828Y0257320D01*
X0079828Y0256319D01*
X0080078Y0256069D01*
X0079867Y0268313D02*
X0079867Y0269814D01*
X0080618Y0269814D01*
X0080868Y0269564D01*
X0080868Y0269064D01*
X0080618Y0268813D01*
X0079867Y0268813D01*
X0080368Y0268813D02*
X0080868Y0268313D01*
X0081340Y0268563D02*
X0081340Y0269064D01*
X0082091Y0269064D01*
X0082341Y0268813D01*
X0082341Y0268563D01*
X0082091Y0268313D01*
X0081591Y0268313D01*
X0081340Y0268563D01*
X0081340Y0269064D02*
X0081841Y0269564D01*
X0082341Y0269814D01*
X0082814Y0269814D02*
X0082814Y0269064D01*
X0083314Y0269314D01*
X0083564Y0269314D01*
X0083815Y0269064D01*
X0083815Y0268563D01*
X0083564Y0268313D01*
X0083064Y0268313D01*
X0082814Y0268563D01*
X0082814Y0269814D02*
X0083815Y0269814D01*
X0047372Y0277533D02*
X0047372Y0278534D01*
X0047122Y0278784D01*
X0046622Y0278784D01*
X0046371Y0278534D01*
X0046371Y0278284D01*
X0046622Y0278034D01*
X0047372Y0278034D01*
X0047372Y0277533D02*
X0047122Y0277283D01*
X0046622Y0277283D01*
X0046371Y0277533D01*
X0045899Y0277283D02*
X0044898Y0277283D01*
X0045899Y0278284D01*
X0045899Y0278534D01*
X0045649Y0278784D01*
X0045148Y0278784D01*
X0044898Y0278534D01*
X0044426Y0278534D02*
X0044175Y0278784D01*
X0043675Y0278784D01*
X0043425Y0278534D01*
X0043425Y0277533D01*
X0043675Y0277283D01*
X0044175Y0277283D01*
X0044426Y0277533D01*
X0032714Y0269605D02*
X0031713Y0269605D01*
X0031713Y0268855D01*
X0032213Y0269105D01*
X0032464Y0269105D01*
X0032714Y0268855D01*
X0032714Y0268354D01*
X0032464Y0268104D01*
X0031963Y0268104D01*
X0031713Y0268354D01*
X0031241Y0268354D02*
X0031241Y0269355D01*
X0030990Y0269605D01*
X0030240Y0269605D01*
X0030240Y0268104D01*
X0030990Y0268104D01*
X0031241Y0268354D01*
X0030400Y0260603D02*
X0030650Y0260353D01*
X0030650Y0259853D01*
X0030400Y0259602D01*
X0029649Y0259602D01*
X0029649Y0259102D02*
X0029649Y0260603D01*
X0030400Y0260603D01*
X0030150Y0259602D02*
X0030650Y0259102D01*
X0031122Y0259352D02*
X0031373Y0259102D01*
X0031873Y0259102D01*
X0032123Y0259352D01*
X0032123Y0259602D01*
X0031873Y0259853D01*
X0031122Y0259853D01*
X0031122Y0259352D01*
X0031122Y0259853D02*
X0031623Y0260353D01*
X0032123Y0260603D01*
X0032596Y0259853D02*
X0033346Y0260603D01*
X0033346Y0259102D01*
X0033597Y0259853D02*
X0032596Y0259853D01*
X0022043Y0260860D02*
X0022043Y0261111D01*
X0021793Y0261361D01*
X0021042Y0261361D01*
X0021042Y0260860D01*
X0021292Y0260610D01*
X0021793Y0260610D01*
X0022043Y0260860D01*
X0021543Y0261861D02*
X0021042Y0261361D01*
X0020570Y0261861D02*
X0020319Y0262112D01*
X0019569Y0262112D01*
X0019569Y0260610D01*
X0020319Y0260610D01*
X0020570Y0260860D01*
X0020570Y0261861D01*
X0021543Y0261861D02*
X0022043Y0262112D01*
X0022186Y0253082D02*
X0022437Y0252832D01*
X0022437Y0252582D01*
X0022186Y0252331D01*
X0022437Y0252081D01*
X0022437Y0251831D01*
X0022186Y0251581D01*
X0021686Y0251581D01*
X0021436Y0251831D01*
X0020963Y0251831D02*
X0020963Y0252081D01*
X0020713Y0252331D01*
X0019963Y0252331D01*
X0019963Y0251831D01*
X0020213Y0251581D01*
X0020713Y0251581D01*
X0020963Y0251831D01*
X0021936Y0252331D02*
X0022186Y0252331D01*
X0022186Y0253082D02*
X0021686Y0253082D01*
X0021436Y0252832D01*
X0020963Y0253082D02*
X0020463Y0252832D01*
X0019963Y0252331D01*
X0019490Y0252331D02*
X0019240Y0252081D01*
X0018489Y0252081D01*
X0018489Y0251581D02*
X0018489Y0253082D01*
X0019240Y0253082D01*
X0019490Y0252832D01*
X0019490Y0252331D01*
X0018990Y0252081D02*
X0019490Y0251581D01*
X0128624Y0206491D02*
X0129375Y0206491D01*
X0129625Y0206241D01*
X0129625Y0205240D01*
X0129375Y0204990D01*
X0128624Y0204990D01*
X0128624Y0206491D01*
X0130097Y0205991D02*
X0130598Y0206491D01*
X0130598Y0204990D01*
X0131098Y0204990D02*
X0130097Y0204990D01*
X0254256Y0223551D02*
X0254256Y0225052D01*
X0255006Y0225052D01*
X0255256Y0224802D01*
X0255256Y0224301D01*
X0255006Y0224051D01*
X0254256Y0224051D01*
X0254756Y0224051D02*
X0255256Y0223551D01*
X0255729Y0223551D02*
X0256730Y0224552D01*
X0256730Y0224802D01*
X0256479Y0225052D01*
X0255979Y0225052D01*
X0255729Y0224802D01*
X0255729Y0223551D02*
X0256730Y0223551D01*
X0257202Y0223801D02*
X0258203Y0224802D01*
X0258203Y0223801D01*
X0257953Y0223551D01*
X0257452Y0223551D01*
X0257202Y0223801D01*
X0257202Y0224802D01*
X0257452Y0225052D01*
X0257953Y0225052D01*
X0258203Y0224802D01*
X0257756Y0236504D02*
X0257255Y0236504D01*
X0257005Y0236754D01*
X0256533Y0236754D02*
X0256283Y0236504D01*
X0255782Y0236504D01*
X0255532Y0236754D01*
X0255060Y0236504D02*
X0254559Y0237004D01*
X0254809Y0237004D02*
X0254059Y0237004D01*
X0254059Y0236504D02*
X0254059Y0238005D01*
X0254809Y0238005D01*
X0255060Y0237755D01*
X0255060Y0237254D01*
X0254809Y0237004D01*
X0255532Y0237755D02*
X0255782Y0238005D01*
X0256283Y0238005D01*
X0256533Y0237755D01*
X0256533Y0237504D01*
X0256283Y0237254D01*
X0256533Y0237004D01*
X0256533Y0236754D01*
X0256283Y0237254D02*
X0256032Y0237254D01*
X0257005Y0237254D02*
X0257506Y0237504D01*
X0257756Y0237504D01*
X0258006Y0237254D01*
X0258006Y0236754D01*
X0257756Y0236504D01*
X0257005Y0237254D02*
X0257005Y0238005D01*
X0258006Y0238005D01*
X0257953Y0248708D02*
X0257953Y0250210D01*
X0257202Y0249459D01*
X0258203Y0249459D01*
X0256730Y0249709D02*
X0256479Y0249459D01*
X0256730Y0249209D01*
X0256730Y0248958D01*
X0256479Y0248708D01*
X0255979Y0248708D01*
X0255729Y0248958D01*
X0255256Y0248708D02*
X0254756Y0249209D01*
X0255006Y0249209D02*
X0254256Y0249209D01*
X0254256Y0248708D02*
X0254256Y0250210D01*
X0255006Y0250210D01*
X0255256Y0249959D01*
X0255256Y0249459D01*
X0255006Y0249209D01*
X0255729Y0249959D02*
X0255979Y0250210D01*
X0256479Y0250210D01*
X0256730Y0249959D01*
X0256730Y0249709D01*
X0256479Y0249459D02*
X0256229Y0249459D01*
X0256639Y0254100D02*
X0256639Y0255602D01*
X0257390Y0255602D01*
X0257640Y0255351D01*
X0257640Y0254851D01*
X0257390Y0254601D01*
X0256639Y0254601D01*
X0257139Y0254601D02*
X0257640Y0254100D01*
X0258112Y0254351D02*
X0258362Y0254100D01*
X0258863Y0254100D01*
X0259113Y0254351D01*
X0259113Y0254601D01*
X0258863Y0254851D01*
X0258613Y0254851D01*
X0258863Y0254851D02*
X0259113Y0255101D01*
X0259113Y0255351D01*
X0258863Y0255602D01*
X0258362Y0255602D01*
X0258112Y0255351D01*
X0259585Y0255351D02*
X0259836Y0255602D01*
X0260336Y0255602D01*
X0260586Y0255351D01*
X0260586Y0255101D01*
X0260336Y0254851D01*
X0260586Y0254601D01*
X0260586Y0254351D01*
X0260336Y0254100D01*
X0259836Y0254100D01*
X0259585Y0254351D01*
X0260086Y0254851D02*
X0260336Y0254851D01*
X0276775Y0237296D02*
X0277526Y0237296D01*
X0277776Y0237046D01*
X0277776Y0236546D01*
X0277526Y0236295D01*
X0276775Y0236295D01*
X0276775Y0235795D02*
X0276775Y0237296D01*
X0277276Y0236295D02*
X0277776Y0235795D01*
X0278248Y0235795D02*
X0279249Y0235795D01*
X0278749Y0235795D02*
X0278749Y0237296D01*
X0278248Y0236796D01*
X0279722Y0236546D02*
X0280472Y0236546D01*
X0280723Y0236295D01*
X0280723Y0236045D01*
X0280472Y0235795D01*
X0279972Y0235795D01*
X0279722Y0236045D01*
X0279722Y0236546D01*
X0280222Y0237046D01*
X0280723Y0237296D01*
X0295400Y0246757D02*
X0295400Y0247508D01*
X0295650Y0247758D01*
X0296151Y0247758D01*
X0296401Y0247508D01*
X0296401Y0246757D01*
X0296901Y0246757D02*
X0295400Y0246757D01*
X0296401Y0247257D02*
X0296901Y0247758D01*
X0296651Y0248230D02*
X0296901Y0248480D01*
X0296901Y0248981D01*
X0296651Y0249231D01*
X0296401Y0249231D01*
X0296151Y0248981D01*
X0296151Y0248731D01*
X0296151Y0248981D02*
X0295900Y0249231D01*
X0295650Y0249231D01*
X0295400Y0248981D01*
X0295400Y0248480D01*
X0295650Y0248230D01*
X0295650Y0249704D02*
X0295400Y0249954D01*
X0295400Y0250454D01*
X0295650Y0250704D01*
X0295900Y0250704D01*
X0296901Y0249704D01*
X0296901Y0250704D01*
X0305633Y0245485D02*
X0306384Y0245485D01*
X0306634Y0245235D01*
X0306634Y0244734D01*
X0306384Y0244484D01*
X0305633Y0244484D01*
X0305633Y0243984D02*
X0305633Y0245485D01*
X0306134Y0244484D02*
X0306634Y0243984D01*
X0307107Y0243984D02*
X0308108Y0244985D01*
X0308108Y0245235D01*
X0307857Y0245485D01*
X0307357Y0245485D01*
X0307107Y0245235D01*
X0307107Y0243984D02*
X0308108Y0243984D01*
X0308580Y0244234D02*
X0308830Y0243984D01*
X0309331Y0243984D01*
X0309581Y0244234D01*
X0309581Y0245235D01*
X0309331Y0245485D01*
X0308830Y0245485D01*
X0308580Y0245235D01*
X0308580Y0244985D01*
X0308830Y0244734D01*
X0309581Y0244734D01*
X0309134Y0256976D02*
X0308633Y0256976D01*
X0308383Y0257226D01*
X0309384Y0258227D01*
X0309384Y0257226D01*
X0309134Y0256976D01*
X0308383Y0257226D02*
X0308383Y0258227D01*
X0308633Y0258477D01*
X0309134Y0258477D01*
X0309384Y0258227D01*
X0307911Y0258227D02*
X0307911Y0257977D01*
X0307661Y0257727D01*
X0307911Y0257476D01*
X0307911Y0257226D01*
X0307661Y0256976D01*
X0307160Y0256976D01*
X0306910Y0257226D01*
X0306437Y0256976D02*
X0305937Y0257476D01*
X0306187Y0257476D02*
X0305437Y0257476D01*
X0305437Y0256976D02*
X0305437Y0258477D01*
X0306187Y0258477D01*
X0306437Y0258227D01*
X0306437Y0257727D01*
X0306187Y0257476D01*
X0306910Y0258227D02*
X0307160Y0258477D01*
X0307661Y0258477D01*
X0307911Y0258227D01*
X0307661Y0257727D02*
X0307410Y0257727D01*
X0289301Y0260712D02*
X0287800Y0260712D01*
X0287800Y0261463D01*
X0288050Y0261713D01*
X0288551Y0261713D01*
X0288801Y0261463D01*
X0288801Y0260712D01*
X0288801Y0261213D02*
X0289301Y0261713D01*
X0289051Y0262185D02*
X0289301Y0262436D01*
X0289301Y0262936D01*
X0289051Y0263186D01*
X0288801Y0263186D01*
X0288551Y0262936D01*
X0288551Y0262686D01*
X0288551Y0262936D02*
X0288300Y0263186D01*
X0288050Y0263186D01*
X0287800Y0262936D01*
X0287800Y0262436D01*
X0288050Y0262185D01*
X0288551Y0263659D02*
X0288551Y0264409D01*
X0288801Y0264660D01*
X0289051Y0264660D01*
X0289301Y0264409D01*
X0289301Y0263909D01*
X0289051Y0263659D01*
X0288551Y0263659D01*
X0288050Y0264159D01*
X0287800Y0264660D01*
X0332011Y0241587D02*
X0332762Y0241587D01*
X0333012Y0241337D01*
X0333012Y0240837D01*
X0332762Y0240587D01*
X0332011Y0240587D01*
X0332011Y0240086D02*
X0332011Y0241587D01*
X0332512Y0240587D02*
X0333012Y0240086D01*
X0333485Y0240086D02*
X0334486Y0241087D01*
X0334486Y0241337D01*
X0334235Y0241587D01*
X0333735Y0241587D01*
X0333485Y0241337D01*
X0333485Y0240086D02*
X0334486Y0240086D01*
X0334958Y0240336D02*
X0335208Y0240086D01*
X0335709Y0240086D01*
X0335959Y0240336D01*
X0335959Y0240837D01*
X0335709Y0241087D01*
X0335458Y0241087D01*
X0334958Y0240837D01*
X0334958Y0241587D01*
X0335959Y0241587D01*
X0350712Y0229383D02*
X0351463Y0229383D01*
X0351713Y0229133D01*
X0351713Y0228632D01*
X0351463Y0228382D01*
X0350712Y0228382D01*
X0350712Y0227881D02*
X0350712Y0229383D01*
X0351213Y0228382D02*
X0351713Y0227881D01*
X0352185Y0227881D02*
X0353186Y0228882D01*
X0353186Y0229133D01*
X0352936Y0229383D01*
X0352436Y0229383D01*
X0352185Y0229133D01*
X0352185Y0227881D02*
X0353186Y0227881D01*
X0353659Y0228632D02*
X0354660Y0228632D01*
X0354409Y0227881D02*
X0354409Y0229383D01*
X0353659Y0228632D01*
X0338145Y0221743D02*
X0338145Y0221493D01*
X0337144Y0220492D01*
X0337144Y0220242D01*
X0336672Y0220242D02*
X0335671Y0220242D01*
X0336672Y0221243D01*
X0336672Y0221493D01*
X0336422Y0221743D01*
X0335921Y0221743D01*
X0335671Y0221493D01*
X0335199Y0221493D02*
X0335199Y0220993D01*
X0334949Y0220743D01*
X0334198Y0220743D01*
X0334698Y0220743D02*
X0335199Y0220242D01*
X0334198Y0220242D02*
X0334198Y0221743D01*
X0334949Y0221743D01*
X0335199Y0221493D01*
X0337144Y0221743D02*
X0338145Y0221743D01*
X0338342Y0209184D02*
X0337842Y0208934D01*
X0337341Y0208434D01*
X0338092Y0208434D01*
X0338342Y0208183D01*
X0338342Y0207933D01*
X0338092Y0207683D01*
X0337592Y0207683D01*
X0337341Y0207933D01*
X0337341Y0208434D01*
X0336869Y0208684D02*
X0336869Y0208934D01*
X0336619Y0209184D01*
X0336118Y0209184D01*
X0335868Y0208934D01*
X0335396Y0208934D02*
X0335396Y0208434D01*
X0335145Y0208183D01*
X0334395Y0208183D01*
X0334395Y0207683D02*
X0334395Y0209184D01*
X0335145Y0209184D01*
X0335396Y0208934D01*
X0334895Y0208183D02*
X0335396Y0207683D01*
X0335868Y0207683D02*
X0336869Y0208684D01*
X0336869Y0207683D02*
X0335868Y0207683D01*
X0357602Y0177729D02*
X0358353Y0177729D01*
X0358603Y0177479D01*
X0358603Y0176979D01*
X0358353Y0176728D01*
X0357602Y0176728D01*
X0357602Y0176228D02*
X0357602Y0177729D01*
X0358102Y0176728D02*
X0358603Y0176228D01*
X0359075Y0176478D02*
X0359325Y0176228D01*
X0359826Y0176228D01*
X0360076Y0176478D01*
X0360076Y0176728D01*
X0359826Y0176979D01*
X0359576Y0176979D01*
X0359826Y0176979D02*
X0360076Y0177229D01*
X0360076Y0177479D01*
X0359826Y0177729D01*
X0359325Y0177729D01*
X0359075Y0177479D01*
X0360548Y0177729D02*
X0361549Y0177729D01*
X0361549Y0177479D01*
X0360548Y0176478D01*
X0360548Y0176228D01*
X0310655Y0149816D02*
X0310655Y0148315D01*
X0310155Y0148315D02*
X0311156Y0148315D01*
X0310155Y0149315D02*
X0310655Y0149816D01*
X0309682Y0149566D02*
X0309682Y0149315D01*
X0309432Y0149065D01*
X0309682Y0148815D01*
X0309682Y0148565D01*
X0309432Y0148315D01*
X0308932Y0148315D01*
X0308682Y0148565D01*
X0308209Y0148315D02*
X0307709Y0148815D01*
X0307959Y0148815D02*
X0307208Y0148815D01*
X0307208Y0148315D02*
X0307208Y0149816D01*
X0307959Y0149816D01*
X0308209Y0149566D01*
X0308209Y0149065D01*
X0307959Y0148815D01*
X0308682Y0149566D02*
X0308932Y0149816D01*
X0309432Y0149816D01*
X0309682Y0149566D01*
X0309432Y0149065D02*
X0309182Y0149065D01*
X0309235Y0136036D02*
X0308735Y0136036D01*
X0308485Y0135786D01*
X0308012Y0135786D02*
X0308012Y0135286D01*
X0307762Y0135035D01*
X0307011Y0135035D01*
X0307011Y0134535D02*
X0307011Y0136036D01*
X0307762Y0136036D01*
X0308012Y0135786D01*
X0307512Y0135035D02*
X0308012Y0134535D01*
X0308485Y0134535D02*
X0309486Y0135536D01*
X0309486Y0135786D01*
X0309235Y0136036D01*
X0309958Y0135786D02*
X0309958Y0135536D01*
X0310208Y0135286D01*
X0310709Y0135286D01*
X0310959Y0135035D01*
X0310959Y0134785D01*
X0310709Y0134535D01*
X0310208Y0134535D01*
X0309958Y0134785D01*
X0309958Y0135035D01*
X0310208Y0135286D01*
X0310709Y0135286D02*
X0310959Y0135536D01*
X0310959Y0135786D01*
X0310709Y0136036D01*
X0310208Y0136036D01*
X0309958Y0135786D01*
X0309486Y0134535D02*
X0308485Y0134535D01*
X0333922Y0122334D02*
X0334673Y0122334D01*
X0334923Y0122084D01*
X0334923Y0121583D01*
X0334673Y0121333D01*
X0333922Y0121333D01*
X0333922Y0120833D02*
X0333922Y0122334D01*
X0334423Y0121333D02*
X0334923Y0120833D01*
X0335396Y0121583D02*
X0336396Y0121583D01*
X0336869Y0121834D02*
X0337119Y0121583D01*
X0337870Y0121583D01*
X0337870Y0121083D02*
X0337870Y0122084D01*
X0337620Y0122334D01*
X0337119Y0122334D01*
X0336869Y0122084D01*
X0336869Y0121834D01*
X0336869Y0121083D02*
X0337119Y0120833D01*
X0337620Y0120833D01*
X0337870Y0121083D01*
X0336146Y0120833D02*
X0336146Y0122334D01*
X0335396Y0121583D01*
X0257809Y0160165D02*
X0256808Y0160165D01*
X0257809Y0161166D01*
X0257809Y0161416D01*
X0257559Y0161666D01*
X0257059Y0161666D01*
X0256808Y0161416D01*
X0256336Y0161416D02*
X0256086Y0161666D01*
X0255585Y0161666D01*
X0255335Y0161416D01*
X0254863Y0161416D02*
X0254863Y0160916D01*
X0254612Y0160665D01*
X0253862Y0160665D01*
X0253862Y0160165D02*
X0253862Y0161666D01*
X0254612Y0161666D01*
X0254863Y0161416D01*
X0254362Y0160665D02*
X0254863Y0160165D01*
X0255335Y0160165D02*
X0256336Y0161166D01*
X0256336Y0161416D01*
X0256336Y0160165D02*
X0255335Y0160165D01*
X0255532Y0173551D02*
X0256533Y0174552D01*
X0256533Y0174802D01*
X0256283Y0175052D01*
X0255782Y0175052D01*
X0255532Y0174802D01*
X0255060Y0174802D02*
X0255060Y0174301D01*
X0254809Y0174051D01*
X0254059Y0174051D01*
X0254559Y0174051D02*
X0255060Y0173551D01*
X0255532Y0173551D02*
X0256533Y0173551D01*
X0257005Y0173551D02*
X0258006Y0173551D01*
X0257506Y0173551D02*
X0257506Y0175052D01*
X0257005Y0174552D01*
X0255060Y0174802D02*
X0254809Y0175052D01*
X0254059Y0175052D01*
X0254059Y0173551D01*
X0256639Y0203746D02*
X0256639Y0205247D01*
X0257390Y0205247D01*
X0257640Y0204997D01*
X0257640Y0204497D01*
X0257390Y0204246D01*
X0256639Y0204246D01*
X0257139Y0204246D02*
X0257640Y0203746D01*
X0258112Y0203746D02*
X0259113Y0203746D01*
X0258613Y0203746D02*
X0258613Y0205247D01*
X0258112Y0204747D01*
X0259585Y0204747D02*
X0259836Y0204497D01*
X0260586Y0204497D01*
X0260586Y0204997D02*
X0260586Y0203996D01*
X0260336Y0203746D01*
X0259836Y0203746D01*
X0259585Y0203996D01*
X0259585Y0204747D02*
X0259585Y0204997D01*
X0259836Y0205247D01*
X0260336Y0205247D01*
X0260586Y0204997D01*
X0278686Y0214770D02*
X0278686Y0216271D01*
X0279437Y0216271D01*
X0279687Y0216021D01*
X0279687Y0215520D01*
X0279437Y0215270D01*
X0278686Y0215270D01*
X0279187Y0215270D02*
X0279687Y0214770D01*
X0280159Y0214770D02*
X0281160Y0214770D01*
X0281633Y0214770D02*
X0281633Y0215020D01*
X0282633Y0216021D01*
X0282633Y0216271D01*
X0281633Y0216271D01*
X0280660Y0216271D02*
X0280660Y0214770D01*
X0280159Y0215771D02*
X0280660Y0216271D01*
X0332405Y0268826D02*
X0332405Y0270328D01*
X0333156Y0270328D01*
X0333406Y0270077D01*
X0333406Y0269577D01*
X0333156Y0269327D01*
X0332405Y0269327D01*
X0332906Y0269327D02*
X0333406Y0268826D01*
X0333878Y0268826D02*
X0334879Y0269827D01*
X0334879Y0270077D01*
X0334629Y0270328D01*
X0334129Y0270328D01*
X0333878Y0270077D01*
X0333878Y0268826D02*
X0334879Y0268826D01*
X0335352Y0269077D02*
X0335602Y0268826D01*
X0336102Y0268826D01*
X0336352Y0269077D01*
X0336352Y0269327D01*
X0336102Y0269577D01*
X0335852Y0269577D01*
X0336102Y0269577D02*
X0336352Y0269827D01*
X0336352Y0270077D01*
X0336102Y0270328D01*
X0335602Y0270328D01*
X0335352Y0270077D01*
X0349925Y0269720D02*
X0350675Y0269720D01*
X0350926Y0269971D01*
X0350926Y0270471D01*
X0350675Y0270721D01*
X0349925Y0270721D01*
X0349925Y0269220D01*
X0350425Y0269720D02*
X0350926Y0269220D01*
X0351398Y0269220D02*
X0352399Y0269220D01*
X0351898Y0269220D02*
X0351898Y0270721D01*
X0351398Y0270221D01*
X0352871Y0270221D02*
X0352871Y0270471D01*
X0353122Y0270721D01*
X0353622Y0270721D01*
X0353872Y0270471D01*
X0353872Y0270221D01*
X0353622Y0269971D01*
X0353122Y0269971D01*
X0352871Y0270221D01*
X0353122Y0269971D02*
X0352871Y0269720D01*
X0352871Y0269470D01*
X0353122Y0269220D01*
X0353622Y0269220D01*
X0353872Y0269470D01*
X0353872Y0269720D01*
X0353622Y0269971D01*
X0274131Y0048815D02*
X0274381Y0048564D01*
X0274381Y0048064D01*
X0274131Y0047814D01*
X0273631Y0047341D02*
X0273631Y0046340D01*
X0272880Y0047091D01*
X0274381Y0047091D01*
X0274381Y0045868D02*
X0273881Y0045368D01*
X0273881Y0045618D02*
X0273881Y0044867D01*
X0274381Y0044867D02*
X0272880Y0044867D01*
X0272880Y0045618D01*
X0273130Y0045868D01*
X0273631Y0045868D01*
X0273881Y0045618D01*
X0273130Y0047814D02*
X0272880Y0048064D01*
X0272880Y0048564D01*
X0273130Y0048815D01*
X0273381Y0048815D01*
X0273631Y0048564D01*
X0273881Y0048815D01*
X0274131Y0048815D01*
X0273631Y0048564D02*
X0273631Y0048314D01*
X0264539Y0048103D02*
X0264289Y0047853D01*
X0264539Y0048103D02*
X0264539Y0048604D01*
X0264289Y0048854D01*
X0263788Y0048854D01*
X0263538Y0048604D01*
X0263538Y0048354D01*
X0263788Y0047853D01*
X0263038Y0047853D01*
X0263038Y0048854D01*
X0263038Y0046880D02*
X0264539Y0046880D01*
X0264539Y0046380D02*
X0264539Y0047381D01*
X0263538Y0046380D02*
X0263038Y0046880D01*
X0263288Y0045907D02*
X0263788Y0045907D01*
X0264039Y0045657D01*
X0264039Y0044907D01*
X0264539Y0044907D02*
X0263038Y0044907D01*
X0263038Y0045657D01*
X0263288Y0045907D01*
X0264039Y0045407D02*
X0264539Y0045907D01*
X0255287Y0046104D02*
X0254787Y0045604D01*
X0254787Y0045854D02*
X0254787Y0045103D01*
X0255287Y0045103D02*
X0253786Y0045103D01*
X0253786Y0045854D01*
X0254036Y0046104D01*
X0254536Y0046104D01*
X0254787Y0045854D01*
X0255287Y0046577D02*
X0255287Y0047578D01*
X0255287Y0047077D02*
X0253786Y0047077D01*
X0254286Y0046577D01*
X0254536Y0048050D02*
X0254536Y0049051D01*
X0253786Y0048801D02*
X0254536Y0048050D01*
X0253786Y0048801D02*
X0255287Y0048801D01*
X0245444Y0049248D02*
X0245444Y0048247D01*
X0244444Y0049248D01*
X0244193Y0049248D01*
X0243943Y0048997D01*
X0243943Y0048497D01*
X0244193Y0048247D01*
X0244694Y0047774D02*
X0244694Y0046774D01*
X0243943Y0047524D01*
X0245444Y0047524D01*
X0245444Y0046301D02*
X0244944Y0045801D01*
X0244944Y0046051D02*
X0244944Y0045300D01*
X0245444Y0045300D02*
X0243943Y0045300D01*
X0243943Y0046051D01*
X0244193Y0046301D01*
X0244694Y0046301D01*
X0244944Y0046051D01*
X0233014Y0009560D02*
X0233014Y0008559D01*
X0233014Y0009060D02*
X0231512Y0009060D01*
X0232013Y0008559D01*
X0231512Y0008087D02*
X0232764Y0008087D01*
X0233014Y0007837D01*
X0233014Y0007336D01*
X0232764Y0007086D01*
X0231512Y0007086D01*
X0174446Y0026567D02*
X0173445Y0026567D01*
X0174446Y0027567D01*
X0174446Y0027818D01*
X0174196Y0028068D01*
X0173696Y0028068D01*
X0173445Y0027818D01*
X0172973Y0027818D02*
X0172723Y0028068D01*
X0172222Y0028068D01*
X0171972Y0027818D01*
X0171972Y0027567D01*
X0172222Y0027317D01*
X0172723Y0027317D01*
X0172973Y0027067D01*
X0172973Y0026817D01*
X0172723Y0026567D01*
X0172222Y0026567D01*
X0171972Y0026817D01*
D14*
X0146170Y0039320D02*
X0146170Y0057824D01*
X0134359Y0057824D01*
X0134359Y0039320D01*
X0146170Y0039320D01*
X0131670Y0038788D02*
X0120670Y0038788D01*
X0120670Y0043788D01*
X0131670Y0043788D01*
X0131670Y0038788D01*
X0132300Y0052646D02*
X0121300Y0052646D01*
X0121300Y0057646D01*
X0132300Y0057646D01*
X0132300Y0052646D01*
X0132615Y0067213D02*
X0121615Y0067213D01*
X0121615Y0072213D01*
X0132615Y0072213D01*
X0132615Y0067213D01*
X0136957Y0067194D02*
X0136957Y0080580D01*
X0144044Y0080580D01*
X0144044Y0067194D01*
X0136957Y0067194D01*
X0132536Y0076662D02*
X0121536Y0076662D01*
X0121536Y0081662D01*
X0132536Y0081662D01*
X0132536Y0076662D01*
X0084792Y0091288D02*
X0084792Y0042469D01*
X0036367Y0042469D01*
X0036367Y0091288D01*
X0084792Y0091288D01*
X0072981Y0106406D02*
X0050934Y0106406D01*
X0050934Y0116643D01*
X0072981Y0116643D01*
X0072981Y0106406D01*
X0052430Y0110343D02*
X0052432Y0110361D01*
X0052438Y0110377D01*
X0052447Y0110392D01*
X0052460Y0110405D01*
X0052475Y0110414D01*
X0052491Y0110420D01*
X0052509Y0110422D01*
X0052527Y0110420D01*
X0052543Y0110414D01*
X0052558Y0110405D01*
X0052571Y0110392D01*
X0052580Y0110377D01*
X0052586Y0110361D01*
X0052588Y0110343D01*
X0052586Y0110325D01*
X0052580Y0110309D01*
X0052571Y0110294D01*
X0052558Y0110281D01*
X0052543Y0110272D01*
X0052527Y0110266D01*
X0052509Y0110264D01*
X0052491Y0110266D01*
X0052475Y0110272D01*
X0052460Y0110281D01*
X0052447Y0110294D01*
X0052438Y0110309D01*
X0052432Y0110325D01*
X0052430Y0110343D01*
X0028139Y0136800D02*
X0015934Y0136800D01*
X0015934Y0139950D01*
X0015934Y0145855D02*
X0015934Y0149005D01*
X0028139Y0149005D01*
X0028139Y0148808D01*
X0028139Y0144083D02*
X0028139Y0141721D01*
X0028139Y0136997D02*
X0028139Y0136800D01*
X0038926Y0188769D02*
X0010580Y0188769D01*
X0010580Y0202548D01*
X0038926Y0202548D01*
X0038926Y0188769D01*
X0032036Y0222981D02*
X0012745Y0222981D01*
X0012745Y0238335D01*
X0032036Y0238335D01*
X0032036Y0222981D01*
X0055615Y0224178D02*
X0055615Y0232178D01*
X0055615Y0238036D02*
X0055615Y0246036D01*
X0146249Y0272824D02*
X0146249Y0211800D01*
X0167509Y0211800D01*
X0167509Y0197233D01*
X0175383Y0197233D01*
X0175383Y0176761D01*
X0155698Y0168493D01*
X0167509Y0211800D02*
X0230501Y0211800D01*
X0251367Y0211800D01*
X0251367Y0272824D01*
X0146249Y0272824D01*
X0230501Y0211800D02*
X0230501Y0197233D01*
X0222627Y0197233D01*
X0222627Y0176761D01*
X0242312Y0168493D01*
X0251733Y0145402D02*
X0251733Y0140402D01*
X0262733Y0140402D01*
X0262733Y0145402D01*
X0251733Y0145402D01*
X0240776Y0128926D02*
X0237627Y0128926D01*
X0240776Y0128926D02*
X0240776Y0116721D01*
X0240580Y0116721D01*
X0235855Y0116721D02*
X0233493Y0116721D01*
X0228769Y0116721D02*
X0228572Y0116721D01*
X0228572Y0128926D01*
X0231721Y0128926D01*
X0259375Y0128123D02*
X0259375Y0116123D01*
X0271375Y0116123D01*
X0271375Y0128123D01*
X0259375Y0128123D01*
X0288513Y0126749D02*
X0288513Y0115749D01*
X0293513Y0115749D01*
X0293513Y0126749D01*
X0288513Y0126749D01*
X0326379Y0142843D02*
X0326379Y0147843D01*
X0337379Y0147843D01*
X0337379Y0142843D01*
X0326379Y0142843D01*
X0356564Y0141131D02*
X0356564Y0137981D01*
X0368769Y0137981D01*
X0368769Y0138178D01*
X0368769Y0142902D02*
X0368769Y0145265D01*
X0368769Y0149989D02*
X0368769Y0150186D01*
X0356564Y0150186D01*
X0356564Y0147036D01*
X0346209Y0171643D02*
X0326524Y0171643D01*
X0326524Y0188965D01*
X0344709Y0188965D01*
X0346209Y0187465D01*
X0346209Y0171643D01*
X0362135Y0187087D02*
X0362135Y0198087D01*
X0367135Y0198087D01*
X0367135Y0187087D01*
X0362135Y0187087D01*
X0354536Y0233544D02*
X0349536Y0233544D01*
X0349536Y0244544D01*
X0354536Y0244544D01*
X0354536Y0233544D01*
X0334536Y0245749D02*
X0329536Y0245749D01*
X0329536Y0256749D01*
X0334536Y0256749D01*
X0334536Y0245749D01*
X0348269Y0252607D02*
X0348269Y0257607D01*
X0359269Y0257607D01*
X0359269Y0252607D01*
X0348269Y0252607D01*
X0313678Y0263316D02*
X0313678Y0268316D01*
X0302678Y0268316D01*
X0302678Y0263316D01*
X0313678Y0263316D01*
X0280206Y0258347D02*
X0275206Y0258347D01*
X0275206Y0269347D01*
X0280206Y0269347D01*
X0280206Y0258347D01*
X0279891Y0254387D02*
X0274891Y0254387D01*
X0274891Y0243387D01*
X0279891Y0243387D01*
X0279891Y0254387D01*
X0290001Y0209024D02*
X0290001Y0204024D01*
X0301001Y0204024D01*
X0301001Y0209024D01*
X0290001Y0209024D01*
X0297505Y0190146D02*
X0279320Y0190146D01*
X0279320Y0172824D01*
X0299005Y0172824D01*
X0299005Y0188646D01*
X0297505Y0190146D01*
X0297391Y0090107D02*
X0297391Y0041288D01*
X0345816Y0041288D01*
X0345816Y0090107D01*
X0297391Y0090107D01*
X0318491Y0037676D02*
X0320743Y0037676D01*
X0321494Y0036925D01*
X0321494Y0035424D01*
X0320743Y0034673D01*
X0318491Y0034673D01*
X0318491Y0033172D02*
X0318491Y0037676D01*
X0323095Y0036175D02*
X0323095Y0033172D01*
X0323095Y0035424D02*
X0326097Y0035424D01*
X0326097Y0036175D02*
X0326097Y0033172D01*
X0327699Y0033172D02*
X0329951Y0033172D01*
X0330701Y0033923D01*
X0330701Y0036925D01*
X0329951Y0037676D01*
X0327699Y0037676D01*
X0327699Y0033172D01*
X0326097Y0036175D02*
X0324596Y0037676D01*
X0323095Y0036175D01*
X0332303Y0036175D02*
X0333804Y0037676D01*
X0333804Y0033172D01*
X0332303Y0033172D02*
X0335305Y0033172D01*
X0116480Y0024263D02*
X0115729Y0025014D01*
X0114228Y0025014D01*
X0113478Y0024263D01*
X0111876Y0024263D02*
X0111876Y0022762D01*
X0111126Y0022011D01*
X0108874Y0022011D01*
X0108874Y0020510D02*
X0108874Y0025014D01*
X0111126Y0025014D01*
X0111876Y0024263D01*
X0113478Y0020510D02*
X0116480Y0023512D01*
X0116480Y0024263D01*
X0116480Y0020510D02*
X0113478Y0020510D01*
X0106522Y0021260D02*
X0106522Y0025014D01*
X0107272Y0025014D02*
X0105771Y0025014D01*
X0106522Y0021260D02*
X0105771Y0020510D01*
X0105020Y0020510D01*
X0104270Y0021260D01*
X0069951Y0033172D02*
X0066948Y0033172D01*
X0069951Y0036175D01*
X0069951Y0036925D01*
X0069200Y0037676D01*
X0067699Y0037676D01*
X0066948Y0036925D01*
X0065347Y0036925D02*
X0065347Y0033923D01*
X0064596Y0033172D01*
X0062344Y0033172D01*
X0062344Y0037676D01*
X0064596Y0037676D01*
X0065347Y0036925D01*
X0060743Y0036175D02*
X0060743Y0033172D01*
X0060743Y0035424D02*
X0057741Y0035424D01*
X0057741Y0036175D02*
X0059242Y0037676D01*
X0060743Y0036175D01*
X0057741Y0036175D02*
X0057741Y0033172D01*
X0056139Y0035424D02*
X0055389Y0034673D01*
X0053137Y0034673D01*
X0053137Y0033172D02*
X0053137Y0037676D01*
X0055389Y0037676D01*
X0056139Y0036925D01*
X0056139Y0035424D01*
D15*
X0080698Y0260499D02*
X0080698Y0260739D01*
D16*
X0080737Y0272863D03*
X0033099Y0256052D03*
X0019359Y0256131D03*
X0060855Y0212509D03*
X0080816Y0212469D03*
D17*
X0106593Y0193159D02*
X0108128Y0193159D01*
X0107360Y0193159D02*
X0107360Y0188555D01*
X0106593Y0188555D02*
X0108128Y0188555D01*
X0109662Y0189322D02*
X0109662Y0192392D01*
X0110430Y0193159D01*
X0111964Y0193159D01*
X0112731Y0192392D01*
X0114266Y0191624D02*
X0115801Y0193159D01*
X0115801Y0188555D01*
X0117335Y0188555D02*
X0114266Y0188555D01*
X0112731Y0189322D02*
X0111964Y0188555D01*
X0110430Y0188555D01*
X0109662Y0189322D01*
X0043053Y0194207D02*
X0042536Y0193690D01*
X0043053Y0194207D02*
X0043053Y0195241D01*
X0042536Y0195758D01*
X0042019Y0195758D01*
X0041501Y0195241D01*
X0041501Y0194207D01*
X0040984Y0193690D01*
X0040467Y0193690D01*
X0039950Y0194207D01*
X0039950Y0195241D01*
X0040467Y0195758D01*
X0039950Y0196913D02*
X0043053Y0196913D01*
X0042019Y0197947D01*
X0043053Y0198981D01*
X0039950Y0198981D01*
X0040984Y0200136D02*
X0039950Y0201170D01*
X0043053Y0201170D01*
X0043053Y0200136D02*
X0043053Y0202204D01*
X0026258Y0242559D02*
X0026859Y0243160D01*
X0026859Y0243760D01*
X0026258Y0244361D01*
X0024457Y0244361D01*
X0024457Y0243160D01*
X0025057Y0242559D01*
X0026258Y0242559D01*
X0024457Y0244361D02*
X0025658Y0245562D01*
X0026859Y0246162D01*
X0023176Y0245562D02*
X0022575Y0246162D01*
X0021374Y0246162D01*
X0020774Y0245562D01*
X0020774Y0244961D01*
X0021374Y0244361D01*
X0022575Y0244361D01*
X0023176Y0243760D01*
X0023176Y0243160D01*
X0022575Y0242559D01*
X0021374Y0242559D01*
X0020774Y0243160D01*
X0019493Y0243160D02*
X0019493Y0246162D01*
X0017091Y0246162D02*
X0017091Y0243160D01*
X0017691Y0242559D01*
X0018892Y0242559D01*
X0019493Y0243160D01*
X0021975Y0241959D02*
X0021975Y0246763D01*
X0078075Y0250443D02*
X0078675Y0249843D01*
X0079876Y0249843D01*
X0080477Y0250443D01*
X0080477Y0253446D01*
X0081758Y0252845D02*
X0082358Y0253446D01*
X0083559Y0253446D01*
X0084160Y0252845D01*
X0083559Y0251644D02*
X0082358Y0251644D01*
X0081758Y0252245D01*
X0081758Y0252845D01*
X0082959Y0254046D02*
X0082959Y0249242D01*
X0083559Y0249843D02*
X0084160Y0250443D01*
X0084160Y0251044D01*
X0083559Y0251644D01*
X0083559Y0249843D02*
X0082358Y0249843D01*
X0081758Y0250443D01*
X0085441Y0250443D02*
X0087843Y0252845D01*
X0087843Y0253446D01*
X0085441Y0253446D01*
X0085441Y0250443D02*
X0085441Y0249843D01*
X0090087Y0251347D02*
X0094691Y0251347D01*
X0094691Y0249813D02*
X0094691Y0252882D01*
X0091621Y0249813D02*
X0090087Y0251347D01*
X0090087Y0248278D02*
X0090087Y0245209D01*
X0090087Y0246743D02*
X0094691Y0246743D01*
X0078075Y0250443D02*
X0078075Y0253446D01*
X0252433Y0149188D02*
X0252433Y0147119D01*
X0252950Y0146602D01*
X0253984Y0146602D01*
X0254502Y0147119D01*
X0255656Y0146602D02*
X0257724Y0148671D01*
X0257724Y0149188D01*
X0257207Y0149705D01*
X0256173Y0149705D01*
X0255656Y0149188D01*
X0254502Y0149188D02*
X0253984Y0149705D01*
X0252950Y0149705D01*
X0252433Y0149188D01*
X0255656Y0146602D02*
X0257724Y0146602D01*
X0258879Y0147119D02*
X0259396Y0146602D01*
X0260430Y0146602D01*
X0260947Y0147119D01*
X0260947Y0147637D01*
X0260430Y0148154D01*
X0258879Y0148154D01*
X0258879Y0147119D01*
X0258879Y0148154D02*
X0259913Y0149188D01*
X0260947Y0149705D01*
X0294710Y0125294D02*
X0295227Y0125294D01*
X0297295Y0123226D01*
X0297813Y0123226D01*
X0297813Y0122072D02*
X0297813Y0120003D01*
X0295744Y0122072D01*
X0295227Y0122072D01*
X0294710Y0121555D01*
X0294710Y0120520D01*
X0295227Y0120003D01*
X0295227Y0118849D02*
X0294710Y0118332D01*
X0294710Y0117298D01*
X0295227Y0116781D01*
X0297295Y0116781D01*
X0297813Y0117298D01*
X0297813Y0118332D01*
X0297295Y0118849D01*
X0294710Y0123226D02*
X0294710Y0125294D01*
X0327079Y0149560D02*
X0327596Y0149043D01*
X0328630Y0149043D01*
X0329147Y0149560D01*
X0330301Y0149560D02*
X0330819Y0149043D01*
X0331853Y0149043D01*
X0332370Y0149560D01*
X0332370Y0150078D01*
X0331853Y0150595D01*
X0331336Y0150595D01*
X0331853Y0150595D02*
X0332370Y0151112D01*
X0332370Y0151629D01*
X0331853Y0152146D01*
X0330819Y0152146D01*
X0330301Y0151629D01*
X0329147Y0151629D02*
X0328630Y0152146D01*
X0327596Y0152146D01*
X0327079Y0151629D01*
X0327079Y0149560D01*
X0333524Y0149043D02*
X0335593Y0149043D01*
X0334558Y0149043D02*
X0334558Y0152146D01*
X0333524Y0151112D01*
X0349064Y0181558D02*
X0351650Y0181558D01*
X0352167Y0182076D01*
X0352167Y0183110D01*
X0351650Y0183627D01*
X0349064Y0183627D01*
X0349064Y0184781D02*
X0350616Y0184781D01*
X0350098Y0185815D01*
X0350098Y0186333D01*
X0350616Y0186850D01*
X0351650Y0186850D01*
X0352167Y0186333D01*
X0352167Y0185298D01*
X0351650Y0184781D01*
X0349064Y0184781D02*
X0349064Y0186850D01*
X0368332Y0188636D02*
X0368849Y0188119D01*
X0370918Y0188119D01*
X0371435Y0188636D01*
X0371435Y0189670D01*
X0370918Y0190188D01*
X0370918Y0191342D02*
X0371435Y0191859D01*
X0371435Y0192893D01*
X0370918Y0193410D01*
X0370400Y0193410D01*
X0369883Y0192893D01*
X0369883Y0192376D01*
X0369883Y0192893D02*
X0369366Y0193410D01*
X0368849Y0193410D01*
X0368332Y0192893D01*
X0368332Y0191859D01*
X0368849Y0191342D01*
X0368849Y0190188D02*
X0368332Y0189670D01*
X0368332Y0188636D01*
X0368332Y0194565D02*
X0369883Y0194565D01*
X0369366Y0195599D01*
X0369366Y0196116D01*
X0369883Y0196633D01*
X0370918Y0196633D01*
X0371435Y0196116D01*
X0371435Y0195082D01*
X0370918Y0194565D01*
X0368332Y0194565D02*
X0368332Y0196633D01*
X0358319Y0234576D02*
X0358836Y0235093D01*
X0358836Y0236127D01*
X0358319Y0236644D01*
X0358319Y0237799D02*
X0358836Y0238316D01*
X0358836Y0239350D01*
X0358319Y0239867D01*
X0357802Y0239867D01*
X0357285Y0239350D01*
X0357285Y0238833D01*
X0357285Y0239350D02*
X0356768Y0239867D01*
X0356251Y0239867D01*
X0355734Y0239350D01*
X0355734Y0238316D01*
X0356251Y0237799D01*
X0356251Y0236644D02*
X0355734Y0236127D01*
X0355734Y0235093D01*
X0356251Y0234576D01*
X0358319Y0234576D01*
X0358319Y0241021D02*
X0356251Y0243090D01*
X0358319Y0243090D01*
X0358836Y0242573D01*
X0358836Y0241538D01*
X0358319Y0241021D01*
X0356251Y0241021D01*
X0355734Y0241538D01*
X0355734Y0242573D01*
X0356251Y0243090D01*
X0355931Y0258807D02*
X0355414Y0259324D01*
X0355931Y0258807D02*
X0356965Y0258807D01*
X0357482Y0259324D01*
X0357482Y0260358D01*
X0356965Y0260876D01*
X0356448Y0260876D01*
X0355414Y0260358D01*
X0355414Y0261910D01*
X0357482Y0261910D01*
X0354260Y0261393D02*
X0353743Y0261910D01*
X0352708Y0261910D01*
X0352191Y0261393D01*
X0351037Y0261393D02*
X0350520Y0261910D01*
X0349486Y0261910D01*
X0348969Y0261393D01*
X0348969Y0259324D01*
X0349486Y0258807D01*
X0350520Y0258807D01*
X0351037Y0259324D01*
X0352191Y0258807D02*
X0354260Y0260876D01*
X0354260Y0261393D01*
X0354260Y0258807D02*
X0352191Y0258807D01*
X0338836Y0254777D02*
X0338836Y0253743D01*
X0338319Y0253226D01*
X0337802Y0253226D01*
X0337285Y0253743D01*
X0337285Y0254777D01*
X0337802Y0255294D01*
X0338319Y0255294D01*
X0338836Y0254777D01*
X0337285Y0254777D02*
X0336768Y0255294D01*
X0336251Y0255294D01*
X0335734Y0254777D01*
X0335734Y0253743D01*
X0336251Y0253226D01*
X0336768Y0253226D01*
X0337285Y0253743D01*
X0336768Y0252072D02*
X0336251Y0252072D01*
X0335734Y0251555D01*
X0335734Y0250520D01*
X0336251Y0250003D01*
X0336251Y0248849D02*
X0335734Y0248332D01*
X0335734Y0247298D01*
X0336251Y0246781D01*
X0338319Y0246781D01*
X0338836Y0247298D01*
X0338836Y0248332D01*
X0338319Y0248849D01*
X0338836Y0250003D02*
X0336768Y0252072D01*
X0338836Y0252072D02*
X0338836Y0250003D01*
X0312224Y0259016D02*
X0310155Y0259016D01*
X0312224Y0261084D01*
X0312224Y0261601D01*
X0311707Y0262118D01*
X0310672Y0262118D01*
X0310155Y0261601D01*
X0309001Y0261601D02*
X0309001Y0261084D01*
X0308484Y0260567D01*
X0309001Y0260050D01*
X0309001Y0259533D01*
X0308484Y0259016D01*
X0307450Y0259016D01*
X0306932Y0259533D01*
X0305778Y0259533D02*
X0305261Y0259016D01*
X0304227Y0259016D01*
X0303710Y0259533D01*
X0303710Y0261601D01*
X0304227Y0262118D01*
X0305261Y0262118D01*
X0305778Y0261601D01*
X0306932Y0261601D02*
X0307450Y0262118D01*
X0308484Y0262118D01*
X0309001Y0261601D01*
X0308484Y0260567D02*
X0307967Y0260567D01*
X0284506Y0260930D02*
X0284506Y0259896D01*
X0283988Y0259379D01*
X0281920Y0259379D01*
X0281403Y0259896D01*
X0281403Y0260930D01*
X0281920Y0261447D01*
X0281920Y0262602D02*
X0281403Y0263119D01*
X0281403Y0264153D01*
X0281920Y0264670D01*
X0282437Y0264670D01*
X0282954Y0264153D01*
X0283471Y0264670D01*
X0283988Y0264670D01*
X0284506Y0264153D01*
X0284506Y0263119D01*
X0283988Y0262602D01*
X0283988Y0261447D02*
X0284506Y0260930D01*
X0282954Y0263636D02*
X0282954Y0264153D01*
X0282954Y0265824D02*
X0282954Y0267893D01*
X0281403Y0267376D02*
X0284506Y0267376D01*
X0282954Y0265824D02*
X0281403Y0267376D01*
X0281605Y0252932D02*
X0282122Y0252932D01*
X0282639Y0252415D01*
X0283156Y0252932D01*
X0283673Y0252932D01*
X0284191Y0252415D01*
X0284191Y0251381D01*
X0283673Y0250864D01*
X0283673Y0249710D02*
X0284191Y0249192D01*
X0284191Y0248158D01*
X0283673Y0247641D01*
X0283673Y0246487D02*
X0284191Y0245970D01*
X0284191Y0244935D01*
X0283673Y0244418D01*
X0281605Y0244418D01*
X0281088Y0244935D01*
X0281088Y0245970D01*
X0281605Y0246487D01*
X0281605Y0247641D02*
X0281088Y0248158D01*
X0281088Y0249192D01*
X0281605Y0249710D01*
X0282122Y0249710D01*
X0282639Y0249192D01*
X0283156Y0249710D01*
X0283673Y0249710D01*
X0282639Y0249192D02*
X0282639Y0248675D01*
X0281605Y0250864D02*
X0281088Y0251381D01*
X0281088Y0252415D01*
X0281605Y0252932D01*
X0282639Y0252415D02*
X0282639Y0251898D01*
X0291218Y0213327D02*
X0290701Y0212810D01*
X0290701Y0210742D01*
X0291218Y0210224D01*
X0292252Y0210224D01*
X0292769Y0210742D01*
X0293924Y0211776D02*
X0295992Y0211776D01*
X0295475Y0213327D02*
X0293924Y0211776D01*
X0292769Y0212810D02*
X0292252Y0213327D01*
X0291218Y0213327D01*
X0295475Y0213327D02*
X0295475Y0210224D01*
X0303411Y0188031D02*
X0303411Y0185962D01*
X0301860Y0187514D01*
X0304962Y0187514D01*
X0304445Y0184808D02*
X0301860Y0184808D01*
X0301860Y0182740D02*
X0304445Y0182740D01*
X0304962Y0183257D01*
X0304962Y0184291D01*
X0304445Y0184808D01*
X0129716Y0085965D02*
X0129716Y0082862D01*
X0128682Y0082862D02*
X0130750Y0082862D01*
X0128682Y0084931D02*
X0129716Y0085965D01*
X0127527Y0085448D02*
X0127010Y0085965D01*
X0125976Y0085965D01*
X0125459Y0085448D01*
X0124305Y0085448D02*
X0123788Y0085965D01*
X0122753Y0085965D01*
X0122236Y0085448D01*
X0122236Y0083379D01*
X0122753Y0082862D01*
X0123788Y0082862D01*
X0124305Y0083379D01*
X0125459Y0082862D02*
X0127527Y0084931D01*
X0127527Y0085448D01*
X0127527Y0082862D02*
X0125459Y0082862D01*
X0126055Y0076516D02*
X0125538Y0075999D01*
X0126055Y0076516D02*
X0127089Y0076516D01*
X0127606Y0075999D01*
X0127606Y0075482D01*
X0125538Y0073413D01*
X0127606Y0073413D01*
X0128760Y0073930D02*
X0130829Y0075999D01*
X0130829Y0073930D01*
X0130312Y0073413D01*
X0129278Y0073413D01*
X0128760Y0073930D01*
X0128760Y0075999D01*
X0129278Y0076516D01*
X0130312Y0076516D01*
X0130829Y0075999D01*
X0124383Y0075999D02*
X0123866Y0076516D01*
X0122832Y0076516D01*
X0122315Y0075999D01*
X0122315Y0073930D01*
X0122832Y0073413D01*
X0123866Y0073413D01*
X0124383Y0073930D01*
X0123551Y0061949D02*
X0122517Y0061949D01*
X0122000Y0061432D01*
X0122000Y0059364D01*
X0122517Y0058846D01*
X0123551Y0058846D01*
X0124068Y0059364D01*
X0125223Y0058846D02*
X0127291Y0058846D01*
X0126257Y0058846D02*
X0126257Y0061949D01*
X0125223Y0060915D01*
X0124068Y0061432D02*
X0123551Y0061949D01*
X0128445Y0061432D02*
X0128445Y0060915D01*
X0128963Y0060398D01*
X0130514Y0060398D01*
X0130514Y0059364D02*
X0130514Y0061432D01*
X0129997Y0061949D01*
X0128963Y0061949D01*
X0128445Y0061432D01*
X0128445Y0059364D02*
X0128963Y0058846D01*
X0129997Y0058846D01*
X0130514Y0059364D01*
X0129367Y0048091D02*
X0129884Y0047574D01*
X0129884Y0047057D01*
X0129367Y0046540D01*
X0128333Y0046540D01*
X0127816Y0047057D01*
X0127816Y0047574D01*
X0128333Y0048091D01*
X0129367Y0048091D01*
X0129367Y0046540D02*
X0129884Y0046022D01*
X0129884Y0045505D01*
X0129367Y0044988D01*
X0128333Y0044988D01*
X0127816Y0045505D01*
X0127816Y0046022D01*
X0128333Y0046540D01*
X0126661Y0044988D02*
X0124593Y0044988D01*
X0125627Y0044988D02*
X0125627Y0048091D01*
X0124593Y0047057D01*
X0123439Y0047574D02*
X0122921Y0048091D01*
X0121887Y0048091D01*
X0121370Y0047574D01*
X0121370Y0045505D01*
X0121887Y0044988D01*
X0122921Y0044988D01*
X0123439Y0045505D01*
D18*
X0247410Y0020698D02*
X0247412Y0020779D01*
X0247418Y0020861D01*
X0247428Y0020942D01*
X0247442Y0021022D01*
X0247459Y0021101D01*
X0247481Y0021180D01*
X0247506Y0021257D01*
X0247535Y0021334D01*
X0247568Y0021408D01*
X0247605Y0021481D01*
X0247644Y0021552D01*
X0247688Y0021621D01*
X0247734Y0021688D01*
X0247784Y0021752D01*
X0247837Y0021814D01*
X0247893Y0021874D01*
X0247951Y0021930D01*
X0248013Y0021984D01*
X0248077Y0022035D01*
X0248143Y0022082D01*
X0248211Y0022126D01*
X0248282Y0022167D01*
X0248354Y0022204D01*
X0248429Y0022238D01*
X0248504Y0022268D01*
X0248582Y0022294D01*
X0248660Y0022317D01*
X0248739Y0022335D01*
X0248819Y0022350D01*
X0248900Y0022361D01*
X0248981Y0022368D01*
X0249063Y0022371D01*
X0249144Y0022370D01*
X0249225Y0022365D01*
X0249306Y0022356D01*
X0249387Y0022343D01*
X0249467Y0022326D01*
X0249545Y0022306D01*
X0249623Y0022281D01*
X0249700Y0022253D01*
X0249775Y0022221D01*
X0249848Y0022186D01*
X0249919Y0022147D01*
X0249989Y0022104D01*
X0250056Y0022059D01*
X0250122Y0022010D01*
X0250184Y0021958D01*
X0250244Y0021902D01*
X0250301Y0021844D01*
X0250356Y0021784D01*
X0250407Y0021720D01*
X0250455Y0021655D01*
X0250500Y0021587D01*
X0250542Y0021517D01*
X0250580Y0021445D01*
X0250615Y0021371D01*
X0250646Y0021296D01*
X0250673Y0021219D01*
X0250696Y0021141D01*
X0250716Y0021062D01*
X0250732Y0020982D01*
X0250744Y0020901D01*
X0250752Y0020820D01*
X0250756Y0020739D01*
X0250756Y0020657D01*
X0250752Y0020576D01*
X0250744Y0020495D01*
X0250732Y0020414D01*
X0250716Y0020334D01*
X0250696Y0020255D01*
X0250673Y0020177D01*
X0250646Y0020100D01*
X0250615Y0020025D01*
X0250580Y0019951D01*
X0250542Y0019879D01*
X0250500Y0019809D01*
X0250455Y0019741D01*
X0250407Y0019676D01*
X0250356Y0019612D01*
X0250301Y0019552D01*
X0250244Y0019494D01*
X0250184Y0019438D01*
X0250122Y0019386D01*
X0250056Y0019337D01*
X0249989Y0019292D01*
X0249920Y0019249D01*
X0249848Y0019210D01*
X0249775Y0019175D01*
X0249700Y0019143D01*
X0249623Y0019115D01*
X0249545Y0019090D01*
X0249467Y0019070D01*
X0249387Y0019053D01*
X0249306Y0019040D01*
X0249225Y0019031D01*
X0249144Y0019026D01*
X0249063Y0019025D01*
X0248981Y0019028D01*
X0248900Y0019035D01*
X0248819Y0019046D01*
X0248739Y0019061D01*
X0248660Y0019079D01*
X0248582Y0019102D01*
X0248504Y0019128D01*
X0248429Y0019158D01*
X0248354Y0019192D01*
X0248282Y0019229D01*
X0248211Y0019270D01*
X0248143Y0019314D01*
X0248077Y0019361D01*
X0248013Y0019412D01*
X0247951Y0019466D01*
X0247893Y0019522D01*
X0247837Y0019582D01*
X0247784Y0019644D01*
X0247734Y0019708D01*
X0247688Y0019775D01*
X0247644Y0019844D01*
X0247605Y0019915D01*
X0247568Y0019988D01*
X0247535Y0020062D01*
X0247506Y0020139D01*
X0247481Y0020216D01*
X0247459Y0020295D01*
X0247442Y0020374D01*
X0247428Y0020454D01*
X0247418Y0020535D01*
X0247412Y0020617D01*
X0247410Y0020698D01*
X0250264Y0021876D02*
X0250264Y0019516D01*
X0262371Y0020698D02*
X0262373Y0020779D01*
X0262379Y0020861D01*
X0262389Y0020942D01*
X0262403Y0021022D01*
X0262420Y0021101D01*
X0262442Y0021180D01*
X0262467Y0021257D01*
X0262496Y0021334D01*
X0262529Y0021408D01*
X0262566Y0021481D01*
X0262605Y0021552D01*
X0262649Y0021621D01*
X0262695Y0021688D01*
X0262745Y0021752D01*
X0262798Y0021814D01*
X0262854Y0021874D01*
X0262912Y0021930D01*
X0262974Y0021984D01*
X0263038Y0022035D01*
X0263104Y0022082D01*
X0263172Y0022126D01*
X0263243Y0022167D01*
X0263315Y0022204D01*
X0263390Y0022238D01*
X0263465Y0022268D01*
X0263543Y0022294D01*
X0263621Y0022317D01*
X0263700Y0022335D01*
X0263780Y0022350D01*
X0263861Y0022361D01*
X0263942Y0022368D01*
X0264024Y0022371D01*
X0264105Y0022370D01*
X0264186Y0022365D01*
X0264267Y0022356D01*
X0264348Y0022343D01*
X0264428Y0022326D01*
X0264506Y0022306D01*
X0264584Y0022281D01*
X0264661Y0022253D01*
X0264736Y0022221D01*
X0264809Y0022186D01*
X0264880Y0022147D01*
X0264950Y0022104D01*
X0265017Y0022059D01*
X0265083Y0022010D01*
X0265145Y0021958D01*
X0265205Y0021902D01*
X0265262Y0021844D01*
X0265317Y0021784D01*
X0265368Y0021720D01*
X0265416Y0021655D01*
X0265461Y0021587D01*
X0265503Y0021517D01*
X0265541Y0021445D01*
X0265576Y0021371D01*
X0265607Y0021296D01*
X0265634Y0021219D01*
X0265657Y0021141D01*
X0265677Y0021062D01*
X0265693Y0020982D01*
X0265705Y0020901D01*
X0265713Y0020820D01*
X0265717Y0020739D01*
X0265717Y0020657D01*
X0265713Y0020576D01*
X0265705Y0020495D01*
X0265693Y0020414D01*
X0265677Y0020334D01*
X0265657Y0020255D01*
X0265634Y0020177D01*
X0265607Y0020100D01*
X0265576Y0020025D01*
X0265541Y0019951D01*
X0265503Y0019879D01*
X0265461Y0019809D01*
X0265416Y0019741D01*
X0265368Y0019676D01*
X0265317Y0019612D01*
X0265262Y0019552D01*
X0265205Y0019494D01*
X0265145Y0019438D01*
X0265083Y0019386D01*
X0265017Y0019337D01*
X0264950Y0019292D01*
X0264881Y0019249D01*
X0264809Y0019210D01*
X0264736Y0019175D01*
X0264661Y0019143D01*
X0264584Y0019115D01*
X0264506Y0019090D01*
X0264428Y0019070D01*
X0264348Y0019053D01*
X0264267Y0019040D01*
X0264186Y0019031D01*
X0264105Y0019026D01*
X0264024Y0019025D01*
X0263942Y0019028D01*
X0263861Y0019035D01*
X0263780Y0019046D01*
X0263700Y0019061D01*
X0263621Y0019079D01*
X0263543Y0019102D01*
X0263465Y0019128D01*
X0263390Y0019158D01*
X0263315Y0019192D01*
X0263243Y0019229D01*
X0263172Y0019270D01*
X0263104Y0019314D01*
X0263038Y0019361D01*
X0262974Y0019412D01*
X0262912Y0019466D01*
X0262854Y0019522D01*
X0262798Y0019582D01*
X0262745Y0019644D01*
X0262695Y0019708D01*
X0262649Y0019775D01*
X0262605Y0019844D01*
X0262566Y0019915D01*
X0262529Y0019988D01*
X0262496Y0020062D01*
X0262467Y0020139D01*
X0262442Y0020216D01*
X0262420Y0020295D01*
X0262403Y0020374D01*
X0262389Y0020454D01*
X0262379Y0020535D01*
X0262373Y0020617D01*
X0262371Y0020698D01*
X0029153Y0195658D02*
X0029155Y0195738D01*
X0029161Y0195817D01*
X0029171Y0195896D01*
X0029185Y0195975D01*
X0029202Y0196053D01*
X0029224Y0196130D01*
X0029249Y0196205D01*
X0029279Y0196279D01*
X0029311Y0196352D01*
X0029348Y0196423D01*
X0029388Y0196492D01*
X0029431Y0196559D01*
X0029478Y0196624D01*
X0029527Y0196686D01*
X0029580Y0196746D01*
X0029636Y0196803D01*
X0029694Y0196858D01*
X0029755Y0196909D01*
X0029819Y0196957D01*
X0029885Y0197002D01*
X0029953Y0197044D01*
X0030023Y0197082D01*
X0030095Y0197116D01*
X0030168Y0197147D01*
X0030243Y0197175D01*
X0030320Y0197198D01*
X0030397Y0197218D01*
X0030475Y0197234D01*
X0030554Y0197246D01*
X0030633Y0197254D01*
X0030713Y0197258D01*
X0030793Y0197258D01*
X0030873Y0197254D01*
X0030952Y0197246D01*
X0031031Y0197234D01*
X0031109Y0197218D01*
X0031186Y0197198D01*
X0031263Y0197175D01*
X0031338Y0197147D01*
X0031411Y0197116D01*
X0031483Y0197082D01*
X0031553Y0197044D01*
X0031621Y0197002D01*
X0031687Y0196957D01*
X0031751Y0196909D01*
X0031812Y0196858D01*
X0031870Y0196803D01*
X0031926Y0196746D01*
X0031979Y0196686D01*
X0032028Y0196624D01*
X0032075Y0196559D01*
X0032118Y0196492D01*
X0032158Y0196423D01*
X0032195Y0196352D01*
X0032227Y0196279D01*
X0032257Y0196205D01*
X0032282Y0196130D01*
X0032304Y0196053D01*
X0032321Y0195975D01*
X0032335Y0195896D01*
X0032345Y0195817D01*
X0032351Y0195738D01*
X0032353Y0195658D01*
X0032351Y0195578D01*
X0032345Y0195499D01*
X0032335Y0195420D01*
X0032321Y0195341D01*
X0032304Y0195263D01*
X0032282Y0195186D01*
X0032257Y0195111D01*
X0032227Y0195037D01*
X0032195Y0194964D01*
X0032158Y0194893D01*
X0032118Y0194824D01*
X0032075Y0194757D01*
X0032028Y0194692D01*
X0031979Y0194630D01*
X0031926Y0194570D01*
X0031870Y0194513D01*
X0031812Y0194458D01*
X0031751Y0194407D01*
X0031687Y0194359D01*
X0031621Y0194314D01*
X0031553Y0194272D01*
X0031483Y0194234D01*
X0031411Y0194200D01*
X0031338Y0194169D01*
X0031263Y0194141D01*
X0031186Y0194118D01*
X0031109Y0194098D01*
X0031031Y0194082D01*
X0030952Y0194070D01*
X0030873Y0194062D01*
X0030793Y0194058D01*
X0030713Y0194058D01*
X0030633Y0194062D01*
X0030554Y0194070D01*
X0030475Y0194082D01*
X0030397Y0194098D01*
X0030320Y0194118D01*
X0030243Y0194141D01*
X0030168Y0194169D01*
X0030095Y0194200D01*
X0030023Y0194234D01*
X0029953Y0194272D01*
X0029885Y0194314D01*
X0029819Y0194359D01*
X0029755Y0194407D01*
X0029694Y0194458D01*
X0029636Y0194513D01*
X0029580Y0194570D01*
X0029527Y0194630D01*
X0029478Y0194692D01*
X0029431Y0194757D01*
X0029388Y0194824D01*
X0029348Y0194893D01*
X0029311Y0194964D01*
X0029279Y0195037D01*
X0029249Y0195111D01*
X0029224Y0195186D01*
X0029202Y0195263D01*
X0029185Y0195341D01*
X0029171Y0195420D01*
X0029161Y0195499D01*
X0029155Y0195578D01*
X0029153Y0195658D01*
X0017153Y0195658D02*
X0017155Y0195738D01*
X0017161Y0195817D01*
X0017171Y0195896D01*
X0017185Y0195975D01*
X0017202Y0196053D01*
X0017224Y0196130D01*
X0017249Y0196205D01*
X0017279Y0196279D01*
X0017311Y0196352D01*
X0017348Y0196423D01*
X0017388Y0196492D01*
X0017431Y0196559D01*
X0017478Y0196624D01*
X0017527Y0196686D01*
X0017580Y0196746D01*
X0017636Y0196803D01*
X0017694Y0196858D01*
X0017755Y0196909D01*
X0017819Y0196957D01*
X0017885Y0197002D01*
X0017953Y0197044D01*
X0018023Y0197082D01*
X0018095Y0197116D01*
X0018168Y0197147D01*
X0018243Y0197175D01*
X0018320Y0197198D01*
X0018397Y0197218D01*
X0018475Y0197234D01*
X0018554Y0197246D01*
X0018633Y0197254D01*
X0018713Y0197258D01*
X0018793Y0197258D01*
X0018873Y0197254D01*
X0018952Y0197246D01*
X0019031Y0197234D01*
X0019109Y0197218D01*
X0019186Y0197198D01*
X0019263Y0197175D01*
X0019338Y0197147D01*
X0019411Y0197116D01*
X0019483Y0197082D01*
X0019553Y0197044D01*
X0019621Y0197002D01*
X0019687Y0196957D01*
X0019751Y0196909D01*
X0019812Y0196858D01*
X0019870Y0196803D01*
X0019926Y0196746D01*
X0019979Y0196686D01*
X0020028Y0196624D01*
X0020075Y0196559D01*
X0020118Y0196492D01*
X0020158Y0196423D01*
X0020195Y0196352D01*
X0020227Y0196279D01*
X0020257Y0196205D01*
X0020282Y0196130D01*
X0020304Y0196053D01*
X0020321Y0195975D01*
X0020335Y0195896D01*
X0020345Y0195817D01*
X0020351Y0195738D01*
X0020353Y0195658D01*
X0020351Y0195578D01*
X0020345Y0195499D01*
X0020335Y0195420D01*
X0020321Y0195341D01*
X0020304Y0195263D01*
X0020282Y0195186D01*
X0020257Y0195111D01*
X0020227Y0195037D01*
X0020195Y0194964D01*
X0020158Y0194893D01*
X0020118Y0194824D01*
X0020075Y0194757D01*
X0020028Y0194692D01*
X0019979Y0194630D01*
X0019926Y0194570D01*
X0019870Y0194513D01*
X0019812Y0194458D01*
X0019751Y0194407D01*
X0019687Y0194359D01*
X0019621Y0194314D01*
X0019553Y0194272D01*
X0019483Y0194234D01*
X0019411Y0194200D01*
X0019338Y0194169D01*
X0019263Y0194141D01*
X0019186Y0194118D01*
X0019109Y0194098D01*
X0019031Y0194082D01*
X0018952Y0194070D01*
X0018873Y0194062D01*
X0018793Y0194058D01*
X0018713Y0194058D01*
X0018633Y0194062D01*
X0018554Y0194070D01*
X0018475Y0194082D01*
X0018397Y0194098D01*
X0018320Y0194118D01*
X0018243Y0194141D01*
X0018168Y0194169D01*
X0018095Y0194200D01*
X0018023Y0194234D01*
X0017953Y0194272D01*
X0017885Y0194314D01*
X0017819Y0194359D01*
X0017755Y0194407D01*
X0017694Y0194458D01*
X0017636Y0194513D01*
X0017580Y0194570D01*
X0017527Y0194630D01*
X0017478Y0194692D01*
X0017431Y0194757D01*
X0017388Y0194824D01*
X0017348Y0194893D01*
X0017311Y0194964D01*
X0017279Y0195037D01*
X0017249Y0195111D01*
X0017224Y0195186D01*
X0017202Y0195263D01*
X0017185Y0195341D01*
X0017171Y0195420D01*
X0017161Y0195499D01*
X0017155Y0195578D01*
X0017153Y0195658D01*
D19*
X0098729Y0250127D03*
D20*
X0078847Y0240973D03*
X0014320Y0224359D03*
D21*
X0133926Y0240658D02*
X0133926Y0243808D01*
X0140225Y0243808D01*
X0140225Y0240658D01*
X0133926Y0240658D01*
X0155698Y0168690D02*
X0155698Y0168493D01*
X0155698Y0149989D01*
X0242312Y0149989D01*
X0242312Y0168493D01*
X0242312Y0168690D01*
X0239857Y0167115D02*
X0239859Y0167174D01*
X0239865Y0167232D01*
X0239875Y0167290D01*
X0239888Y0167347D01*
X0239906Y0167404D01*
X0239927Y0167459D01*
X0239952Y0167512D01*
X0239980Y0167563D01*
X0240011Y0167613D01*
X0240046Y0167660D01*
X0240084Y0167705D01*
X0240125Y0167748D01*
X0240169Y0167787D01*
X0240215Y0167823D01*
X0240263Y0167857D01*
X0240314Y0167887D01*
X0240367Y0167913D01*
X0240421Y0167936D01*
X0240476Y0167955D01*
X0240533Y0167971D01*
X0240591Y0167983D01*
X0240649Y0167991D01*
X0240708Y0167995D01*
X0240766Y0167995D01*
X0240825Y0167991D01*
X0240883Y0167983D01*
X0240941Y0167971D01*
X0240998Y0167955D01*
X0241053Y0167936D01*
X0241107Y0167913D01*
X0241160Y0167887D01*
X0241211Y0167857D01*
X0241259Y0167823D01*
X0241305Y0167787D01*
X0241349Y0167748D01*
X0241390Y0167705D01*
X0241428Y0167660D01*
X0241463Y0167613D01*
X0241494Y0167563D01*
X0241522Y0167512D01*
X0241547Y0167459D01*
X0241568Y0167404D01*
X0241586Y0167347D01*
X0241599Y0167290D01*
X0241609Y0167232D01*
X0241615Y0167174D01*
X0241617Y0167115D01*
X0241615Y0167056D01*
X0241609Y0166998D01*
X0241599Y0166940D01*
X0241586Y0166883D01*
X0241568Y0166826D01*
X0241547Y0166771D01*
X0241522Y0166718D01*
X0241494Y0166667D01*
X0241463Y0166617D01*
X0241428Y0166570D01*
X0241390Y0166525D01*
X0241349Y0166482D01*
X0241305Y0166443D01*
X0241259Y0166407D01*
X0241211Y0166373D01*
X0241160Y0166343D01*
X0241107Y0166317D01*
X0241053Y0166294D01*
X0240998Y0166275D01*
X0240941Y0166259D01*
X0240883Y0166247D01*
X0240825Y0166239D01*
X0240766Y0166235D01*
X0240708Y0166235D01*
X0240649Y0166239D01*
X0240591Y0166247D01*
X0240533Y0166259D01*
X0240476Y0166275D01*
X0240421Y0166294D01*
X0240367Y0166317D01*
X0240314Y0166343D01*
X0240263Y0166373D01*
X0240215Y0166407D01*
X0240169Y0166443D01*
X0240125Y0166482D01*
X0240084Y0166525D01*
X0240046Y0166570D01*
X0240011Y0166617D01*
X0239980Y0166667D01*
X0239952Y0166718D01*
X0239927Y0166771D01*
X0239906Y0166826D01*
X0239888Y0166883D01*
X0239875Y0166940D01*
X0239865Y0166998D01*
X0239859Y0167056D01*
X0239857Y0167115D01*
X0156589Y0166918D02*
X0156591Y0166977D01*
X0156597Y0167035D01*
X0156607Y0167093D01*
X0156620Y0167150D01*
X0156638Y0167207D01*
X0156659Y0167262D01*
X0156684Y0167315D01*
X0156712Y0167366D01*
X0156743Y0167416D01*
X0156778Y0167463D01*
X0156816Y0167508D01*
X0156857Y0167551D01*
X0156901Y0167590D01*
X0156947Y0167626D01*
X0156995Y0167660D01*
X0157046Y0167690D01*
X0157099Y0167716D01*
X0157153Y0167739D01*
X0157208Y0167758D01*
X0157265Y0167774D01*
X0157323Y0167786D01*
X0157381Y0167794D01*
X0157440Y0167798D01*
X0157498Y0167798D01*
X0157557Y0167794D01*
X0157615Y0167786D01*
X0157673Y0167774D01*
X0157730Y0167758D01*
X0157785Y0167739D01*
X0157839Y0167716D01*
X0157892Y0167690D01*
X0157943Y0167660D01*
X0157991Y0167626D01*
X0158037Y0167590D01*
X0158081Y0167551D01*
X0158122Y0167508D01*
X0158160Y0167463D01*
X0158195Y0167416D01*
X0158226Y0167366D01*
X0158254Y0167315D01*
X0158279Y0167262D01*
X0158300Y0167207D01*
X0158318Y0167150D01*
X0158331Y0167093D01*
X0158341Y0167035D01*
X0158347Y0166977D01*
X0158349Y0166918D01*
X0158347Y0166859D01*
X0158341Y0166801D01*
X0158331Y0166743D01*
X0158318Y0166686D01*
X0158300Y0166629D01*
X0158279Y0166574D01*
X0158254Y0166521D01*
X0158226Y0166470D01*
X0158195Y0166420D01*
X0158160Y0166373D01*
X0158122Y0166328D01*
X0158081Y0166285D01*
X0158037Y0166246D01*
X0157991Y0166210D01*
X0157943Y0166176D01*
X0157892Y0166146D01*
X0157839Y0166120D01*
X0157785Y0166097D01*
X0157730Y0166078D01*
X0157673Y0166062D01*
X0157615Y0166050D01*
X0157557Y0166042D01*
X0157498Y0166038D01*
X0157440Y0166038D01*
X0157381Y0166042D01*
X0157323Y0166050D01*
X0157265Y0166062D01*
X0157208Y0166078D01*
X0157153Y0166097D01*
X0157099Y0166120D01*
X0157046Y0166146D01*
X0156995Y0166176D01*
X0156947Y0166210D01*
X0156901Y0166246D01*
X0156857Y0166285D01*
X0156816Y0166328D01*
X0156778Y0166373D01*
X0156743Y0166420D01*
X0156712Y0166470D01*
X0156684Y0166521D01*
X0156659Y0166574D01*
X0156638Y0166629D01*
X0156620Y0166686D01*
X0156607Y0166743D01*
X0156597Y0166801D01*
X0156591Y0166859D01*
X0156589Y0166918D01*
X0239162Y0037076D02*
X0239162Y0030776D01*
X0242312Y0030776D01*
X0242312Y0037076D01*
X0239162Y0037076D01*
D22*
X0264073Y0117223D02*
X0264073Y0117957D01*
X0264073Y0117590D02*
X0266275Y0117590D01*
X0266275Y0117223D02*
X0266275Y0117957D01*
X0266275Y0118696D02*
X0264073Y0118696D01*
X0266275Y0120164D01*
X0264073Y0120164D01*
X0264807Y0120906D02*
X0264073Y0121640D01*
X0264807Y0122374D01*
X0266275Y0122374D01*
X0265908Y0123116D02*
X0265541Y0123116D01*
X0265174Y0123483D01*
X0265174Y0124217D01*
X0265541Y0124584D01*
X0265908Y0124584D01*
X0266275Y0124217D01*
X0266275Y0123483D01*
X0265908Y0123116D01*
X0265174Y0123483D02*
X0264807Y0123116D01*
X0264440Y0123116D01*
X0264073Y0123483D01*
X0264073Y0124217D01*
X0264440Y0124584D01*
X0264807Y0124584D01*
X0265174Y0124217D01*
X0264440Y0125326D02*
X0264073Y0125693D01*
X0264073Y0126427D01*
X0264440Y0126794D01*
X0264807Y0126794D01*
X0266275Y0125326D01*
X0266275Y0126794D01*
X0266275Y0127536D02*
X0265908Y0127536D01*
X0264440Y0129004D01*
X0264073Y0129004D01*
X0264073Y0127536D01*
X0265174Y0122374D02*
X0265174Y0120906D01*
X0264807Y0120906D02*
X0266275Y0120906D01*
D23*
X0299162Y0191485D03*
X0346367Y0190304D03*
D24*
X0366910Y0158259D02*
X0366293Y0157642D01*
X0366293Y0156408D01*
X0366910Y0155791D01*
X0366910Y0154576D02*
X0368145Y0154576D01*
X0368762Y0153959D01*
X0368762Y0152107D01*
X0369996Y0152107D02*
X0366293Y0152107D01*
X0366293Y0153959D01*
X0366910Y0154576D01*
X0368762Y0153342D02*
X0369996Y0154576D01*
X0369996Y0155791D02*
X0367528Y0158259D01*
X0366910Y0158259D01*
X0369996Y0158259D02*
X0369996Y0155791D01*
X0248850Y0118579D02*
X0248850Y0117962D01*
X0248233Y0117345D01*
X0248850Y0116728D01*
X0248850Y0116110D01*
X0248233Y0115493D01*
X0246998Y0115493D01*
X0246381Y0116110D01*
X0245167Y0115493D02*
X0243932Y0116728D01*
X0244550Y0116728D02*
X0242698Y0116728D01*
X0242698Y0115493D02*
X0242698Y0119196D01*
X0244550Y0119196D01*
X0245167Y0118579D01*
X0245167Y0117345D01*
X0244550Y0116728D01*
X0246381Y0118579D02*
X0246998Y0119196D01*
X0248233Y0119196D01*
X0248850Y0118579D01*
X0248233Y0117345D02*
X0247616Y0117345D01*
X0029367Y0150926D02*
X0025663Y0150926D01*
X0025663Y0152778D01*
X0026281Y0153395D01*
X0027515Y0153395D01*
X0028132Y0152778D01*
X0028132Y0150926D01*
X0028132Y0152161D02*
X0029367Y0153395D01*
X0029367Y0154610D02*
X0029367Y0157078D01*
X0029367Y0155844D02*
X0025663Y0155844D01*
X0026898Y0154610D01*
D25*
X0240816Y0023847D02*
X0244753Y0023847D01*
X0240844Y0023776D02*
X0240844Y0019910D01*
X0240816Y0019910D01*
X0240816Y0008099D02*
X0240816Y0004162D01*
X0268375Y0023847D02*
X0272312Y0023847D01*
X0272312Y0019910D01*
X0272312Y0008099D02*
X0272312Y0004162D01*
D26*
X0269831Y0045737D03*
X0259989Y0045776D03*
X0250737Y0045973D03*
X0240894Y0046170D03*
D27*
X0180215Y0088808D02*
X0180217Y0088875D01*
X0180223Y0088941D01*
X0180233Y0089007D01*
X0180247Y0089072D01*
X0180264Y0089136D01*
X0180286Y0089199D01*
X0180311Y0089261D01*
X0180340Y0089321D01*
X0180373Y0089379D01*
X0180408Y0089435D01*
X0180448Y0089489D01*
X0180490Y0089540D01*
X0180535Y0089589D01*
X0180583Y0089635D01*
X0180634Y0089678D01*
X0180687Y0089718D01*
X0180743Y0089755D01*
X0180801Y0089788D01*
X0180860Y0089818D01*
X0180921Y0089844D01*
X0180984Y0089867D01*
X0181048Y0089885D01*
X0181113Y0089900D01*
X0181179Y0089911D01*
X0181245Y0089918D01*
X0181311Y0089921D01*
X0181378Y0089920D01*
X0181444Y0089915D01*
X0181510Y0089906D01*
X0181576Y0089893D01*
X0181640Y0089876D01*
X0181703Y0089856D01*
X0181765Y0089831D01*
X0181826Y0089803D01*
X0181885Y0089772D01*
X0181941Y0089737D01*
X0181996Y0089699D01*
X0182048Y0089657D01*
X0182097Y0089612D01*
X0182144Y0089565D01*
X0182188Y0089515D01*
X0182228Y0089462D01*
X0182266Y0089407D01*
X0182300Y0089350D01*
X0182331Y0089291D01*
X0182358Y0089230D01*
X0182381Y0089168D01*
X0182401Y0089104D01*
X0182417Y0089039D01*
X0182429Y0088974D01*
X0182437Y0088908D01*
X0182441Y0088841D01*
X0182441Y0088775D01*
X0182437Y0088708D01*
X0182429Y0088642D01*
X0182417Y0088577D01*
X0182401Y0088512D01*
X0182381Y0088448D01*
X0182358Y0088386D01*
X0182331Y0088325D01*
X0182300Y0088266D01*
X0182266Y0088209D01*
X0182228Y0088154D01*
X0182188Y0088101D01*
X0182144Y0088051D01*
X0182097Y0088004D01*
X0182048Y0087959D01*
X0181996Y0087917D01*
X0181941Y0087879D01*
X0181884Y0087844D01*
X0181826Y0087813D01*
X0181765Y0087785D01*
X0181703Y0087760D01*
X0181640Y0087740D01*
X0181576Y0087723D01*
X0181510Y0087710D01*
X0181444Y0087701D01*
X0181378Y0087696D01*
X0181311Y0087695D01*
X0181245Y0087698D01*
X0181179Y0087705D01*
X0181113Y0087716D01*
X0181048Y0087731D01*
X0180984Y0087749D01*
X0180921Y0087772D01*
X0180860Y0087798D01*
X0180801Y0087828D01*
X0180743Y0087861D01*
X0180687Y0087898D01*
X0180634Y0087938D01*
X0180583Y0087981D01*
X0180535Y0088027D01*
X0180490Y0088076D01*
X0180448Y0088127D01*
X0180408Y0088181D01*
X0180373Y0088237D01*
X0180340Y0088295D01*
X0180311Y0088355D01*
X0180286Y0088417D01*
X0180264Y0088480D01*
X0180247Y0088544D01*
X0180233Y0088609D01*
X0180223Y0088675D01*
X0180217Y0088741D01*
X0180215Y0088808D01*
D28*
X0175816Y0087824D03*
X0175816Y0085855D03*
X0175816Y0083887D03*
X0175816Y0081918D03*
X0175816Y0079950D03*
X0175816Y0077981D03*
X0175816Y0076013D03*
X0175816Y0074044D03*
X0175816Y0072076D03*
X0175816Y0070107D03*
X0175816Y0068139D03*
X0175816Y0066170D03*
X0175816Y0064202D03*
X0175816Y0062233D03*
X0175816Y0060265D03*
X0175816Y0058296D03*
X0218335Y0058296D03*
X0218335Y0060265D03*
X0218335Y0062233D03*
X0218335Y0064202D03*
X0218335Y0066170D03*
X0218335Y0068139D03*
X0218335Y0070107D03*
X0218335Y0072076D03*
X0218335Y0074044D03*
X0218335Y0076013D03*
X0218335Y0077981D03*
X0218335Y0079950D03*
X0218335Y0081918D03*
X0218335Y0083887D03*
X0218335Y0085855D03*
X0218335Y0087824D03*
D29*
X0211839Y0094320D03*
X0209871Y0094320D03*
X0207902Y0094320D03*
X0205934Y0094320D03*
X0203965Y0094320D03*
X0201997Y0094320D03*
X0200028Y0094320D03*
X0198060Y0094320D03*
X0196091Y0094320D03*
X0194123Y0094320D03*
X0192154Y0094320D03*
X0190186Y0094320D03*
X0188217Y0094320D03*
X0186249Y0094320D03*
X0184280Y0094320D03*
X0182312Y0094320D03*
X0182312Y0051800D03*
X0184280Y0051800D03*
X0186249Y0051800D03*
X0188217Y0051800D03*
X0190186Y0051800D03*
X0192154Y0051800D03*
X0194123Y0051800D03*
X0196091Y0051800D03*
X0198060Y0051800D03*
X0200028Y0051800D03*
X0201997Y0051800D03*
X0203965Y0051800D03*
X0205934Y0051800D03*
X0207902Y0051800D03*
X0209871Y0051800D03*
X0211839Y0051800D03*
M02*
