G75*
%MOIN*%
%OFA0B0*%
%FSLAX25Y25*%
%IPPOS*%
%LPD*%
%AMOC8*
5,1,8,0,0,1.08239X$1,22.5*
%
%ADD10R,0.12611X0.24422*%
%ADD11C,0.04000*%
%ADD12C,0.01075*%
%ADD13R,0.05131X0.04737*%
%ADD14C,0.06800*%
%ADD15R,0.04737X0.05131*%
%ADD16C,0.04146*%
%ADD17OC8,0.13300*%
%ADD18C,0.03975*%
%ADD19C,0.04800*%
D10*
X0081564Y0222824D03*
X0101249Y0222824D03*
D11*
X0030753Y0195658D03*
X0018753Y0195658D03*
D12*
X0062271Y0184956D02*
X0062271Y0181730D01*
X0059045Y0181730D01*
X0059045Y0184956D01*
X0062271Y0184956D01*
X0062271Y0182804D02*
X0059045Y0182804D01*
X0059045Y0183878D02*
X0062271Y0183878D01*
X0062271Y0184952D02*
X0059045Y0184952D01*
X0062271Y0178956D02*
X0062271Y0175730D01*
X0059045Y0175730D01*
X0059045Y0178956D01*
X0062271Y0178956D01*
X0062271Y0176804D02*
X0059045Y0176804D01*
X0059045Y0177878D02*
X0062271Y0177878D01*
X0062271Y0178952D02*
X0059045Y0178952D01*
X0075108Y0178563D02*
X0075108Y0175337D01*
X0075108Y0178563D02*
X0078334Y0178563D01*
X0078334Y0175337D01*
X0075108Y0175337D01*
X0075108Y0176411D02*
X0078334Y0176411D01*
X0078334Y0177485D02*
X0075108Y0177485D01*
X0075108Y0178559D02*
X0078334Y0178559D01*
X0075108Y0181337D02*
X0075108Y0184563D01*
X0078334Y0184563D01*
X0078334Y0181337D01*
X0075108Y0181337D01*
X0075108Y0182411D02*
X0078334Y0182411D01*
X0078334Y0183485D02*
X0075108Y0183485D01*
X0075108Y0184559D02*
X0078334Y0184559D01*
X0115778Y0215730D02*
X0115778Y0218956D01*
X0119004Y0218956D01*
X0119004Y0215730D01*
X0115778Y0215730D01*
X0115778Y0216804D02*
X0119004Y0216804D01*
X0119004Y0217878D02*
X0115778Y0217878D01*
X0115778Y0218952D02*
X0119004Y0218952D01*
X0115778Y0221730D02*
X0115778Y0224956D01*
X0119004Y0224956D01*
X0119004Y0221730D01*
X0115778Y0221730D01*
X0115778Y0222804D02*
X0119004Y0222804D01*
X0119004Y0223878D02*
X0115778Y0223878D01*
X0115778Y0224952D02*
X0119004Y0224952D01*
X0129518Y0237856D02*
X0129518Y0241082D01*
X0132744Y0241082D01*
X0132744Y0237856D01*
X0129518Y0237856D01*
X0129518Y0238930D02*
X0132744Y0238930D01*
X0132744Y0240004D02*
X0129518Y0240004D01*
X0129518Y0241078D02*
X0132744Y0241078D01*
X0129518Y0243856D02*
X0129518Y0247082D01*
X0132744Y0247082D01*
X0132744Y0243856D01*
X0129518Y0243856D01*
X0129518Y0244930D02*
X0132744Y0244930D01*
X0132744Y0246004D02*
X0129518Y0246004D01*
X0129518Y0247078D02*
X0132744Y0247078D01*
X0129400Y0255100D02*
X0129400Y0258326D01*
X0132626Y0258326D01*
X0132626Y0255100D01*
X0129400Y0255100D01*
X0129400Y0256174D02*
X0132626Y0256174D01*
X0132626Y0257248D02*
X0129400Y0257248D01*
X0129400Y0258322D02*
X0132626Y0258322D01*
X0129400Y0261100D02*
X0129400Y0264326D01*
X0132626Y0264326D01*
X0132626Y0261100D01*
X0129400Y0261100D01*
X0129400Y0262174D02*
X0132626Y0262174D01*
X0132626Y0263248D02*
X0129400Y0263248D01*
X0129400Y0264322D02*
X0132626Y0264322D01*
X0142077Y0264326D02*
X0142077Y0261100D01*
X0142077Y0264326D02*
X0145303Y0264326D01*
X0145303Y0261100D01*
X0142077Y0261100D01*
X0142077Y0262174D02*
X0145303Y0262174D01*
X0145303Y0263248D02*
X0142077Y0263248D01*
X0142077Y0264322D02*
X0145303Y0264322D01*
X0142077Y0258326D02*
X0142077Y0255100D01*
X0142077Y0258326D02*
X0145303Y0258326D01*
X0145303Y0255100D01*
X0142077Y0255100D01*
X0142077Y0256174D02*
X0145303Y0256174D01*
X0145303Y0257248D02*
X0142077Y0257248D01*
X0142077Y0258322D02*
X0145303Y0258322D01*
X0153533Y0258011D02*
X0153533Y0254785D01*
X0153533Y0258011D02*
X0156759Y0258011D01*
X0156759Y0254785D01*
X0153533Y0254785D01*
X0153533Y0255859D02*
X0156759Y0255859D01*
X0156759Y0256933D02*
X0153533Y0256933D01*
X0153533Y0258007D02*
X0156759Y0258007D01*
X0153533Y0260785D02*
X0153533Y0264011D01*
X0156759Y0264011D01*
X0156759Y0260785D01*
X0153533Y0260785D01*
X0153533Y0261859D02*
X0156759Y0261859D01*
X0156759Y0262933D02*
X0153533Y0262933D01*
X0153533Y0264007D02*
X0156759Y0264007D01*
X0166799Y0263893D02*
X0166799Y0260667D01*
X0163573Y0260667D01*
X0163573Y0263893D01*
X0166799Y0263893D01*
X0166799Y0261741D02*
X0163573Y0261741D01*
X0163573Y0262815D02*
X0166799Y0262815D01*
X0166799Y0263889D02*
X0163573Y0263889D01*
X0166799Y0257893D02*
X0166799Y0254667D01*
X0163573Y0254667D01*
X0163573Y0257893D01*
X0166799Y0257893D01*
X0166799Y0255741D02*
X0163573Y0255741D01*
X0163573Y0256815D02*
X0166799Y0256815D01*
X0166799Y0257889D02*
X0163573Y0257889D01*
X0164321Y0247476D02*
X0164321Y0244250D01*
X0164321Y0247476D02*
X0167547Y0247476D01*
X0167547Y0244250D01*
X0164321Y0244250D01*
X0164321Y0245324D02*
X0167547Y0245324D01*
X0167547Y0246398D02*
X0164321Y0246398D01*
X0164321Y0247472D02*
X0167547Y0247472D01*
X0164321Y0241476D02*
X0164321Y0238250D01*
X0164321Y0241476D02*
X0167547Y0241476D01*
X0167547Y0238250D01*
X0164321Y0238250D01*
X0164321Y0239324D02*
X0167547Y0239324D01*
X0167547Y0240398D02*
X0164321Y0240398D01*
X0164321Y0241472D02*
X0167547Y0241472D01*
X0154163Y0241476D02*
X0154163Y0238250D01*
X0154163Y0241476D02*
X0157389Y0241476D01*
X0157389Y0238250D01*
X0154163Y0238250D01*
X0154163Y0239324D02*
X0157389Y0239324D01*
X0157389Y0240398D02*
X0154163Y0240398D01*
X0154163Y0241472D02*
X0157389Y0241472D01*
X0154163Y0244250D02*
X0154163Y0247476D01*
X0157389Y0247476D01*
X0157389Y0244250D01*
X0154163Y0244250D01*
X0154163Y0245324D02*
X0157389Y0245324D01*
X0157389Y0246398D02*
X0154163Y0246398D01*
X0154163Y0247472D02*
X0157389Y0247472D01*
X0142431Y0247082D02*
X0142431Y0243856D01*
X0142431Y0247082D02*
X0145657Y0247082D01*
X0145657Y0243856D01*
X0142431Y0243856D01*
X0142431Y0244930D02*
X0145657Y0244930D01*
X0145657Y0246004D02*
X0142431Y0246004D01*
X0142431Y0247078D02*
X0145657Y0247078D01*
X0142431Y0241082D02*
X0142431Y0237856D01*
X0142431Y0241082D02*
X0145657Y0241082D01*
X0145657Y0237856D01*
X0142431Y0237856D01*
X0142431Y0238930D02*
X0145657Y0238930D01*
X0145657Y0240004D02*
X0142431Y0240004D01*
X0142431Y0241078D02*
X0145657Y0241078D01*
X0154589Y0211720D02*
X0157815Y0211720D01*
X0157815Y0208494D01*
X0154589Y0208494D01*
X0154589Y0211720D01*
X0154589Y0209568D02*
X0157815Y0209568D01*
X0157815Y0210642D02*
X0154589Y0210642D01*
X0154589Y0211716D02*
X0157815Y0211716D01*
X0160589Y0211720D02*
X0163815Y0211720D01*
X0163815Y0208494D01*
X0160589Y0208494D01*
X0160589Y0211720D01*
X0160589Y0209568D02*
X0163815Y0209568D01*
X0163815Y0210642D02*
X0160589Y0210642D01*
X0160589Y0211716D02*
X0163815Y0211716D01*
X0164444Y0197153D02*
X0161218Y0197153D01*
X0164444Y0197153D02*
X0164444Y0193927D01*
X0161218Y0193927D01*
X0161218Y0197153D01*
X0161218Y0195001D02*
X0164444Y0195001D01*
X0164444Y0196075D02*
X0161218Y0196075D01*
X0161218Y0197149D02*
X0164444Y0197149D01*
X0158444Y0197153D02*
X0155218Y0197153D01*
X0158444Y0197153D02*
X0158444Y0193927D01*
X0155218Y0193927D01*
X0155218Y0197153D01*
X0155218Y0195001D02*
X0158444Y0195001D01*
X0158444Y0196075D02*
X0155218Y0196075D01*
X0155218Y0197149D02*
X0158444Y0197149D01*
X0133652Y0198090D02*
X0133652Y0194864D01*
X0133652Y0198090D02*
X0136878Y0198090D01*
X0136878Y0194864D01*
X0133652Y0194864D01*
X0133652Y0195938D02*
X0136878Y0195938D01*
X0136878Y0197012D02*
X0133652Y0197012D01*
X0133652Y0198086D02*
X0136878Y0198086D01*
X0133652Y0200864D02*
X0133652Y0204090D01*
X0136878Y0204090D01*
X0136878Y0200864D01*
X0133652Y0200864D01*
X0133652Y0201938D02*
X0136878Y0201938D01*
X0136878Y0203012D02*
X0133652Y0203012D01*
X0133652Y0204086D02*
X0136878Y0204086D01*
X0124124Y0204484D02*
X0124124Y0201258D01*
X0124124Y0204484D02*
X0127350Y0204484D01*
X0127350Y0201258D01*
X0124124Y0201258D01*
X0124124Y0202332D02*
X0127350Y0202332D01*
X0127350Y0203406D02*
X0124124Y0203406D01*
X0124124Y0204480D02*
X0127350Y0204480D01*
X0124124Y0198484D02*
X0124124Y0195258D01*
X0124124Y0198484D02*
X0127350Y0198484D01*
X0127350Y0195258D01*
X0124124Y0195258D01*
X0124124Y0196332D02*
X0127350Y0196332D01*
X0127350Y0197406D02*
X0124124Y0197406D01*
X0124124Y0198480D02*
X0127350Y0198480D01*
X0135620Y0154838D02*
X0135620Y0151612D01*
X0135620Y0154838D02*
X0138846Y0154838D01*
X0138846Y0151612D01*
X0135620Y0151612D01*
X0135620Y0152686D02*
X0138846Y0152686D01*
X0138846Y0153760D02*
X0135620Y0153760D01*
X0135620Y0154834D02*
X0138846Y0154834D01*
X0135620Y0148838D02*
X0135620Y0145612D01*
X0135620Y0148838D02*
X0138846Y0148838D01*
X0138846Y0145612D01*
X0135620Y0145612D01*
X0135620Y0146686D02*
X0138846Y0146686D01*
X0138846Y0147760D02*
X0135620Y0147760D01*
X0135620Y0148834D02*
X0138846Y0148834D01*
X0181911Y0196759D02*
X0185137Y0196759D01*
X0185137Y0193533D01*
X0181911Y0193533D01*
X0181911Y0196759D01*
X0181911Y0194607D02*
X0185137Y0194607D01*
X0185137Y0195681D02*
X0181911Y0195681D01*
X0181911Y0196755D02*
X0185137Y0196755D01*
X0187911Y0196759D02*
X0191137Y0196759D01*
X0191137Y0193533D01*
X0187911Y0193533D01*
X0187911Y0196759D01*
X0187911Y0194607D02*
X0191137Y0194607D01*
X0191137Y0195681D02*
X0187911Y0195681D01*
X0187911Y0196755D02*
X0191137Y0196755D01*
X0204510Y0207707D02*
X0207736Y0207707D01*
X0204510Y0207707D02*
X0204510Y0210933D01*
X0207736Y0210933D01*
X0207736Y0207707D01*
X0207736Y0208781D02*
X0204510Y0208781D01*
X0204510Y0209855D02*
X0207736Y0209855D01*
X0207736Y0210929D02*
X0204510Y0210929D01*
X0210510Y0207707D02*
X0213736Y0207707D01*
X0210510Y0207707D02*
X0210510Y0210933D01*
X0213736Y0210933D01*
X0213736Y0207707D01*
X0213736Y0208781D02*
X0210510Y0208781D01*
X0210510Y0209855D02*
X0213736Y0209855D01*
X0213736Y0210929D02*
X0210510Y0210929D01*
X0209959Y0219990D02*
X0213185Y0219990D01*
X0209959Y0219990D02*
X0209959Y0223216D01*
X0213185Y0223216D01*
X0213185Y0219990D01*
X0213185Y0221064D02*
X0209959Y0221064D01*
X0209959Y0222138D02*
X0213185Y0222138D01*
X0213185Y0223212D02*
X0209959Y0223212D01*
X0207185Y0219990D02*
X0203959Y0219990D01*
X0203959Y0223216D01*
X0207185Y0223216D01*
X0207185Y0219990D01*
X0207185Y0221064D02*
X0203959Y0221064D01*
X0203959Y0222138D02*
X0207185Y0222138D01*
X0207185Y0223212D02*
X0203959Y0223212D01*
X0270541Y0102594D02*
X0270541Y0099368D01*
X0270541Y0102594D02*
X0273767Y0102594D01*
X0273767Y0099368D01*
X0270541Y0099368D01*
X0270541Y0100442D02*
X0273767Y0100442D01*
X0273767Y0101516D02*
X0270541Y0101516D01*
X0270541Y0102590D02*
X0273767Y0102590D01*
X0270541Y0096594D02*
X0270541Y0093368D01*
X0270541Y0096594D02*
X0273767Y0096594D01*
X0273767Y0093368D01*
X0270541Y0093368D01*
X0270541Y0094442D02*
X0273767Y0094442D01*
X0273767Y0095516D02*
X0270541Y0095516D01*
X0270541Y0096590D02*
X0273767Y0096590D01*
X0273846Y0087633D02*
X0273846Y0084407D01*
X0270620Y0084407D01*
X0270620Y0087633D01*
X0273846Y0087633D01*
X0273846Y0085481D02*
X0270620Y0085481D01*
X0270620Y0086555D02*
X0273846Y0086555D01*
X0273846Y0087629D02*
X0270620Y0087629D01*
X0273846Y0081633D02*
X0273846Y0078407D01*
X0270620Y0078407D01*
X0270620Y0081633D01*
X0273846Y0081633D01*
X0273846Y0079481D02*
X0270620Y0079481D01*
X0270620Y0080555D02*
X0273846Y0080555D01*
X0273846Y0081629D02*
X0270620Y0081629D01*
X0155699Y0020586D02*
X0155699Y0017360D01*
X0155699Y0020586D02*
X0158925Y0020586D01*
X0158925Y0017360D01*
X0155699Y0017360D01*
X0155699Y0018434D02*
X0158925Y0018434D01*
X0158925Y0019508D02*
X0155699Y0019508D01*
X0155699Y0020582D02*
X0158925Y0020582D01*
X0155699Y0014586D02*
X0155699Y0011360D01*
X0155699Y0014586D02*
X0158925Y0014586D01*
X0158925Y0011360D01*
X0155699Y0011360D01*
X0155699Y0012434D02*
X0158925Y0012434D01*
X0158925Y0013508D02*
X0155699Y0013508D01*
X0155699Y0014582D02*
X0158925Y0014582D01*
D13*
X0157509Y0028178D03*
X0150816Y0028178D03*
X0179241Y0063414D03*
X0185934Y0063414D03*
X0199713Y0063769D03*
X0206406Y0063769D03*
X0205068Y0082272D03*
X0198375Y0082272D03*
X0187981Y0082194D03*
X0181288Y0082194D03*
X0220501Y0093178D03*
X0227194Y0093178D03*
X0242548Y0096682D03*
X0249241Y0096682D03*
X0250028Y0079753D03*
X0243335Y0079753D03*
X0226997Y0105383D03*
X0220304Y0105383D03*
X0209950Y0127902D03*
X0203257Y0127902D03*
X0174005Y0127863D03*
X0167312Y0127863D03*
X0123650Y0162824D03*
X0116957Y0162824D03*
X0183099Y0209753D03*
X0189792Y0209753D03*
X0206918Y0195186D03*
X0213611Y0195186D03*
X0279241Y0153414D03*
X0285934Y0153414D03*
X0286328Y0138808D03*
X0279635Y0138808D03*
D14*
X0139320Y0016060D02*
X0139320Y0010060D01*
X0129320Y0010060D02*
X0129320Y0016060D01*
X0119320Y0016060D02*
X0119320Y0010060D01*
X0109320Y0010060D02*
X0109320Y0016060D01*
D15*
X0107863Y0108296D03*
X0107863Y0114989D03*
X0119083Y0114989D03*
X0119083Y0108296D03*
X0096485Y0108375D03*
X0096485Y0115068D03*
D16*
X0249083Y0020698D03*
X0264044Y0020698D03*
D17*
X0058887Y0025422D03*
X0324241Y0025422D03*
D18*
X0259280Y0074597D03*
X0254950Y0074597D03*
X0262831Y0079366D03*
X0256131Y0082115D03*
X0232902Y0086052D03*
X0229753Y0073847D03*
X0233728Y0073454D03*
X0225028Y0057706D03*
X0230146Y0053769D03*
X0215580Y0041170D03*
X0227353Y0037233D03*
X0208099Y0021091D03*
X0203375Y0021091D03*
X0199400Y0021091D03*
X0162861Y0041995D03*
X0156131Y0039239D03*
X0146263Y0030109D03*
X0184083Y0059058D03*
X0188058Y0058099D03*
X0182336Y0067327D03*
X0164388Y0064830D03*
X0159280Y0062036D03*
X0163120Y0071250D03*
X0159145Y0072801D03*
X0155910Y0075187D03*
X0152981Y0088808D03*
X0142745Y0088452D03*
X0135848Y0090193D03*
X0135265Y0085658D03*
X0166367Y0088808D03*
X0184009Y0085732D03*
X0190383Y0085265D03*
X0210068Y0084083D03*
X0203375Y0105343D03*
X0203769Y0059413D03*
X0207743Y0059280D03*
X0330934Y0121879D03*
X0278178Y0170304D03*
D19*
X0291367Y0161839D03*
X0286446Y0158394D03*
X0262824Y0175619D03*
X0273158Y0183493D03*
X0273650Y0188906D03*
X0287430Y0198257D03*
X0275127Y0214497D03*
X0266269Y0208099D03*
X0259379Y0203178D03*
X0254457Y0203178D03*
X0287922Y0221387D03*
X0307607Y0227784D03*
X0322371Y0229261D03*
X0344024Y0212528D03*
X0352883Y0212528D03*
X0354851Y0204654D03*
X0336150Y0197272D03*
X0325324Y0195796D03*
X0328276Y0186446D03*
X0333198Y0186446D03*
X0314005Y0138217D03*
X0356328Y0138709D03*
X0268237Y0130343D03*
X0264792Y0126898D03*
X0262824Y0120009D03*
X0269713Y0114103D03*
X0256918Y0137725D03*
X0260855Y0162331D03*
X0250028Y0175127D03*
X0213611Y0180048D03*
X0202784Y0190875D03*
X0212135Y0200225D03*
X0211643Y0214497D03*
X0176702Y0196780D03*
X0162430Y0200225D03*
X0156524Y0200225D03*
X0134871Y0191859D03*
X0119123Y0193335D03*
X0111249Y0192351D03*
X0117154Y0210560D03*
X0139300Y0237627D03*
X0133887Y0252391D03*
X0101406Y0240580D03*
X0096485Y0240087D03*
X0092056Y0249438D03*
X0079261Y0242548D03*
X0057607Y0222863D03*
X0042843Y0224831D03*
X0039398Y0208099D03*
X0024143Y0215973D03*
X0019221Y0215973D03*
X0039398Y0191859D03*
X0055639Y0183001D03*
X0065481Y0183493D03*
X0081721Y0176111D03*
X0060068Y0207607D03*
X0132410Y0146583D03*
X0157017Y0170698D03*
X0162922Y0169713D03*
X0183591Y0177095D03*
X0171780Y0122961D03*
X0188513Y0114103D03*
X0184083Y0104753D03*
X0193926Y0100816D03*
X0204753Y0089989D03*
X0215087Y0090481D03*
X0224438Y0100324D03*
X0206721Y0122961D03*
X0148650Y0113611D03*
X0108296Y0097863D03*
X0104359Y0101308D03*
X0075324Y0107706D03*
X0054654Y0122961D03*
X0154064Y0023552D03*
X0145206Y0016662D03*
X0161446Y0007804D03*
X0229359Y0060461D03*
X0247076Y0062922D03*
X0242646Y0073749D03*
X0270698Y0072272D03*
X0186052Y0072765D03*
X0265776Y0238611D03*
X0272666Y0245501D03*
X0279064Y0241072D03*
X0283493Y0253375D03*
X0272666Y0266662D03*
X0262331Y0266662D03*
X0265776Y0253375D03*
X0308099Y0270107D03*
X0309083Y0248946D03*
X0346977Y0245501D03*
M02*
