G75*
%MOIN*%
%OFA0B0*%
%FSLAX25Y25*%
%IPPOS*%
%LPD*%
%AMOC8*
5,1,8,0,0,1.08239X$1,22.5*
%
%ADD10R,0.12414X0.04737*%
%ADD11R,0.08280X0.07099*%
%ADD12R,0.05131X0.04737*%
%ADD13R,0.03950X0.03950*%
%ADD14R,0.03300X0.05800*%
%ADD15C,0.04000*%
%ADD16R,0.01981X0.03753*%
%ADD17R,0.02454X0.04087*%
%ADD18R,0.02375X0.02965*%
%ADD19R,0.02965X0.02965*%
%ADD20R,0.02657X0.05167*%
%ADD21R,0.07887X0.05918*%
%ADD22R,0.08674X0.07493*%
%ADD23R,0.03280X0.04068*%
%ADD24R,0.03162X0.03950*%
%ADD25C,0.01075*%
%ADD26R,0.06800X0.03800*%
%ADD27R,0.05600X0.09600*%
%ADD28R,0.14973X0.09461*%
%ADD29C,0.06800*%
%ADD30R,0.07690X0.02572*%
%ADD31R,0.48044X0.24816*%
%ADD32R,0.02375X0.05524*%
%ADD33R,0.04343X0.05131*%
%ADD34R,0.05131X0.04343*%
%ADD35R,0.04737X0.05131*%
%ADD36R,0.02178X0.06300*%
%ADD37R,0.02375X0.16548*%
%ADD38R,0.02375X0.06312*%
%ADD39C,0.04146*%
%ADD40R,0.46800X0.07800*%
%ADD41R,0.03950X0.03162*%
%ADD42OC8,0.13300*%
%ADD43R,0.05524X0.01981*%
%ADD44R,0.01981X0.05524*%
%ADD45C,0.03975*%
%ADD46C,0.04800*%
D10*
X0046524Y0263454D03*
X0065422Y0263454D03*
D11*
X0063611Y0242036D03*
X0050619Y0242036D03*
X0050619Y0228178D03*
X0063611Y0228178D03*
D12*
X0064202Y0212509D03*
X0057509Y0212509D03*
X0077469Y0212469D03*
X0084162Y0212469D03*
X0036446Y0256052D03*
X0029753Y0256052D03*
X0022706Y0256131D03*
X0016013Y0256131D03*
X0077351Y0260619D03*
X0084044Y0260619D03*
X0084083Y0272863D03*
X0077391Y0272863D03*
X0254162Y0258650D03*
X0260855Y0258650D03*
X0261052Y0245658D03*
X0254359Y0245658D03*
X0254162Y0233454D03*
X0260855Y0233454D03*
X0261052Y0220501D03*
X0254359Y0220501D03*
X0254162Y0208296D03*
X0260855Y0208296D03*
X0276209Y0219320D03*
X0282902Y0219320D03*
X0283572Y0232745D03*
X0276879Y0232745D03*
X0305737Y0240934D03*
X0312430Y0240934D03*
X0312233Y0253926D03*
X0305540Y0253926D03*
X0332115Y0237036D03*
X0338808Y0237036D03*
X0338414Y0224792D03*
X0331721Y0224792D03*
X0331918Y0212233D03*
X0338611Y0212233D03*
X0350816Y0224831D03*
X0357509Y0224831D03*
X0339202Y0265776D03*
X0332509Y0265776D03*
X0350028Y0266170D03*
X0356721Y0266170D03*
X0357706Y0173178D03*
X0364398Y0173178D03*
X0314005Y0145265D03*
X0307312Y0145265D03*
X0307115Y0131485D03*
X0313808Y0131485D03*
X0331446Y0125383D03*
X0338139Y0125383D03*
X0260658Y0157115D03*
X0253965Y0157115D03*
X0254162Y0170501D03*
X0260855Y0170501D03*
D13*
X0211288Y0124517D03*
X0211288Y0118611D03*
X0166957Y0117902D03*
X0166957Y0123808D03*
X0036643Y0265304D03*
X0030737Y0265304D03*
X0021918Y0264910D03*
X0016013Y0264910D03*
D14*
X0014753Y0208158D03*
X0024753Y0208158D03*
X0034753Y0208158D03*
X0034753Y0183158D03*
X0024753Y0183158D03*
X0014753Y0183158D03*
D15*
X0018753Y0195658D03*
X0030753Y0195658D03*
D16*
X0097450Y0245009D03*
X0100009Y0245009D03*
X0102568Y0245009D03*
X0105127Y0245009D03*
X0105127Y0268040D03*
X0102568Y0268040D03*
X0100009Y0268040D03*
X0097450Y0268040D03*
D17*
X0029891Y0240816D03*
X0024891Y0240816D03*
X0019891Y0240816D03*
X0014891Y0240816D03*
X0014891Y0220501D03*
X0019891Y0220501D03*
X0024891Y0220501D03*
X0029891Y0220501D03*
D18*
X0079635Y0238414D03*
X0083375Y0238414D03*
X0087115Y0238414D03*
D19*
X0087115Y0247469D03*
X0083375Y0247469D03*
X0079635Y0247469D03*
D20*
X0107430Y0205407D03*
X0111170Y0205407D03*
X0114910Y0205407D03*
X0114910Y0196303D03*
X0107430Y0196303D03*
D21*
X0140501Y0078808D03*
X0140501Y0068965D03*
D22*
X0140265Y0055855D03*
X0140265Y0041288D03*
D23*
X0132548Y0210540D03*
X0123493Y0210540D03*
D24*
X0133729Y0242233D03*
X0140422Y0242233D03*
D25*
X0252620Y0141289D02*
X0255846Y0141289D01*
X0252620Y0141289D02*
X0252620Y0144515D01*
X0255846Y0144515D01*
X0255846Y0141289D01*
X0255846Y0142363D02*
X0252620Y0142363D01*
X0252620Y0143437D02*
X0255846Y0143437D01*
X0255846Y0144511D02*
X0252620Y0144511D01*
X0258620Y0141289D02*
X0261846Y0141289D01*
X0258620Y0141289D02*
X0258620Y0144515D01*
X0261846Y0144515D01*
X0261846Y0141289D01*
X0261846Y0142363D02*
X0258620Y0142363D01*
X0258620Y0143437D02*
X0261846Y0143437D01*
X0261846Y0144511D02*
X0258620Y0144511D01*
X0289400Y0125862D02*
X0289400Y0122636D01*
X0289400Y0125862D02*
X0292626Y0125862D01*
X0292626Y0122636D01*
X0289400Y0122636D01*
X0289400Y0123710D02*
X0292626Y0123710D01*
X0292626Y0124784D02*
X0289400Y0124784D01*
X0289400Y0125858D02*
X0292626Y0125858D01*
X0289400Y0119862D02*
X0289400Y0116636D01*
X0289400Y0119862D02*
X0292626Y0119862D01*
X0292626Y0116636D01*
X0289400Y0116636D01*
X0289400Y0117710D02*
X0292626Y0117710D01*
X0292626Y0118784D02*
X0289400Y0118784D01*
X0289400Y0119858D02*
X0292626Y0119858D01*
X0327266Y0143730D02*
X0330492Y0143730D01*
X0327266Y0143730D02*
X0327266Y0146956D01*
X0330492Y0146956D01*
X0330492Y0143730D01*
X0330492Y0144804D02*
X0327266Y0144804D01*
X0327266Y0145878D02*
X0330492Y0145878D01*
X0330492Y0146952D02*
X0327266Y0146952D01*
X0333266Y0143730D02*
X0336492Y0143730D01*
X0333266Y0143730D02*
X0333266Y0146956D01*
X0336492Y0146956D01*
X0336492Y0143730D01*
X0336492Y0144804D02*
X0333266Y0144804D01*
X0333266Y0145878D02*
X0336492Y0145878D01*
X0336492Y0146952D02*
X0333266Y0146952D01*
X0363022Y0187974D02*
X0363022Y0191200D01*
X0366248Y0191200D01*
X0366248Y0187974D01*
X0363022Y0187974D01*
X0363022Y0189048D02*
X0366248Y0189048D01*
X0366248Y0190122D02*
X0363022Y0190122D01*
X0363022Y0191196D02*
X0366248Y0191196D01*
X0363022Y0193974D02*
X0363022Y0197200D01*
X0366248Y0197200D01*
X0366248Y0193974D01*
X0363022Y0193974D01*
X0363022Y0195048D02*
X0366248Y0195048D01*
X0366248Y0196122D02*
X0363022Y0196122D01*
X0363022Y0197196D02*
X0366248Y0197196D01*
X0350423Y0234431D02*
X0350423Y0237657D01*
X0353649Y0237657D01*
X0353649Y0234431D01*
X0350423Y0234431D01*
X0350423Y0235505D02*
X0353649Y0235505D01*
X0353649Y0236579D02*
X0350423Y0236579D01*
X0350423Y0237653D02*
X0353649Y0237653D01*
X0350423Y0240431D02*
X0350423Y0243657D01*
X0353649Y0243657D01*
X0353649Y0240431D01*
X0350423Y0240431D01*
X0350423Y0241505D02*
X0353649Y0241505D01*
X0353649Y0242579D02*
X0350423Y0242579D01*
X0350423Y0243653D02*
X0353649Y0243653D01*
X0352382Y0253494D02*
X0349156Y0253494D01*
X0349156Y0256720D01*
X0352382Y0256720D01*
X0352382Y0253494D01*
X0352382Y0254568D02*
X0349156Y0254568D01*
X0349156Y0255642D02*
X0352382Y0255642D01*
X0352382Y0256716D02*
X0349156Y0256716D01*
X0355156Y0253494D02*
X0358382Y0253494D01*
X0355156Y0253494D02*
X0355156Y0256720D01*
X0358382Y0256720D01*
X0358382Y0253494D01*
X0358382Y0254568D02*
X0355156Y0254568D01*
X0355156Y0255642D02*
X0358382Y0255642D01*
X0358382Y0256716D02*
X0355156Y0256716D01*
X0330423Y0255862D02*
X0330423Y0252636D01*
X0330423Y0255862D02*
X0333649Y0255862D01*
X0333649Y0252636D01*
X0330423Y0252636D01*
X0330423Y0253710D02*
X0333649Y0253710D01*
X0333649Y0254784D02*
X0330423Y0254784D01*
X0330423Y0255858D02*
X0333649Y0255858D01*
X0330423Y0249862D02*
X0330423Y0246636D01*
X0330423Y0249862D02*
X0333649Y0249862D01*
X0333649Y0246636D01*
X0330423Y0246636D01*
X0330423Y0247710D02*
X0333649Y0247710D01*
X0333649Y0248784D02*
X0330423Y0248784D01*
X0330423Y0249858D02*
X0333649Y0249858D01*
X0312791Y0267429D02*
X0309565Y0267429D01*
X0312791Y0267429D02*
X0312791Y0264203D01*
X0309565Y0264203D01*
X0309565Y0267429D01*
X0309565Y0265277D02*
X0312791Y0265277D01*
X0312791Y0266351D02*
X0309565Y0266351D01*
X0309565Y0267425D02*
X0312791Y0267425D01*
X0306791Y0267429D02*
X0303565Y0267429D01*
X0306791Y0267429D02*
X0306791Y0264203D01*
X0303565Y0264203D01*
X0303565Y0267429D01*
X0303565Y0265277D02*
X0306791Y0265277D01*
X0306791Y0266351D02*
X0303565Y0266351D01*
X0303565Y0267425D02*
X0306791Y0267425D01*
X0276093Y0268460D02*
X0276093Y0265234D01*
X0276093Y0268460D02*
X0279319Y0268460D01*
X0279319Y0265234D01*
X0276093Y0265234D01*
X0276093Y0266308D02*
X0279319Y0266308D01*
X0279319Y0267382D02*
X0276093Y0267382D01*
X0276093Y0268456D02*
X0279319Y0268456D01*
X0276093Y0262460D02*
X0276093Y0259234D01*
X0276093Y0262460D02*
X0279319Y0262460D01*
X0279319Y0259234D01*
X0276093Y0259234D01*
X0276093Y0260308D02*
X0279319Y0260308D01*
X0279319Y0261382D02*
X0276093Y0261382D01*
X0276093Y0262456D02*
X0279319Y0262456D01*
X0275778Y0253500D02*
X0275778Y0250274D01*
X0275778Y0253500D02*
X0279004Y0253500D01*
X0279004Y0250274D01*
X0275778Y0250274D01*
X0275778Y0251348D02*
X0279004Y0251348D01*
X0279004Y0252422D02*
X0275778Y0252422D01*
X0275778Y0253496D02*
X0279004Y0253496D01*
X0275778Y0247500D02*
X0275778Y0244274D01*
X0275778Y0247500D02*
X0279004Y0247500D01*
X0279004Y0244274D01*
X0275778Y0244274D01*
X0275778Y0245348D02*
X0279004Y0245348D01*
X0279004Y0246422D02*
X0275778Y0246422D01*
X0275778Y0247496D02*
X0279004Y0247496D01*
X0290888Y0204911D02*
X0294114Y0204911D01*
X0290888Y0204911D02*
X0290888Y0208137D01*
X0294114Y0208137D01*
X0294114Y0204911D01*
X0294114Y0205985D02*
X0290888Y0205985D01*
X0290888Y0207059D02*
X0294114Y0207059D01*
X0294114Y0208133D02*
X0290888Y0208133D01*
X0296888Y0204911D02*
X0300114Y0204911D01*
X0296888Y0204911D02*
X0296888Y0208137D01*
X0300114Y0208137D01*
X0300114Y0204911D01*
X0300114Y0205985D02*
X0296888Y0205985D01*
X0296888Y0207059D02*
X0300114Y0207059D01*
X0300114Y0208133D02*
X0296888Y0208133D01*
X0131649Y0077549D02*
X0128423Y0077549D01*
X0128423Y0080775D01*
X0131649Y0080775D01*
X0131649Y0077549D01*
X0131649Y0078623D02*
X0128423Y0078623D01*
X0128423Y0079697D02*
X0131649Y0079697D01*
X0131649Y0080771D02*
X0128423Y0080771D01*
X0125649Y0077549D02*
X0122423Y0077549D01*
X0122423Y0080775D01*
X0125649Y0080775D01*
X0125649Y0077549D01*
X0125649Y0078623D02*
X0122423Y0078623D01*
X0122423Y0079697D02*
X0125649Y0079697D01*
X0125649Y0080771D02*
X0122423Y0080771D01*
X0122502Y0068100D02*
X0125728Y0068100D01*
X0122502Y0068100D02*
X0122502Y0071326D01*
X0125728Y0071326D01*
X0125728Y0068100D01*
X0125728Y0069174D02*
X0122502Y0069174D01*
X0122502Y0070248D02*
X0125728Y0070248D01*
X0125728Y0071322D02*
X0122502Y0071322D01*
X0128502Y0068100D02*
X0131728Y0068100D01*
X0128502Y0068100D02*
X0128502Y0071326D01*
X0131728Y0071326D01*
X0131728Y0068100D01*
X0131728Y0069174D02*
X0128502Y0069174D01*
X0128502Y0070248D02*
X0131728Y0070248D01*
X0131728Y0071322D02*
X0128502Y0071322D01*
X0128187Y0053533D02*
X0131413Y0053533D01*
X0128187Y0053533D02*
X0128187Y0056759D01*
X0131413Y0056759D01*
X0131413Y0053533D01*
X0131413Y0054607D02*
X0128187Y0054607D01*
X0128187Y0055681D02*
X0131413Y0055681D01*
X0131413Y0056755D02*
X0128187Y0056755D01*
X0125413Y0053533D02*
X0122187Y0053533D01*
X0122187Y0056759D01*
X0125413Y0056759D01*
X0125413Y0053533D01*
X0125413Y0054607D02*
X0122187Y0054607D01*
X0122187Y0055681D02*
X0125413Y0055681D01*
X0125413Y0056755D02*
X0122187Y0056755D01*
X0121557Y0039675D02*
X0124783Y0039675D01*
X0121557Y0039675D02*
X0121557Y0042901D01*
X0124783Y0042901D01*
X0124783Y0039675D01*
X0124783Y0040749D02*
X0121557Y0040749D01*
X0121557Y0041823D02*
X0124783Y0041823D01*
X0124783Y0042897D02*
X0121557Y0042897D01*
X0127557Y0039675D02*
X0130783Y0039675D01*
X0127557Y0039675D02*
X0127557Y0042901D01*
X0130783Y0042901D01*
X0130783Y0039675D01*
X0130783Y0040749D02*
X0127557Y0040749D01*
X0127557Y0041823D02*
X0130783Y0041823D01*
X0130783Y0042897D02*
X0127557Y0042897D01*
D26*
X0165422Y0027017D03*
X0165422Y0012017D03*
X0185422Y0012017D03*
X0185422Y0027017D03*
X0130146Y0138828D03*
X0130146Y0153828D03*
X0110146Y0153828D03*
X0110146Y0138828D03*
D27*
X0075270Y0169639D03*
X0066170Y0169639D03*
X0057070Y0169639D03*
D28*
X0066170Y0194040D03*
D29*
X0109320Y0016060D02*
X0109320Y0010060D01*
X0119320Y0010060D02*
X0119320Y0016060D01*
X0129320Y0016060D02*
X0129320Y0010060D01*
X0139320Y0010060D02*
X0139320Y0016060D01*
D30*
X0256564Y0118257D03*
X0256564Y0120816D03*
X0256564Y0123375D03*
X0256564Y0125934D03*
X0273887Y0125934D03*
X0273887Y0123375D03*
X0273887Y0120816D03*
X0273887Y0118257D03*
D31*
X0321406Y0077509D03*
X0321406Y0053887D03*
X0060383Y0055068D03*
X0060383Y0078690D03*
D32*
X0281288Y0169969D03*
X0284044Y0169969D03*
X0286603Y0169969D03*
X0289162Y0169969D03*
X0291721Y0169969D03*
X0294280Y0169969D03*
X0297036Y0169969D03*
X0297036Y0193001D03*
X0294280Y0193001D03*
X0291721Y0193001D03*
X0289162Y0193001D03*
X0286603Y0193001D03*
X0284044Y0193001D03*
X0281288Y0193001D03*
X0328493Y0191820D03*
X0331249Y0191820D03*
X0333808Y0191820D03*
X0336367Y0191820D03*
X0338926Y0191820D03*
X0341485Y0191820D03*
X0344241Y0191820D03*
X0344241Y0168788D03*
X0341485Y0168788D03*
X0338926Y0168788D03*
X0336367Y0168788D03*
X0333808Y0168788D03*
X0331249Y0168788D03*
X0328493Y0168788D03*
D33*
X0356564Y0144083D03*
X0367981Y0140501D03*
X0367981Y0147666D03*
X0027351Y0146485D03*
X0027351Y0139320D03*
X0015934Y0142902D03*
D34*
X0231091Y0117509D03*
X0238257Y0117509D03*
X0234674Y0128926D03*
D35*
X0240894Y0049517D03*
X0240894Y0042824D03*
X0250737Y0042627D03*
X0250737Y0049320D03*
X0259989Y0049123D03*
X0259989Y0042430D03*
X0269831Y0042391D03*
X0269831Y0049083D03*
X0292351Y0244280D03*
X0292351Y0250973D03*
X0292351Y0260816D03*
X0292351Y0267509D03*
D36*
X0071406Y0117158D03*
X0068257Y0117158D03*
X0065107Y0117158D03*
X0061957Y0117158D03*
X0058808Y0117158D03*
X0055658Y0117158D03*
X0052509Y0117158D03*
X0052509Y0105694D03*
X0055658Y0105694D03*
X0058808Y0105694D03*
X0061957Y0105694D03*
X0065107Y0105694D03*
X0068257Y0105694D03*
X0071406Y0105694D03*
D37*
X0159044Y0157863D03*
X0161800Y0157863D03*
X0164556Y0157863D03*
X0167312Y0157863D03*
X0170068Y0157863D03*
X0172824Y0157863D03*
X0175580Y0157863D03*
X0178335Y0157863D03*
X0181091Y0157863D03*
X0183847Y0157863D03*
X0186603Y0157863D03*
X0189359Y0157863D03*
X0192115Y0157863D03*
X0194871Y0157863D03*
X0197627Y0157863D03*
X0200383Y0157863D03*
X0203139Y0157863D03*
X0205894Y0157863D03*
X0208650Y0157863D03*
X0211406Y0157863D03*
X0214162Y0157863D03*
X0216918Y0157863D03*
X0219674Y0157863D03*
X0222430Y0157863D03*
X0225186Y0157863D03*
X0227942Y0157863D03*
X0230698Y0157863D03*
X0233454Y0157863D03*
X0236209Y0157863D03*
X0238965Y0157863D03*
D38*
X0251446Y0022666D03*
X0254005Y0022666D03*
X0256564Y0022666D03*
X0259123Y0022666D03*
X0261682Y0022666D03*
D39*
X0264044Y0020698D03*
X0249083Y0020698D03*
D40*
X0256564Y0012036D03*
D41*
X0240737Y0030580D03*
X0240737Y0037272D03*
D42*
X0058887Y0025422D03*
X0324241Y0025422D03*
D43*
X0219517Y0058296D03*
X0219517Y0060265D03*
X0219517Y0062233D03*
X0219517Y0064202D03*
X0219517Y0066170D03*
X0219517Y0068139D03*
X0219517Y0070107D03*
X0219517Y0072076D03*
X0219517Y0074044D03*
X0219517Y0076013D03*
X0219517Y0077981D03*
X0219517Y0079950D03*
X0219517Y0081918D03*
X0219517Y0083887D03*
X0219517Y0085855D03*
X0219517Y0087824D03*
X0174635Y0087824D03*
X0174635Y0085855D03*
X0174635Y0083887D03*
X0174635Y0081918D03*
X0174635Y0079950D03*
X0174635Y0077981D03*
X0174635Y0076013D03*
X0174635Y0074044D03*
X0174635Y0072076D03*
X0174635Y0070107D03*
X0174635Y0068139D03*
X0174635Y0066170D03*
X0174635Y0064202D03*
X0174635Y0062233D03*
X0174635Y0060265D03*
X0174635Y0058296D03*
D44*
X0182312Y0050619D03*
X0184280Y0050619D03*
X0186249Y0050619D03*
X0188217Y0050619D03*
X0190186Y0050619D03*
X0192154Y0050619D03*
X0194123Y0050619D03*
X0196091Y0050619D03*
X0198060Y0050619D03*
X0200028Y0050619D03*
X0201997Y0050619D03*
X0203965Y0050619D03*
X0205934Y0050619D03*
X0207902Y0050619D03*
X0209871Y0050619D03*
X0211839Y0050619D03*
X0211839Y0095501D03*
X0209871Y0095501D03*
X0207902Y0095501D03*
X0205934Y0095501D03*
X0203965Y0095501D03*
X0201997Y0095501D03*
X0200028Y0095501D03*
X0198060Y0095501D03*
X0196091Y0095501D03*
X0194123Y0095501D03*
X0192154Y0095501D03*
X0190186Y0095501D03*
X0188217Y0095501D03*
X0186249Y0095501D03*
X0184280Y0095501D03*
X0182312Y0095501D03*
D45*
X0184009Y0085732D03*
X0190383Y0085265D03*
X0210068Y0084083D03*
X0229753Y0073847D03*
X0233728Y0073454D03*
X0232902Y0086052D03*
X0256131Y0082115D03*
X0262831Y0079366D03*
X0259280Y0074597D03*
X0254950Y0074597D03*
X0230146Y0053769D03*
X0225028Y0057706D03*
X0207743Y0059280D03*
X0203769Y0059413D03*
X0188058Y0058099D03*
X0184083Y0059058D03*
X0182336Y0067327D03*
X0164388Y0064830D03*
X0159280Y0062036D03*
X0163120Y0071250D03*
X0159145Y0072801D03*
X0155910Y0075187D03*
X0152981Y0088808D03*
X0142745Y0088452D03*
X0135848Y0090193D03*
X0135265Y0085658D03*
X0166367Y0088808D03*
X0203375Y0105343D03*
X0215580Y0041170D03*
X0227353Y0037233D03*
X0208099Y0021091D03*
X0203375Y0021091D03*
X0199400Y0021091D03*
X0162861Y0041995D03*
X0156131Y0039239D03*
X0146263Y0030109D03*
X0278178Y0170304D03*
X0330934Y0121879D03*
D46*
X0314005Y0138217D03*
X0286446Y0158394D03*
X0291367Y0161839D03*
X0273158Y0183493D03*
X0273650Y0188906D03*
X0287430Y0198257D03*
X0275127Y0214497D03*
X0266269Y0208099D03*
X0259379Y0203178D03*
X0254457Y0203178D03*
X0262824Y0175619D03*
X0250028Y0175127D03*
X0260855Y0162331D03*
X0256918Y0137725D03*
X0268237Y0130343D03*
X0264792Y0126898D03*
X0262824Y0120009D03*
X0269713Y0114103D03*
X0224438Y0100324D03*
X0215087Y0090481D03*
X0204753Y0089989D03*
X0193926Y0100816D03*
X0184083Y0104753D03*
X0188513Y0114103D03*
X0171780Y0122961D03*
X0148650Y0113611D03*
X0108296Y0097863D03*
X0104359Y0101308D03*
X0075324Y0107706D03*
X0054654Y0122961D03*
X0081721Y0176111D03*
X0065481Y0183493D03*
X0055639Y0183001D03*
X0039398Y0191859D03*
X0060068Y0207607D03*
X0039398Y0208099D03*
X0024143Y0215973D03*
X0019221Y0215973D03*
X0042843Y0224831D03*
X0057607Y0222863D03*
X0079261Y0242548D03*
X0092056Y0249438D03*
X0096485Y0240087D03*
X0101406Y0240580D03*
X0133887Y0252391D03*
X0139300Y0237627D03*
X0117154Y0210560D03*
X0119123Y0193335D03*
X0111249Y0192351D03*
X0134871Y0191859D03*
X0156524Y0200225D03*
X0162430Y0200225D03*
X0176702Y0196780D03*
X0183591Y0177095D03*
X0162922Y0169713D03*
X0157017Y0170698D03*
X0132410Y0146583D03*
X0202784Y0190875D03*
X0212135Y0200225D03*
X0211643Y0214497D03*
X0213611Y0180048D03*
X0206721Y0122961D03*
X0242646Y0073749D03*
X0247076Y0062922D03*
X0229359Y0060461D03*
X0270698Y0072272D03*
X0186052Y0072765D03*
X0154064Y0023552D03*
X0145206Y0016662D03*
X0161446Y0007804D03*
X0356328Y0138709D03*
X0333198Y0186446D03*
X0328276Y0186446D03*
X0325324Y0195796D03*
X0336150Y0197272D03*
X0354851Y0204654D03*
X0352883Y0212528D03*
X0344024Y0212528D03*
X0322371Y0229261D03*
X0307607Y0227784D03*
X0287922Y0221387D03*
X0265776Y0238611D03*
X0272666Y0245501D03*
X0279064Y0241072D03*
X0283493Y0253375D03*
X0272666Y0266662D03*
X0262331Y0266662D03*
X0265776Y0253375D03*
X0308099Y0270107D03*
X0309083Y0248946D03*
X0346977Y0245501D03*
M02*
