G75*
%MOIN*%
%OFA0B0*%
%FSLAX25Y25*%
%IPPOS*%
%LPD*%
%AMOC8*
5,1,8,0,0,1.08239X$1,22.5*
%
%ADD10R,0.02362X0.04724*%
%ADD11R,0.04800X0.08800*%
%ADD12R,0.14173X0.08661*%
%ADD13R,0.02480X0.03268*%
%ADD14C,0.00875*%
%ADD15R,0.02362X0.03150*%
%ADD16C,0.06000*%
%ADD17R,0.04331X0.03937*%
%ADD18R,0.03937X0.04331*%
%ADD19C,0.03962*%
%ADD20C,0.01600*%
%ADD21C,0.01000*%
%ADD22C,0.04000*%
D10*
X0054320Y0117666D03*
X0058060Y0117666D03*
X0061800Y0117666D03*
X0061800Y0126721D03*
X0054320Y0126721D03*
D11*
X0052621Y0158734D03*
X0061721Y0158734D03*
X0070821Y0158734D03*
X0069635Y0056490D03*
X0078735Y0056490D03*
X0060535Y0056490D03*
D12*
X0069635Y0080891D03*
X0061721Y0183135D03*
D13*
X0070698Y0133690D03*
X0079753Y0133690D03*
D14*
X0063436Y0139896D02*
X0060810Y0139896D01*
X0060810Y0142522D01*
X0063436Y0142522D01*
X0063436Y0139896D01*
X0063436Y0140770D02*
X0060810Y0140770D01*
X0060810Y0141644D02*
X0063436Y0141644D01*
X0063436Y0142518D02*
X0060810Y0142518D01*
X0057436Y0139896D02*
X0054810Y0139896D01*
X0054810Y0142522D01*
X0057436Y0142522D01*
X0057436Y0139896D01*
X0057436Y0140770D02*
X0054810Y0140770D01*
X0054810Y0141644D02*
X0057436Y0141644D01*
X0057436Y0142518D02*
X0054810Y0142518D01*
X0033940Y0142475D02*
X0033940Y0139849D01*
X0031314Y0139849D01*
X0031314Y0142475D01*
X0033940Y0142475D01*
X0033940Y0140723D02*
X0031314Y0140723D01*
X0031314Y0141597D02*
X0033940Y0141597D01*
X0033940Y0142471D02*
X0031314Y0142471D01*
X0033940Y0145849D02*
X0033940Y0148475D01*
X0033940Y0145849D02*
X0031314Y0145849D01*
X0031314Y0148475D01*
X0033940Y0148475D01*
X0033940Y0146723D02*
X0031314Y0146723D01*
X0031314Y0147597D02*
X0033940Y0147597D01*
X0033940Y0148471D02*
X0031314Y0148471D01*
X0030715Y0162011D02*
X0033341Y0162011D01*
X0033341Y0159385D01*
X0030715Y0159385D01*
X0030715Y0162011D01*
X0030715Y0160259D02*
X0033341Y0160259D01*
X0033341Y0161133D02*
X0030715Y0161133D01*
X0030715Y0162007D02*
X0033341Y0162007D01*
X0036715Y0162011D02*
X0039341Y0162011D01*
X0039341Y0159385D01*
X0036715Y0159385D01*
X0036715Y0162011D01*
X0036715Y0160259D02*
X0039341Y0160259D01*
X0039341Y0161133D02*
X0036715Y0161133D01*
X0036715Y0162007D02*
X0039341Y0162007D01*
X0038290Y0176420D02*
X0040916Y0176420D01*
X0040916Y0173794D01*
X0038290Y0173794D01*
X0038290Y0176420D01*
X0038290Y0174668D02*
X0040916Y0174668D01*
X0040916Y0175542D02*
X0038290Y0175542D01*
X0038290Y0176416D02*
X0040916Y0176416D01*
X0034916Y0176420D02*
X0032290Y0176420D01*
X0034916Y0176420D02*
X0034916Y0173794D01*
X0032290Y0173794D01*
X0032290Y0176420D01*
X0032290Y0174668D02*
X0034916Y0174668D01*
X0034916Y0175542D02*
X0032290Y0175542D01*
X0032290Y0176416D02*
X0034916Y0176416D01*
X0060723Y0193156D02*
X0060723Y0195782D01*
X0063349Y0195782D01*
X0063349Y0193156D01*
X0060723Y0193156D01*
X0060723Y0194030D02*
X0063349Y0194030D01*
X0063349Y0194904D02*
X0060723Y0194904D01*
X0060723Y0195778D02*
X0063349Y0195778D01*
X0060723Y0199156D02*
X0060723Y0201782D01*
X0063349Y0201782D01*
X0063349Y0199156D01*
X0060723Y0199156D01*
X0060723Y0200030D02*
X0063349Y0200030D01*
X0063349Y0200904D02*
X0060723Y0200904D01*
X0060723Y0201778D02*
X0063349Y0201778D01*
X0073715Y0202570D02*
X0073715Y0199944D01*
X0073715Y0202570D02*
X0076341Y0202570D01*
X0076341Y0199944D01*
X0073715Y0199944D01*
X0073715Y0200818D02*
X0076341Y0200818D01*
X0076341Y0201692D02*
X0073715Y0201692D01*
X0073715Y0202566D02*
X0076341Y0202566D01*
X0073715Y0196570D02*
X0073715Y0193944D01*
X0073715Y0196570D02*
X0076341Y0196570D01*
X0076341Y0193944D01*
X0073715Y0193944D01*
X0073715Y0194818D02*
X0076341Y0194818D01*
X0076341Y0195692D02*
X0073715Y0195692D01*
X0073715Y0196566D02*
X0076341Y0196566D01*
X0084936Y0196570D02*
X0084936Y0193944D01*
X0084936Y0196570D02*
X0087562Y0196570D01*
X0087562Y0193944D01*
X0084936Y0193944D01*
X0084936Y0194818D02*
X0087562Y0194818D01*
X0087562Y0195692D02*
X0084936Y0195692D01*
X0084936Y0196566D02*
X0087562Y0196566D01*
X0084936Y0199944D02*
X0084936Y0202570D01*
X0087562Y0202570D01*
X0087562Y0199944D01*
X0084936Y0199944D01*
X0084936Y0200818D02*
X0087562Y0200818D01*
X0087562Y0201692D02*
X0084936Y0201692D01*
X0084936Y0202566D02*
X0087562Y0202566D01*
X0110920Y0202570D02*
X0110920Y0199944D01*
X0110920Y0202570D02*
X0113546Y0202570D01*
X0113546Y0199944D01*
X0110920Y0199944D01*
X0110920Y0200818D02*
X0113546Y0200818D01*
X0113546Y0201692D02*
X0110920Y0201692D01*
X0110920Y0202566D02*
X0113546Y0202566D01*
X0110920Y0196570D02*
X0110920Y0193944D01*
X0110920Y0196570D02*
X0113546Y0196570D01*
X0113546Y0193944D01*
X0110920Y0193944D01*
X0110920Y0194818D02*
X0113546Y0194818D01*
X0113546Y0195692D02*
X0110920Y0195692D01*
X0110920Y0196566D02*
X0113546Y0196566D01*
X0123715Y0196373D02*
X0123715Y0193747D01*
X0123715Y0196373D02*
X0126341Y0196373D01*
X0126341Y0193747D01*
X0123715Y0193747D01*
X0123715Y0194621D02*
X0126341Y0194621D01*
X0126341Y0195495D02*
X0123715Y0195495D01*
X0123715Y0196369D02*
X0126341Y0196369D01*
X0123715Y0199747D02*
X0123715Y0202373D01*
X0126341Y0202373D01*
X0126341Y0199747D01*
X0123715Y0199747D01*
X0123715Y0200621D02*
X0126341Y0200621D01*
X0126341Y0201495D02*
X0123715Y0201495D01*
X0123715Y0202369D02*
X0126341Y0202369D01*
X0166038Y0185050D02*
X0166038Y0182424D01*
X0166038Y0185050D02*
X0168664Y0185050D01*
X0168664Y0182424D01*
X0166038Y0182424D01*
X0166038Y0183298D02*
X0168664Y0183298D01*
X0168664Y0184172D02*
X0166038Y0184172D01*
X0166038Y0185046D02*
X0168664Y0185046D01*
X0166038Y0179050D02*
X0166038Y0176424D01*
X0166038Y0179050D02*
X0168664Y0179050D01*
X0168664Y0176424D01*
X0166038Y0176424D01*
X0166038Y0177298D02*
X0168664Y0177298D01*
X0168664Y0178172D02*
X0166038Y0178172D01*
X0166038Y0179046D02*
X0168664Y0179046D01*
X0180999Y0179180D02*
X0180999Y0181806D01*
X0183625Y0181806D01*
X0183625Y0179180D01*
X0180999Y0179180D01*
X0180999Y0180054D02*
X0183625Y0180054D01*
X0183625Y0180928D02*
X0180999Y0180928D01*
X0180999Y0181802D02*
X0183625Y0181802D01*
X0180999Y0185180D02*
X0180999Y0187806D01*
X0183625Y0187806D01*
X0183625Y0185180D01*
X0180999Y0185180D01*
X0180999Y0186054D02*
X0183625Y0186054D01*
X0183625Y0186928D02*
X0180999Y0186928D01*
X0180999Y0187802D02*
X0183625Y0187802D01*
X0205672Y0161428D02*
X0205672Y0158802D01*
X0203046Y0158802D01*
X0203046Y0161428D01*
X0205672Y0161428D01*
X0205672Y0159676D02*
X0203046Y0159676D01*
X0203046Y0160550D02*
X0205672Y0160550D01*
X0205672Y0161424D02*
X0203046Y0161424D01*
X0205672Y0155428D02*
X0205672Y0152802D01*
X0203046Y0152802D01*
X0203046Y0155428D01*
X0205672Y0155428D01*
X0205672Y0153676D02*
X0203046Y0153676D01*
X0203046Y0154550D02*
X0205672Y0154550D01*
X0205672Y0155424D02*
X0203046Y0155424D01*
X0213479Y0142333D02*
X0213479Y0139707D01*
X0213479Y0142333D02*
X0216105Y0142333D01*
X0216105Y0139707D01*
X0213479Y0139707D01*
X0213479Y0140581D02*
X0216105Y0140581D01*
X0216105Y0141455D02*
X0213479Y0141455D01*
X0213479Y0142329D02*
X0216105Y0142329D01*
X0213479Y0136333D02*
X0213479Y0133707D01*
X0213479Y0136333D02*
X0216105Y0136333D01*
X0216105Y0133707D01*
X0213479Y0133707D01*
X0213479Y0134581D02*
X0216105Y0134581D01*
X0216105Y0135455D02*
X0213479Y0135455D01*
X0213479Y0136329D02*
X0216105Y0136329D01*
X0245172Y0135247D02*
X0245172Y0132621D01*
X0245172Y0135247D02*
X0247798Y0135247D01*
X0247798Y0132621D01*
X0245172Y0132621D01*
X0245172Y0133495D02*
X0247798Y0133495D01*
X0247798Y0134369D02*
X0245172Y0134369D01*
X0245172Y0135243D02*
X0247798Y0135243D01*
X0245172Y0129247D02*
X0245172Y0126621D01*
X0245172Y0129247D02*
X0247798Y0129247D01*
X0247798Y0126621D01*
X0245172Y0126621D01*
X0245172Y0127495D02*
X0247798Y0127495D01*
X0247798Y0128369D02*
X0245172Y0128369D01*
X0245172Y0129243D02*
X0247798Y0129243D01*
X0246944Y0161857D02*
X0246944Y0164483D01*
X0249570Y0164483D01*
X0249570Y0161857D01*
X0246944Y0161857D01*
X0246944Y0162731D02*
X0249570Y0162731D01*
X0249570Y0163605D02*
X0246944Y0163605D01*
X0246944Y0164479D02*
X0249570Y0164479D01*
X0246944Y0167857D02*
X0246944Y0170483D01*
X0249570Y0170483D01*
X0249570Y0167857D01*
X0246944Y0167857D01*
X0246944Y0168731D02*
X0249570Y0168731D01*
X0249570Y0169605D02*
X0246944Y0169605D01*
X0246944Y0170479D02*
X0249570Y0170479D01*
X0245566Y0178589D02*
X0245566Y0181215D01*
X0248192Y0181215D01*
X0248192Y0178589D01*
X0245566Y0178589D01*
X0245566Y0179463D02*
X0248192Y0179463D01*
X0248192Y0180337D02*
X0245566Y0180337D01*
X0245566Y0181211D02*
X0248192Y0181211D01*
X0245566Y0184589D02*
X0245566Y0187215D01*
X0248192Y0187215D01*
X0248192Y0184589D01*
X0245566Y0184589D01*
X0245566Y0185463D02*
X0248192Y0185463D01*
X0248192Y0186337D02*
X0245566Y0186337D01*
X0245566Y0187211D02*
X0248192Y0187211D01*
X0282377Y0199849D02*
X0282377Y0202475D01*
X0285003Y0202475D01*
X0285003Y0199849D01*
X0282377Y0199849D01*
X0282377Y0200723D02*
X0285003Y0200723D01*
X0285003Y0201597D02*
X0282377Y0201597D01*
X0282377Y0202471D02*
X0285003Y0202471D01*
X0282377Y0205849D02*
X0282377Y0208475D01*
X0285003Y0208475D01*
X0285003Y0205849D01*
X0282377Y0205849D01*
X0282377Y0206723D02*
X0285003Y0206723D01*
X0285003Y0207597D02*
X0282377Y0207597D01*
X0282377Y0208471D02*
X0285003Y0208471D01*
X0298912Y0209459D02*
X0298912Y0206833D01*
X0298912Y0209459D02*
X0301538Y0209459D01*
X0301538Y0206833D01*
X0298912Y0206833D01*
X0298912Y0207707D02*
X0301538Y0207707D01*
X0301538Y0208581D02*
X0298912Y0208581D01*
X0298912Y0209455D02*
X0301538Y0209455D01*
X0298912Y0203459D02*
X0298912Y0200833D01*
X0298912Y0203459D02*
X0301538Y0203459D01*
X0301538Y0200833D01*
X0298912Y0200833D01*
X0298912Y0201707D02*
X0301538Y0201707D01*
X0301538Y0202581D02*
X0298912Y0202581D01*
X0298912Y0203455D02*
X0301538Y0203455D01*
X0314463Y0202605D02*
X0314463Y0205231D01*
X0317089Y0205231D01*
X0317089Y0202605D01*
X0314463Y0202605D01*
X0314463Y0203479D02*
X0317089Y0203479D01*
X0317089Y0204353D02*
X0314463Y0204353D01*
X0314463Y0205227D02*
X0317089Y0205227D01*
X0314463Y0208605D02*
X0314463Y0211231D01*
X0317089Y0211231D01*
X0317089Y0208605D01*
X0314463Y0208605D01*
X0314463Y0209479D02*
X0317089Y0209479D01*
X0317089Y0210353D02*
X0314463Y0210353D01*
X0314463Y0211227D02*
X0317089Y0211227D01*
X0161511Y0157885D02*
X0161511Y0155259D01*
X0161511Y0157885D02*
X0164137Y0157885D01*
X0164137Y0155259D01*
X0161511Y0155259D01*
X0161511Y0156133D02*
X0164137Y0156133D01*
X0164137Y0157007D02*
X0161511Y0157007D01*
X0161511Y0157881D02*
X0164137Y0157881D01*
X0161511Y0151885D02*
X0161511Y0149259D01*
X0161511Y0151885D02*
X0164137Y0151885D01*
X0164137Y0149259D01*
X0161511Y0149259D01*
X0161511Y0150133D02*
X0164137Y0150133D01*
X0164137Y0151007D02*
X0161511Y0151007D01*
X0161511Y0151881D02*
X0164137Y0151881D01*
X0044570Y0126467D02*
X0044570Y0123841D01*
X0041944Y0123841D01*
X0041944Y0126467D01*
X0044570Y0126467D01*
X0044570Y0124715D02*
X0041944Y0124715D01*
X0041944Y0125589D02*
X0044570Y0125589D01*
X0044570Y0126463D02*
X0041944Y0126463D01*
X0044570Y0120467D02*
X0044570Y0117841D01*
X0041944Y0117841D01*
X0041944Y0120467D01*
X0044570Y0120467D01*
X0044570Y0118715D02*
X0041944Y0118715D01*
X0041944Y0119589D02*
X0044570Y0119589D01*
X0044570Y0120463D02*
X0041944Y0120463D01*
X0047011Y0066507D02*
X0047011Y0063881D01*
X0044385Y0063881D01*
X0044385Y0066507D01*
X0047011Y0066507D01*
X0047011Y0064755D02*
X0044385Y0064755D01*
X0044385Y0065629D02*
X0047011Y0065629D01*
X0047011Y0066503D02*
X0044385Y0066503D01*
X0047011Y0060507D02*
X0047011Y0057881D01*
X0044385Y0057881D01*
X0044385Y0060507D01*
X0047011Y0060507D01*
X0047011Y0058755D02*
X0044385Y0058755D01*
X0044385Y0059629D02*
X0047011Y0059629D01*
X0047011Y0060503D02*
X0044385Y0060503D01*
X0063668Y0038507D02*
X0066294Y0038507D01*
X0066294Y0035881D01*
X0063668Y0035881D01*
X0063668Y0038507D01*
X0063668Y0036755D02*
X0066294Y0036755D01*
X0066294Y0037629D02*
X0063668Y0037629D01*
X0063668Y0038503D02*
X0066294Y0038503D01*
X0069668Y0038507D02*
X0072294Y0038507D01*
X0072294Y0035881D01*
X0069668Y0035881D01*
X0069668Y0038507D01*
X0069668Y0036755D02*
X0072294Y0036755D01*
X0072294Y0037629D02*
X0069668Y0037629D01*
X0069668Y0038503D02*
X0072294Y0038503D01*
X0069542Y0026467D02*
X0069542Y0023841D01*
X0069542Y0026467D02*
X0072168Y0026467D01*
X0072168Y0023841D01*
X0069542Y0023841D01*
X0069542Y0024715D02*
X0072168Y0024715D01*
X0072168Y0025589D02*
X0069542Y0025589D01*
X0069542Y0026463D02*
X0072168Y0026463D01*
X0061432Y0026270D02*
X0061432Y0023644D01*
X0061432Y0026270D02*
X0064058Y0026270D01*
X0064058Y0023644D01*
X0061432Y0023644D01*
X0061432Y0024518D02*
X0064058Y0024518D01*
X0064058Y0025392D02*
X0061432Y0025392D01*
X0061432Y0026266D02*
X0064058Y0026266D01*
X0061432Y0020270D02*
X0061432Y0017644D01*
X0061432Y0020270D02*
X0064058Y0020270D01*
X0064058Y0017644D01*
X0061432Y0017644D01*
X0061432Y0018518D02*
X0064058Y0018518D01*
X0064058Y0019392D02*
X0061432Y0019392D01*
X0061432Y0020266D02*
X0064058Y0020266D01*
X0069542Y0020467D02*
X0069542Y0017841D01*
X0069542Y0020467D02*
X0072168Y0020467D01*
X0072168Y0017841D01*
X0069542Y0017841D01*
X0069542Y0018715D02*
X0072168Y0018715D01*
X0072168Y0019589D02*
X0069542Y0019589D01*
X0069542Y0020463D02*
X0072168Y0020463D01*
X0078046Y0020270D02*
X0078046Y0017644D01*
X0078046Y0020270D02*
X0080672Y0020270D01*
X0080672Y0017644D01*
X0078046Y0017644D01*
X0078046Y0018518D02*
X0080672Y0018518D01*
X0080672Y0019392D02*
X0078046Y0019392D01*
X0078046Y0020266D02*
X0080672Y0020266D01*
X0078046Y0023644D02*
X0078046Y0026270D01*
X0080672Y0026270D01*
X0080672Y0023644D01*
X0078046Y0023644D01*
X0078046Y0024518D02*
X0080672Y0024518D01*
X0080672Y0025392D02*
X0078046Y0025392D01*
X0078046Y0026266D02*
X0080672Y0026266D01*
X0087141Y0026074D02*
X0087141Y0023448D01*
X0087141Y0026074D02*
X0089767Y0026074D01*
X0089767Y0023448D01*
X0087141Y0023448D01*
X0087141Y0024322D02*
X0089767Y0024322D01*
X0089767Y0025196D02*
X0087141Y0025196D01*
X0087141Y0026070D02*
X0089767Y0026070D01*
X0096629Y0026074D02*
X0096629Y0023448D01*
X0096629Y0026074D02*
X0099255Y0026074D01*
X0099255Y0023448D01*
X0096629Y0023448D01*
X0096629Y0024322D02*
X0099255Y0024322D01*
X0099255Y0025196D02*
X0096629Y0025196D01*
X0096629Y0026070D02*
X0099255Y0026070D01*
X0096629Y0020074D02*
X0096629Y0017448D01*
X0096629Y0020074D02*
X0099255Y0020074D01*
X0099255Y0017448D01*
X0096629Y0017448D01*
X0096629Y0018322D02*
X0099255Y0018322D01*
X0099255Y0019196D02*
X0096629Y0019196D01*
X0096629Y0020070D02*
X0099255Y0020070D01*
X0087141Y0020074D02*
X0087141Y0017448D01*
X0087141Y0020074D02*
X0089767Y0020074D01*
X0089767Y0017448D01*
X0087141Y0017448D01*
X0087141Y0018322D02*
X0089767Y0018322D01*
X0089767Y0019196D02*
X0087141Y0019196D01*
X0087141Y0020070D02*
X0089767Y0020070D01*
X0053322Y0020270D02*
X0053322Y0017644D01*
X0053322Y0020270D02*
X0055948Y0020270D01*
X0055948Y0017644D01*
X0053322Y0017644D01*
X0053322Y0018518D02*
X0055948Y0018518D01*
X0055948Y0019392D02*
X0053322Y0019392D01*
X0053322Y0020266D02*
X0055948Y0020266D01*
X0053322Y0023644D02*
X0053322Y0026270D01*
X0055948Y0026270D01*
X0055948Y0023644D01*
X0053322Y0023644D01*
X0053322Y0024518D02*
X0055948Y0024518D01*
X0055948Y0025392D02*
X0053322Y0025392D01*
X0053322Y0026266D02*
X0055948Y0026266D01*
X0045015Y0026270D02*
X0045015Y0023644D01*
X0045015Y0026270D02*
X0047641Y0026270D01*
X0047641Y0023644D01*
X0045015Y0023644D01*
X0045015Y0024518D02*
X0047641Y0024518D01*
X0047641Y0025392D02*
X0045015Y0025392D01*
X0045015Y0026266D02*
X0047641Y0026266D01*
X0036904Y0026270D02*
X0036904Y0023644D01*
X0036904Y0026270D02*
X0039530Y0026270D01*
X0039530Y0023644D01*
X0036904Y0023644D01*
X0036904Y0024518D02*
X0039530Y0024518D01*
X0039530Y0025392D02*
X0036904Y0025392D01*
X0036904Y0026266D02*
X0039530Y0026266D01*
X0036904Y0020270D02*
X0036904Y0017644D01*
X0036904Y0020270D02*
X0039530Y0020270D01*
X0039530Y0017644D01*
X0036904Y0017644D01*
X0036904Y0018518D02*
X0039530Y0018518D01*
X0039530Y0019392D02*
X0036904Y0019392D01*
X0036904Y0020266D02*
X0039530Y0020266D01*
X0045015Y0020270D02*
X0045015Y0017644D01*
X0045015Y0020270D02*
X0047641Y0020270D01*
X0047641Y0017644D01*
X0045015Y0017644D01*
X0045015Y0018518D02*
X0047641Y0018518D01*
X0047641Y0019392D02*
X0045015Y0019392D01*
X0045015Y0020266D02*
X0047641Y0020266D01*
D15*
X0084438Y0036564D03*
X0091131Y0036564D03*
D16*
X0112548Y0039942D02*
X0112548Y0045942D01*
X0122548Y0045942D02*
X0122548Y0039942D01*
X0120658Y0023304D02*
X0120658Y0017304D01*
X0130658Y0017304D02*
X0130658Y0023304D01*
X0140658Y0023304D02*
X0140658Y0017304D01*
X0150658Y0017304D02*
X0150658Y0023304D01*
X0205107Y0021729D02*
X0205107Y0015729D01*
X0215107Y0015729D02*
X0215107Y0021729D01*
X0225107Y0021729D02*
X0225107Y0015729D01*
X0235107Y0015729D02*
X0235107Y0021729D01*
X0120580Y0095257D02*
X0120580Y0101257D01*
X0110580Y0101257D02*
X0110580Y0095257D01*
D17*
X0095894Y0094123D03*
X0089202Y0094123D03*
X0089398Y0104359D03*
X0096091Y0104359D03*
X0095894Y0083887D03*
X0089202Y0083887D03*
X0177194Y0155934D03*
X0183887Y0155934D03*
X0186446Y0168139D03*
X0179753Y0168139D03*
X0168139Y0166761D03*
X0161446Y0166761D03*
X0199438Y0169713D03*
X0206131Y0169713D03*
X0222076Y0168729D03*
X0228769Y0168729D03*
X0227981Y0182902D03*
X0221288Y0182902D03*
X0206918Y0183296D03*
X0200225Y0183296D03*
X0201800Y0196485D03*
X0208493Y0196485D03*
X0226800Y0205737D03*
X0233493Y0205737D03*
X0245107Y0207509D03*
X0251800Y0207509D03*
X0260265Y0208887D03*
X0266957Y0208887D03*
X0268729Y0182902D03*
X0262036Y0182902D03*
X0263020Y0164989D03*
X0269713Y0164989D03*
X0237036Y0139792D03*
X0230343Y0139792D03*
X0228572Y0152587D03*
X0221879Y0152587D03*
X0260658Y0139398D03*
X0267351Y0139398D03*
X0268335Y0121682D03*
X0261643Y0121682D03*
X0236839Y0122666D03*
X0230146Y0122666D03*
X0218532Y0122272D03*
X0211839Y0122272D03*
X0274241Y0098650D03*
X0280934Y0098650D03*
X0280934Y0088611D03*
X0274241Y0088611D03*
X0274241Y0077981D03*
X0280934Y0077981D03*
X0308493Y0192942D03*
X0315186Y0192942D03*
X0188611Y0198847D03*
X0181918Y0198847D03*
X0170698Y0198454D03*
X0164005Y0198454D03*
X0048257Y0195304D03*
X0041564Y0195304D03*
X0030934Y0194910D03*
X0024241Y0194910D03*
X0041367Y0206524D03*
X0048060Y0206524D03*
D18*
X0098847Y0201406D03*
X0098847Y0194713D03*
D19*
X0023454Y0144123D03*
X0038808Y0107509D03*
D20*
X0009565Y0012715D02*
X0009565Y0218050D01*
X0035330Y0218050D01*
X0035330Y0208772D01*
X0025036Y0198479D01*
X0021413Y0198479D01*
X0020476Y0197541D01*
X0020476Y0192279D01*
X0021413Y0191342D01*
X0026472Y0191342D01*
X0026472Y0166695D01*
X0016875Y0166695D01*
X0015645Y0165465D01*
X0015645Y0138627D01*
X0016875Y0137397D01*
X0018351Y0135920D01*
X0055015Y0135920D01*
X0055015Y0130683D01*
X0052476Y0130683D01*
X0051539Y0129746D01*
X0051539Y0128802D01*
X0043942Y0128802D01*
X0043645Y0128504D01*
X0041100Y0128504D01*
X0039907Y0127311D01*
X0039907Y0122998D01*
X0040619Y0122285D01*
X0040570Y0122257D01*
X0040154Y0121841D01*
X0039859Y0121330D01*
X0039707Y0120761D01*
X0039707Y0119229D01*
X0043182Y0119229D01*
X0043182Y0119079D01*
X0043332Y0119079D01*
X0043332Y0119229D01*
X0046807Y0119229D01*
X0046807Y0120761D01*
X0046654Y0121330D01*
X0046360Y0121841D01*
X0045943Y0122257D01*
X0045894Y0122285D01*
X0046607Y0122998D01*
X0046607Y0124602D01*
X0051539Y0124602D01*
X0051539Y0123696D01*
X0052476Y0122759D01*
X0056164Y0122759D01*
X0056633Y0123229D01*
X0058034Y0121828D01*
X0056642Y0121828D01*
X0056184Y0121706D01*
X0056050Y0121628D01*
X0052476Y0121628D01*
X0051539Y0120691D01*
X0051539Y0114641D01*
X0052476Y0113704D01*
X0052554Y0113704D01*
X0052554Y0113036D01*
X0053784Y0111806D01*
X0060938Y0111806D01*
X0062414Y0113283D01*
X0062835Y0113704D01*
X0063644Y0113704D01*
X0064581Y0114641D01*
X0064581Y0120691D01*
X0063644Y0121628D01*
X0063644Y0122759D01*
X0064581Y0123696D01*
X0064581Y0126769D01*
X0068532Y0130719D01*
X0068795Y0130456D01*
X0072601Y0130456D01*
X0073538Y0131393D01*
X0073538Y0135986D01*
X0072601Y0136924D01*
X0070532Y0136924D01*
X0065613Y0141843D01*
X0065473Y0141983D01*
X0065473Y0143366D01*
X0064279Y0144559D01*
X0059966Y0144559D01*
X0059254Y0143847D01*
X0059226Y0143896D01*
X0058809Y0144312D01*
X0058299Y0144607D01*
X0057730Y0144759D01*
X0056198Y0144759D01*
X0056198Y0141285D01*
X0056048Y0141285D01*
X0056048Y0144759D01*
X0054516Y0144759D01*
X0053947Y0144607D01*
X0053436Y0144312D01*
X0053020Y0143896D01*
X0052725Y0143386D01*
X0052573Y0142817D01*
X0052573Y0141284D01*
X0056048Y0141284D01*
X0056048Y0141134D01*
X0052573Y0141134D01*
X0052573Y0140120D01*
X0036177Y0140120D01*
X0036177Y0141087D01*
X0032702Y0141087D01*
X0032702Y0141237D01*
X0036177Y0141237D01*
X0036177Y0142769D01*
X0036024Y0143338D01*
X0035730Y0143849D01*
X0035313Y0144265D01*
X0035264Y0144293D01*
X0035977Y0145006D01*
X0035977Y0145763D01*
X0042237Y0145763D01*
X0043467Y0146993D01*
X0049383Y0152909D01*
X0049559Y0152734D01*
X0055507Y0152734D01*
X0055507Y0151914D01*
X0056737Y0150684D01*
X0122453Y0150684D01*
X0134989Y0163220D01*
X0135264Y0162556D01*
X0136277Y0161543D01*
X0137600Y0160995D01*
X0139032Y0160995D01*
X0140355Y0161543D01*
X0141307Y0162495D01*
X0142367Y0162495D01*
X0148751Y0156111D01*
X0148088Y0155836D01*
X0147136Y0154884D01*
X0143615Y0154884D01*
X0141916Y0156583D01*
X0141916Y0157929D01*
X0141368Y0159253D01*
X0140355Y0160265D01*
X0139032Y0160813D01*
X0137600Y0160813D01*
X0136277Y0160265D01*
X0135264Y0159253D01*
X0134716Y0157929D01*
X0134716Y0156497D01*
X0135264Y0155174D01*
X0136277Y0154161D01*
X0137600Y0153613D01*
X0138946Y0153613D01*
X0140645Y0151914D01*
X0141875Y0150684D01*
X0147136Y0150684D01*
X0147659Y0150161D01*
X0147103Y0149931D01*
X0146091Y0148918D01*
X0145543Y0147595D01*
X0145543Y0146249D01*
X0122682Y0123388D01*
X0092926Y0123388D01*
X0082593Y0133721D01*
X0082593Y0135986D01*
X0081656Y0136924D01*
X0077850Y0136924D01*
X0076913Y0135986D01*
X0076913Y0131393D01*
X0077850Y0130456D01*
X0079918Y0130456D01*
X0089956Y0120418D01*
X0089956Y0107928D01*
X0086570Y0107928D01*
X0085633Y0106990D01*
X0085633Y0103564D01*
X0085281Y0103211D01*
X0065103Y0103211D01*
X0055777Y0093884D01*
X0054430Y0093884D01*
X0053107Y0093336D01*
X0052095Y0092323D01*
X0051546Y0091000D01*
X0051546Y0089568D01*
X0052095Y0088245D01*
X0053107Y0087232D01*
X0054430Y0086684D01*
X0055863Y0086684D01*
X0057186Y0087232D01*
X0057607Y0087654D01*
X0058028Y0087232D01*
X0059352Y0086684D01*
X0060784Y0086684D01*
X0062107Y0087232D01*
X0063120Y0088245D01*
X0063668Y0089568D01*
X0063668Y0090914D01*
X0064382Y0091629D01*
X0064602Y0091629D01*
X0064342Y0091000D01*
X0064342Y0089568D01*
X0064890Y0088245D01*
X0065842Y0087293D01*
X0065842Y0086821D01*
X0061885Y0086821D01*
X0060948Y0085884D01*
X0060948Y0082542D01*
X0059690Y0082542D01*
X0058460Y0081312D01*
X0045692Y0068544D01*
X0043541Y0068544D01*
X0042348Y0067350D01*
X0042348Y0063037D01*
X0043060Y0062325D01*
X0043011Y0062297D01*
X0042595Y0061880D01*
X0042300Y0061370D01*
X0042148Y0060801D01*
X0042148Y0059269D01*
X0045623Y0059269D01*
X0045623Y0059119D01*
X0045773Y0059119D01*
X0045773Y0059269D01*
X0049248Y0059269D01*
X0049248Y0060801D01*
X0049095Y0061370D01*
X0048801Y0061880D01*
X0048384Y0062297D01*
X0048335Y0062325D01*
X0049048Y0063037D01*
X0049048Y0065960D01*
X0060948Y0077860D01*
X0060948Y0075897D01*
X0061885Y0074960D01*
X0067318Y0074960D01*
X0067318Y0062490D01*
X0066572Y0062490D01*
X0065635Y0061552D01*
X0065635Y0051427D01*
X0066572Y0050490D01*
X0072697Y0050490D01*
X0073635Y0051427D01*
X0073635Y0061552D01*
X0072697Y0062490D01*
X0071518Y0062490D01*
X0071518Y0074960D01*
X0077384Y0074960D01*
X0078321Y0075897D01*
X0078321Y0079107D01*
X0079037Y0078810D01*
X0080469Y0078810D01*
X0081792Y0079358D01*
X0082744Y0080310D01*
X0088497Y0080310D01*
X0088504Y0080318D01*
X0090194Y0080318D01*
X0102997Y0067515D01*
X0221939Y0067515D01*
X0222891Y0066563D01*
X0224214Y0066015D01*
X0225646Y0066015D01*
X0226969Y0066563D01*
X0227259Y0066853D01*
X0227259Y0025817D01*
X0226022Y0026329D01*
X0224192Y0026329D01*
X0222501Y0025629D01*
X0221207Y0024335D01*
X0220507Y0022644D01*
X0220507Y0014814D01*
X0221207Y0013123D01*
X0221616Y0012715D01*
X0218850Y0012715D01*
X0219212Y0013213D01*
X0219555Y0013887D01*
X0219789Y0014605D01*
X0219907Y0015351D01*
X0219907Y0018529D01*
X0215307Y0018529D01*
X0215307Y0018929D01*
X0219907Y0018929D01*
X0219907Y0022107D01*
X0219789Y0022853D01*
X0219555Y0023572D01*
X0219212Y0024245D01*
X0218768Y0024856D01*
X0218234Y0025390D01*
X0217623Y0025834D01*
X0216950Y0026177D01*
X0216231Y0026411D01*
X0215485Y0026529D01*
X0215307Y0026529D01*
X0215307Y0018929D01*
X0214907Y0018929D01*
X0214907Y0018529D01*
X0210307Y0018529D01*
X0210307Y0015351D01*
X0210425Y0014605D01*
X0210659Y0013887D01*
X0211002Y0013213D01*
X0211364Y0012715D01*
X0208598Y0012715D01*
X0209007Y0013123D01*
X0209707Y0014814D01*
X0209707Y0022644D01*
X0209007Y0024335D01*
X0207713Y0025629D01*
X0206022Y0026329D01*
X0204192Y0026329D01*
X0202501Y0025629D01*
X0201207Y0024335D01*
X0200507Y0022644D01*
X0200507Y0021026D01*
X0155258Y0021026D01*
X0155258Y0024219D01*
X0154558Y0025910D01*
X0153307Y0027161D01*
X0161823Y0027161D01*
X0163054Y0028391D01*
X0165737Y0031074D01*
X0167083Y0031074D01*
X0168406Y0031622D01*
X0169419Y0032635D01*
X0169967Y0033958D01*
X0169967Y0035390D01*
X0169419Y0036713D01*
X0168406Y0037726D01*
X0167083Y0038274D01*
X0165651Y0038274D01*
X0164328Y0037726D01*
X0163315Y0036713D01*
X0162767Y0035390D01*
X0162767Y0034044D01*
X0160084Y0031361D01*
X0142783Y0031361D01*
X0141831Y0032313D01*
X0140508Y0032861D01*
X0139076Y0032861D01*
X0137753Y0032313D01*
X0136740Y0031300D01*
X0136192Y0029977D01*
X0136192Y0028545D01*
X0136740Y0027221D01*
X0137264Y0026698D01*
X0136997Y0026431D01*
X0136553Y0025820D01*
X0136210Y0025146D01*
X0135976Y0024428D01*
X0135858Y0023682D01*
X0135858Y0020504D01*
X0140458Y0020504D01*
X0140458Y0020104D01*
X0135858Y0020104D01*
X0135858Y0016926D01*
X0135976Y0016180D01*
X0136210Y0015461D01*
X0136553Y0014788D01*
X0136669Y0014628D01*
X0134488Y0014628D01*
X0134558Y0014698D01*
X0135258Y0016389D01*
X0135258Y0024219D01*
X0134558Y0025910D01*
X0133264Y0027204D01*
X0132237Y0027629D01*
X0132634Y0027629D01*
X0133957Y0028177D01*
X0134970Y0029190D01*
X0135518Y0030513D01*
X0135518Y0030875D01*
X0162292Y0057649D01*
X0163638Y0057649D01*
X0164961Y0058197D01*
X0165974Y0059210D01*
X0166522Y0060533D01*
X0166522Y0061965D01*
X0165974Y0063288D01*
X0164961Y0064301D01*
X0163638Y0064849D01*
X0162206Y0064849D01*
X0160883Y0064301D01*
X0159870Y0063288D01*
X0159352Y0062036D01*
X0158564Y0062824D01*
X0157240Y0063372D01*
X0155808Y0063372D01*
X0154485Y0062824D01*
X0153472Y0061812D01*
X0152924Y0060489D01*
X0152924Y0059142D01*
X0130556Y0036774D01*
X0125886Y0036774D01*
X0126448Y0037336D01*
X0127148Y0039027D01*
X0127148Y0046857D01*
X0126448Y0048547D01*
X0125154Y0049841D01*
X0123463Y0050542D01*
X0121633Y0050542D01*
X0119942Y0049841D01*
X0119093Y0048992D01*
X0116794Y0051292D01*
X0115564Y0052522D01*
X0104473Y0052522D01*
X0091690Y0039739D01*
X0090945Y0039739D01*
X0090219Y0040465D01*
X0088989Y0041695D01*
X0077899Y0041695D01*
X0074531Y0038328D01*
X0074531Y0038801D01*
X0074379Y0039370D01*
X0074084Y0039880D01*
X0073667Y0040297D01*
X0073157Y0040591D01*
X0072588Y0040744D01*
X0071056Y0040744D01*
X0071056Y0037269D01*
X0070906Y0037269D01*
X0070906Y0040744D01*
X0069374Y0040744D01*
X0068805Y0040591D01*
X0068295Y0040297D01*
X0067878Y0039880D01*
X0067850Y0039831D01*
X0067138Y0040544D01*
X0062825Y0040544D01*
X0062660Y0040379D01*
X0062660Y0050490D01*
X0063597Y0050490D01*
X0064535Y0051427D01*
X0064535Y0061552D01*
X0063597Y0062490D01*
X0057472Y0062490D01*
X0056535Y0061552D01*
X0056535Y0051427D01*
X0057472Y0050490D01*
X0058460Y0050490D01*
X0058460Y0039727D01*
X0032131Y0039727D01*
X0030901Y0038497D01*
X0030901Y0017564D01*
X0032131Y0016334D01*
X0033836Y0014628D01*
X0030180Y0014628D01*
X0030180Y0123710D01*
X0031131Y0124662D01*
X0031680Y0125985D01*
X0031680Y0127418D01*
X0031131Y0128741D01*
X0030119Y0129753D01*
X0028796Y0130302D01*
X0027363Y0130302D01*
X0026040Y0129753D01*
X0025028Y0128741D01*
X0024480Y0127418D01*
X0024480Y0125985D01*
X0024647Y0125581D01*
X0022615Y0126423D01*
X0020040Y0126423D01*
X0017661Y0125437D01*
X0015840Y0123616D01*
X0014854Y0121237D01*
X0014854Y0118662D01*
X0015840Y0116283D01*
X0017661Y0114462D01*
X0020040Y0113476D01*
X0022615Y0113476D01*
X0024994Y0114462D01*
X0025980Y0115447D01*
X0025980Y0109491D01*
X0024994Y0110477D01*
X0022615Y0111462D01*
X0020040Y0111462D01*
X0017661Y0110477D01*
X0015840Y0108656D01*
X0014854Y0106277D01*
X0014854Y0103701D01*
X0015840Y0101322D01*
X0017661Y0099501D01*
X0020040Y0098516D01*
X0022615Y0098516D01*
X0024994Y0099501D01*
X0025980Y0100486D01*
X0025980Y0012715D01*
X0009565Y0012715D01*
X0009565Y0013509D02*
X0025980Y0013509D01*
X0025980Y0015108D02*
X0009565Y0015108D01*
X0009565Y0016706D02*
X0025980Y0016706D01*
X0025980Y0018305D02*
X0009565Y0018305D01*
X0009565Y0019903D02*
X0025980Y0019903D01*
X0025980Y0021502D02*
X0009565Y0021502D01*
X0009565Y0023100D02*
X0025980Y0023100D01*
X0025980Y0024699D02*
X0009565Y0024699D01*
X0009565Y0026297D02*
X0025980Y0026297D01*
X0025980Y0027896D02*
X0009565Y0027896D01*
X0009565Y0029494D02*
X0025980Y0029494D01*
X0025980Y0031093D02*
X0009565Y0031093D01*
X0009565Y0032691D02*
X0025980Y0032691D01*
X0025980Y0034290D02*
X0009565Y0034290D01*
X0009565Y0035888D02*
X0025980Y0035888D01*
X0025980Y0037487D02*
X0009565Y0037487D01*
X0009565Y0039085D02*
X0025980Y0039085D01*
X0025980Y0040684D02*
X0009565Y0040684D01*
X0009565Y0042282D02*
X0025980Y0042282D01*
X0025980Y0043881D02*
X0009565Y0043881D01*
X0009565Y0045479D02*
X0025980Y0045479D01*
X0025980Y0047078D02*
X0009565Y0047078D01*
X0009565Y0048676D02*
X0025980Y0048676D01*
X0025980Y0050275D02*
X0009565Y0050275D01*
X0009565Y0051873D02*
X0025980Y0051873D01*
X0025980Y0053472D02*
X0009565Y0053472D01*
X0009565Y0055070D02*
X0025980Y0055070D01*
X0025980Y0056669D02*
X0009565Y0056669D01*
X0009565Y0058267D02*
X0025980Y0058267D01*
X0025980Y0059866D02*
X0009565Y0059866D01*
X0009565Y0061464D02*
X0025980Y0061464D01*
X0025980Y0063063D02*
X0009565Y0063063D01*
X0009565Y0064661D02*
X0025980Y0064661D01*
X0025980Y0066260D02*
X0009565Y0066260D01*
X0009565Y0067858D02*
X0025980Y0067858D01*
X0025980Y0069457D02*
X0009565Y0069457D01*
X0009565Y0071055D02*
X0025980Y0071055D01*
X0025980Y0072654D02*
X0009565Y0072654D01*
X0009565Y0074252D02*
X0025980Y0074252D01*
X0025980Y0075851D02*
X0009565Y0075851D01*
X0009565Y0077449D02*
X0025980Y0077449D01*
X0025980Y0079048D02*
X0009565Y0079048D01*
X0009565Y0080646D02*
X0025980Y0080646D01*
X0025980Y0082245D02*
X0009565Y0082245D01*
X0009565Y0083844D02*
X0025980Y0083844D01*
X0025980Y0085442D02*
X0009565Y0085442D01*
X0009565Y0087041D02*
X0025980Y0087041D01*
X0025980Y0088639D02*
X0009565Y0088639D01*
X0009565Y0090238D02*
X0025980Y0090238D01*
X0025980Y0091836D02*
X0009565Y0091836D01*
X0009565Y0093435D02*
X0025980Y0093435D01*
X0025980Y0095033D02*
X0009565Y0095033D01*
X0009565Y0096632D02*
X0025980Y0096632D01*
X0025980Y0098230D02*
X0009565Y0098230D01*
X0009565Y0099829D02*
X0017333Y0099829D01*
X0015796Y0101427D02*
X0009565Y0101427D01*
X0009565Y0103026D02*
X0015134Y0103026D01*
X0014854Y0104624D02*
X0009565Y0104624D01*
X0009565Y0106223D02*
X0014854Y0106223D01*
X0015494Y0107821D02*
X0009565Y0107821D01*
X0009565Y0109420D02*
X0016604Y0109420D01*
X0018968Y0111018D02*
X0009565Y0111018D01*
X0009565Y0112617D02*
X0025980Y0112617D01*
X0025980Y0114215D02*
X0024399Y0114215D01*
X0023687Y0111018D02*
X0025980Y0111018D01*
X0030180Y0111018D02*
X0031369Y0111018D01*
X0031369Y0111670D02*
X0031369Y0110237D01*
X0031917Y0108914D01*
X0032869Y0107962D01*
X0032869Y0095244D01*
X0031917Y0094292D01*
X0031369Y0092969D01*
X0031369Y0091537D01*
X0031917Y0090214D01*
X0032930Y0089201D01*
X0034253Y0088653D01*
X0035685Y0088653D01*
X0037009Y0089201D01*
X0038021Y0090214D01*
X0038569Y0091537D01*
X0038569Y0092969D01*
X0038021Y0094292D01*
X0037069Y0095244D01*
X0037069Y0107962D01*
X0038021Y0108914D01*
X0038569Y0110237D01*
X0038569Y0111670D01*
X0038021Y0112993D01*
X0037009Y0114005D01*
X0035685Y0114554D01*
X0034253Y0114554D01*
X0032930Y0114005D01*
X0031917Y0112993D01*
X0031369Y0111670D01*
X0031762Y0112617D02*
X0030180Y0112617D01*
X0030180Y0114215D02*
X0033436Y0114215D01*
X0036502Y0114215D02*
X0051965Y0114215D01*
X0051539Y0115814D02*
X0045531Y0115814D01*
X0045433Y0115757D02*
X0045943Y0116051D01*
X0046360Y0116468D01*
X0046654Y0116978D01*
X0046807Y0117547D01*
X0046807Y0119079D01*
X0043332Y0119079D01*
X0043332Y0115604D01*
X0044864Y0115604D01*
X0045433Y0115757D01*
X0043332Y0115814D02*
X0043182Y0115814D01*
X0043182Y0115604D02*
X0043182Y0119079D01*
X0039707Y0119079D01*
X0039707Y0117547D01*
X0039859Y0116978D01*
X0040154Y0116468D01*
X0040570Y0116051D01*
X0041081Y0115757D01*
X0041650Y0115604D01*
X0043182Y0115604D01*
X0043182Y0117412D02*
X0043332Y0117412D01*
X0043332Y0119011D02*
X0043182Y0119011D01*
X0043257Y0119154D02*
X0038808Y0114706D01*
X0038808Y0107509D01*
X0037069Y0107821D02*
X0086464Y0107821D01*
X0085633Y0106223D02*
X0037069Y0106223D01*
X0037069Y0104624D02*
X0085633Y0104624D01*
X0089956Y0109420D02*
X0038231Y0109420D01*
X0038569Y0111018D02*
X0089956Y0111018D01*
X0089956Y0112617D02*
X0061748Y0112617D01*
X0064155Y0114215D02*
X0089956Y0114215D01*
X0089956Y0115814D02*
X0064581Y0115814D01*
X0064581Y0117412D02*
X0089956Y0117412D01*
X0089956Y0119011D02*
X0064581Y0119011D01*
X0064581Y0120609D02*
X0089765Y0120609D01*
X0088166Y0122208D02*
X0063644Y0122208D01*
X0064581Y0123806D02*
X0086568Y0123806D01*
X0084969Y0125405D02*
X0064581Y0125405D01*
X0064816Y0127003D02*
X0083371Y0127003D01*
X0081772Y0128602D02*
X0066414Y0128602D01*
X0068013Y0130200D02*
X0080174Y0130200D01*
X0076913Y0131799D02*
X0073538Y0131799D01*
X0073538Y0133397D02*
X0076913Y0133397D01*
X0076913Y0134996D02*
X0073538Y0134996D01*
X0072930Y0136594D02*
X0077521Y0136594D01*
X0081985Y0136594D02*
X0135888Y0136594D01*
X0134290Y0134996D02*
X0082593Y0134996D01*
X0082917Y0133397D02*
X0132691Y0133397D01*
X0131093Y0131799D02*
X0084515Y0131799D01*
X0086114Y0130200D02*
X0129494Y0130200D01*
X0127896Y0128602D02*
X0087712Y0128602D01*
X0089311Y0127003D02*
X0126297Y0127003D01*
X0124699Y0125405D02*
X0090909Y0125405D01*
X0092508Y0123806D02*
X0123100Y0123806D01*
X0137487Y0138193D02*
X0069263Y0138193D01*
X0067664Y0139791D02*
X0139085Y0139791D01*
X0140684Y0141390D02*
X0066066Y0141390D01*
X0065473Y0142988D02*
X0142282Y0142988D01*
X0143881Y0144587D02*
X0058334Y0144587D01*
X0056198Y0144587D02*
X0056048Y0144587D01*
X0056048Y0142988D02*
X0056198Y0142988D01*
X0056198Y0141390D02*
X0056048Y0141390D01*
X0052573Y0141390D02*
X0036177Y0141390D01*
X0036118Y0142988D02*
X0052619Y0142988D01*
X0053912Y0144587D02*
X0035558Y0144587D01*
X0032627Y0147162D02*
X0032320Y0147469D01*
X0027981Y0147469D01*
X0024635Y0144123D01*
X0023454Y0144123D01*
X0026835Y0142929D02*
X0028975Y0145069D01*
X0029277Y0145069D01*
X0029277Y0145006D01*
X0029989Y0144293D01*
X0029940Y0144265D01*
X0029524Y0143849D01*
X0029229Y0143338D01*
X0029077Y0142769D01*
X0029077Y0141237D01*
X0032552Y0141237D01*
X0032552Y0141087D01*
X0029077Y0141087D01*
X0029077Y0140120D01*
X0020091Y0140120D01*
X0019845Y0140367D01*
X0019845Y0162495D01*
X0027702Y0162495D01*
X0028678Y0161519D01*
X0028678Y0158541D01*
X0029872Y0157348D01*
X0034185Y0157348D01*
X0034897Y0158060D01*
X0034925Y0158011D01*
X0035342Y0157595D01*
X0035852Y0157300D01*
X0036421Y0157148D01*
X0037953Y0157148D01*
X0037953Y0160623D01*
X0035378Y0160623D01*
X0035378Y0160773D01*
X0037953Y0160773D01*
X0037953Y0160623D01*
X0038103Y0160623D01*
X0038103Y0157148D01*
X0039635Y0157148D01*
X0040204Y0157300D01*
X0040715Y0157595D01*
X0041131Y0158011D01*
X0041426Y0158521D01*
X0041578Y0159091D01*
X0041578Y0160623D01*
X0038103Y0160623D01*
X0038103Y0160773D01*
X0041578Y0160773D01*
X0041578Y0162305D01*
X0041426Y0162874D01*
X0041131Y0163384D01*
X0041036Y0163480D01*
X0048621Y0163480D01*
X0048621Y0158087D01*
X0040497Y0149963D01*
X0035332Y0149963D01*
X0034783Y0150512D01*
X0030470Y0150512D01*
X0029827Y0149869D01*
X0027504Y0149869D01*
X0026622Y0149504D01*
X0025946Y0148829D01*
X0025946Y0148829D01*
X0024630Y0147512D01*
X0024166Y0147704D01*
X0022741Y0147704D01*
X0021425Y0147159D01*
X0020418Y0146151D01*
X0019872Y0144835D01*
X0019872Y0143410D01*
X0020418Y0142094D01*
X0021425Y0141087D01*
X0022741Y0140542D01*
X0024166Y0140542D01*
X0025482Y0141087D01*
X0026489Y0142094D01*
X0026835Y0142929D01*
X0026894Y0142988D02*
X0029135Y0142988D01*
X0029077Y0141390D02*
X0025785Y0141390D01*
X0021122Y0141390D02*
X0019845Y0141390D01*
X0019845Y0142988D02*
X0020047Y0142988D01*
X0019872Y0144587D02*
X0019845Y0144587D01*
X0019845Y0146185D02*
X0020452Y0146185D01*
X0019845Y0147784D02*
X0024902Y0147784D01*
X0026500Y0149382D02*
X0019845Y0149382D01*
X0019845Y0150981D02*
X0041515Y0150981D01*
X0043114Y0152579D02*
X0019845Y0152579D01*
X0019845Y0154178D02*
X0044712Y0154178D01*
X0046311Y0155777D02*
X0019845Y0155777D01*
X0019845Y0157375D02*
X0029844Y0157375D01*
X0028678Y0158974D02*
X0019845Y0158974D01*
X0019845Y0160572D02*
X0028678Y0160572D01*
X0028027Y0162171D02*
X0019845Y0162171D01*
X0015645Y0162171D02*
X0009565Y0162171D01*
X0009565Y0163769D02*
X0015645Y0163769D01*
X0015645Y0165368D02*
X0009565Y0165368D01*
X0009565Y0166966D02*
X0026472Y0166966D01*
X0026472Y0168565D02*
X0009565Y0168565D01*
X0009565Y0170163D02*
X0026472Y0170163D01*
X0026472Y0171762D02*
X0009565Y0171762D01*
X0009565Y0173360D02*
X0026472Y0173360D01*
X0026472Y0174959D02*
X0009565Y0174959D01*
X0009565Y0176557D02*
X0026472Y0176557D01*
X0026472Y0178156D02*
X0009565Y0178156D01*
X0009565Y0179754D02*
X0026472Y0179754D01*
X0026472Y0181353D02*
X0009565Y0181353D01*
X0009565Y0182951D02*
X0026472Y0182951D01*
X0026472Y0184550D02*
X0009565Y0184550D01*
X0009565Y0186148D02*
X0026472Y0186148D01*
X0026472Y0187747D02*
X0009565Y0187747D01*
X0009565Y0189345D02*
X0026472Y0189345D01*
X0026472Y0190944D02*
X0009565Y0190944D01*
X0009565Y0192542D02*
X0020476Y0192542D01*
X0020476Y0194141D02*
X0009565Y0194141D01*
X0009565Y0195739D02*
X0020476Y0195739D01*
X0020476Y0197338D02*
X0009565Y0197338D01*
X0009565Y0198936D02*
X0025494Y0198936D01*
X0027093Y0200535D02*
X0009565Y0200535D01*
X0009565Y0202133D02*
X0028691Y0202133D01*
X0030290Y0203732D02*
X0009565Y0203732D01*
X0009565Y0205330D02*
X0031888Y0205330D01*
X0033487Y0206929D02*
X0009565Y0206929D01*
X0009565Y0208527D02*
X0035085Y0208527D01*
X0035330Y0210126D02*
X0009565Y0210126D01*
X0009565Y0211724D02*
X0035330Y0211724D01*
X0035330Y0213323D02*
X0009565Y0213323D01*
X0009565Y0214921D02*
X0035330Y0214921D01*
X0035330Y0216520D02*
X0009565Y0216520D01*
X0036233Y0197338D02*
X0037598Y0197338D01*
X0037598Y0197509D02*
X0037598Y0195488D01*
X0041379Y0195488D01*
X0041379Y0195120D01*
X0037598Y0195120D01*
X0037598Y0193098D01*
X0037721Y0192641D01*
X0037958Y0192230D01*
X0038293Y0191895D01*
X0038704Y0191658D01*
X0039161Y0191535D01*
X0041380Y0191535D01*
X0041380Y0195120D01*
X0041748Y0195120D01*
X0041748Y0191568D01*
X0030672Y0180492D01*
X0030672Y0191342D01*
X0033762Y0191342D01*
X0034699Y0192279D01*
X0034699Y0195804D01*
X0041745Y0202850D01*
X0041851Y0202956D01*
X0044195Y0202956D01*
X0044713Y0203474D01*
X0045232Y0202956D01*
X0050888Y0202956D01*
X0051825Y0203893D01*
X0051825Y0205310D01*
X0074301Y0205310D01*
X0074805Y0204807D01*
X0073421Y0204807D01*
X0072852Y0204654D01*
X0072342Y0204360D01*
X0071925Y0203943D01*
X0071631Y0203433D01*
X0071478Y0202864D01*
X0071478Y0201332D01*
X0074953Y0201332D01*
X0074953Y0201182D01*
X0071478Y0201182D01*
X0071478Y0199650D01*
X0071631Y0199081D01*
X0071702Y0198958D01*
X0071118Y0199199D01*
X0069686Y0199199D01*
X0068363Y0198651D01*
X0067350Y0197638D01*
X0066802Y0196315D01*
X0066802Y0194883D01*
X0067350Y0193560D01*
X0068363Y0192547D01*
X0069686Y0191999D01*
X0071118Y0191999D01*
X0072293Y0192486D01*
X0072872Y0191907D01*
X0077185Y0191907D01*
X0078378Y0193100D01*
X0078378Y0197413D01*
X0077666Y0198126D01*
X0077715Y0198154D01*
X0078131Y0198570D01*
X0078426Y0199081D01*
X0078578Y0199650D01*
X0078578Y0201182D01*
X0075103Y0201182D01*
X0075103Y0201332D01*
X0078578Y0201332D01*
X0078578Y0202864D01*
X0078426Y0203433D01*
X0078169Y0203877D01*
X0079331Y0204358D01*
X0080344Y0205371D01*
X0080892Y0206694D01*
X0080892Y0208126D01*
X0080632Y0208755D01*
X0081836Y0208755D01*
X0085984Y0204607D01*
X0084092Y0204607D01*
X0082899Y0203413D01*
X0082899Y0200731D01*
X0082328Y0200160D01*
X0081098Y0198930D01*
X0081098Y0190827D01*
X0080623Y0191302D01*
X0067827Y0191302D01*
X0065386Y0193743D01*
X0065386Y0196626D01*
X0064674Y0197338D01*
X0067226Y0197338D01*
X0066802Y0195739D02*
X0065386Y0195739D01*
X0065386Y0194141D02*
X0067110Y0194141D01*
X0066587Y0192542D02*
X0068375Y0192542D01*
X0062245Y0190944D02*
X0047063Y0190944D01*
X0047855Y0191735D02*
X0051085Y0191735D01*
X0052022Y0192673D01*
X0052022Y0197935D01*
X0051085Y0198872D01*
X0045429Y0198872D01*
X0045052Y0198495D01*
X0044834Y0198713D01*
X0044424Y0198950D01*
X0043966Y0199072D01*
X0041748Y0199072D01*
X0041748Y0195488D01*
X0041380Y0195488D01*
X0041380Y0199072D01*
X0039161Y0199072D01*
X0038704Y0198950D01*
X0038293Y0198713D01*
X0037958Y0198378D01*
X0037721Y0197967D01*
X0037598Y0197509D01*
X0037831Y0198936D02*
X0038680Y0198936D01*
X0039430Y0200535D02*
X0061961Y0200535D01*
X0061961Y0200544D02*
X0061961Y0200394D01*
X0058486Y0200394D01*
X0058486Y0198862D01*
X0058639Y0198293D01*
X0058933Y0197783D01*
X0059350Y0197366D01*
X0059399Y0197338D01*
X0058686Y0196626D01*
X0058686Y0192313D01*
X0059880Y0191119D01*
X0062070Y0191119D01*
X0064124Y0189065D01*
X0053972Y0189065D01*
X0053035Y0188128D01*
X0053035Y0184904D01*
X0041023Y0184904D01*
X0047855Y0191735D01*
X0045465Y0189345D02*
X0063844Y0189345D01*
X0058686Y0192542D02*
X0051892Y0192542D01*
X0052022Y0194141D02*
X0058686Y0194141D01*
X0058686Y0195739D02*
X0052022Y0195739D01*
X0052022Y0197338D02*
X0059398Y0197338D01*
X0058486Y0198936D02*
X0044447Y0198936D01*
X0041748Y0198936D02*
X0041380Y0198936D01*
X0041380Y0197338D02*
X0041748Y0197338D01*
X0041748Y0195739D02*
X0041380Y0195739D01*
X0041380Y0194141D02*
X0041748Y0194141D01*
X0041748Y0192542D02*
X0041380Y0192542D01*
X0041124Y0190944D02*
X0030672Y0190944D01*
X0030672Y0189345D02*
X0039525Y0189345D01*
X0037927Y0187747D02*
X0030672Y0187747D01*
X0030672Y0186148D02*
X0036328Y0186148D01*
X0034729Y0184550D02*
X0030672Y0184550D01*
X0030672Y0182951D02*
X0033131Y0182951D01*
X0031532Y0181353D02*
X0030672Y0181353D01*
X0039528Y0175032D02*
X0039678Y0175032D01*
X0039678Y0171557D01*
X0041210Y0171557D01*
X0041779Y0171710D01*
X0042290Y0172004D01*
X0042706Y0172421D01*
X0043001Y0172931D01*
X0043153Y0173500D01*
X0043153Y0175032D01*
X0039678Y0175032D01*
X0039678Y0175182D01*
X0043153Y0175182D01*
X0043153Y0176572D01*
X0048863Y0170861D01*
X0059444Y0170861D01*
X0059444Y0164734D01*
X0058659Y0164734D01*
X0058564Y0164640D01*
X0058477Y0164727D01*
X0055524Y0167680D01*
X0053784Y0167680D01*
X0032640Y0167680D01*
X0032640Y0171757D01*
X0035760Y0171757D01*
X0036472Y0172470D01*
X0036500Y0172421D01*
X0036917Y0172004D01*
X0037427Y0171710D01*
X0037996Y0171557D01*
X0039528Y0171557D01*
X0039528Y0175032D01*
X0039528Y0174959D02*
X0039678Y0174959D01*
X0039678Y0173360D02*
X0039528Y0173360D01*
X0039528Y0171762D02*
X0039678Y0171762D01*
X0041869Y0171762D02*
X0047963Y0171762D01*
X0046364Y0173360D02*
X0043116Y0173360D01*
X0043153Y0174959D02*
X0044766Y0174959D01*
X0043167Y0176557D02*
X0043153Y0176557D01*
X0037337Y0171762D02*
X0035764Y0171762D01*
X0032640Y0170163D02*
X0059444Y0170163D01*
X0059444Y0168565D02*
X0032640Y0168565D01*
X0037953Y0160572D02*
X0038103Y0160572D01*
X0038103Y0158974D02*
X0037953Y0158974D01*
X0037953Y0157375D02*
X0038103Y0157375D01*
X0040334Y0157375D02*
X0047909Y0157375D01*
X0048621Y0158974D02*
X0041547Y0158974D01*
X0041578Y0160572D02*
X0048621Y0160572D01*
X0048621Y0162171D02*
X0041578Y0162171D01*
X0035722Y0157375D02*
X0034212Y0157375D01*
X0044258Y0147784D02*
X0145621Y0147784D01*
X0145479Y0146185D02*
X0042659Y0146185D01*
X0045856Y0149382D02*
X0146555Y0149382D01*
X0141578Y0150981D02*
X0122750Y0150981D01*
X0124349Y0152579D02*
X0139980Y0152579D01*
X0136260Y0154178D02*
X0125947Y0154178D01*
X0127546Y0155777D02*
X0135014Y0155777D01*
X0134716Y0157375D02*
X0129144Y0157375D01*
X0130743Y0158974D02*
X0135148Y0158974D01*
X0137017Y0160572D02*
X0132341Y0160572D01*
X0133940Y0162171D02*
X0135649Y0162171D01*
X0139614Y0160572D02*
X0144290Y0160572D01*
X0142692Y0162171D02*
X0140982Y0162171D01*
X0141483Y0158974D02*
X0145889Y0158974D01*
X0147487Y0157375D02*
X0141916Y0157375D01*
X0142722Y0155777D02*
X0148028Y0155777D01*
X0132795Y0166966D02*
X0124463Y0166966D01*
X0122865Y0165368D02*
X0131197Y0165368D01*
X0129598Y0163769D02*
X0121266Y0163769D01*
X0120485Y0162987D02*
X0131804Y0174306D01*
X0133034Y0175536D01*
X0133034Y0178718D01*
X0133509Y0178243D01*
X0147385Y0178243D01*
X0147442Y0178220D01*
X0148874Y0178220D01*
X0150198Y0178768D01*
X0151210Y0179780D01*
X0151758Y0181104D01*
X0151758Y0182536D01*
X0151210Y0183859D01*
X0150428Y0184641D01*
X0163529Y0184641D01*
X0164001Y0184168D01*
X0164001Y0181581D01*
X0164845Y0180737D01*
X0164090Y0179983D01*
X0153194Y0179983D01*
X0151964Y0178753D01*
X0148296Y0175085D01*
X0146950Y0175085D01*
X0145627Y0174537D01*
X0144614Y0173524D01*
X0144066Y0172201D01*
X0144066Y0170769D01*
X0144327Y0170140D01*
X0135970Y0170140D01*
X0134739Y0168910D01*
X0120714Y0154884D01*
X0075021Y0154884D01*
X0075021Y0158334D01*
X0071221Y0158334D01*
X0071221Y0159134D01*
X0070421Y0159134D01*
X0070421Y0158334D01*
X0066621Y0158334D01*
X0066621Y0154884D01*
X0065721Y0154884D01*
X0065721Y0163797D01*
X0064784Y0164734D01*
X0063644Y0164734D01*
X0063644Y0173831D01*
X0062414Y0175061D01*
X0055041Y0175061D01*
X0055136Y0175291D01*
X0090541Y0175291D01*
X0091493Y0174339D01*
X0092816Y0173791D01*
X0094248Y0173791D01*
X0095572Y0174339D01*
X0096584Y0175351D01*
X0097132Y0176674D01*
X0097132Y0178107D01*
X0096584Y0179430D01*
X0095572Y0180442D01*
X0094248Y0180991D01*
X0093857Y0180991D01*
X0094124Y0181257D01*
X0094672Y0182580D01*
X0094672Y0184012D01*
X0094604Y0184176D01*
X0114562Y0164218D01*
X0115792Y0162987D01*
X0120485Y0162987D01*
X0115011Y0163769D02*
X0074915Y0163769D01*
X0074899Y0163829D02*
X0074662Y0164239D01*
X0074326Y0164574D01*
X0073916Y0164811D01*
X0073458Y0164934D01*
X0071221Y0164934D01*
X0071221Y0159134D01*
X0075021Y0159134D01*
X0075021Y0163371D01*
X0074899Y0163829D01*
X0075021Y0162171D02*
X0128000Y0162171D01*
X0126401Y0160572D02*
X0075021Y0160572D01*
X0071221Y0160572D02*
X0070421Y0160572D01*
X0070421Y0159134D02*
X0070421Y0164934D01*
X0068184Y0164934D01*
X0067726Y0164811D01*
X0067316Y0164574D01*
X0066981Y0164239D01*
X0066744Y0163829D01*
X0066621Y0163371D01*
X0066621Y0159134D01*
X0070421Y0159134D01*
X0070421Y0158974D02*
X0065721Y0158974D01*
X0065721Y0160572D02*
X0066621Y0160572D01*
X0066621Y0162171D02*
X0065721Y0162171D01*
X0065721Y0163769D02*
X0066728Y0163769D01*
X0063644Y0165368D02*
X0113412Y0165368D01*
X0111814Y0166966D02*
X0063644Y0166966D01*
X0063644Y0168565D02*
X0110215Y0168565D01*
X0108617Y0170163D02*
X0063644Y0170163D01*
X0063644Y0171762D02*
X0107018Y0171762D01*
X0105420Y0173360D02*
X0063644Y0173360D01*
X0062517Y0174959D02*
X0090873Y0174959D01*
X0096192Y0174959D02*
X0103821Y0174959D01*
X0102223Y0176557D02*
X0097084Y0176557D01*
X0097112Y0178156D02*
X0100624Y0178156D01*
X0099026Y0179754D02*
X0096260Y0179754D01*
X0097427Y0181353D02*
X0094163Y0181353D01*
X0094672Y0182951D02*
X0095829Y0182951D01*
X0081098Y0190944D02*
X0080980Y0190944D01*
X0081098Y0192542D02*
X0077820Y0192542D01*
X0078378Y0194141D02*
X0081098Y0194141D01*
X0081098Y0195739D02*
X0078378Y0195739D01*
X0078378Y0197338D02*
X0081098Y0197338D01*
X0081104Y0198936D02*
X0078343Y0198936D01*
X0078578Y0200535D02*
X0082703Y0200535D01*
X0082899Y0202133D02*
X0078578Y0202133D01*
X0078253Y0203732D02*
X0083218Y0203732D01*
X0085260Y0205330D02*
X0080303Y0205330D01*
X0080892Y0206929D02*
X0083662Y0206929D01*
X0082063Y0208527D02*
X0080726Y0208527D01*
X0071803Y0203732D02*
X0064446Y0203732D01*
X0064212Y0203867D02*
X0063643Y0204019D01*
X0062111Y0204019D01*
X0062111Y0200544D01*
X0065586Y0200544D01*
X0065586Y0202076D01*
X0065434Y0202645D01*
X0065139Y0203156D01*
X0064723Y0203572D01*
X0064212Y0203867D01*
X0062111Y0203732D02*
X0061961Y0203732D01*
X0061961Y0204019D02*
X0060429Y0204019D01*
X0059860Y0203867D01*
X0059350Y0203572D01*
X0058933Y0203156D01*
X0058639Y0202645D01*
X0058486Y0202076D01*
X0058486Y0200544D01*
X0061961Y0200544D01*
X0061961Y0204019D01*
X0061961Y0202133D02*
X0062111Y0202133D01*
X0062111Y0200544D02*
X0061961Y0200544D01*
X0062111Y0200544D02*
X0062111Y0200394D01*
X0065586Y0200394D01*
X0065586Y0198862D01*
X0065434Y0198293D01*
X0065139Y0197783D01*
X0064723Y0197366D01*
X0064674Y0197338D01*
X0065586Y0198936D02*
X0069052Y0198936D01*
X0071478Y0200535D02*
X0062111Y0200535D01*
X0065571Y0202133D02*
X0071478Y0202133D01*
X0059626Y0203732D02*
X0051664Y0203732D01*
X0058501Y0202133D02*
X0041028Y0202133D01*
X0037598Y0195739D02*
X0034699Y0195739D01*
X0034699Y0194141D02*
X0037598Y0194141D01*
X0037778Y0192542D02*
X0034699Y0192542D01*
X0043866Y0187747D02*
X0053035Y0187747D01*
X0053035Y0186148D02*
X0042268Y0186148D01*
X0056238Y0166966D02*
X0059444Y0166966D01*
X0059444Y0165368D02*
X0057836Y0165368D01*
X0065721Y0157375D02*
X0066621Y0157375D01*
X0066621Y0155777D02*
X0065721Y0155777D01*
X0071221Y0158974D02*
X0124803Y0158974D01*
X0123204Y0157375D02*
X0075021Y0157375D01*
X0075021Y0155777D02*
X0121606Y0155777D01*
X0126062Y0168565D02*
X0134394Y0168565D01*
X0127661Y0170163D02*
X0144317Y0170163D01*
X0144066Y0171762D02*
X0129259Y0171762D01*
X0130858Y0173360D02*
X0144546Y0173360D01*
X0146645Y0174959D02*
X0132456Y0174959D01*
X0133034Y0176557D02*
X0149768Y0176557D01*
X0151367Y0178156D02*
X0133034Y0178156D01*
X0151184Y0179754D02*
X0152965Y0179754D01*
X0151758Y0181353D02*
X0164229Y0181353D01*
X0164001Y0182951D02*
X0151586Y0182951D01*
X0150519Y0184550D02*
X0163620Y0184550D01*
X0169344Y0187087D02*
X0169911Y0187654D01*
X0170367Y0188755D01*
X0170435Y0188824D01*
X0175603Y0193991D01*
X0180032Y0193991D01*
X0181262Y0195221D01*
X0181319Y0195279D01*
X0184746Y0195279D01*
X0185265Y0195797D01*
X0185783Y0195279D01*
X0191439Y0195279D01*
X0192376Y0196216D01*
X0192376Y0197928D01*
X0197835Y0197928D01*
X0197835Y0196669D01*
X0201616Y0196669D01*
X0201616Y0196301D01*
X0201984Y0196301D01*
X0201984Y0192717D01*
X0204202Y0192717D01*
X0204660Y0192839D01*
X0205071Y0193076D01*
X0205288Y0193293D01*
X0205665Y0192917D01*
X0206590Y0192917D01*
X0206590Y0186865D01*
X0206123Y0186865D01*
X0204146Y0188841D01*
X0185470Y0188841D01*
X0184468Y0189843D01*
X0180155Y0189843D01*
X0178962Y0188649D01*
X0178962Y0184336D01*
X0179674Y0183624D01*
X0179625Y0183596D01*
X0179209Y0183179D01*
X0178998Y0182814D01*
X0178769Y0183367D01*
X0177757Y0184379D01*
X0176433Y0184928D01*
X0175087Y0184928D01*
X0174127Y0185888D01*
X0170701Y0185888D01*
X0170701Y0185893D01*
X0169508Y0187087D01*
X0169344Y0187087D01*
X0169949Y0187747D02*
X0178962Y0187747D01*
X0178962Y0186148D02*
X0170446Y0186148D01*
X0170957Y0189345D02*
X0179658Y0189345D01*
X0184966Y0189345D02*
X0206590Y0189345D01*
X0206590Y0187747D02*
X0205240Y0187747D01*
X0206590Y0190944D02*
X0172555Y0190944D01*
X0174154Y0192542D02*
X0206590Y0192542D01*
X0201984Y0194141D02*
X0201616Y0194141D01*
X0201616Y0192717D02*
X0201616Y0196301D01*
X0197835Y0196301D01*
X0197835Y0194280D01*
X0197957Y0193822D01*
X0198194Y0193411D01*
X0198529Y0193076D01*
X0198940Y0192839D01*
X0199398Y0192717D01*
X0201616Y0192717D01*
X0201616Y0195739D02*
X0201984Y0195739D01*
X0197835Y0195739D02*
X0191900Y0195739D01*
X0192376Y0197338D02*
X0197835Y0197338D01*
X0197872Y0194141D02*
X0180181Y0194141D01*
X0185207Y0195739D02*
X0185322Y0195739D01*
X0178962Y0184550D02*
X0177346Y0184550D01*
X0178941Y0182951D02*
X0179077Y0182951D01*
X0178762Y0179281D02*
X0178762Y0178886D01*
X0178914Y0178317D01*
X0179209Y0177807D01*
X0179625Y0177390D01*
X0180136Y0177095D01*
X0180705Y0176943D01*
X0182237Y0176943D01*
X0182237Y0180418D01*
X0182387Y0180418D01*
X0182387Y0176943D01*
X0183919Y0176943D01*
X0184268Y0177036D01*
X0184766Y0176538D01*
X0175612Y0176538D01*
X0175872Y0177167D01*
X0175872Y0177728D01*
X0176433Y0177728D01*
X0177757Y0178276D01*
X0178762Y0179281D01*
X0179007Y0178156D02*
X0177467Y0178156D01*
X0175620Y0176557D02*
X0184747Y0176557D01*
X0182387Y0178156D02*
X0182237Y0178156D01*
X0182237Y0179754D02*
X0182387Y0179754D01*
X0198160Y0165368D02*
X0219041Y0165368D01*
X0219247Y0165161D02*
X0222871Y0165161D01*
X0225044Y0162987D01*
X0244907Y0162987D01*
X0244907Y0161014D01*
X0246100Y0159820D01*
X0250413Y0159820D01*
X0251607Y0161014D01*
X0251607Y0163000D01*
X0251619Y0162987D01*
X0259255Y0162987D01*
X0259255Y0162358D01*
X0260192Y0161420D01*
X0265645Y0161420D01*
X0265645Y0142967D01*
X0264523Y0142967D01*
X0264005Y0142449D01*
X0263486Y0142967D01*
X0262463Y0142967D01*
X0262463Y0154146D01*
X0261233Y0155376D01*
X0259534Y0157075D01*
X0259534Y0158422D01*
X0258986Y0159745D01*
X0257973Y0160757D01*
X0256650Y0161305D01*
X0255218Y0161305D01*
X0253895Y0160757D01*
X0252882Y0159745D01*
X0252334Y0158422D01*
X0252334Y0156989D01*
X0252882Y0155666D01*
X0253895Y0154654D01*
X0255218Y0154106D01*
X0256564Y0154106D01*
X0258263Y0152407D01*
X0258263Y0142967D01*
X0257830Y0142967D01*
X0257542Y0142678D01*
X0257542Y0150209D01*
X0256312Y0151439D01*
X0244653Y0151439D01*
X0243701Y0152391D01*
X0242378Y0152939D01*
X0240946Y0152939D01*
X0239623Y0152391D01*
X0238610Y0151379D01*
X0238062Y0150055D01*
X0238062Y0148623D01*
X0238610Y0147300D01*
X0239623Y0146287D01*
X0240946Y0145739D01*
X0242378Y0145739D01*
X0243701Y0146287D01*
X0244653Y0147239D01*
X0248861Y0147239D01*
X0248397Y0146118D01*
X0248397Y0145534D01*
X0234582Y0145534D01*
X0234872Y0145824D01*
X0235420Y0147147D01*
X0235420Y0148579D01*
X0234872Y0149902D01*
X0233859Y0150915D01*
X0232537Y0151462D01*
X0232537Y0152403D01*
X0228756Y0152403D01*
X0228756Y0152772D01*
X0232537Y0152772D01*
X0232537Y0154129D01*
X0232766Y0154129D01*
X0233717Y0153177D01*
X0235041Y0152629D01*
X0236473Y0152629D01*
X0237796Y0153177D01*
X0238809Y0154190D01*
X0239357Y0155513D01*
X0239357Y0156945D01*
X0238809Y0158268D01*
X0237796Y0159281D01*
X0236473Y0159829D01*
X0235041Y0159829D01*
X0233717Y0159281D01*
X0232766Y0158329D01*
X0224552Y0158329D01*
X0223322Y0157099D01*
X0222379Y0156156D01*
X0219051Y0156156D01*
X0218113Y0155219D01*
X0218113Y0149963D01*
X0213998Y0149963D01*
X0214258Y0150592D01*
X0214258Y0152024D01*
X0213710Y0153347D01*
X0212698Y0154360D01*
X0211374Y0154908D01*
X0210028Y0154908D01*
X0209067Y0155868D01*
X0207709Y0155868D01*
X0207709Y0156271D01*
X0206997Y0156984D01*
X0207045Y0157012D01*
X0207462Y0157429D01*
X0207757Y0157939D01*
X0207909Y0158508D01*
X0207909Y0160040D01*
X0204434Y0160040D01*
X0204434Y0160190D01*
X0204284Y0160190D01*
X0204284Y0163665D01*
X0202752Y0163665D01*
X0202183Y0163512D01*
X0201673Y0163218D01*
X0201256Y0162801D01*
X0200962Y0162291D01*
X0200809Y0161722D01*
X0200809Y0160190D01*
X0204284Y0160190D01*
X0204284Y0160040D01*
X0200809Y0160040D01*
X0200809Y0158508D01*
X0200962Y0157939D01*
X0201256Y0157429D01*
X0201673Y0157012D01*
X0201721Y0156984D01*
X0201098Y0156361D01*
X0187652Y0156361D01*
X0187652Y0156566D01*
X0188737Y0156566D01*
X0190060Y0157114D01*
X0191072Y0158127D01*
X0191180Y0158388D01*
X0192089Y0159296D01*
X0198938Y0166145D01*
X0202266Y0166145D01*
X0202784Y0166663D01*
X0203303Y0166145D01*
X0208959Y0166145D01*
X0209896Y0167082D01*
X0209896Y0172345D01*
X0209069Y0173171D01*
X0209281Y0173383D01*
X0209829Y0174706D01*
X0209829Y0176138D01*
X0209569Y0176767D01*
X0214481Y0176767D01*
X0217754Y0180040D01*
X0218460Y0179334D01*
X0221985Y0179334D01*
X0224060Y0177259D01*
X0226275Y0177259D01*
X0226275Y0172298D01*
X0225940Y0172298D01*
X0225422Y0171779D01*
X0224904Y0172298D01*
X0219247Y0172298D01*
X0218310Y0171360D01*
X0218310Y0166098D01*
X0219247Y0165161D01*
X0218310Y0166966D02*
X0209780Y0166966D01*
X0209896Y0168565D02*
X0218310Y0168565D01*
X0218310Y0170163D02*
X0209896Y0170163D01*
X0209896Y0171762D02*
X0218711Y0171762D01*
X0215870Y0178156D02*
X0223163Y0178156D01*
X0226275Y0176557D02*
X0209656Y0176557D01*
X0209829Y0174959D02*
X0226275Y0174959D01*
X0226275Y0173360D02*
X0209258Y0173360D01*
X0217468Y0179754D02*
X0218040Y0179754D01*
X0219648Y0186471D02*
X0219648Y0187102D01*
X0243529Y0187102D01*
X0243529Y0183746D01*
X0244241Y0183033D01*
X0244192Y0183005D01*
X0243776Y0182589D01*
X0243481Y0182078D01*
X0243329Y0181509D01*
X0243329Y0179977D01*
X0246804Y0179977D01*
X0246804Y0179827D01*
X0243329Y0179827D01*
X0243329Y0178506D01*
X0230475Y0178506D01*
X0230475Y0179158D01*
X0230841Y0179257D01*
X0231252Y0179493D01*
X0231587Y0179829D01*
X0231824Y0180239D01*
X0231946Y0180697D01*
X0231946Y0182718D01*
X0228165Y0182718D01*
X0228165Y0183087D01*
X0227797Y0183087D01*
X0227797Y0186671D01*
X0225579Y0186671D01*
X0225121Y0186548D01*
X0224711Y0186311D01*
X0224493Y0186094D01*
X0224116Y0186471D01*
X0219648Y0186471D01*
X0224439Y0186148D02*
X0224548Y0186148D01*
X0227797Y0186148D02*
X0228165Y0186148D01*
X0228165Y0186671D02*
X0228165Y0183087D01*
X0231946Y0183087D01*
X0231946Y0185108D01*
X0231824Y0185566D01*
X0231587Y0185976D01*
X0231252Y0186311D01*
X0230841Y0186548D01*
X0230383Y0186671D01*
X0228165Y0186671D01*
X0228165Y0184550D02*
X0227797Y0184550D01*
X0228165Y0182951D02*
X0244138Y0182951D01*
X0243529Y0184550D02*
X0231946Y0184550D01*
X0231415Y0186148D02*
X0243529Y0186148D01*
X0243329Y0181353D02*
X0231946Y0181353D01*
X0231512Y0179754D02*
X0243329Y0179754D01*
X0246954Y0179827D02*
X0246954Y0179977D01*
X0250429Y0179977D01*
X0250429Y0181196D01*
X0250482Y0181196D01*
X0250942Y0180736D01*
X0252265Y0180188D01*
X0253697Y0180188D01*
X0255020Y0180736D01*
X0255480Y0181196D01*
X0256125Y0181196D01*
X0255343Y0180414D01*
X0254794Y0179091D01*
X0254794Y0178506D01*
X0250429Y0178506D01*
X0250429Y0179827D01*
X0246954Y0179827D01*
X0250429Y0179754D02*
X0255069Y0179754D01*
X0256212Y0185396D02*
X0256033Y0185827D01*
X0255020Y0186840D01*
X0254389Y0187102D01*
X0288036Y0187102D01*
X0304991Y0170147D01*
X0304991Y0168800D01*
X0305539Y0167477D01*
X0306552Y0166465D01*
X0307875Y0165917D01*
X0309307Y0165917D01*
X0310631Y0166465D01*
X0311643Y0167477D01*
X0312191Y0168800D01*
X0312191Y0170233D01*
X0311643Y0171556D01*
X0310631Y0172568D01*
X0309307Y0173117D01*
X0307961Y0173117D01*
X0290531Y0190546D01*
X0304728Y0190546D01*
X0304728Y0190310D01*
X0305665Y0189373D01*
X0308895Y0189373D01*
X0311166Y0187102D01*
X0319779Y0187102D01*
X0319779Y0103949D01*
X0306649Y0090820D01*
X0306371Y0091491D01*
X0307246Y0092367D01*
X0307246Y0103457D01*
X0306016Y0104687D01*
X0297158Y0113546D01*
X0205868Y0113546D01*
X0205868Y0119773D01*
X0206820Y0120725D01*
X0207368Y0122048D01*
X0207368Y0123481D01*
X0206820Y0124804D01*
X0205808Y0125816D01*
X0204485Y0126365D01*
X0203052Y0126365D01*
X0201729Y0125816D01*
X0200717Y0124804D01*
X0200169Y0123481D01*
X0200169Y0122048D01*
X0200717Y0120725D01*
X0201669Y0119773D01*
X0201669Y0111577D01*
X0167246Y0111577D01*
X0167506Y0112206D01*
X0167506Y0113552D01*
X0199717Y0145763D01*
X0207319Y0145763D01*
X0207058Y0145134D01*
X0207058Y0143702D01*
X0207606Y0142379D01*
X0208619Y0141366D01*
X0209942Y0140818D01*
X0211374Y0140818D01*
X0211442Y0140846D01*
X0211442Y0138864D01*
X0212286Y0138020D01*
X0211442Y0137177D01*
X0211442Y0132864D01*
X0212636Y0131670D01*
X0216949Y0131670D01*
X0218142Y0132864D01*
X0218142Y0133952D01*
X0234166Y0133952D01*
X0236438Y0136224D01*
X0239864Y0136224D01*
X0240423Y0136782D01*
X0242474Y0134731D01*
X0241438Y0134731D01*
X0240115Y0134183D01*
X0239102Y0133170D01*
X0238554Y0131847D01*
X0238554Y0130415D01*
X0239102Y0129091D01*
X0240115Y0128079D01*
X0241438Y0127531D01*
X0242784Y0127531D01*
X0242875Y0127440D01*
X0240605Y0125169D01*
X0240605Y0125297D01*
X0239667Y0126235D01*
X0234011Y0126235D01*
X0233634Y0125858D01*
X0233417Y0126075D01*
X0233007Y0126312D01*
X0232549Y0126435D01*
X0230331Y0126435D01*
X0230331Y0122850D01*
X0229962Y0122850D01*
X0229962Y0122482D01*
X0226181Y0122482D01*
X0226181Y0121420D01*
X0222355Y0121420D01*
X0222298Y0121477D01*
X0222298Y0124904D01*
X0221360Y0125841D01*
X0215704Y0125841D01*
X0215186Y0125323D01*
X0214667Y0125841D01*
X0209011Y0125841D01*
X0208074Y0124904D01*
X0208074Y0119641D01*
X0209011Y0118704D01*
X0212733Y0118704D01*
X0214956Y0116481D01*
X0216186Y0115251D01*
X0244993Y0115251D01*
X0256312Y0126570D01*
X0257542Y0127800D01*
X0257542Y0136118D01*
X0257830Y0135830D01*
X0259247Y0135830D01*
X0259247Y0125250D01*
X0258814Y0125250D01*
X0257877Y0124313D01*
X0257877Y0119051D01*
X0258814Y0118113D01*
X0264471Y0118113D01*
X0264848Y0118490D01*
X0265065Y0118273D01*
X0265475Y0118036D01*
X0265933Y0117913D01*
X0268151Y0117913D01*
X0268151Y0121498D01*
X0268520Y0121498D01*
X0268520Y0121866D01*
X0272301Y0121866D01*
X0272301Y0123887D01*
X0272178Y0124345D01*
X0271941Y0124756D01*
X0271606Y0125091D01*
X0271196Y0125328D01*
X0270738Y0125450D01*
X0268520Y0125450D01*
X0268520Y0121866D01*
X0268151Y0121866D01*
X0268151Y0125450D01*
X0265933Y0125450D01*
X0265475Y0125328D01*
X0265065Y0125091D01*
X0264848Y0124873D01*
X0264471Y0125250D01*
X0263447Y0125250D01*
X0263447Y0135830D01*
X0263486Y0135830D01*
X0264005Y0136348D01*
X0264523Y0135830D01*
X0270179Y0135830D01*
X0271117Y0136767D01*
X0271117Y0142030D01*
X0270179Y0142967D01*
X0269845Y0142967D01*
X0269845Y0161420D01*
X0272541Y0161420D01*
X0273479Y0162358D01*
X0273479Y0167620D01*
X0272541Y0168557D01*
X0268721Y0168557D01*
X0267900Y0169379D01*
X0267900Y0170725D01*
X0267352Y0172048D01*
X0266339Y0173061D01*
X0265016Y0173609D01*
X0263584Y0173609D01*
X0262261Y0173061D01*
X0261248Y0172048D01*
X0260700Y0170725D01*
X0260700Y0169293D01*
X0261004Y0168557D01*
X0260192Y0168557D01*
X0259255Y0167620D01*
X0259255Y0167187D01*
X0256082Y0167187D01*
X0268229Y0179334D01*
X0271557Y0179334D01*
X0272494Y0180271D01*
X0272494Y0185534D01*
X0271557Y0186471D01*
X0265901Y0186471D01*
X0265383Y0185952D01*
X0264864Y0186471D01*
X0259208Y0186471D01*
X0258271Y0185534D01*
X0258271Y0185396D01*
X0256212Y0185396D01*
X0255712Y0186148D02*
X0258885Y0186148D01*
X0265187Y0186148D02*
X0265578Y0186148D01*
X0271880Y0186148D02*
X0288990Y0186148D01*
X0290588Y0184550D02*
X0272494Y0184550D01*
X0272494Y0182951D02*
X0292187Y0182951D01*
X0293785Y0181353D02*
X0272494Y0181353D01*
X0271978Y0179754D02*
X0295384Y0179754D01*
X0296982Y0178156D02*
X0267051Y0178156D01*
X0265452Y0176557D02*
X0298581Y0176557D01*
X0300179Y0174959D02*
X0263854Y0174959D01*
X0262984Y0173360D02*
X0262255Y0173360D01*
X0261130Y0171762D02*
X0260657Y0171762D01*
X0260700Y0170163D02*
X0259058Y0170163D01*
X0257460Y0168565D02*
X0261002Y0168565D01*
X0265616Y0173360D02*
X0301778Y0173360D01*
X0303376Y0171762D02*
X0267470Y0171762D01*
X0267900Y0170163D02*
X0304975Y0170163D01*
X0305089Y0168565D02*
X0268714Y0168565D01*
X0273479Y0166966D02*
X0306051Y0166966D01*
X0311132Y0166966D02*
X0319779Y0166966D01*
X0319779Y0165368D02*
X0273479Y0165368D01*
X0273479Y0163769D02*
X0319779Y0163769D01*
X0319779Y0162171D02*
X0273292Y0162171D01*
X0269845Y0160572D02*
X0319779Y0160572D01*
X0319779Y0158974D02*
X0269845Y0158974D01*
X0269845Y0157375D02*
X0319779Y0157375D01*
X0319779Y0155777D02*
X0269845Y0155777D01*
X0269845Y0154178D02*
X0319779Y0154178D01*
X0319779Y0152579D02*
X0269845Y0152579D01*
X0269845Y0150981D02*
X0319779Y0150981D01*
X0319779Y0149382D02*
X0269845Y0149382D01*
X0269845Y0147784D02*
X0319779Y0147784D01*
X0319779Y0146185D02*
X0269845Y0146185D01*
X0269845Y0144587D02*
X0319779Y0144587D01*
X0319779Y0142988D02*
X0269845Y0142988D01*
X0271117Y0141390D02*
X0319779Y0141390D01*
X0319779Y0139791D02*
X0271117Y0139791D01*
X0271117Y0138193D02*
X0319779Y0138193D01*
X0319779Y0136594D02*
X0270944Y0136594D01*
X0263447Y0134996D02*
X0319779Y0134996D01*
X0319779Y0133397D02*
X0263447Y0133397D01*
X0263447Y0131799D02*
X0319779Y0131799D01*
X0319779Y0130200D02*
X0263447Y0130200D01*
X0263447Y0128602D02*
X0319779Y0128602D01*
X0319779Y0127003D02*
X0263447Y0127003D01*
X0263447Y0125405D02*
X0265763Y0125405D01*
X0268151Y0125405D02*
X0268520Y0125405D01*
X0268520Y0123806D02*
X0268151Y0123806D01*
X0268151Y0122208D02*
X0268520Y0122208D01*
X0268520Y0121498D02*
X0272301Y0121498D01*
X0272301Y0119476D01*
X0272178Y0119019D01*
X0271941Y0118608D01*
X0271606Y0118273D01*
X0271196Y0118036D01*
X0270738Y0117913D01*
X0268520Y0117913D01*
X0268520Y0121498D01*
X0268520Y0120609D02*
X0268151Y0120609D01*
X0268151Y0119011D02*
X0268520Y0119011D01*
X0272174Y0119011D02*
X0319779Y0119011D01*
X0319779Y0120609D02*
X0272301Y0120609D01*
X0272301Y0122208D02*
X0319779Y0122208D01*
X0319779Y0123806D02*
X0272301Y0123806D01*
X0270908Y0125405D02*
X0319779Y0125405D01*
X0319779Y0117412D02*
X0247154Y0117412D01*
X0248752Y0119011D02*
X0257917Y0119011D01*
X0257877Y0120609D02*
X0250351Y0120609D01*
X0251949Y0122208D02*
X0257877Y0122208D01*
X0257877Y0123806D02*
X0253548Y0123806D01*
X0255146Y0125405D02*
X0259247Y0125405D01*
X0259247Y0127003D02*
X0256745Y0127003D01*
X0257542Y0128602D02*
X0259247Y0128602D01*
X0259247Y0130200D02*
X0257542Y0130200D01*
X0257542Y0131799D02*
X0259247Y0131799D01*
X0259247Y0133397D02*
X0257542Y0133397D01*
X0257542Y0134996D02*
X0259247Y0134996D01*
X0258263Y0142988D02*
X0257542Y0142988D01*
X0257542Y0144587D02*
X0258263Y0144587D01*
X0258263Y0146185D02*
X0257542Y0146185D01*
X0257542Y0147784D02*
X0258263Y0147784D01*
X0258263Y0149382D02*
X0257542Y0149382D01*
X0258263Y0150981D02*
X0256770Y0150981D01*
X0258090Y0152579D02*
X0243247Y0152579D01*
X0240077Y0152579D02*
X0228756Y0152579D01*
X0233699Y0150981D02*
X0238446Y0150981D01*
X0238062Y0149382D02*
X0235087Y0149382D01*
X0235420Y0147784D02*
X0238410Y0147784D01*
X0239869Y0146185D02*
X0235021Y0146185D01*
X0243455Y0146185D02*
X0248425Y0146185D01*
X0255043Y0154178D02*
X0238797Y0154178D01*
X0239357Y0155777D02*
X0252836Y0155777D01*
X0252334Y0157375D02*
X0239179Y0157375D01*
X0238103Y0158974D02*
X0252562Y0158974D01*
X0253709Y0160572D02*
X0251165Y0160572D01*
X0251607Y0162171D02*
X0259442Y0162171D01*
X0258158Y0160572D02*
X0265645Y0160572D01*
X0265645Y0158974D02*
X0259305Y0158974D01*
X0259534Y0157375D02*
X0265645Y0157375D01*
X0265645Y0155777D02*
X0260833Y0155777D01*
X0262431Y0154178D02*
X0265645Y0154178D01*
X0265645Y0152579D02*
X0262463Y0152579D01*
X0262463Y0150981D02*
X0265645Y0150981D01*
X0265645Y0149382D02*
X0262463Y0149382D01*
X0262463Y0147784D02*
X0265645Y0147784D01*
X0265645Y0146185D02*
X0262463Y0146185D01*
X0262463Y0144587D02*
X0265645Y0144587D01*
X0265645Y0142988D02*
X0262463Y0142988D01*
X0242209Y0134996D02*
X0235210Y0134996D01*
X0239330Y0133397D02*
X0218142Y0133397D01*
X0217077Y0131799D02*
X0238554Y0131799D01*
X0238643Y0130200D02*
X0184154Y0130200D01*
X0182556Y0128602D02*
X0239592Y0128602D01*
X0242439Y0127003D02*
X0180957Y0127003D01*
X0179359Y0125405D02*
X0201318Y0125405D01*
X0200303Y0123806D02*
X0177760Y0123806D01*
X0176162Y0122208D02*
X0200169Y0122208D01*
X0200833Y0120609D02*
X0174563Y0120609D01*
X0172965Y0119011D02*
X0201669Y0119011D01*
X0201669Y0117412D02*
X0171366Y0117412D01*
X0169768Y0115814D02*
X0201669Y0115814D01*
X0201669Y0114215D02*
X0168169Y0114215D01*
X0167506Y0112617D02*
X0201669Y0112617D01*
X0205868Y0114215D02*
X0319779Y0114215D01*
X0319779Y0112617D02*
X0298087Y0112617D01*
X0299685Y0111018D02*
X0319779Y0111018D01*
X0319779Y0109420D02*
X0301284Y0109420D01*
X0302883Y0107821D02*
X0319779Y0107821D01*
X0319779Y0106223D02*
X0304481Y0106223D01*
X0306080Y0104624D02*
X0319779Y0104624D01*
X0318855Y0103026D02*
X0307246Y0103026D01*
X0307246Y0101427D02*
X0317256Y0101427D01*
X0315658Y0099829D02*
X0307246Y0099829D01*
X0307246Y0098230D02*
X0314059Y0098230D01*
X0312461Y0096632D02*
X0307246Y0096632D01*
X0307246Y0095033D02*
X0310862Y0095033D01*
X0309264Y0093435D02*
X0307246Y0093435D01*
X0307665Y0091836D02*
X0306715Y0091836D01*
X0319779Y0115814D02*
X0245555Y0115814D01*
X0240840Y0125405D02*
X0240497Y0125405D01*
X0230331Y0125405D02*
X0229962Y0125405D01*
X0229962Y0126435D02*
X0229962Y0122850D01*
X0226181Y0122850D01*
X0226181Y0124872D01*
X0226304Y0125329D01*
X0226541Y0125740D01*
X0226876Y0126075D01*
X0227286Y0126312D01*
X0227744Y0126435D01*
X0229962Y0126435D01*
X0229962Y0123806D02*
X0230331Y0123806D01*
X0226181Y0123806D02*
X0222298Y0123806D01*
X0222298Y0122208D02*
X0226181Y0122208D01*
X0226347Y0125405D02*
X0221797Y0125405D01*
X0215268Y0125405D02*
X0215104Y0125405D01*
X0208575Y0125405D02*
X0206219Y0125405D01*
X0207234Y0123806D02*
X0208074Y0123806D01*
X0208074Y0122208D02*
X0207368Y0122208D01*
X0206704Y0120609D02*
X0208074Y0120609D01*
X0208704Y0119011D02*
X0205868Y0119011D01*
X0205868Y0117412D02*
X0214025Y0117412D01*
X0215623Y0115814D02*
X0205868Y0115814D01*
X0202679Y0107377D02*
X0261453Y0107377D01*
X0261192Y0106748D01*
X0261192Y0105316D01*
X0261740Y0103993D01*
X0262753Y0102980D01*
X0264076Y0102432D01*
X0265422Y0102432D01*
X0266629Y0101225D01*
X0267859Y0099995D01*
X0270476Y0099995D01*
X0270476Y0097953D01*
X0268351Y0095829D01*
X0212512Y0095829D01*
X0202939Y0105402D01*
X0202939Y0106748D01*
X0202679Y0107377D01*
X0202939Y0106223D02*
X0261192Y0106223D01*
X0261479Y0104624D02*
X0203717Y0104624D01*
X0205316Y0103026D02*
X0262708Y0103026D01*
X0266427Y0101427D02*
X0206914Y0101427D01*
X0208513Y0099829D02*
X0270476Y0099829D01*
X0270476Y0098230D02*
X0210111Y0098230D01*
X0211710Y0096632D02*
X0269154Y0096632D01*
X0266629Y0101225D02*
X0266629Y0101225D01*
X0240611Y0136594D02*
X0240235Y0136594D01*
X0218113Y0150981D02*
X0214258Y0150981D01*
X0214028Y0152579D02*
X0218113Y0152579D01*
X0218113Y0154178D02*
X0212879Y0154178D01*
X0209159Y0155777D02*
X0218671Y0155777D01*
X0223598Y0157375D02*
X0207408Y0157375D01*
X0207909Y0158974D02*
X0233410Y0158974D01*
X0224263Y0163769D02*
X0196562Y0163769D01*
X0194963Y0162171D02*
X0200929Y0162171D01*
X0200809Y0160572D02*
X0193365Y0160572D01*
X0191766Y0158974D02*
X0200809Y0158974D01*
X0201310Y0157375D02*
X0190321Y0157375D01*
X0204284Y0160572D02*
X0204434Y0160572D01*
X0204434Y0160190D02*
X0204434Y0163665D01*
X0205966Y0163665D01*
X0206535Y0163512D01*
X0207045Y0163218D01*
X0207462Y0162801D01*
X0207757Y0162291D01*
X0207909Y0161722D01*
X0207909Y0160190D01*
X0204434Y0160190D01*
X0204434Y0162171D02*
X0204284Y0162171D01*
X0207789Y0162171D02*
X0244907Y0162171D01*
X0245348Y0160572D02*
X0207909Y0160572D01*
X0207058Y0144587D02*
X0198541Y0144587D01*
X0196943Y0142988D02*
X0207354Y0142988D01*
X0208595Y0141390D02*
X0195344Y0141390D01*
X0193745Y0139791D02*
X0211442Y0139791D01*
X0212113Y0138193D02*
X0192147Y0138193D01*
X0190548Y0136594D02*
X0211442Y0136594D01*
X0211442Y0134996D02*
X0188950Y0134996D01*
X0187351Y0133397D02*
X0211442Y0133397D01*
X0212507Y0131799D02*
X0185753Y0131799D01*
X0116039Y0191065D02*
X0115410Y0191325D01*
X0113978Y0191325D01*
X0112654Y0190777D01*
X0112388Y0190511D01*
X0112388Y0191886D01*
X0112380Y0191907D01*
X0114390Y0191907D01*
X0115583Y0193100D01*
X0115583Y0197413D01*
X0114871Y0198126D01*
X0114919Y0198154D01*
X0115336Y0198570D01*
X0115631Y0199081D01*
X0115783Y0199650D01*
X0115783Y0201182D01*
X0112308Y0201182D01*
X0112308Y0201332D01*
X0112158Y0201332D01*
X0112158Y0204807D01*
X0110626Y0204807D01*
X0110057Y0204654D01*
X0109547Y0204360D01*
X0109130Y0203943D01*
X0108836Y0203433D01*
X0108683Y0202864D01*
X0108683Y0201332D01*
X0112158Y0201332D01*
X0112158Y0201182D01*
X0108683Y0201182D01*
X0108683Y0199668D01*
X0103260Y0199668D01*
X0102416Y0200512D01*
X0102416Y0202005D01*
X0109746Y0209336D01*
X0110165Y0208324D01*
X0111178Y0207311D01*
X0112501Y0206763D01*
X0113933Y0206763D01*
X0115257Y0207311D01*
X0116039Y0208093D01*
X0116039Y0207033D01*
X0116039Y0191065D01*
X0116039Y0192542D02*
X0115025Y0192542D01*
X0115583Y0194141D02*
X0116039Y0194141D01*
X0116039Y0195739D02*
X0115583Y0195739D01*
X0115583Y0197338D02*
X0116039Y0197338D01*
X0116039Y0198936D02*
X0115547Y0198936D01*
X0115783Y0200535D02*
X0116039Y0200535D01*
X0115783Y0201332D02*
X0115783Y0202864D01*
X0115631Y0203433D01*
X0115336Y0203943D01*
X0114919Y0204360D01*
X0114409Y0204654D01*
X0113840Y0204807D01*
X0112308Y0204807D01*
X0112308Y0201332D01*
X0115783Y0201332D01*
X0115783Y0202133D02*
X0116039Y0202133D01*
X0116039Y0203732D02*
X0115458Y0203732D01*
X0116039Y0205330D02*
X0105741Y0205330D01*
X0104143Y0203732D02*
X0109008Y0203732D01*
X0108683Y0202133D02*
X0102544Y0202133D01*
X0102416Y0200535D02*
X0108683Y0200535D01*
X0112158Y0200535D02*
X0112308Y0200535D01*
X0112308Y0201182D02*
X0112308Y0198607D01*
X0112195Y0198607D01*
X0112158Y0198644D01*
X0112158Y0201182D01*
X0112308Y0201182D01*
X0112308Y0202133D02*
X0112158Y0202133D01*
X0112158Y0203732D02*
X0112308Y0203732D01*
X0112101Y0206929D02*
X0107340Y0206929D01*
X0108938Y0208527D02*
X0110081Y0208527D01*
X0114334Y0206929D02*
X0116039Y0206929D01*
X0112308Y0198936D02*
X0112158Y0198936D01*
X0112388Y0190944D02*
X0113057Y0190944D01*
X0071221Y0163769D02*
X0070421Y0163769D01*
X0070421Y0162171D02*
X0071221Y0162171D01*
X0055507Y0152579D02*
X0049053Y0152579D01*
X0047455Y0150981D02*
X0056441Y0150981D01*
X0055015Y0134996D02*
X0009565Y0134996D01*
X0009565Y0136594D02*
X0017677Y0136594D01*
X0016079Y0138193D02*
X0009565Y0138193D01*
X0009565Y0139791D02*
X0015645Y0139791D01*
X0015645Y0141390D02*
X0009565Y0141390D01*
X0009565Y0142988D02*
X0015645Y0142988D01*
X0015645Y0144587D02*
X0009565Y0144587D01*
X0009565Y0146185D02*
X0015645Y0146185D01*
X0015645Y0147784D02*
X0009565Y0147784D01*
X0009565Y0149382D02*
X0015645Y0149382D01*
X0015645Y0150981D02*
X0009565Y0150981D01*
X0009565Y0152579D02*
X0015645Y0152579D01*
X0015645Y0154178D02*
X0009565Y0154178D01*
X0009565Y0155777D02*
X0015645Y0155777D01*
X0015645Y0157375D02*
X0009565Y0157375D01*
X0009565Y0158974D02*
X0015645Y0158974D01*
X0015645Y0160572D02*
X0009565Y0160572D01*
X0028493Y0144587D02*
X0029696Y0144587D01*
X0009565Y0133397D02*
X0055015Y0133397D01*
X0055015Y0131799D02*
X0009565Y0131799D01*
X0009565Y0130200D02*
X0027119Y0130200D01*
X0029040Y0130200D02*
X0051993Y0130200D01*
X0051539Y0123806D02*
X0046607Y0123806D01*
X0045993Y0122208D02*
X0057655Y0122208D01*
X0051539Y0120609D02*
X0046807Y0120609D01*
X0046807Y0119011D02*
X0051539Y0119011D01*
X0051539Y0117412D02*
X0046770Y0117412D01*
X0040982Y0115814D02*
X0030180Y0115814D01*
X0030180Y0117412D02*
X0039743Y0117412D01*
X0039707Y0119011D02*
X0030180Y0119011D01*
X0030180Y0120609D02*
X0039707Y0120609D01*
X0040521Y0122208D02*
X0030180Y0122208D01*
X0030275Y0123806D02*
X0039907Y0123806D01*
X0039907Y0125405D02*
X0031439Y0125405D01*
X0031680Y0127003D02*
X0039907Y0127003D01*
X0043742Y0128602D02*
X0031189Y0128602D01*
X0024970Y0128602D02*
X0009565Y0128602D01*
X0009565Y0127003D02*
X0024480Y0127003D01*
X0017628Y0125405D02*
X0009565Y0125405D01*
X0009565Y0123806D02*
X0016030Y0123806D01*
X0015256Y0122208D02*
X0009565Y0122208D01*
X0009565Y0120609D02*
X0014854Y0120609D01*
X0014854Y0119011D02*
X0009565Y0119011D01*
X0009565Y0117412D02*
X0015372Y0117412D01*
X0016309Y0115814D02*
X0009565Y0115814D01*
X0009565Y0114215D02*
X0018256Y0114215D01*
X0030180Y0109420D02*
X0031708Y0109420D01*
X0032869Y0107821D02*
X0030180Y0107821D01*
X0030180Y0106223D02*
X0032869Y0106223D01*
X0032869Y0104624D02*
X0030180Y0104624D01*
X0030180Y0103026D02*
X0032869Y0103026D01*
X0032869Y0101427D02*
X0030180Y0101427D01*
X0030180Y0099829D02*
X0032869Y0099829D01*
X0032869Y0098230D02*
X0030180Y0098230D01*
X0030180Y0096632D02*
X0032869Y0096632D01*
X0032658Y0095033D02*
X0030180Y0095033D01*
X0030180Y0093435D02*
X0031562Y0093435D01*
X0031369Y0091836D02*
X0030180Y0091836D01*
X0030180Y0090238D02*
X0031907Y0090238D01*
X0030180Y0088639D02*
X0051931Y0088639D01*
X0051546Y0090238D02*
X0038031Y0090238D01*
X0038569Y0091836D02*
X0051893Y0091836D01*
X0053345Y0093435D02*
X0038376Y0093435D01*
X0037280Y0095033D02*
X0056925Y0095033D01*
X0058524Y0096632D02*
X0037069Y0096632D01*
X0037069Y0098230D02*
X0060122Y0098230D01*
X0061721Y0099829D02*
X0037069Y0099829D01*
X0037069Y0101427D02*
X0063319Y0101427D01*
X0064918Y0103026D02*
X0037069Y0103026D01*
X0025980Y0099829D02*
X0025322Y0099829D01*
X0030180Y0087041D02*
X0053570Y0087041D01*
X0056723Y0087041D02*
X0058491Y0087041D01*
X0060948Y0085442D02*
X0030180Y0085442D01*
X0030180Y0083844D02*
X0060948Y0083844D01*
X0059393Y0082245D02*
X0030180Y0082245D01*
X0030180Y0080646D02*
X0057795Y0080646D01*
X0056196Y0079048D02*
X0030180Y0079048D01*
X0030180Y0077449D02*
X0054598Y0077449D01*
X0052999Y0075851D02*
X0030180Y0075851D01*
X0030180Y0074252D02*
X0051401Y0074252D01*
X0049802Y0072654D02*
X0030180Y0072654D01*
X0030180Y0071055D02*
X0048204Y0071055D01*
X0046605Y0069457D02*
X0030180Y0069457D01*
X0030180Y0067858D02*
X0042856Y0067858D01*
X0042348Y0066260D02*
X0030180Y0066260D01*
X0030180Y0064661D02*
X0042348Y0064661D01*
X0042348Y0063063D02*
X0030180Y0063063D01*
X0030180Y0061464D02*
X0042355Y0061464D01*
X0042148Y0059866D02*
X0030180Y0059866D01*
X0030180Y0058267D02*
X0042148Y0058267D01*
X0042148Y0057587D02*
X0042300Y0057018D01*
X0042595Y0056507D01*
X0043011Y0056091D01*
X0043521Y0055796D01*
X0044091Y0055644D01*
X0045623Y0055644D01*
X0045623Y0059119D01*
X0042148Y0059119D01*
X0042148Y0057587D01*
X0042501Y0056669D02*
X0030180Y0056669D01*
X0030180Y0055070D02*
X0056535Y0055070D01*
X0056535Y0053472D02*
X0030180Y0053472D01*
X0030180Y0051873D02*
X0056535Y0051873D01*
X0058460Y0050275D02*
X0030180Y0050275D01*
X0030180Y0048676D02*
X0058460Y0048676D01*
X0058460Y0047078D02*
X0030180Y0047078D01*
X0030180Y0045479D02*
X0058460Y0045479D01*
X0058460Y0043881D02*
X0030180Y0043881D01*
X0030180Y0042282D02*
X0058460Y0042282D01*
X0058460Y0040684D02*
X0030180Y0040684D01*
X0030180Y0039085D02*
X0031489Y0039085D01*
X0030901Y0037487D02*
X0030180Y0037487D01*
X0030180Y0035888D02*
X0030901Y0035888D01*
X0030901Y0034290D02*
X0030180Y0034290D01*
X0030180Y0032691D02*
X0030901Y0032691D01*
X0030901Y0031093D02*
X0030180Y0031093D01*
X0030180Y0029494D02*
X0030901Y0029494D01*
X0030901Y0027896D02*
X0030180Y0027896D01*
X0030180Y0026297D02*
X0030901Y0026297D01*
X0030901Y0024699D02*
X0030180Y0024699D01*
X0030180Y0023100D02*
X0030901Y0023100D01*
X0030901Y0021502D02*
X0030180Y0021502D01*
X0030180Y0019903D02*
X0030901Y0019903D01*
X0030901Y0018305D02*
X0030180Y0018305D01*
X0030180Y0016706D02*
X0031759Y0016706D01*
X0030180Y0015108D02*
X0033357Y0015108D01*
X0040855Y0021826D02*
X0040904Y0021855D01*
X0041320Y0022271D01*
X0041615Y0022781D01*
X0041767Y0023350D01*
X0041767Y0024882D01*
X0038292Y0024882D01*
X0038292Y0025032D01*
X0041767Y0025032D01*
X0041767Y0026176D01*
X0042778Y0026176D01*
X0042778Y0025032D01*
X0046252Y0025032D01*
X0046252Y0024882D01*
X0042778Y0024882D01*
X0042778Y0023350D01*
X0042930Y0022781D01*
X0043225Y0022271D01*
X0043641Y0021855D01*
X0043690Y0021826D01*
X0042978Y0021114D01*
X0042978Y0021026D01*
X0041567Y0021026D01*
X0041567Y0021114D01*
X0040855Y0021826D01*
X0041180Y0021502D02*
X0043365Y0021502D01*
X0042845Y0023100D02*
X0041700Y0023100D01*
X0041767Y0024699D02*
X0042778Y0024699D01*
X0046253Y0025033D02*
X0046253Y0026176D01*
X0046403Y0026176D01*
X0046403Y0025033D01*
X0046253Y0025033D01*
X0046403Y0025032D02*
X0049878Y0025032D01*
X0049878Y0026176D01*
X0051085Y0026176D01*
X0051085Y0025032D01*
X0054560Y0025032D01*
X0054560Y0024882D01*
X0051085Y0024882D01*
X0051085Y0023350D01*
X0051237Y0022781D01*
X0051532Y0022271D01*
X0051948Y0021855D01*
X0051997Y0021826D01*
X0051285Y0021114D01*
X0051285Y0021026D01*
X0049678Y0021026D01*
X0049678Y0021114D01*
X0048965Y0021826D01*
X0049014Y0021855D01*
X0049430Y0022271D01*
X0049725Y0022781D01*
X0049878Y0023350D01*
X0049878Y0024882D01*
X0046403Y0024882D01*
X0046403Y0025032D01*
X0049878Y0024699D02*
X0051085Y0024699D01*
X0051152Y0023100D02*
X0049810Y0023100D01*
X0049290Y0021502D02*
X0051672Y0021502D01*
X0054710Y0024882D02*
X0054710Y0025032D01*
X0058185Y0025032D01*
X0058185Y0026176D01*
X0059195Y0026176D01*
X0059195Y0025032D01*
X0062670Y0025032D01*
X0062670Y0024882D01*
X0059195Y0024882D01*
X0059195Y0023350D01*
X0059347Y0022781D01*
X0059642Y0022271D01*
X0060059Y0021855D01*
X0060107Y0021826D01*
X0059395Y0021114D01*
X0059395Y0021026D01*
X0057985Y0021026D01*
X0057985Y0021114D01*
X0057272Y0021826D01*
X0057321Y0021855D01*
X0057738Y0022271D01*
X0058032Y0022781D01*
X0058185Y0023350D01*
X0058185Y0024882D01*
X0054710Y0024882D01*
X0058185Y0024699D02*
X0059195Y0024699D01*
X0059262Y0023100D02*
X0058118Y0023100D01*
X0057597Y0021502D02*
X0059783Y0021502D01*
X0062820Y0024882D02*
X0062820Y0025032D01*
X0066295Y0025032D01*
X0066295Y0026176D01*
X0067305Y0026176D01*
X0067305Y0025229D01*
X0070780Y0025229D01*
X0070780Y0025079D01*
X0067305Y0025079D01*
X0067305Y0023547D01*
X0067458Y0022978D01*
X0067752Y0022468D01*
X0068169Y0022051D01*
X0068218Y0022023D01*
X0067505Y0021311D01*
X0067505Y0018999D01*
X0066095Y0017588D01*
X0066095Y0021114D01*
X0065382Y0021826D01*
X0065431Y0021855D01*
X0065848Y0022271D01*
X0066142Y0022781D01*
X0066295Y0023350D01*
X0066295Y0024882D01*
X0062820Y0024882D01*
X0066295Y0024699D02*
X0067305Y0024699D01*
X0067425Y0023100D02*
X0066228Y0023100D01*
X0065707Y0021502D02*
X0067696Y0021502D01*
X0067505Y0019903D02*
X0066095Y0019903D01*
X0066095Y0018305D02*
X0066811Y0018305D01*
X0069554Y0015108D02*
X0116589Y0015108D01*
X0116759Y0014698D02*
X0116828Y0014628D01*
X0069075Y0014628D01*
X0070251Y0015804D01*
X0073012Y0015804D01*
X0074033Y0016826D01*
X0076009Y0016826D01*
X0076009Y0016801D01*
X0077203Y0015607D01*
X0081516Y0015607D01*
X0082709Y0016801D01*
X0082709Y0016826D01*
X0085104Y0016826D01*
X0085104Y0016604D01*
X0086297Y0015411D01*
X0090610Y0015411D01*
X0091804Y0016604D01*
X0091804Y0016826D01*
X0094592Y0016826D01*
X0094592Y0016604D01*
X0095785Y0015411D01*
X0100098Y0015411D01*
X0101292Y0016604D01*
X0101292Y0020917D01*
X0100579Y0021630D01*
X0100628Y0021658D01*
X0101045Y0022074D01*
X0101339Y0022584D01*
X0101492Y0023154D01*
X0101492Y0024686D01*
X0098017Y0024686D01*
X0098017Y0024836D01*
X0097867Y0024836D01*
X0097867Y0028311D01*
X0096335Y0028311D01*
X0095766Y0028158D01*
X0095255Y0027864D01*
X0094839Y0027447D01*
X0094544Y0026937D01*
X0094392Y0026368D01*
X0094392Y0024836D01*
X0097867Y0024836D01*
X0097867Y0024686D01*
X0094392Y0024686D01*
X0094392Y0023154D01*
X0094544Y0022584D01*
X0094839Y0022074D01*
X0095255Y0021658D01*
X0095304Y0021630D01*
X0094701Y0021026D01*
X0091695Y0021026D01*
X0091091Y0021630D01*
X0091140Y0021658D01*
X0091556Y0022074D01*
X0091851Y0022584D01*
X0092004Y0023154D01*
X0092004Y0024686D01*
X0088529Y0024686D01*
X0088529Y0024836D01*
X0092004Y0024836D01*
X0092004Y0026368D01*
X0091851Y0026937D01*
X0091556Y0027447D01*
X0091140Y0027864D01*
X0090630Y0028158D01*
X0090061Y0028311D01*
X0088529Y0028311D01*
X0088529Y0024836D01*
X0088379Y0024836D01*
X0088379Y0028311D01*
X0086846Y0028311D01*
X0086277Y0028158D01*
X0085767Y0027864D01*
X0085351Y0027447D01*
X0085056Y0026937D01*
X0084904Y0026368D01*
X0084904Y0024836D01*
X0088378Y0024836D01*
X0088378Y0024686D01*
X0084904Y0024686D01*
X0084904Y0023154D01*
X0085056Y0022584D01*
X0085351Y0022074D01*
X0085767Y0021658D01*
X0085816Y0021630D01*
X0085212Y0021026D01*
X0082709Y0021026D01*
X0082709Y0021114D01*
X0081997Y0021826D01*
X0082045Y0021855D01*
X0082462Y0022271D01*
X0082757Y0022781D01*
X0082909Y0023350D01*
X0082909Y0024882D01*
X0079434Y0024882D01*
X0079434Y0025032D01*
X0082909Y0025032D01*
X0082909Y0026565D01*
X0082757Y0027134D01*
X0082462Y0027644D01*
X0082045Y0028060D01*
X0081535Y0028355D01*
X0080966Y0028507D01*
X0079509Y0028507D01*
X0082099Y0031098D01*
X0093418Y0031098D01*
X0094894Y0032574D01*
X0128579Y0032574D01*
X0128318Y0031945D01*
X0128318Y0030513D01*
X0128866Y0029190D01*
X0129879Y0028177D01*
X0130539Y0027904D01*
X0129743Y0027904D01*
X0128053Y0027204D01*
X0126759Y0025910D01*
X0126058Y0024219D01*
X0126058Y0016389D01*
X0126759Y0014698D01*
X0126828Y0014628D01*
X0124488Y0014628D01*
X0124558Y0014698D01*
X0125258Y0016389D01*
X0125258Y0024219D01*
X0124558Y0025910D01*
X0123264Y0027204D01*
X0121573Y0027904D01*
X0119743Y0027904D01*
X0118053Y0027204D01*
X0116759Y0025910D01*
X0116058Y0024219D01*
X0116058Y0016389D01*
X0116759Y0014698D01*
X0116058Y0016706D02*
X0101292Y0016706D01*
X0101292Y0018305D02*
X0116058Y0018305D01*
X0116058Y0019903D02*
X0101292Y0019903D01*
X0100707Y0021502D02*
X0116058Y0021502D01*
X0116058Y0023100D02*
X0101477Y0023100D01*
X0101492Y0024836D02*
X0101492Y0026368D01*
X0101339Y0026937D01*
X0101045Y0027447D01*
X0100628Y0027864D01*
X0100118Y0028158D01*
X0099549Y0028311D01*
X0098017Y0028311D01*
X0098017Y0024836D01*
X0101492Y0024836D01*
X0101492Y0026297D02*
X0117146Y0026297D01*
X0116257Y0024699D02*
X0098017Y0024699D01*
X0097867Y0024699D02*
X0088529Y0024699D01*
X0088378Y0024699D02*
X0082909Y0024699D01*
X0082909Y0026297D02*
X0084904Y0026297D01*
X0085823Y0027896D02*
X0082210Y0027896D01*
X0080495Y0029494D02*
X0128740Y0029494D01*
X0128318Y0031093D02*
X0082094Y0031093D01*
X0088379Y0027896D02*
X0088529Y0027896D01*
X0088529Y0026297D02*
X0088379Y0026297D01*
X0091084Y0027896D02*
X0095311Y0027896D01*
X0094392Y0026297D02*
X0092004Y0026297D01*
X0091989Y0023100D02*
X0094406Y0023100D01*
X0095176Y0021502D02*
X0091219Y0021502D01*
X0091804Y0016706D02*
X0094592Y0016706D01*
X0085104Y0016706D02*
X0082614Y0016706D01*
X0076104Y0016706D02*
X0073913Y0016706D01*
X0074205Y0021026D02*
X0074205Y0021311D01*
X0073493Y0022023D01*
X0073541Y0022051D01*
X0073958Y0022468D01*
X0074253Y0022978D01*
X0074405Y0023547D01*
X0074405Y0025079D01*
X0070930Y0025079D01*
X0070930Y0025229D01*
X0074405Y0025229D01*
X0074405Y0026176D01*
X0075809Y0026176D01*
X0075809Y0025032D01*
X0079284Y0025032D01*
X0079284Y0024882D01*
X0075809Y0024882D01*
X0075809Y0023350D01*
X0075962Y0022781D01*
X0076256Y0022271D01*
X0076673Y0021855D01*
X0076721Y0021826D01*
X0076009Y0021114D01*
X0076009Y0021026D01*
X0074205Y0021026D01*
X0074014Y0021502D02*
X0076397Y0021502D01*
X0075876Y0023100D02*
X0074285Y0023100D01*
X0074405Y0024699D02*
X0075809Y0024699D01*
X0070930Y0025229D02*
X0070930Y0026176D01*
X0070780Y0026176D01*
X0070780Y0025229D01*
X0070930Y0025229D01*
X0082321Y0021502D02*
X0085688Y0021502D01*
X0084918Y0023100D02*
X0082842Y0023100D01*
X0097867Y0026297D02*
X0098017Y0026297D01*
X0098017Y0027896D02*
X0097867Y0027896D01*
X0100573Y0027896D02*
X0119723Y0027896D01*
X0121593Y0027896D02*
X0129723Y0027896D01*
X0127146Y0026297D02*
X0124170Y0026297D01*
X0125060Y0024699D02*
X0126257Y0024699D01*
X0126058Y0023100D02*
X0125258Y0023100D01*
X0125258Y0021502D02*
X0126058Y0021502D01*
X0126058Y0019903D02*
X0125258Y0019903D01*
X0125258Y0018305D02*
X0126058Y0018305D01*
X0126058Y0016706D02*
X0125258Y0016706D01*
X0124727Y0015108D02*
X0126589Y0015108D01*
X0134727Y0015108D02*
X0136390Y0015108D01*
X0135893Y0016706D02*
X0135258Y0016706D01*
X0135258Y0018305D02*
X0135858Y0018305D01*
X0135858Y0019903D02*
X0135258Y0019903D01*
X0135258Y0021502D02*
X0135858Y0021502D01*
X0135858Y0023100D02*
X0135258Y0023100D01*
X0135060Y0024699D02*
X0136064Y0024699D01*
X0136900Y0026297D02*
X0134170Y0026297D01*
X0133278Y0027896D02*
X0136461Y0027896D01*
X0136192Y0029494D02*
X0135096Y0029494D01*
X0135736Y0031093D02*
X0136654Y0031093D01*
X0137334Y0032691D02*
X0138667Y0032691D01*
X0138933Y0034290D02*
X0162767Y0034290D01*
X0162973Y0035888D02*
X0140531Y0035888D01*
X0142130Y0037487D02*
X0164088Y0037487D01*
X0168645Y0037487D02*
X0227259Y0037487D01*
X0227259Y0039085D02*
X0143728Y0039085D01*
X0145327Y0040684D02*
X0227259Y0040684D01*
X0227259Y0042282D02*
X0146925Y0042282D01*
X0148524Y0043881D02*
X0227259Y0043881D01*
X0227259Y0045479D02*
X0150122Y0045479D01*
X0151721Y0047078D02*
X0227259Y0047078D01*
X0227259Y0048676D02*
X0153319Y0048676D01*
X0154918Y0050275D02*
X0227259Y0050275D01*
X0227259Y0051873D02*
X0156516Y0051873D01*
X0158115Y0053472D02*
X0227259Y0053472D01*
X0227259Y0055070D02*
X0159713Y0055070D01*
X0161312Y0056669D02*
X0227259Y0056669D01*
X0227259Y0058267D02*
X0165032Y0058267D01*
X0166246Y0059866D02*
X0227259Y0059866D01*
X0227259Y0061464D02*
X0166522Y0061464D01*
X0166067Y0063063D02*
X0227259Y0063063D01*
X0227259Y0064661D02*
X0164091Y0064661D01*
X0161753Y0064661D02*
X0071518Y0064661D01*
X0071518Y0063063D02*
X0155061Y0063063D01*
X0153329Y0061464D02*
X0082844Y0061464D01*
X0082812Y0061585D02*
X0082575Y0061995D01*
X0082240Y0062330D01*
X0081829Y0062567D01*
X0081372Y0062690D01*
X0079135Y0062690D01*
X0079135Y0056890D01*
X0082935Y0056890D01*
X0082935Y0061127D01*
X0082812Y0061585D01*
X0082935Y0059866D02*
X0152924Y0059866D01*
X0152049Y0058267D02*
X0082935Y0058267D01*
X0082935Y0056090D02*
X0079135Y0056090D01*
X0079135Y0056890D01*
X0078335Y0056890D01*
X0078335Y0062690D01*
X0076098Y0062690D01*
X0075640Y0062567D01*
X0075229Y0062330D01*
X0074894Y0061995D01*
X0074657Y0061585D01*
X0074535Y0061127D01*
X0074535Y0056890D01*
X0078335Y0056890D01*
X0078335Y0056090D01*
X0079135Y0056090D01*
X0079135Y0050290D01*
X0081372Y0050290D01*
X0081829Y0050412D01*
X0082240Y0050649D01*
X0082575Y0050985D01*
X0082812Y0051395D01*
X0082935Y0051853D01*
X0082935Y0056090D01*
X0082935Y0055070D02*
X0148852Y0055070D01*
X0147254Y0053472D02*
X0082935Y0053472D01*
X0082935Y0051873D02*
X0103825Y0051873D01*
X0102226Y0050275D02*
X0062660Y0050275D01*
X0062660Y0048676D02*
X0100628Y0048676D01*
X0099029Y0047078D02*
X0062660Y0047078D01*
X0062660Y0045479D02*
X0097431Y0045479D01*
X0095832Y0043881D02*
X0062660Y0043881D01*
X0062660Y0042282D02*
X0094234Y0042282D01*
X0092635Y0040684D02*
X0090000Y0040684D01*
X0076887Y0040684D02*
X0072812Y0040684D01*
X0071056Y0040684D02*
X0070906Y0040684D01*
X0070906Y0039085D02*
X0071056Y0039085D01*
X0071056Y0037487D02*
X0070906Y0037487D01*
X0069150Y0040684D02*
X0062660Y0040684D01*
X0074455Y0039085D02*
X0075289Y0039085D01*
X0076098Y0050290D02*
X0078335Y0050290D01*
X0078335Y0056090D01*
X0074535Y0056090D01*
X0074535Y0051853D01*
X0074657Y0051395D01*
X0074894Y0050985D01*
X0075229Y0050649D01*
X0075640Y0050412D01*
X0076098Y0050290D01*
X0074535Y0051873D02*
X0073635Y0051873D01*
X0073635Y0053472D02*
X0074535Y0053472D01*
X0074535Y0055070D02*
X0073635Y0055070D01*
X0073635Y0056669D02*
X0078335Y0056669D01*
X0079135Y0056669D02*
X0150451Y0056669D01*
X0145655Y0051873D02*
X0116212Y0051873D01*
X0117811Y0050275D02*
X0120989Y0050275D01*
X0124108Y0050275D02*
X0144057Y0050275D01*
X0142458Y0048676D02*
X0126319Y0048676D01*
X0127056Y0047078D02*
X0140860Y0047078D01*
X0139261Y0045479D02*
X0127148Y0045479D01*
X0127148Y0043881D02*
X0137663Y0043881D01*
X0136064Y0042282D02*
X0127148Y0042282D01*
X0127148Y0040684D02*
X0134466Y0040684D01*
X0132867Y0039085D02*
X0127148Y0039085D01*
X0126510Y0037487D02*
X0131269Y0037487D01*
X0140917Y0032691D02*
X0161414Y0032691D01*
X0164157Y0029494D02*
X0227259Y0029494D01*
X0227259Y0027896D02*
X0162558Y0027896D01*
X0167128Y0031093D02*
X0227259Y0031093D01*
X0227259Y0032691D02*
X0169442Y0032691D01*
X0169967Y0034290D02*
X0227259Y0034290D01*
X0227259Y0035888D02*
X0169761Y0035888D01*
X0154170Y0026297D02*
X0204115Y0026297D01*
X0206099Y0026297D02*
X0213633Y0026297D01*
X0213983Y0026411D02*
X0213265Y0026177D01*
X0212591Y0025834D01*
X0211980Y0025390D01*
X0211446Y0024856D01*
X0211002Y0024245D01*
X0210659Y0023572D01*
X0210425Y0022853D01*
X0210307Y0022107D01*
X0210307Y0018929D01*
X0214907Y0018929D01*
X0214907Y0026529D01*
X0214729Y0026529D01*
X0213983Y0026411D01*
X0214907Y0026297D02*
X0215307Y0026297D01*
X0216581Y0026297D02*
X0224115Y0026297D01*
X0226099Y0026297D02*
X0227259Y0026297D01*
X0221571Y0024699D02*
X0218883Y0024699D01*
X0219709Y0023100D02*
X0220696Y0023100D01*
X0220507Y0021502D02*
X0219907Y0021502D01*
X0219907Y0019903D02*
X0220507Y0019903D01*
X0220507Y0018305D02*
X0219907Y0018305D01*
X0219907Y0016706D02*
X0220507Y0016706D01*
X0220507Y0015108D02*
X0219868Y0015108D01*
X0219363Y0013509D02*
X0221048Y0013509D01*
X0215307Y0019903D02*
X0214907Y0019903D01*
X0214907Y0021502D02*
X0215307Y0021502D01*
X0215307Y0023100D02*
X0214907Y0023100D01*
X0214907Y0024699D02*
X0215307Y0024699D01*
X0211331Y0024699D02*
X0208643Y0024699D01*
X0209518Y0023100D02*
X0210506Y0023100D01*
X0210307Y0021502D02*
X0209707Y0021502D01*
X0209707Y0019903D02*
X0210307Y0019903D01*
X0210307Y0018305D02*
X0209707Y0018305D01*
X0209707Y0016706D02*
X0210307Y0016706D01*
X0210346Y0015108D02*
X0209707Y0015108D01*
X0209166Y0013509D02*
X0210851Y0013509D01*
X0200507Y0021502D02*
X0155258Y0021502D01*
X0155258Y0023100D02*
X0200696Y0023100D01*
X0201571Y0024699D02*
X0155060Y0024699D01*
X0148010Y0027161D02*
X0146759Y0025910D01*
X0146058Y0024219D01*
X0146058Y0018319D01*
X0145458Y0017719D01*
X0145458Y0020104D01*
X0140858Y0020104D01*
X0140858Y0020504D01*
X0145458Y0020504D01*
X0145458Y0023682D01*
X0145340Y0024428D01*
X0145107Y0025146D01*
X0144764Y0025820D01*
X0144319Y0026431D01*
X0143785Y0026965D01*
X0143516Y0027161D01*
X0148010Y0027161D01*
X0147146Y0026297D02*
X0144417Y0026297D01*
X0145252Y0024699D02*
X0146257Y0024699D01*
X0146058Y0023100D02*
X0145458Y0023100D01*
X0145458Y0021502D02*
X0146058Y0021502D01*
X0146058Y0019903D02*
X0145458Y0019903D01*
X0145458Y0018305D02*
X0146043Y0018305D01*
X0157988Y0063063D02*
X0159777Y0063063D01*
X0102654Y0067858D02*
X0071518Y0067858D01*
X0071518Y0066260D02*
X0223623Y0066260D01*
X0226237Y0066260D02*
X0227259Y0066260D01*
X0101055Y0069457D02*
X0071518Y0069457D01*
X0071518Y0071055D02*
X0099457Y0071055D01*
X0097858Y0072654D02*
X0071518Y0072654D01*
X0071518Y0074252D02*
X0096260Y0074252D01*
X0094661Y0075851D02*
X0078275Y0075851D01*
X0078321Y0077449D02*
X0093063Y0077449D01*
X0091464Y0079048D02*
X0081043Y0079048D01*
X0078463Y0079048D02*
X0078321Y0079048D01*
X0067318Y0074252D02*
X0057340Y0074252D01*
X0055742Y0072654D02*
X0067318Y0072654D01*
X0067318Y0071055D02*
X0054143Y0071055D01*
X0052545Y0069457D02*
X0067318Y0069457D01*
X0067318Y0067858D02*
X0050946Y0067858D01*
X0049348Y0066260D02*
X0067318Y0066260D01*
X0067318Y0064661D02*
X0049048Y0064661D01*
X0049048Y0063063D02*
X0067318Y0063063D01*
X0065635Y0061464D02*
X0064535Y0061464D01*
X0064535Y0059866D02*
X0065635Y0059866D01*
X0065635Y0058267D02*
X0064535Y0058267D01*
X0064535Y0056669D02*
X0065635Y0056669D01*
X0065635Y0055070D02*
X0064535Y0055070D01*
X0064535Y0053472D02*
X0065635Y0053472D01*
X0065635Y0051873D02*
X0064535Y0051873D01*
X0056535Y0056669D02*
X0048894Y0056669D01*
X0048801Y0056507D02*
X0049095Y0057018D01*
X0049248Y0057587D01*
X0049248Y0059119D01*
X0045773Y0059119D01*
X0045773Y0055644D01*
X0047305Y0055644D01*
X0047874Y0055796D01*
X0048384Y0056091D01*
X0048801Y0056507D01*
X0049248Y0058267D02*
X0056535Y0058267D01*
X0056535Y0059866D02*
X0049248Y0059866D01*
X0049041Y0061464D02*
X0056535Y0061464D01*
X0045773Y0058267D02*
X0045623Y0058267D01*
X0045623Y0056669D02*
X0045773Y0056669D01*
X0073635Y0058267D02*
X0074535Y0058267D01*
X0074535Y0059866D02*
X0073635Y0059866D01*
X0073635Y0061464D02*
X0074625Y0061464D01*
X0078335Y0061464D02*
X0079135Y0061464D01*
X0079135Y0059866D02*
X0078335Y0059866D01*
X0078335Y0058267D02*
X0079135Y0058267D01*
X0079135Y0055070D02*
X0078335Y0055070D01*
X0078335Y0053472D02*
X0079135Y0053472D01*
X0079135Y0051873D02*
X0078335Y0051873D01*
X0060994Y0075851D02*
X0058939Y0075851D01*
X0060537Y0077449D02*
X0060948Y0077449D01*
X0061644Y0087041D02*
X0065842Y0087041D01*
X0064727Y0088639D02*
X0063283Y0088639D01*
X0063668Y0090238D02*
X0064342Y0090238D01*
X0052974Y0112617D02*
X0038177Y0112617D01*
X0267142Y0208702D02*
X0267142Y0209071D01*
X0270923Y0209071D01*
X0270923Y0210231D01*
X0281253Y0210231D01*
X0280340Y0209319D01*
X0280340Y0207542D01*
X0270923Y0207542D01*
X0270923Y0208702D01*
X0267142Y0208702D01*
X0270923Y0208527D02*
X0280340Y0208527D01*
X0281147Y0210126D02*
X0270923Y0210126D01*
X0291732Y0189345D02*
X0308923Y0189345D01*
X0310521Y0187747D02*
X0293331Y0187747D01*
X0294929Y0186148D02*
X0319779Y0186148D01*
X0319779Y0184550D02*
X0296528Y0184550D01*
X0298127Y0182951D02*
X0319779Y0182951D01*
X0319779Y0181353D02*
X0299725Y0181353D01*
X0301324Y0179754D02*
X0319779Y0179754D01*
X0319779Y0178156D02*
X0302922Y0178156D01*
X0304521Y0176557D02*
X0319779Y0176557D01*
X0319779Y0174959D02*
X0306119Y0174959D01*
X0307718Y0173360D02*
X0319779Y0173360D01*
X0319779Y0171762D02*
X0311437Y0171762D01*
X0312191Y0170163D02*
X0319779Y0170163D01*
X0319779Y0168565D02*
X0312094Y0168565D01*
D21*
X0308591Y0169517D02*
X0288906Y0189202D01*
X0224438Y0189202D01*
X0224438Y0189694D01*
X0206229Y0207902D01*
X0118139Y0207902D01*
X0118139Y0168532D01*
X0119615Y0165087D02*
X0116662Y0165087D01*
X0095009Y0186741D01*
X0082213Y0186741D01*
X0079753Y0189202D01*
X0066957Y0189202D01*
X0062036Y0194123D01*
X0062036Y0194469D01*
X0062036Y0200469D02*
X0061544Y0200520D01*
X0046780Y0200520D01*
X0041564Y0195304D01*
X0048257Y0195304D02*
X0048257Y0195107D01*
X0030540Y0177391D01*
X0030540Y0165580D01*
X0054654Y0165580D01*
X0057607Y0162627D01*
X0057607Y0152784D01*
X0121583Y0152784D01*
X0136839Y0168040D01*
X0151603Y0168040D01*
X0158001Y0174438D01*
X0196387Y0174438D01*
X0200324Y0178375D01*
X0204753Y0178867D02*
X0213611Y0178867D01*
X0217548Y0182804D01*
X0217548Y0189202D01*
X0224438Y0189202D01*
X0221288Y0182902D02*
X0221485Y0182804D01*
X0224930Y0179359D01*
X0228375Y0179359D01*
X0228375Y0176406D01*
X0256426Y0176406D01*
X0258394Y0178375D01*
X0262036Y0182902D02*
X0261839Y0183296D01*
X0252981Y0183296D01*
X0252981Y0183788D01*
X0252981Y0183296D02*
X0249536Y0183296D01*
X0247076Y0185757D01*
X0246879Y0185902D01*
X0244123Y0182804D02*
X0242646Y0182804D01*
X0228375Y0182804D01*
X0227981Y0182902D01*
X0228375Y0176406D02*
X0228375Y0169024D01*
X0228769Y0168729D01*
X0225914Y0165087D02*
X0222469Y0168532D01*
X0222076Y0168729D01*
X0225914Y0165087D02*
X0235265Y0165087D01*
X0235265Y0172961D01*
X0235265Y0165087D02*
X0246583Y0165087D01*
X0248060Y0163611D01*
X0248257Y0163170D01*
X0251751Y0165826D02*
X0268729Y0182804D01*
X0268729Y0182902D01*
X0264300Y0170009D02*
X0269221Y0165087D01*
X0269713Y0164989D01*
X0269713Y0164595D01*
X0267745Y0164595D01*
X0267745Y0139497D01*
X0267351Y0139398D01*
X0261347Y0139005D02*
X0260855Y0139005D01*
X0260658Y0139398D01*
X0260363Y0139497D01*
X0260363Y0153276D01*
X0255934Y0157706D01*
X0255442Y0152784D02*
X0239202Y0152784D01*
X0228867Y0152784D01*
X0228572Y0152587D01*
X0225422Y0156229D02*
X0235757Y0156229D01*
X0237233Y0159674D02*
X0239202Y0157706D01*
X0239202Y0152784D01*
X0241662Y0149339D02*
X0255442Y0149339D01*
X0255442Y0128670D01*
X0244123Y0117351D01*
X0217056Y0117351D01*
X0212135Y0122272D01*
X0211839Y0122272D01*
X0209182Y0125717D02*
X0208198Y0124733D01*
X0207706Y0124733D01*
X0203276Y0129162D01*
X0199831Y0129162D01*
X0203769Y0122765D02*
X0203769Y0111446D01*
X0296288Y0111446D01*
X0305146Y0102587D01*
X0305146Y0093237D01*
X0279064Y0093237D01*
X0274635Y0088808D01*
X0274241Y0088611D01*
X0274635Y0088316D01*
X0274635Y0083394D01*
X0275127Y0083394D01*
X0270206Y0082902D02*
X0267745Y0082902D01*
X0267745Y0092253D01*
X0268975Y0093483D01*
X0268729Y0093729D01*
X0211643Y0093729D01*
X0199339Y0106032D01*
X0193434Y0096190D02*
X0182115Y0107509D01*
X0109280Y0107509D01*
X0102391Y0100619D01*
X0086150Y0100619D01*
X0086150Y0101111D01*
X0065973Y0101111D01*
X0055146Y0090284D01*
X0060068Y0090284D02*
X0063513Y0093729D01*
X0089103Y0093729D01*
X0089202Y0094123D01*
X0092548Y0090776D01*
X0118139Y0090776D01*
X0131918Y0076997D01*
X0212627Y0076997D01*
X0224930Y0069615D02*
X0103867Y0069615D01*
X0089595Y0083887D01*
X0089202Y0083887D01*
X0089103Y0083887D01*
X0087627Y0082410D01*
X0079753Y0082410D01*
X0069635Y0080891D02*
X0069418Y0079950D01*
X0069418Y0056820D01*
X0069635Y0056490D01*
X0065481Y0060265D02*
X0065481Y0050422D01*
X0071387Y0050422D01*
X0072371Y0050422D01*
X0078276Y0056328D01*
X0078735Y0056490D01*
X0071387Y0050422D02*
X0071387Y0037627D01*
X0070981Y0037194D01*
X0072863Y0033690D02*
X0068434Y0033690D01*
X0064989Y0037135D01*
X0064981Y0037194D01*
X0064497Y0037627D01*
X0060560Y0037627D01*
X0033001Y0037627D01*
X0033001Y0018434D01*
X0035954Y0015481D01*
X0066957Y0015481D01*
X0070402Y0018926D01*
X0070855Y0019154D01*
X0070894Y0018926D01*
X0079261Y0018926D01*
X0079359Y0018957D01*
X0079753Y0018926D01*
X0088119Y0018926D01*
X0088454Y0018761D01*
X0088611Y0018926D01*
X0097469Y0018926D01*
X0097942Y0018761D01*
X0097942Y0024761D02*
X0098454Y0024831D01*
X0101406Y0027784D01*
X0132902Y0027784D01*
X0140284Y0020402D01*
X0140658Y0020304D01*
X0143237Y0012528D02*
X0150619Y0019910D01*
X0150658Y0020304D01*
X0151111Y0019910D01*
X0152095Y0018926D01*
X0204753Y0018926D01*
X0205107Y0018729D01*
X0225107Y0018729D02*
X0225422Y0018926D01*
X0229359Y0018926D01*
X0229359Y0072076D01*
X0231820Y0074536D02*
X0217056Y0089300D01*
X0193434Y0089300D01*
X0193434Y0082410D01*
X0186544Y0084379D02*
X0156524Y0084379D01*
X0159477Y0086347D02*
X0147666Y0098158D01*
X0120599Y0098158D01*
X0120580Y0098257D01*
X0104359Y0097666D02*
X0084182Y0097666D01*
X0086150Y0101111D02*
X0089398Y0104359D01*
X0092056Y0108001D02*
X0095501Y0104556D01*
X0095993Y0104556D01*
X0096091Y0104359D01*
X0096485Y0104556D01*
X0101406Y0104556D01*
X0095501Y0109477D02*
X0288414Y0109477D01*
X0293335Y0104556D01*
X0301702Y0101111D02*
X0283493Y0101111D01*
X0281032Y0098650D01*
X0280934Y0098650D01*
X0280540Y0098650D01*
X0277095Y0102095D01*
X0268729Y0102095D01*
X0264792Y0106032D01*
X0259379Y0100619D02*
X0240186Y0100619D01*
X0234772Y0106032D01*
X0243139Y0119320D02*
X0221485Y0119320D01*
X0218532Y0122272D01*
X0226898Y0125717D02*
X0209182Y0125717D01*
X0208198Y0124733D02*
X0208198Y0115383D01*
X0262331Y0115383D01*
X0265530Y0118581D01*
X0267253Y0116859D01*
X0267745Y0116859D01*
X0265530Y0118581D02*
X0268237Y0121288D01*
X0268335Y0121682D01*
X0261643Y0121682D02*
X0261347Y0121780D01*
X0261347Y0139005D01*
X0251997Y0145402D02*
X0250028Y0143434D01*
X0249536Y0143434D01*
X0233788Y0143434D01*
X0230343Y0139989D01*
X0230343Y0139792D01*
X0233296Y0136052D02*
X0237036Y0139792D01*
X0237233Y0139497D01*
X0240678Y0139497D01*
X0246091Y0134083D01*
X0246485Y0133934D01*
X0242154Y0131131D02*
X0245599Y0127686D01*
X0246485Y0127934D01*
X0246091Y0127686D01*
X0241170Y0122765D01*
X0237233Y0122765D01*
X0236839Y0122666D01*
X0230146Y0122666D02*
X0229851Y0122765D01*
X0226898Y0125717D01*
X0233296Y0136052D02*
X0216072Y0136052D01*
X0215087Y0135068D01*
X0214792Y0135020D01*
X0214792Y0141020D02*
X0214595Y0141465D01*
X0211643Y0144418D01*
X0210658Y0144418D01*
X0210658Y0151308D02*
X0208198Y0153769D01*
X0204753Y0153769D01*
X0204359Y0154115D01*
X0204261Y0154261D01*
X0185560Y0154261D01*
X0183887Y0155934D01*
X0188020Y0160166D02*
X0189989Y0160166D01*
X0199339Y0169517D01*
X0199438Y0169713D01*
X0206131Y0169713D02*
X0206229Y0170009D01*
X0206229Y0175422D01*
X0204753Y0178867D02*
X0200324Y0183296D01*
X0200225Y0183296D01*
X0203276Y0186741D02*
X0206721Y0183296D01*
X0206918Y0183296D01*
X0208690Y0183788D01*
X0208690Y0196091D01*
X0208493Y0196485D01*
X0208198Y0196583D01*
X0204753Y0200028D01*
X0189989Y0200028D01*
X0189005Y0199044D01*
X0188611Y0198847D01*
X0181918Y0198847D02*
X0179162Y0196091D01*
X0174733Y0196091D01*
X0168335Y0189694D01*
X0166859Y0189694D01*
X0164398Y0186741D02*
X0144221Y0186741D01*
X0141761Y0189202D01*
X0141761Y0192646D01*
X0142253Y0192646D01*
X0143729Y0194123D01*
X0166367Y0194123D01*
X0170698Y0198454D01*
X0164005Y0198454D02*
X0163906Y0198060D01*
X0161938Y0196091D01*
X0142253Y0196091D01*
X0139792Y0193631D01*
X0139792Y0183788D01*
X0134379Y0180343D02*
X0146682Y0180343D01*
X0148158Y0181820D01*
X0154064Y0177883D02*
X0166859Y0177883D01*
X0167351Y0177737D01*
X0167351Y0177883D01*
X0172272Y0177883D01*
X0175717Y0181328D02*
X0173257Y0183788D01*
X0167843Y0183788D01*
X0167351Y0183737D01*
X0167351Y0183788D01*
X0164398Y0186741D01*
X0154064Y0177883D02*
X0147666Y0171485D01*
X0143237Y0164595D02*
X0138316Y0164595D01*
X0143237Y0164595D02*
X0160461Y0147371D01*
X0175225Y0147371D01*
X0170304Y0152292D02*
X0170304Y0156229D01*
X0162922Y0156229D01*
X0162824Y0156572D01*
X0159477Y0153769D02*
X0159477Y0163119D01*
X0164398Y0163119D01*
X0164398Y0162627D01*
X0164891Y0162135D01*
X0164398Y0163119D02*
X0167843Y0166564D01*
X0168139Y0166761D01*
X0168335Y0167056D01*
X0178670Y0167056D01*
X0179753Y0168139D01*
X0186052Y0168040D02*
X0186446Y0168139D01*
X0186052Y0168040D02*
X0174733Y0156721D01*
X0174733Y0156229D01*
X0170304Y0156229D01*
X0174733Y0156229D02*
X0177194Y0156229D01*
X0177194Y0155934D01*
X0162824Y0150572D02*
X0162430Y0150816D01*
X0159477Y0153769D01*
X0150127Y0152784D02*
X0142745Y0152784D01*
X0138316Y0157213D01*
X0150127Y0152784D02*
X0168828Y0134083D01*
X0149143Y0146879D02*
X0123552Y0121288D01*
X0092056Y0121288D01*
X0092056Y0108001D01*
X0092056Y0121288D02*
X0079753Y0133591D01*
X0079753Y0133690D01*
X0070698Y0133690D02*
X0070402Y0134083D01*
X0069664Y0134822D01*
X0062036Y0127194D01*
X0061800Y0126721D01*
X0060068Y0122765D02*
X0057115Y0125717D01*
X0057115Y0138020D01*
X0019221Y0138020D01*
X0017745Y0139497D01*
X0017745Y0164595D01*
X0028572Y0164595D01*
X0028572Y0194615D01*
X0030540Y0194615D01*
X0030934Y0194910D01*
X0031032Y0195107D01*
X0040875Y0204950D01*
X0040875Y0206426D01*
X0041367Y0206524D01*
X0041367Y0206918D01*
X0045304Y0210855D01*
X0082706Y0210855D01*
X0092302Y0201259D01*
X0104851Y0213808D01*
X0111249Y0213808D02*
X0169812Y0213808D01*
X0177194Y0217253D02*
X0178916Y0215530D01*
X0179162Y0215776D01*
X0321879Y0215776D01*
X0321879Y0103080D01*
X0291367Y0072568D01*
X0248060Y0072568D01*
X0246583Y0071091D01*
X0237725Y0078473D02*
X0274143Y0078473D01*
X0274241Y0077981D01*
X0274635Y0077981D01*
X0279556Y0082902D01*
X0283001Y0082902D01*
X0286446Y0081426D02*
X0284477Y0079457D01*
X0282509Y0079457D01*
X0281032Y0077981D01*
X0280934Y0077981D01*
X0280540Y0077981D01*
X0277095Y0074536D01*
X0231820Y0074536D01*
X0237725Y0078473D02*
X0225914Y0090284D01*
X0193434Y0089300D02*
X0186544Y0089300D01*
X0186544Y0089792D01*
X0183591Y0089792D01*
X0183591Y0096190D01*
X0184576Y0100127D02*
X0169320Y0100127D01*
X0168828Y0100619D01*
X0145206Y0100619D01*
X0141761Y0104064D01*
X0158493Y0104064D02*
X0170304Y0104064D01*
X0170796Y0103572D01*
X0171780Y0097174D02*
X0167351Y0097174D01*
X0171780Y0097174D02*
X0171780Y0089792D01*
X0164398Y0089792D02*
X0157509Y0096682D01*
X0159477Y0086347D02*
X0183591Y0086347D01*
X0186544Y0089300D01*
X0189989Y0092745D02*
X0189989Y0096682D01*
X0188020Y0096682D01*
X0184576Y0100127D01*
X0163906Y0112922D02*
X0198847Y0147863D01*
X0231820Y0147863D01*
X0225422Y0156229D02*
X0221977Y0152784D01*
X0221879Y0152587D01*
X0237233Y0159674D02*
X0204753Y0159674D01*
X0204359Y0160115D01*
X0204261Y0160166D01*
X0202292Y0162135D01*
X0199831Y0162135D01*
X0187036Y0179359D02*
X0187036Y0186741D01*
X0182607Y0186741D01*
X0182312Y0186493D01*
X0179162Y0183788D02*
X0179162Y0190678D01*
X0179162Y0194123D01*
X0195894Y0194123D01*
X0195894Y0190678D01*
X0195894Y0194123D02*
X0199831Y0194123D01*
X0201800Y0196091D01*
X0201800Y0196485D01*
X0208690Y0202489D02*
X0212135Y0199044D01*
X0212135Y0190678D01*
X0211150Y0183296D02*
X0206918Y0183296D01*
X0203276Y0186741D02*
X0187036Y0186741D01*
X0182115Y0180835D02*
X0182312Y0180493D01*
X0182115Y0180835D02*
X0179162Y0183788D01*
X0161446Y0167056D02*
X0161446Y0166761D01*
X0161446Y0167056D02*
X0160954Y0167548D01*
X0156032Y0167548D01*
X0134379Y0180343D02*
X0134379Y0187725D01*
X0134871Y0191662D02*
X0130934Y0191662D01*
X0130934Y0176406D01*
X0119615Y0165087D01*
X0093532Y0177391D02*
X0052686Y0177391D01*
X0051702Y0176406D01*
X0049733Y0172961D02*
X0040629Y0182066D01*
X0033985Y0175422D01*
X0033603Y0175107D01*
X0033985Y0169517D02*
X0039398Y0174930D01*
X0039603Y0175107D01*
X0040629Y0182066D02*
X0041367Y0182804D01*
X0061544Y0182804D01*
X0061721Y0183135D01*
X0062036Y0183296D01*
X0091072Y0183296D01*
X0083198Y0188709D02*
X0106328Y0188709D01*
X0107312Y0187725D01*
X0114694Y0187725D01*
X0108788Y0191170D02*
X0090580Y0191170D01*
X0086643Y0195107D01*
X0086249Y0195257D01*
X0083198Y0198060D02*
X0083198Y0188709D01*
X0075028Y0195257D02*
X0074831Y0195599D01*
X0070402Y0195599D01*
X0074831Y0201013D02*
X0062528Y0201013D01*
X0062036Y0200520D01*
X0062036Y0200469D01*
X0048749Y0207410D02*
X0077292Y0207410D01*
X0075028Y0201257D02*
X0075324Y0201013D01*
X0079261Y0197076D01*
X0079753Y0197076D01*
X0083198Y0198060D02*
X0086150Y0201013D01*
X0086249Y0201257D01*
X0092302Y0201259D02*
X0098847Y0194713D01*
X0102391Y0197568D02*
X0098946Y0201013D01*
X0098847Y0201406D01*
X0111249Y0213808D01*
X0113217Y0210363D02*
X0207706Y0210363D01*
X0209674Y0212331D01*
X0208690Y0202489D02*
X0145698Y0202489D01*
X0134871Y0191662D01*
X0133394Y0195107D02*
X0125028Y0195107D01*
X0125028Y0195060D01*
X0125028Y0201060D02*
X0125028Y0201505D01*
X0127981Y0204457D01*
X0131426Y0204457D01*
X0112233Y0201257D02*
X0112233Y0201013D01*
X0103867Y0201013D01*
X0102391Y0197568D02*
X0110265Y0197568D01*
X0112233Y0195599D01*
X0112233Y0195257D01*
X0087135Y0170501D02*
X0082213Y0170501D01*
X0070894Y0159182D01*
X0070821Y0158734D01*
X0061721Y0158734D02*
X0061544Y0159182D01*
X0061544Y0172961D01*
X0049733Y0172961D01*
X0038028Y0160698D02*
X0037922Y0160658D01*
X0033247Y0155983D01*
X0033493Y0155737D01*
X0033247Y0155983D02*
X0025127Y0147863D01*
X0022174Y0147863D01*
X0019713Y0145402D01*
X0019713Y0140481D01*
X0032017Y0140481D01*
X0032509Y0140973D01*
X0032627Y0141162D01*
X0033001Y0141465D01*
X0055639Y0141465D01*
X0056123Y0141209D01*
X0062123Y0141209D02*
X0062528Y0140973D01*
X0063513Y0140973D01*
X0069664Y0134822D01*
X0061544Y0122765D02*
X0060068Y0122765D01*
X0061544Y0122765D02*
X0061544Y0117843D01*
X0061800Y0117666D01*
X0061544Y0117351D01*
X0061544Y0115383D01*
X0060068Y0113906D01*
X0054654Y0113906D01*
X0054654Y0117351D01*
X0054320Y0117666D01*
X0057607Y0117843D02*
X0058060Y0117666D01*
X0057607Y0117843D02*
X0057607Y0121780D01*
X0046288Y0121780D01*
X0043828Y0119320D01*
X0043257Y0119154D01*
X0043257Y0125154D02*
X0043335Y0125225D01*
X0044812Y0126702D01*
X0054162Y0126702D01*
X0054320Y0126721D01*
X0034969Y0110954D02*
X0034969Y0092253D01*
X0039398Y0107017D02*
X0038808Y0107509D01*
X0039398Y0107017D02*
X0039398Y0066170D01*
X0045796Y0059772D01*
X0045698Y0059194D01*
X0045796Y0059280D01*
X0048749Y0062233D01*
X0063513Y0062233D01*
X0065481Y0060265D01*
X0060535Y0056490D02*
X0060560Y0056328D01*
X0060560Y0037627D01*
X0072863Y0033690D02*
X0078769Y0039595D01*
X0088119Y0039595D01*
X0091072Y0036643D01*
X0091131Y0036564D01*
X0091564Y0036643D01*
X0105343Y0050422D01*
X0114694Y0050422D01*
X0122076Y0043040D01*
X0122548Y0042942D01*
X0131426Y0034674D02*
X0094024Y0034674D01*
X0092548Y0033198D01*
X0081721Y0033198D01*
X0081475Y0033444D01*
X0084182Y0036150D01*
X0084438Y0036564D01*
X0081475Y0033444D02*
X0076308Y0028276D01*
X0036446Y0028276D01*
X0034969Y0026800D01*
X0034969Y0019418D01*
X0037922Y0019418D01*
X0038217Y0018957D01*
X0038414Y0018926D01*
X0046288Y0018926D01*
X0046328Y0018957D01*
X0046780Y0018926D01*
X0054162Y0018926D01*
X0054635Y0018957D01*
X0054654Y0018926D01*
X0062528Y0018926D01*
X0062745Y0018957D01*
X0062528Y0024831D02*
X0062745Y0024957D01*
X0063020Y0025324D01*
X0070402Y0025324D01*
X0070855Y0025154D01*
X0070894Y0025324D01*
X0079261Y0025324D01*
X0079359Y0024957D01*
X0079753Y0024831D01*
X0088119Y0024831D01*
X0088454Y0024761D01*
X0088611Y0024831D01*
X0097469Y0024831D01*
X0097942Y0024761D01*
X0131918Y0031229D02*
X0132902Y0031229D01*
X0162922Y0061249D01*
X0156524Y0059772D02*
X0131426Y0034674D01*
X0139792Y0029261D02*
X0160954Y0029261D01*
X0166367Y0034674D01*
X0143237Y0012528D02*
X0028080Y0012528D01*
X0028080Y0126702D01*
X0032627Y0147162D02*
X0033001Y0147863D01*
X0041367Y0147863D01*
X0052194Y0158690D01*
X0052621Y0158734D01*
X0032028Y0160698D02*
X0032017Y0161150D01*
X0028572Y0164595D01*
X0024241Y0194910D02*
X0024635Y0195107D01*
X0037430Y0207902D01*
X0037430Y0217253D01*
X0177194Y0217253D01*
X0178916Y0215530D02*
X0180639Y0213808D01*
X0211150Y0183296D02*
X0212135Y0182312D01*
X0238709Y0192646D02*
X0308099Y0192646D01*
X0308493Y0192942D01*
X0308591Y0192646D01*
X0312036Y0189202D01*
X0318926Y0189202D01*
X0318926Y0195599D01*
X0317942Y0196583D01*
X0315973Y0196583D01*
X0315973Y0203473D01*
X0315776Y0203918D01*
X0315776Y0209918D02*
X0315481Y0210363D01*
X0313513Y0212331D01*
X0256426Y0212331D01*
X0254704Y0210609D01*
X0254457Y0210855D01*
X0231820Y0210855D01*
X0226898Y0205934D01*
X0226800Y0205737D01*
X0233493Y0205737D02*
X0233788Y0205934D01*
X0239694Y0205934D01*
X0245107Y0207410D02*
X0245107Y0207509D01*
X0245107Y0207410D02*
X0249044Y0203473D01*
X0249044Y0202981D01*
X0248060Y0201997D01*
X0249044Y0203473D02*
X0281524Y0203473D01*
X0283493Y0201505D01*
X0283690Y0201162D01*
X0288414Y0202489D02*
X0300225Y0202489D01*
X0300225Y0202146D01*
X0300225Y0207902D02*
X0300225Y0208146D01*
X0300225Y0207902D02*
X0288414Y0207902D01*
X0284969Y0205442D02*
X0283690Y0207162D01*
X0283985Y0206918D01*
X0288414Y0202489D01*
X0284969Y0205442D02*
X0263808Y0205442D01*
X0260363Y0208887D01*
X0260265Y0208887D01*
X0254704Y0210609D02*
X0251997Y0207902D01*
X0251800Y0207509D01*
X0244615Y0197568D02*
X0310560Y0197568D01*
X0315186Y0192942D01*
X0272174Y0208887D02*
X0266957Y0208887D01*
X0244123Y0182804D02*
X0246583Y0180343D01*
X0246879Y0179902D01*
X0248257Y0169170D02*
X0248552Y0169024D01*
X0251751Y0165826D01*
X0252489Y0165087D01*
X0262824Y0165087D01*
X0263020Y0164989D01*
X0249536Y0143434D02*
X0249536Y0125717D01*
X0243139Y0119320D01*
X0268975Y0093483D02*
X0274143Y0098650D01*
X0274241Y0098650D01*
X0286938Y0088316D02*
X0288414Y0089792D01*
X0303178Y0089792D01*
X0286938Y0088316D02*
X0286446Y0088316D01*
X0281032Y0088316D01*
X0280934Y0088611D01*
X0286446Y0088316D02*
X0286446Y0081426D01*
X0183591Y0080442D02*
X0168828Y0080442D01*
X0170304Y0073552D02*
X0124536Y0073552D01*
X0124044Y0073060D01*
X0124044Y0079950D01*
X0107804Y0083887D02*
X0095894Y0083887D01*
X0095894Y0094123D02*
X0095993Y0094221D01*
X0100914Y0094221D01*
X0069635Y0080891D02*
X0067942Y0080934D01*
X0067942Y0090284D01*
X0069635Y0080891D02*
X0069418Y0080442D01*
X0060560Y0080442D01*
X0045796Y0065678D01*
X0045698Y0065194D01*
X0046288Y0025324D02*
X0038414Y0025324D01*
X0038217Y0024957D01*
X0046288Y0025324D02*
X0046328Y0024957D01*
X0046780Y0025324D01*
X0054162Y0025324D01*
X0054635Y0024957D01*
X0055146Y0024831D01*
X0062528Y0024831D01*
X0074831Y0201013D02*
X0075028Y0201257D01*
X0048749Y0207410D02*
X0048257Y0206918D01*
X0048060Y0206524D01*
D22*
X0070402Y0195599D03*
X0079753Y0197076D03*
X0077292Y0207410D03*
X0103867Y0201013D03*
X0108788Y0191170D03*
X0114694Y0187725D03*
X0134379Y0187725D03*
X0139792Y0183788D03*
X0148158Y0181820D03*
X0147666Y0171485D03*
X0156032Y0167548D03*
X0164891Y0162135D03*
X0170304Y0152292D03*
X0175225Y0147371D03*
X0168828Y0134083D03*
X0149143Y0146879D03*
X0150127Y0152784D03*
X0138316Y0157213D03*
X0138316Y0164595D03*
X0118139Y0168532D03*
X0093532Y0177391D03*
X0091072Y0183296D03*
X0087135Y0170501D03*
X0051702Y0176406D03*
X0033985Y0169517D03*
X0033493Y0155737D03*
X0028080Y0126702D03*
X0034969Y0110954D03*
X0034969Y0092253D03*
X0055146Y0090284D03*
X0060068Y0090284D03*
X0067942Y0090284D03*
X0079753Y0082410D03*
X0084182Y0097666D03*
X0095501Y0109477D03*
X0101406Y0104556D03*
X0104359Y0097666D03*
X0100914Y0094221D03*
X0107804Y0083887D03*
X0124044Y0079950D03*
X0124044Y0073060D03*
X0156524Y0084379D03*
X0164398Y0089792D03*
X0171780Y0089792D03*
X0167351Y0097174D03*
X0170796Y0103572D03*
X0163906Y0112922D03*
X0158493Y0104064D03*
X0157509Y0096682D03*
X0141761Y0104064D03*
X0168828Y0080442D03*
X0170304Y0073552D03*
X0183591Y0080442D03*
X0186544Y0084379D03*
X0193434Y0082410D03*
X0186544Y0089300D03*
X0189989Y0092745D03*
X0193434Y0096190D03*
X0183591Y0096190D03*
X0199339Y0106032D03*
X0203769Y0122765D03*
X0199831Y0129162D03*
X0210658Y0144418D03*
X0210658Y0151308D03*
X0199831Y0162135D03*
X0188020Y0160166D03*
X0206229Y0175422D03*
X0200324Y0178375D03*
X0212135Y0182312D03*
X0212135Y0190678D03*
X0195894Y0190678D03*
X0187036Y0179359D03*
X0175717Y0181328D03*
X0172272Y0177883D03*
X0166859Y0189694D03*
X0179162Y0190678D03*
X0209674Y0212331D03*
X0180639Y0213808D03*
X0169812Y0213808D03*
X0131426Y0204457D03*
X0133394Y0195107D03*
X0113217Y0210363D03*
X0104851Y0213808D03*
X0231820Y0147863D03*
X0241662Y0149339D03*
X0235757Y0156229D03*
X0251997Y0145402D03*
X0255442Y0152784D03*
X0255934Y0157706D03*
X0264300Y0170009D03*
X0258394Y0178375D03*
X0252981Y0183788D03*
X0242646Y0182804D03*
X0235265Y0172961D03*
X0238709Y0192646D03*
X0244615Y0197568D03*
X0248060Y0201997D03*
X0239694Y0205934D03*
X0272174Y0208887D03*
X0288414Y0207902D03*
X0308591Y0169517D03*
X0242154Y0131131D03*
X0267745Y0116859D03*
X0264792Y0106032D03*
X0259379Y0100619D03*
X0270206Y0082902D03*
X0275127Y0083394D03*
X0283001Y0082902D03*
X0303178Y0089792D03*
X0301702Y0101111D03*
X0293335Y0104556D03*
X0246583Y0071091D03*
X0229359Y0072076D03*
X0224930Y0069615D03*
X0212627Y0076997D03*
X0225914Y0090284D03*
X0234772Y0106032D03*
X0162922Y0061249D03*
X0156524Y0059772D03*
X0166367Y0034674D03*
X0139792Y0029261D03*
X0131918Y0031229D03*
M02*
