G75*
%MOIN*%
%OFA0B0*%
%FSLAX25Y25*%
%IPPOS*%
%LPD*%
%AMOC8*
5,1,8,0,0,1.08239X$1,22.5*
%
%ADD10C,0.06800*%
%ADD11C,0.04146*%
%ADD12R,0.05131X0.04737*%
%ADD13R,0.04737X0.05131*%
%ADD14C,0.04800*%
%ADD15C,0.04762*%
%ADD16C,0.03187*%
%ADD17C,0.03581*%
%ADD18R,0.20485X0.20485*%
D10*
X0057657Y0020454D02*
X0057657Y0026454D01*
X0067657Y0026454D02*
X0067657Y0020454D01*
X0183870Y0074950D02*
X0189870Y0074950D01*
X0189870Y0084950D02*
X0183870Y0084950D01*
D11*
X0034114Y0035461D03*
X0019153Y0035461D03*
D12*
X0061279Y0038217D03*
X0067972Y0038217D03*
X0080373Y0038217D03*
X0087066Y0038217D03*
X0095925Y0038414D03*
X0102618Y0038414D03*
X0102618Y0047666D03*
X0095925Y0047666D03*
X0087460Y0048847D03*
X0080767Y0048847D03*
X0068759Y0049044D03*
X0062066Y0049044D03*
X0104586Y0056131D03*
X0111279Y0056131D03*
X0120334Y0056918D03*
X0127027Y0056918D03*
X0138248Y0061839D03*
X0144940Y0061839D03*
X0144744Y0050225D03*
X0138051Y0050225D03*
X0137854Y0038414D03*
X0144547Y0038414D03*
X0126633Y0066170D03*
X0119940Y0066170D03*
X0120137Y0076800D03*
X0126830Y0076800D03*
X0139035Y0073650D03*
X0145728Y0073650D03*
X0155373Y0073060D03*
X0162066Y0073060D03*
X0161476Y0084477D03*
X0154783Y0084477D03*
X0145925Y0084477D03*
X0139232Y0084477D03*
D13*
X0090610Y0082509D03*
X0090610Y0075816D03*
X0111870Y0045501D03*
X0111870Y0038808D03*
D14*
X0121614Y0043139D03*
X0127027Y0043631D03*
X0133917Y0045107D03*
X0141299Y0045107D03*
X0146220Y0045107D03*
X0152618Y0040678D03*
X0153110Y0051505D03*
X0164429Y0052981D03*
X0167873Y0042154D03*
X0172303Y0033788D03*
X0181161Y0069221D03*
X0178700Y0078080D03*
X0164429Y0089398D03*
X0155078Y0095304D03*
X0151141Y0091859D03*
X0143759Y0079556D03*
X0137854Y0079556D03*
X0120137Y0083001D03*
X0128011Y0092351D03*
X0132933Y0092351D03*
X0159999Y0078080D03*
X0115216Y0061839D03*
X0099960Y0052489D03*
X0091102Y0058394D03*
X0085688Y0058394D03*
X0097007Y0070206D03*
X0099960Y0078080D03*
X0085688Y0075619D03*
X0085688Y0085461D03*
X0099960Y0089891D03*
X0066496Y0053965D03*
X0090610Y0044123D03*
X0081751Y0032312D03*
X0078799Y0025422D03*
D15*
X0049862Y0034280D03*
D16*
X0189232Y0029556D03*
D17*
X0054192Y0067745D03*
X0041988Y0094713D03*
D18*
X0061082Y0112430D03*
X0119744Y0113217D03*
X0106948Y0018532D03*
M02*
