G75*
%MOIN*%
%OFA0B0*%
%FSLAX25Y25*%
%IPPOS*%
%LPD*%
%AMOC8*
5,1,8,0,0,1.08239X$1,22.5*
%
%ADD10R,0.09461X0.03162*%
%ADD11R,0.05918X0.02375*%
%ADD12R,0.02572X0.07690*%
%ADD13R,0.08400X0.15800*%
%ADD14C,0.06800*%
%ADD15R,0.07874X0.06693*%
%ADD16R,0.02375X0.06312*%
%ADD17C,0.04146*%
%ADD18R,0.04737X0.05131*%
%ADD19R,0.05131X0.04737*%
%ADD20R,0.03950X0.03950*%
%ADD21C,0.04800*%
%ADD22C,0.04762*%
%ADD23C,0.03187*%
%ADD24C,0.03581*%
%ADD25R,0.20485X0.20485*%
D10*
X0107342Y0058099D03*
X0107342Y0063099D03*
X0107342Y0068099D03*
X0107342Y0073099D03*
X0107342Y0078099D03*
X0107342Y0083099D03*
X0107342Y0088099D03*
X0127814Y0088099D03*
X0127814Y0083099D03*
X0127814Y0078099D03*
X0127814Y0073099D03*
X0127814Y0068099D03*
X0127814Y0063099D03*
X0127814Y0058099D03*
X0151043Y0057548D03*
X0151043Y0062548D03*
X0151043Y0067548D03*
X0151043Y0072548D03*
X0151043Y0077548D03*
X0151043Y0082548D03*
X0151043Y0087548D03*
X0171515Y0087548D03*
X0171515Y0082548D03*
X0171515Y0077548D03*
X0171515Y0072548D03*
X0171515Y0067548D03*
X0171515Y0062548D03*
X0171515Y0057548D03*
D11*
X0077854Y0041013D03*
X0077854Y0038454D03*
X0077854Y0035894D03*
X0069192Y0035894D03*
X0069192Y0041013D03*
D12*
X0070334Y0050894D03*
X0072893Y0050894D03*
X0075452Y0050894D03*
X0078011Y0050894D03*
X0078011Y0068217D03*
X0075452Y0068217D03*
X0072893Y0068217D03*
X0070334Y0068217D03*
D13*
X0047696Y0053335D03*
X0020137Y0053335D03*
X0016200Y0086013D03*
X0030373Y0086013D03*
X0053996Y0086013D03*
D14*
X0057657Y0026454D02*
X0057657Y0020454D01*
X0067657Y0020454D02*
X0067657Y0026454D01*
X0183870Y0074950D02*
X0189870Y0074950D01*
X0189870Y0084950D02*
X0183870Y0084950D01*
D15*
X0012129Y0026800D03*
X0041137Y0026800D03*
D16*
X0031751Y0037430D03*
X0029192Y0037430D03*
X0026633Y0037430D03*
X0024074Y0037430D03*
X0021515Y0037430D03*
D17*
X0019153Y0035461D03*
X0034114Y0035461D03*
D18*
X0068562Y0076013D03*
X0068562Y0082706D03*
X0078011Y0082706D03*
X0078011Y0076013D03*
X0090807Y0075225D03*
X0090807Y0081918D03*
X0186082Y0064005D03*
X0186082Y0057312D03*
X0191594Y0051209D03*
X0191594Y0044517D03*
D19*
X0184704Y0047272D03*
X0178011Y0047272D03*
X0165413Y0047272D03*
X0158720Y0047272D03*
X0158326Y0037430D03*
X0165019Y0037430D03*
X0178602Y0037036D03*
X0185295Y0037036D03*
X0185295Y0026800D03*
X0178602Y0026800D03*
X0147893Y0037430D03*
X0141200Y0037430D03*
X0127421Y0038020D03*
X0120728Y0038020D03*
X0109901Y0036839D03*
X0103208Y0036839D03*
X0093562Y0039005D03*
X0086870Y0039005D03*
X0103996Y0048257D03*
X0110688Y0048257D03*
X0120728Y0048847D03*
X0127421Y0048847D03*
X0093366Y0053375D03*
X0086673Y0053375D03*
X0086476Y0065383D03*
X0093169Y0065383D03*
X0091397Y0090383D03*
X0084704Y0090383D03*
X0075846Y0090186D03*
X0069153Y0090186D03*
D20*
X0191594Y0038217D03*
X0191594Y0032312D03*
D21*
X0172303Y0033788D03*
X0167873Y0042154D03*
X0164429Y0052981D03*
X0153110Y0051505D03*
X0146220Y0045107D03*
X0141299Y0045107D03*
X0133917Y0045107D03*
X0127027Y0043631D03*
X0121614Y0043139D03*
X0099960Y0052489D03*
X0091102Y0058394D03*
X0085688Y0058394D03*
X0097007Y0070206D03*
X0099960Y0078080D03*
X0085688Y0075619D03*
X0085688Y0085461D03*
X0099960Y0089891D03*
X0120137Y0083001D03*
X0128011Y0092351D03*
X0132933Y0092351D03*
X0151141Y0091859D03*
X0155078Y0095304D03*
X0164429Y0089398D03*
X0159999Y0078080D03*
X0143759Y0079556D03*
X0137854Y0079556D03*
X0115216Y0061839D03*
X0090610Y0044123D03*
X0081751Y0032312D03*
X0078799Y0025422D03*
X0066496Y0053965D03*
X0152618Y0040678D03*
X0181161Y0069221D03*
X0178700Y0078080D03*
D22*
X0049862Y0034280D03*
D23*
X0189232Y0029556D03*
D24*
X0054192Y0067745D03*
X0041988Y0094713D03*
D25*
X0061082Y0112430D03*
X0119744Y0113217D03*
X0106948Y0018532D03*
M02*
