%
M48
M72
T01C0.00787
T02C0.01181
T03C0.02362
T04C0.02400
T05C0.03346
T06C0.04000
%
T01
X189232Y29556
T02
X54192Y67745
X41988Y94713
T03
X49862Y34280
X106948Y18532
X61082Y112430
X119744Y113217
T04
X128011Y92351
X132933Y92351
X120137Y83001
X137854Y79556
X143759Y79556
X159999Y78080
X164429Y89398
X155078Y95304
X151141Y91859
X178700Y78080
X181161Y69221
X164429Y52981
X153110Y51505
X146220Y45107
X141299Y45107
X133917Y45107
X127027Y43631
X121614Y43139
X99960Y52489
X91102Y58394
X85688Y58394
X97007Y70206
X99960Y78080
X85688Y75619
X85688Y85461
X99960Y89891
X115216Y61839
X90610Y44123
X81751Y32312
X78799Y25422
X66496Y53965
X152618Y40678
X167873Y42154
X172303Y33788
T05
X34114Y35461
X19153Y35461
T06
X57657Y23454
X67657Y23454
X186870Y74950
X186870Y84950
M30
