G75*
%MOIN*%
%OFA0B0*%
%FSLAX25Y25*%
%IPPOS*%
%LPD*%
%AMOC8*
5,1,8,0,0,1.08239X$1,22.5*
%
%ADD10C,0.00600*%
%ADD11C,0.06000*%
%ADD12R,0.04331X0.03937*%
%ADD13R,0.03937X0.04331*%
%ADD14C,0.01000*%
%ADD15C,0.04000*%
%ADD16C,0.03962*%
%ADD17C,0.01600*%
%ADD18C,0.02387*%
%ADD19C,0.01200*%
%ADD20C,0.02781*%
%ADD21R,0.19685X0.19685*%
D10*
X0100752Y0093719D02*
X0101820Y0092651D01*
X0103955Y0092651D01*
X0105023Y0093719D01*
X0105023Y0095854D01*
X0102887Y0095854D01*
X0100752Y0097989D02*
X0100752Y0093719D01*
X0100752Y0097989D02*
X0101820Y0099057D01*
X0103955Y0099057D01*
X0105023Y0097989D01*
X0107198Y0097989D02*
X0108265Y0099057D01*
X0110400Y0099057D01*
X0111468Y0097989D01*
X0113643Y0097989D02*
X0113643Y0099057D01*
X0113643Y0097989D02*
X0115778Y0095854D01*
X0115778Y0092651D01*
X0115778Y0095854D02*
X0117914Y0097989D01*
X0117914Y0099057D01*
X0111468Y0093719D02*
X0110400Y0092651D01*
X0108265Y0092651D01*
X0107198Y0093719D01*
X0107198Y0097989D01*
D11*
X0183870Y0084950D02*
X0189870Y0084950D01*
X0189870Y0074950D02*
X0183870Y0074950D01*
X0067657Y0026454D02*
X0067657Y0020454D01*
X0057657Y0020454D02*
X0057657Y0026454D01*
D12*
X0061279Y0038217D03*
X0067972Y0038217D03*
X0080373Y0038217D03*
X0087066Y0038217D03*
X0095925Y0038414D03*
X0102618Y0038414D03*
X0102618Y0047666D03*
X0095925Y0047666D03*
X0087460Y0048847D03*
X0080767Y0048847D03*
X0068759Y0049044D03*
X0062066Y0049044D03*
X0104586Y0056131D03*
X0111279Y0056131D03*
X0120334Y0056918D03*
X0127027Y0056918D03*
X0138248Y0061839D03*
X0144940Y0061839D03*
X0144744Y0050225D03*
X0138051Y0050225D03*
X0137854Y0038414D03*
X0144547Y0038414D03*
X0126633Y0066170D03*
X0119940Y0066170D03*
X0120137Y0076800D03*
X0126830Y0076800D03*
X0139035Y0073650D03*
X0145728Y0073650D03*
X0155373Y0073060D03*
X0162066Y0073060D03*
X0161476Y0084477D03*
X0154783Y0084477D03*
X0145925Y0084477D03*
X0139232Y0084477D03*
D13*
X0090610Y0082509D03*
X0090610Y0075816D03*
X0111870Y0045501D03*
X0111870Y0038808D03*
D14*
X0111771Y0039202D01*
X0108818Y0042154D01*
X0099468Y0042154D01*
X0096023Y0038709D01*
X0095925Y0038414D01*
X0095531Y0038217D01*
X0092578Y0035265D01*
X0092578Y0033296D01*
X0116200Y0033296D01*
X0117185Y0034280D01*
X0117185Y0038709D01*
X0121614Y0043139D01*
X0127027Y0043631D02*
X0127027Y0034772D01*
X0168366Y0034772D01*
X0173287Y0039694D01*
X0173287Y0095304D01*
X0155078Y0095304D01*
X0151141Y0091859D02*
X0151141Y0087922D01*
X0151141Y0082017D01*
X0152125Y0081032D01*
X0158031Y0081032D01*
X0161476Y0084477D01*
X0160492Y0083001D01*
X0165905Y0077587D01*
X0165905Y0054457D01*
X0164429Y0052981D01*
X0161968Y0060363D02*
X0161968Y0072666D01*
X0162066Y0073060D01*
X0161968Y0073158D01*
X0161968Y0076111D01*
X0159999Y0078080D01*
X0155373Y0073060D02*
X0155078Y0072666D01*
X0150895Y0068483D01*
X0145728Y0073650D01*
X0139035Y0073650D02*
X0138838Y0073650D01*
X0138838Y0066269D01*
X0127027Y0066269D01*
X0126633Y0066170D01*
X0126535Y0066269D01*
X0126535Y0076603D01*
X0126830Y0076800D01*
X0127027Y0077095D01*
X0127027Y0091367D01*
X0128011Y0092351D01*
X0124566Y0093828D02*
X0129488Y0098749D01*
X0175255Y0098749D01*
X0175255Y0036741D01*
X0172303Y0033788D01*
X0169350Y0038709D02*
X0152618Y0038709D01*
X0152618Y0040678D01*
X0149665Y0043631D02*
X0149665Y0067253D01*
X0150895Y0068483D01*
X0144940Y0061839D02*
X0144744Y0061839D01*
X0144744Y0056918D01*
X0138051Y0050225D01*
X0138346Y0050028D01*
X0138346Y0048060D01*
X0141299Y0045107D01*
X0146220Y0045107D02*
X0146220Y0048552D01*
X0144744Y0050028D01*
X0144744Y0050225D01*
X0153110Y0051505D02*
X0161968Y0060363D01*
X0178700Y0071682D02*
X0178700Y0078080D01*
X0178700Y0071682D02*
X0181161Y0069221D01*
X0167873Y0085954D02*
X0167873Y0042154D01*
X0171318Y0040678D02*
X0169350Y0038709D01*
X0171318Y0040678D02*
X0171318Y0092843D01*
X0162952Y0092843D01*
X0160984Y0090875D01*
X0160984Y0090383D01*
X0155078Y0084477D01*
X0154783Y0084477D01*
X0151141Y0087922D02*
X0142775Y0087922D01*
X0139330Y0084477D01*
X0139232Y0084477D01*
X0143759Y0082509D02*
X0143759Y0079556D01*
X0143759Y0082509D02*
X0145728Y0084477D01*
X0145925Y0084477D01*
X0137854Y0079556D02*
X0132933Y0084477D01*
X0132933Y0092351D01*
X0124566Y0093828D02*
X0124566Y0081524D01*
X0120137Y0077095D01*
X0120137Y0076800D01*
X0116200Y0079064D02*
X0116200Y0065776D01*
X0114232Y0065776D01*
X0111771Y0063316D01*
X0111771Y0056918D01*
X0111279Y0056426D01*
X0111279Y0056131D01*
X0104586Y0056131D02*
X0104389Y0056426D01*
X0100452Y0060363D01*
X0100452Y0071682D01*
X0098484Y0073650D01*
X0098484Y0076603D01*
X0099960Y0078080D01*
X0098484Y0073650D02*
X0094055Y0073650D01*
X0094055Y0072174D01*
X0081259Y0059379D01*
X0081259Y0049044D01*
X0080767Y0048847D01*
X0080767Y0048552D01*
X0072401Y0048552D01*
X0072401Y0046583D01*
X0071417Y0045599D01*
X0062066Y0045599D01*
X0062066Y0038709D01*
X0061574Y0038217D01*
X0061279Y0038217D01*
X0061082Y0037725D01*
X0058129Y0034772D01*
X0058129Y0032509D01*
X0058129Y0023946D01*
X0057657Y0023454D01*
X0058129Y0023454D01*
X0058129Y0016072D01*
X0078307Y0016072D01*
X0092578Y0030343D01*
X0092578Y0033296D01*
X0090610Y0031328D02*
X0084704Y0025422D01*
X0078799Y0025422D01*
X0080275Y0028867D02*
X0085196Y0028867D01*
X0085196Y0035757D01*
X0087165Y0037725D01*
X0087066Y0038217D01*
X0087165Y0038217D01*
X0087165Y0048552D01*
X0087460Y0048847D01*
X0087165Y0049044D01*
X0087165Y0056918D01*
X0085688Y0058394D01*
X0085688Y0058887D01*
X0097007Y0070206D01*
X0090610Y0075619D02*
X0090610Y0075816D01*
X0090610Y0076111D01*
X0099960Y0085461D01*
X0099960Y0089891D01*
X0090610Y0082509D02*
X0085688Y0082509D01*
X0085688Y0085461D01*
X0085688Y0075619D02*
X0090610Y0075619D01*
X0091102Y0058394D02*
X0091102Y0052489D01*
X0095925Y0047666D01*
X0099960Y0050520D02*
X0099960Y0052489D01*
X0099960Y0050520D02*
X0102421Y0048060D01*
X0102618Y0047666D01*
X0102913Y0047568D01*
X0102913Y0045599D01*
X0111771Y0045599D01*
X0111870Y0045501D01*
X0120629Y0050028D02*
X0120629Y0056918D01*
X0120334Y0056918D01*
X0127027Y0056918D02*
X0134409Y0049536D01*
X0134409Y0045107D01*
X0133917Y0045107D01*
X0134409Y0045107D02*
X0134409Y0042154D01*
X0137854Y0038709D01*
X0137854Y0038414D01*
X0144547Y0038414D02*
X0144744Y0038709D01*
X0149665Y0043631D01*
X0127027Y0043631D02*
X0120629Y0050028D01*
X0115216Y0061839D02*
X0115216Y0035265D01*
X0109310Y0035265D01*
X0108326Y0036249D01*
X0108326Y0038217D01*
X0102913Y0038217D01*
X0102618Y0038414D01*
X0090610Y0044123D02*
X0090610Y0031328D01*
X0081751Y0032312D02*
X0080275Y0033788D01*
X0080275Y0037725D01*
X0080373Y0038217D01*
X0067972Y0038217D01*
X0062066Y0045599D02*
X0062066Y0049044D01*
X0066496Y0051013D02*
X0066496Y0053965D01*
X0066496Y0051013D02*
X0068464Y0049044D01*
X0068759Y0049044D01*
X0075354Y0030835D02*
X0078307Y0030835D01*
X0080275Y0028867D01*
X0075354Y0030835D02*
X0067972Y0023454D01*
X0067657Y0023454D01*
X0116200Y0065776D02*
X0119645Y0065776D01*
X0119940Y0066170D01*
X0138248Y0061839D02*
X0138346Y0061839D01*
X0138838Y0062331D01*
X0138838Y0066269D01*
X0120137Y0083001D02*
X0116200Y0079064D01*
X0164429Y0089398D02*
X0167873Y0085954D01*
D15*
X0164429Y0089398D03*
X0155078Y0095304D03*
X0151141Y0091859D03*
X0143759Y0079556D03*
X0137854Y0079556D03*
X0120137Y0083001D03*
X0128011Y0092351D03*
X0132933Y0092351D03*
X0159999Y0078080D03*
X0178700Y0078080D03*
X0181161Y0069221D03*
X0164429Y0052981D03*
X0153110Y0051505D03*
X0146220Y0045107D03*
X0141299Y0045107D03*
X0133917Y0045107D03*
X0127027Y0043631D03*
X0121614Y0043139D03*
X0099960Y0052489D03*
X0091102Y0058394D03*
X0085688Y0058394D03*
X0097007Y0070206D03*
X0099960Y0078080D03*
X0085688Y0075619D03*
X0085688Y0085461D03*
X0099960Y0089891D03*
X0115216Y0061839D03*
X0090610Y0044123D03*
X0081751Y0032312D03*
X0078799Y0025422D03*
X0066496Y0053965D03*
X0152618Y0040678D03*
X0167873Y0042154D03*
X0172303Y0033788D03*
D16*
X0049862Y0034280D03*
D17*
X0042246Y0023148D02*
X0012221Y0023148D01*
X0007627Y0027742D01*
X0007627Y0034913D01*
X0013073Y0040360D01*
X0014648Y0041935D01*
X0015501Y0043993D01*
X0015501Y0094625D01*
X0038997Y0094625D01*
X0038997Y0094119D01*
X0039452Y0093019D01*
X0039785Y0092687D01*
X0039785Y0073267D01*
X0032557Y0066039D01*
X0031882Y0065364D01*
X0031517Y0064482D01*
X0031517Y0047386D01*
X0031882Y0046503D01*
X0037193Y0041192D01*
X0035401Y0041935D01*
X0032826Y0041935D01*
X0030447Y0040949D01*
X0028626Y0039128D01*
X0027640Y0036749D01*
X0027640Y0034174D01*
X0028626Y0031795D01*
X0030447Y0029974D01*
X0032826Y0028988D01*
X0035401Y0028988D01*
X0037780Y0029974D01*
X0038997Y0031190D01*
X0038997Y0026913D01*
X0039362Y0026031D01*
X0042246Y0023148D01*
X0040798Y0024596D02*
X0010773Y0024596D01*
X0009174Y0026194D02*
X0039295Y0026194D01*
X0038997Y0027793D02*
X0007627Y0027793D01*
X0007627Y0029391D02*
X0016892Y0029391D01*
X0017865Y0028988D02*
X0020441Y0028988D01*
X0022820Y0029974D01*
X0024641Y0031795D01*
X0025626Y0034174D01*
X0025626Y0036749D01*
X0024641Y0039128D01*
X0022820Y0040949D01*
X0020441Y0041935D01*
X0017865Y0041935D01*
X0015486Y0040949D01*
X0013665Y0039128D01*
X0012680Y0036749D01*
X0012680Y0034174D01*
X0013665Y0031795D01*
X0015486Y0029974D01*
X0017865Y0028988D01*
X0014470Y0030990D02*
X0007627Y0030990D01*
X0007627Y0032588D02*
X0013336Y0032588D01*
X0012680Y0034187D02*
X0007627Y0034187D01*
X0008499Y0035785D02*
X0012680Y0035785D01*
X0012943Y0037384D02*
X0010097Y0037384D01*
X0011696Y0038982D02*
X0013605Y0038982D01*
X0013295Y0040581D02*
X0015118Y0040581D01*
X0014750Y0042179D02*
X0036206Y0042179D01*
X0034608Y0043778D02*
X0015412Y0043778D01*
X0015501Y0045376D02*
X0033009Y0045376D01*
X0031687Y0046975D02*
X0015501Y0046975D01*
X0015501Y0048574D02*
X0031517Y0048574D01*
X0031517Y0050172D02*
X0015501Y0050172D01*
X0015501Y0051771D02*
X0031517Y0051771D01*
X0031517Y0053369D02*
X0015501Y0053369D01*
X0015501Y0054968D02*
X0031517Y0054968D01*
X0031517Y0056566D02*
X0015501Y0056566D01*
X0015501Y0058165D02*
X0031517Y0058165D01*
X0031517Y0059763D02*
X0015501Y0059763D01*
X0015501Y0061362D02*
X0031517Y0061362D01*
X0031517Y0062960D02*
X0015501Y0062960D01*
X0015501Y0064559D02*
X0031548Y0064559D01*
X0033917Y0064005D02*
X0033917Y0047863D01*
X0041397Y0040383D01*
X0041397Y0027391D01*
X0057933Y0010855D01*
X0083917Y0010855D01*
X0091791Y0018729D01*
X0104389Y0018729D01*
X0095506Y0016329D02*
X0095506Y0010586D01*
X0093692Y0011337D01*
X0087793Y0011337D01*
X0092785Y0016329D01*
X0095506Y0016329D01*
X0095506Y0015005D02*
X0091461Y0015005D01*
X0089862Y0013406D02*
X0095506Y0013406D01*
X0095506Y0011808D02*
X0088264Y0011808D01*
X0084672Y0015005D02*
X0080210Y0015005D01*
X0080407Y0015202D02*
X0094678Y0029473D01*
X0094678Y0031196D01*
X0117070Y0031196D01*
X0118300Y0032426D01*
X0119284Y0033410D01*
X0119284Y0037840D01*
X0120983Y0039539D01*
X0122330Y0039539D01*
X0123653Y0040087D01*
X0124566Y0041000D01*
X0124927Y0040640D01*
X0124927Y0033903D01*
X0126157Y0032672D01*
X0168868Y0032672D01*
X0169251Y0031749D01*
X0169978Y0031022D01*
X0122960Y0031022D01*
X0120902Y0030169D01*
X0118391Y0027658D01*
X0118391Y0029038D01*
X0117454Y0029975D01*
X0096443Y0029975D01*
X0095506Y0029038D01*
X0095506Y0021129D01*
X0091313Y0021129D01*
X0090431Y0020764D01*
X0089756Y0020089D01*
X0082923Y0013255D01*
X0058927Y0013255D01*
X0058210Y0013972D01*
X0058999Y0013972D01*
X0079176Y0013972D01*
X0080407Y0015202D01*
X0081808Y0016603D02*
X0086271Y0016603D01*
X0087869Y0018202D02*
X0083407Y0018202D01*
X0085005Y0019800D02*
X0089468Y0019800D01*
X0086604Y0021399D02*
X0095506Y0021399D01*
X0095506Y0022997D02*
X0088202Y0022997D01*
X0089801Y0024596D02*
X0095506Y0024596D01*
X0095506Y0026194D02*
X0091399Y0026194D01*
X0092998Y0027793D02*
X0095506Y0027793D01*
X0095860Y0029391D02*
X0094596Y0029391D01*
X0094678Y0030990D02*
X0122883Y0030990D01*
X0120124Y0029391D02*
X0118037Y0029391D01*
X0118391Y0027793D02*
X0118526Y0027793D01*
X0118462Y0032588D02*
X0168903Y0032588D01*
X0173732Y0030484D02*
X0174342Y0030736D01*
X0175355Y0031749D01*
X0175903Y0033072D01*
X0175903Y0034418D01*
X0177355Y0035871D01*
X0177355Y0070057D01*
X0177561Y0069851D01*
X0177561Y0068505D01*
X0178109Y0067182D01*
X0179122Y0066169D01*
X0180445Y0065621D01*
X0181877Y0065621D01*
X0183200Y0066169D01*
X0184213Y0067182D01*
X0184761Y0068505D01*
X0184761Y0069937D01*
X0184590Y0070350D01*
X0188437Y0070350D01*
X0190181Y0068605D01*
X0190181Y0033617D01*
X0188914Y0032350D01*
X0188676Y0032350D01*
X0187649Y0031924D01*
X0186863Y0031138D01*
X0186438Y0030112D01*
X0186438Y0029000D01*
X0186863Y0027973D01*
X0187649Y0027188D01*
X0188453Y0026854D01*
X0184747Y0023148D01*
X0181512Y0023148D01*
X0176066Y0028594D01*
X0174491Y0030169D01*
X0173732Y0030484D01*
X0174595Y0030990D02*
X0186802Y0030990D01*
X0186438Y0029391D02*
X0175269Y0029391D01*
X0176867Y0027793D02*
X0187044Y0027793D01*
X0187793Y0026194D02*
X0178466Y0026194D01*
X0180064Y0024596D02*
X0186195Y0024596D01*
X0189153Y0032588D02*
X0175702Y0032588D01*
X0175903Y0034187D02*
X0190181Y0034187D01*
X0190181Y0035785D02*
X0177270Y0035785D01*
X0177355Y0037384D02*
X0190181Y0037384D01*
X0190181Y0038982D02*
X0177355Y0038982D01*
X0177355Y0040581D02*
X0190181Y0040581D01*
X0190181Y0042179D02*
X0177355Y0042179D01*
X0177355Y0043778D02*
X0190181Y0043778D01*
X0190181Y0045376D02*
X0177355Y0045376D01*
X0177355Y0046975D02*
X0190181Y0046975D01*
X0190181Y0048574D02*
X0177355Y0048574D01*
X0177355Y0050172D02*
X0190181Y0050172D01*
X0190181Y0051771D02*
X0177355Y0051771D01*
X0177355Y0053369D02*
X0190181Y0053369D01*
X0190181Y0054968D02*
X0177355Y0054968D01*
X0177355Y0056566D02*
X0190181Y0056566D01*
X0190181Y0058165D02*
X0177355Y0058165D01*
X0177355Y0059763D02*
X0190181Y0059763D01*
X0190181Y0061362D02*
X0177355Y0061362D01*
X0177355Y0062960D02*
X0190181Y0062960D01*
X0190181Y0064559D02*
X0177355Y0064559D01*
X0177355Y0066157D02*
X0179151Y0066157D01*
X0177871Y0067756D02*
X0177355Y0067756D01*
X0177355Y0069354D02*
X0177561Y0069354D01*
X0183171Y0066157D02*
X0190181Y0066157D01*
X0190181Y0067756D02*
X0184450Y0067756D01*
X0184761Y0069354D02*
X0189432Y0069354D01*
X0193217Y0071792D02*
X0193277Y0071852D01*
X0193277Y0071732D01*
X0193217Y0071792D01*
X0193277Y0078047D02*
X0192475Y0078849D01*
X0190785Y0079550D01*
X0182955Y0079550D01*
X0182129Y0079208D01*
X0181752Y0080119D01*
X0180739Y0081131D01*
X0179416Y0081680D01*
X0177984Y0081680D01*
X0177355Y0081419D01*
X0177355Y0098080D01*
X0178382Y0097053D01*
X0179957Y0095478D01*
X0182015Y0094625D01*
X0184747Y0094625D01*
X0189822Y0089550D01*
X0182955Y0089550D01*
X0181264Y0088849D01*
X0179970Y0087555D01*
X0179270Y0085865D01*
X0179270Y0084035D01*
X0179970Y0082344D01*
X0181264Y0081050D01*
X0182955Y0080350D01*
X0190785Y0080350D01*
X0192475Y0081050D01*
X0193277Y0081852D01*
X0193277Y0078047D01*
X0193277Y0078945D02*
X0192244Y0078945D01*
X0191253Y0080544D02*
X0193277Y0080544D01*
X0182486Y0080544D02*
X0181327Y0080544D01*
X0180172Y0082142D02*
X0177355Y0082142D01*
X0177355Y0083741D02*
X0179391Y0083741D01*
X0179270Y0085339D02*
X0177355Y0085339D01*
X0177355Y0086938D02*
X0179714Y0086938D01*
X0180951Y0088536D02*
X0177355Y0088536D01*
X0177355Y0090135D02*
X0189237Y0090135D01*
X0187639Y0091733D02*
X0177355Y0091733D01*
X0177355Y0093332D02*
X0186040Y0093332D01*
X0181279Y0094930D02*
X0177355Y0094930D01*
X0177355Y0096529D02*
X0178906Y0096529D01*
X0178382Y0097053D02*
X0178382Y0097053D01*
X0169218Y0090743D02*
X0167768Y0090743D01*
X0168029Y0090115D01*
X0168029Y0088768D01*
X0168743Y0088054D01*
X0169218Y0087578D01*
X0169218Y0090743D01*
X0169218Y0090135D02*
X0168020Y0090135D01*
X0168261Y0088536D02*
X0169218Y0088536D01*
X0165773Y0085084D02*
X0165241Y0085616D01*
X0165241Y0081846D01*
X0164929Y0081533D01*
X0165773Y0080689D01*
X0165773Y0085084D01*
X0165518Y0085339D02*
X0165241Y0085339D01*
X0165241Y0083741D02*
X0165773Y0083741D01*
X0165773Y0082142D02*
X0165241Y0082142D01*
X0156456Y0078932D02*
X0156399Y0078796D01*
X0156399Y0077363D01*
X0156704Y0076628D01*
X0152545Y0076628D01*
X0151608Y0075691D01*
X0151608Y0072166D01*
X0150895Y0071453D01*
X0149493Y0072855D01*
X0149493Y0076282D01*
X0148556Y0077219D01*
X0146513Y0077219D01*
X0146811Y0077517D01*
X0147359Y0078840D01*
X0147359Y0080272D01*
X0147096Y0080909D01*
X0148753Y0080909D01*
X0149041Y0081197D01*
X0149041Y0081147D01*
X0150025Y0080162D01*
X0151256Y0078932D01*
X0156456Y0078932D01*
X0156406Y0077347D02*
X0146641Y0077347D01*
X0147359Y0078945D02*
X0151243Y0078945D01*
X0149644Y0080544D02*
X0147247Y0080544D01*
X0141005Y0077219D02*
X0140608Y0077219D01*
X0140807Y0077417D01*
X0141005Y0077219D01*
X0140877Y0077347D02*
X0140736Y0077347D01*
X0135653Y0076665D02*
X0135270Y0076282D01*
X0135270Y0071019D01*
X0136207Y0070082D01*
X0136738Y0070082D01*
X0136738Y0068368D01*
X0130399Y0068368D01*
X0130399Y0068801D01*
X0129461Y0069739D01*
X0128635Y0069739D01*
X0128635Y0073231D01*
X0129658Y0073231D01*
X0130596Y0074169D01*
X0130596Y0079431D01*
X0129658Y0080368D01*
X0129127Y0080368D01*
X0129127Y0088917D01*
X0130051Y0089299D01*
X0130472Y0089721D01*
X0130833Y0089360D01*
X0130833Y0083607D01*
X0132063Y0082377D01*
X0134254Y0080186D01*
X0134254Y0078840D01*
X0134802Y0077517D01*
X0135653Y0076665D01*
X0134972Y0077347D02*
X0130596Y0077347D01*
X0130596Y0078945D02*
X0134254Y0078945D01*
X0133896Y0080544D02*
X0129127Y0080544D01*
X0129127Y0082142D02*
X0132298Y0082142D01*
X0130833Y0083741D02*
X0129127Y0083741D01*
X0129127Y0085339D02*
X0130833Y0085339D01*
X0130833Y0086938D02*
X0129127Y0086938D01*
X0129127Y0088536D02*
X0130833Y0088536D01*
X0135033Y0088536D02*
X0140419Y0088536D01*
X0140675Y0088792D02*
X0139929Y0088046D01*
X0136404Y0088046D01*
X0135466Y0087108D01*
X0135466Y0084913D01*
X0135033Y0085347D01*
X0135033Y0089360D01*
X0135984Y0090312D01*
X0136533Y0091635D01*
X0136533Y0093067D01*
X0135984Y0094390D01*
X0134972Y0095403D01*
X0133649Y0095951D01*
X0132216Y0095951D01*
X0130893Y0095403D01*
X0130472Y0094982D01*
X0130051Y0095403D01*
X0129387Y0095678D01*
X0130357Y0096649D01*
X0151739Y0096649D01*
X0151478Y0096020D01*
X0151478Y0095459D01*
X0150425Y0095459D01*
X0149102Y0094911D01*
X0148089Y0093898D01*
X0147541Y0092575D01*
X0147541Y0091143D01*
X0148006Y0090022D01*
X0141905Y0090022D01*
X0140675Y0088792D01*
X0135807Y0090135D02*
X0147959Y0090135D01*
X0147541Y0091733D02*
X0136533Y0091733D01*
X0136423Y0093332D02*
X0147855Y0093332D01*
X0149149Y0094930D02*
X0135445Y0094930D01*
X0130238Y0096529D02*
X0151689Y0096529D01*
X0155794Y0091704D02*
X0157117Y0092252D01*
X0158069Y0093204D01*
X0160343Y0093204D01*
X0158884Y0091745D01*
X0158884Y0091253D01*
X0155677Y0088046D01*
X0153241Y0088046D01*
X0153241Y0088868D01*
X0154193Y0089820D01*
X0154741Y0091143D01*
X0154741Y0091704D01*
X0155794Y0091704D01*
X0155865Y0091733D02*
X0158884Y0091733D01*
X0157766Y0090135D02*
X0154324Y0090135D01*
X0153241Y0088536D02*
X0156168Y0088536D01*
X0151665Y0075748D02*
X0149493Y0075748D01*
X0149493Y0074150D02*
X0151608Y0074150D01*
X0151608Y0072551D02*
X0149797Y0072551D01*
X0147054Y0069354D02*
X0140938Y0069354D01*
X0140938Y0070082D02*
X0141863Y0070082D01*
X0142381Y0070600D01*
X0142900Y0070082D01*
X0146326Y0070082D01*
X0147925Y0068483D01*
X0147565Y0068123D01*
X0147565Y0065408D01*
X0142112Y0065408D01*
X0141594Y0064889D01*
X0141076Y0065408D01*
X0140938Y0065408D01*
X0140938Y0070082D01*
X0140938Y0067756D02*
X0147565Y0067756D01*
X0147565Y0066157D02*
X0140938Y0066157D01*
X0136738Y0069354D02*
X0129846Y0069354D01*
X0128635Y0070953D02*
X0135336Y0070953D01*
X0135270Y0072551D02*
X0128635Y0072551D01*
X0130576Y0074150D02*
X0135270Y0074150D01*
X0135270Y0075748D02*
X0130596Y0075748D01*
X0124435Y0073231D02*
X0124435Y0069739D01*
X0123805Y0069739D01*
X0123287Y0069220D01*
X0122769Y0069739D01*
X0118300Y0069739D01*
X0118300Y0073231D01*
X0122965Y0073231D01*
X0123484Y0073750D01*
X0124002Y0073231D01*
X0124435Y0073231D01*
X0124435Y0072551D02*
X0118300Y0072551D01*
X0118300Y0070953D02*
X0124435Y0070953D01*
X0123421Y0069354D02*
X0123153Y0069354D01*
X0130399Y0064169D02*
X0134482Y0064169D01*
X0134482Y0059208D01*
X0135419Y0058271D01*
X0141076Y0058271D01*
X0141594Y0058789D01*
X0142112Y0058271D01*
X0142644Y0058271D01*
X0142644Y0057788D01*
X0138649Y0053794D01*
X0135223Y0053794D01*
X0134285Y0052856D01*
X0134285Y0052630D01*
X0130792Y0056123D01*
X0130792Y0059549D01*
X0129855Y0060487D01*
X0124199Y0060487D01*
X0123681Y0059968D01*
X0123162Y0060487D01*
X0118552Y0060487D01*
X0118816Y0061123D01*
X0118816Y0062555D01*
X0118797Y0062602D01*
X0122769Y0062602D01*
X0123287Y0063120D01*
X0123805Y0062602D01*
X0129461Y0062602D01*
X0130399Y0063539D01*
X0130399Y0064169D01*
X0129820Y0062960D02*
X0134482Y0062960D01*
X0134482Y0061362D02*
X0118816Y0061362D01*
X0123127Y0062960D02*
X0123447Y0062960D01*
X0130579Y0059763D02*
X0134482Y0059763D01*
X0130792Y0058165D02*
X0142644Y0058165D01*
X0141422Y0056566D02*
X0130792Y0056566D01*
X0131947Y0054968D02*
X0139823Y0054968D01*
X0144589Y0053794D02*
X0147565Y0053794D01*
X0147565Y0058271D01*
X0146844Y0058271D01*
X0146844Y0056048D01*
X0145613Y0054818D01*
X0144589Y0053794D01*
X0145763Y0054968D02*
X0147565Y0054968D01*
X0147565Y0056566D02*
X0146844Y0056566D01*
X0146844Y0058165D02*
X0147565Y0058165D01*
X0151765Y0058165D02*
X0156800Y0058165D01*
X0155201Y0056566D02*
X0151765Y0056566D01*
X0152394Y0055105D02*
X0151765Y0054844D01*
X0151765Y0066383D01*
X0152995Y0067613D01*
X0152995Y0067613D01*
X0154873Y0069491D01*
X0158202Y0069491D01*
X0158720Y0070010D01*
X0159238Y0069491D01*
X0159868Y0069491D01*
X0159868Y0061233D01*
X0153740Y0055105D01*
X0152394Y0055105D01*
X0152063Y0054968D02*
X0151765Y0054968D01*
X0156710Y0052135D02*
X0162838Y0058263D01*
X0163805Y0059230D01*
X0163805Y0056581D01*
X0163713Y0056581D01*
X0162389Y0056033D01*
X0161377Y0055020D01*
X0160829Y0053697D01*
X0160829Y0052265D01*
X0161377Y0050942D01*
X0162389Y0049929D01*
X0163713Y0049381D01*
X0165145Y0049381D01*
X0165773Y0049642D01*
X0165773Y0045145D01*
X0164822Y0044194D01*
X0164273Y0042870D01*
X0164273Y0041438D01*
X0164534Y0040809D01*
X0156218Y0040809D01*
X0156218Y0041394D01*
X0155670Y0042717D01*
X0154657Y0043730D01*
X0153334Y0044278D01*
X0151901Y0044278D01*
X0151765Y0044221D01*
X0151765Y0048165D01*
X0152394Y0047905D01*
X0153826Y0047905D01*
X0155149Y0048453D01*
X0156162Y0049465D01*
X0156710Y0050789D01*
X0156710Y0052135D01*
X0156710Y0051771D02*
X0161033Y0051771D01*
X0162147Y0050172D02*
X0156454Y0050172D01*
X0155270Y0048574D02*
X0165773Y0048574D01*
X0165773Y0046975D02*
X0151765Y0046975D01*
X0151765Y0045376D02*
X0165773Y0045376D01*
X0164649Y0043778D02*
X0154541Y0043778D01*
X0155892Y0042179D02*
X0164273Y0042179D01*
X0151485Y0036872D02*
X0148312Y0036872D01*
X0148312Y0039308D01*
X0149018Y0040014D01*
X0149018Y0039962D01*
X0149566Y0038639D01*
X0150578Y0037626D01*
X0150839Y0037518D01*
X0151485Y0036872D01*
X0150973Y0037384D02*
X0148312Y0037384D01*
X0148312Y0038982D02*
X0149423Y0038982D01*
X0144356Y0041983D02*
X0143163Y0041983D01*
X0143338Y0042055D01*
X0143759Y0042477D01*
X0144181Y0042055D01*
X0144356Y0041983D01*
X0144056Y0042179D02*
X0143462Y0042179D01*
X0141243Y0041507D02*
X0141200Y0041464D01*
X0141157Y0041507D01*
X0141243Y0041507D01*
X0139434Y0041983D02*
X0137550Y0041983D01*
X0136717Y0042816D01*
X0136969Y0043068D01*
X0137517Y0044391D01*
X0137517Y0045823D01*
X0137449Y0045987D01*
X0137476Y0045960D01*
X0137699Y0045737D01*
X0137699Y0044391D01*
X0138247Y0043068D01*
X0139259Y0042055D01*
X0139434Y0041983D01*
X0139135Y0042179D02*
X0137354Y0042179D01*
X0137263Y0043778D02*
X0137953Y0043778D01*
X0137699Y0045376D02*
X0137517Y0045376D01*
X0132309Y0048338D02*
X0131878Y0048159D01*
X0130865Y0047146D01*
X0130317Y0045823D01*
X0130317Y0045096D01*
X0130079Y0045670D01*
X0129066Y0046683D01*
X0127743Y0047231D01*
X0126397Y0047231D01*
X0122729Y0050898D01*
X0122729Y0053350D01*
X0123162Y0053350D01*
X0123681Y0053868D01*
X0124199Y0053350D01*
X0127626Y0053350D01*
X0132309Y0048666D01*
X0132309Y0048338D01*
X0132309Y0048574D02*
X0125054Y0048574D01*
X0123456Y0050172D02*
X0130803Y0050172D01*
X0129205Y0051771D02*
X0122729Y0051771D01*
X0123182Y0053369D02*
X0124179Y0053369D01*
X0118529Y0053350D02*
X0118529Y0049158D01*
X0119760Y0047928D01*
X0120949Y0046739D01*
X0120898Y0046739D01*
X0119574Y0046191D01*
X0118562Y0045178D01*
X0118014Y0043855D01*
X0118014Y0042508D01*
X0117316Y0041811D01*
X0117316Y0053540D01*
X0117506Y0053350D01*
X0118529Y0053350D01*
X0117487Y0053369D02*
X0117316Y0053369D01*
X0117316Y0051771D02*
X0118529Y0051771D01*
X0118529Y0050172D02*
X0117316Y0050172D01*
X0117316Y0048574D02*
X0119114Y0048574D01*
X0120713Y0046975D02*
X0117316Y0046975D01*
X0117316Y0045376D02*
X0118760Y0045376D01*
X0118014Y0043778D02*
X0117316Y0043778D01*
X0117316Y0042179D02*
X0117685Y0042179D01*
X0120427Y0038982D02*
X0124927Y0038982D01*
X0124927Y0040581D02*
X0124147Y0040581D01*
X0124927Y0037384D02*
X0119284Y0037384D01*
X0119284Y0035785D02*
X0124927Y0035785D01*
X0124927Y0034187D02*
X0119284Y0034187D01*
X0129127Y0036872D02*
X0129127Y0040640D01*
X0130079Y0041591D01*
X0130627Y0042915D01*
X0130627Y0043642D01*
X0130865Y0043068D01*
X0131878Y0042055D01*
X0132309Y0041876D01*
X0132309Y0041284D01*
X0134088Y0039505D01*
X0134088Y0036872D01*
X0129127Y0036872D01*
X0129127Y0037384D02*
X0134088Y0037384D01*
X0134088Y0038982D02*
X0129127Y0038982D01*
X0129127Y0040581D02*
X0133012Y0040581D01*
X0131753Y0042179D02*
X0130323Y0042179D01*
X0130317Y0045376D02*
X0130201Y0045376D01*
X0130794Y0046975D02*
X0128360Y0046975D01*
X0133546Y0053369D02*
X0134798Y0053369D01*
X0151765Y0059763D02*
X0158398Y0059763D01*
X0159868Y0061362D02*
X0151765Y0061362D01*
X0151765Y0062960D02*
X0159868Y0062960D01*
X0159868Y0064559D02*
X0151765Y0064559D01*
X0151765Y0066157D02*
X0159868Y0066157D01*
X0159868Y0067756D02*
X0153138Y0067756D01*
X0151765Y0066383D02*
X0151765Y0066383D01*
X0151765Y0066383D01*
X0154736Y0069354D02*
X0159868Y0069354D01*
X0162739Y0058165D02*
X0163805Y0058165D01*
X0163676Y0056566D02*
X0161141Y0056566D01*
X0161355Y0054968D02*
X0159542Y0054968D01*
X0160829Y0053369D02*
X0157944Y0053369D01*
X0116537Y0082371D02*
X0115330Y0081164D01*
X0114100Y0079934D01*
X0114100Y0067876D01*
X0113362Y0067876D01*
X0112132Y0066646D01*
X0109671Y0064186D01*
X0109671Y0059699D01*
X0108451Y0059699D01*
X0107933Y0059181D01*
X0107414Y0059699D01*
X0104086Y0059699D01*
X0102552Y0061233D01*
X0102552Y0072552D01*
X0101322Y0073782D01*
X0100624Y0074480D01*
X0100676Y0074480D01*
X0101999Y0075028D01*
X0103012Y0076040D01*
X0103560Y0077363D01*
X0103560Y0078796D01*
X0103012Y0080119D01*
X0101999Y0081131D01*
X0100676Y0081680D01*
X0099244Y0081680D01*
X0099080Y0081612D01*
X0100830Y0083361D01*
X0102060Y0084592D01*
X0102060Y0086899D01*
X0103012Y0087851D01*
X0103560Y0089174D01*
X0103560Y0090607D01*
X0103500Y0090751D01*
X0104742Y0090751D01*
X0105810Y0091819D01*
X0105848Y0091857D01*
X0106110Y0092119D01*
X0106365Y0091864D01*
X0107478Y0090751D01*
X0111187Y0090751D01*
X0113368Y0092932D01*
X0113368Y0094506D01*
X0112255Y0095619D01*
X0110681Y0095619D01*
X0109613Y0094551D01*
X0109098Y0094551D01*
X0109098Y0097157D01*
X0109613Y0097157D01*
X0110681Y0096089D01*
X0112255Y0096089D01*
X0112556Y0096390D01*
X0113878Y0095067D01*
X0113878Y0091864D01*
X0114991Y0090751D01*
X0116565Y0090751D01*
X0117678Y0091864D01*
X0117678Y0095067D01*
X0118701Y0096089D01*
X0119814Y0097202D01*
X0119814Y0099844D01*
X0118701Y0100957D01*
X0117127Y0100957D01*
X0116014Y0099844D01*
X0116014Y0098776D01*
X0115778Y0098541D01*
X0115543Y0098776D01*
X0115543Y0099844D01*
X0114430Y0100957D01*
X0112856Y0100957D01*
X0112022Y0100122D01*
X0111203Y0100941D01*
X0111187Y0100957D01*
X0107478Y0100957D01*
X0106411Y0099889D01*
X0106110Y0099588D01*
X0104758Y0100941D01*
X0104742Y0100957D01*
X0101033Y0100957D01*
X0099965Y0099889D01*
X0098852Y0098776D01*
X0098852Y0093328D01*
X0097921Y0092942D01*
X0096908Y0091930D01*
X0096360Y0090607D01*
X0096360Y0089174D01*
X0096908Y0087851D01*
X0097860Y0086899D01*
X0097860Y0086331D01*
X0094178Y0082649D01*
X0094178Y0085337D01*
X0093241Y0086274D01*
X0089248Y0086274D01*
X0088740Y0087501D01*
X0087728Y0088513D01*
X0086405Y0089061D01*
X0084972Y0089061D01*
X0083649Y0088513D01*
X0082637Y0087501D01*
X0082088Y0086177D01*
X0082088Y0084745D01*
X0082637Y0083422D01*
X0083588Y0082470D01*
X0083588Y0081639D01*
X0084819Y0080409D01*
X0087041Y0080409D01*
X0087041Y0079681D01*
X0087560Y0079162D01*
X0087261Y0078864D01*
X0086405Y0079219D01*
X0084972Y0079219D01*
X0083649Y0078671D01*
X0082637Y0077658D01*
X0082088Y0076335D01*
X0082088Y0074903D01*
X0082637Y0073580D01*
X0083649Y0072567D01*
X0084972Y0072019D01*
X0086405Y0072019D01*
X0087540Y0072489D01*
X0087978Y0072050D01*
X0090961Y0072050D01*
X0080389Y0061479D01*
X0079159Y0060249D01*
X0079159Y0052416D01*
X0077939Y0052416D01*
X0077002Y0051478D01*
X0077002Y0050652D01*
X0072525Y0050652D01*
X0072525Y0051675D01*
X0071587Y0052613D01*
X0069832Y0052613D01*
X0070096Y0053249D01*
X0070096Y0054681D01*
X0069547Y0056005D01*
X0068535Y0057017D01*
X0067212Y0057565D01*
X0065779Y0057565D01*
X0064456Y0057017D01*
X0063444Y0056005D01*
X0062896Y0054681D01*
X0062896Y0053249D01*
X0063159Y0052613D01*
X0059238Y0052613D01*
X0058301Y0051675D01*
X0058301Y0046413D01*
X0059238Y0045476D01*
X0059966Y0045476D01*
X0059966Y0041786D01*
X0058451Y0041786D01*
X0057514Y0040849D01*
X0057514Y0037127D01*
X0057260Y0036872D01*
X0056999Y0036612D01*
X0056835Y0036680D01*
X0052526Y0036680D01*
X0051890Y0037316D01*
X0050574Y0037861D01*
X0049149Y0037861D01*
X0047833Y0037316D01*
X0046826Y0036309D01*
X0046281Y0034993D01*
X0046281Y0033568D01*
X0046826Y0032252D01*
X0047833Y0031244D01*
X0049149Y0030699D01*
X0050574Y0030699D01*
X0051890Y0031244D01*
X0052526Y0031880D01*
X0055364Y0031880D01*
X0056029Y0031215D01*
X0056029Y0030758D01*
X0055051Y0030353D01*
X0053757Y0029059D01*
X0053057Y0027369D01*
X0053057Y0019539D01*
X0053350Y0018832D01*
X0043797Y0028385D01*
X0043797Y0040860D01*
X0043432Y0041742D01*
X0042757Y0042417D01*
X0036317Y0048857D01*
X0036317Y0063011D01*
X0044219Y0070913D01*
X0044584Y0071795D01*
X0044584Y0093168D01*
X0044978Y0094119D01*
X0044978Y0095308D01*
X0044809Y0095717D01*
X0048506Y0099415D01*
X0050082Y0100990D01*
X0050226Y0101338D01*
X0050577Y0100987D01*
X0071587Y0100987D01*
X0072525Y0101925D01*
X0072525Y0108422D01*
X0076020Y0104927D01*
X0077595Y0103352D01*
X0079653Y0102499D01*
X0084962Y0102499D01*
X0083090Y0100627D01*
X0082754Y0100488D01*
X0082079Y0099813D01*
X0070859Y0088593D01*
X0070493Y0087710D01*
X0070493Y0079959D01*
X0060679Y0070145D01*
X0056022Y0070145D01*
X0055886Y0070280D01*
X0054787Y0070735D01*
X0053598Y0070735D01*
X0052498Y0070280D01*
X0051657Y0069439D01*
X0051202Y0068340D01*
X0051202Y0067150D01*
X0051657Y0066051D01*
X0052498Y0065210D01*
X0053598Y0064754D01*
X0054787Y0064754D01*
X0055886Y0065210D01*
X0056022Y0065345D01*
X0062150Y0065345D01*
X0063032Y0065710D01*
X0074253Y0076931D01*
X0074928Y0077606D01*
X0075293Y0078488D01*
X0075293Y0086239D01*
X0085334Y0096280D01*
X0085670Y0096419D01*
X0090029Y0100778D01*
X0099945Y0100778D01*
X0100827Y0101143D01*
X0108301Y0108617D01*
X0108301Y0102712D01*
X0109238Y0101775D01*
X0130249Y0101775D01*
X0131186Y0102712D01*
X0131186Y0104879D01*
X0135216Y0100849D01*
X0128618Y0100849D01*
X0127388Y0099619D01*
X0127388Y0099619D01*
X0122466Y0094697D01*
X0122466Y0085763D01*
X0122177Y0086053D01*
X0120853Y0086601D01*
X0119421Y0086601D01*
X0118098Y0086053D01*
X0117085Y0085040D01*
X0116537Y0083717D01*
X0116537Y0082371D01*
X0116309Y0082142D02*
X0099611Y0082142D01*
X0101209Y0083741D02*
X0116547Y0083741D01*
X0117385Y0085339D02*
X0102060Y0085339D01*
X0102098Y0086938D02*
X0122466Y0086938D01*
X0122466Y0088536D02*
X0103296Y0088536D01*
X0103560Y0090135D02*
X0122466Y0090135D01*
X0122466Y0091733D02*
X0117548Y0091733D01*
X0117678Y0093332D02*
X0122466Y0093332D01*
X0122699Y0094930D02*
X0117678Y0094930D01*
X0119140Y0096529D02*
X0124298Y0096529D01*
X0125896Y0098127D02*
X0119814Y0098127D01*
X0119814Y0099726D02*
X0127495Y0099726D01*
X0131186Y0102923D02*
X0133142Y0102923D01*
X0131544Y0104521D02*
X0131186Y0104521D01*
X0134741Y0101324D02*
X0101009Y0101324D01*
X0099965Y0099889D02*
X0099965Y0099889D01*
X0099802Y0099726D02*
X0088977Y0099726D01*
X0087378Y0098127D02*
X0098852Y0098127D01*
X0098852Y0096529D02*
X0085780Y0096529D01*
X0083985Y0094930D02*
X0098852Y0094930D01*
X0098852Y0093332D02*
X0082386Y0093332D01*
X0080788Y0091733D02*
X0096827Y0091733D01*
X0096360Y0090135D02*
X0079189Y0090135D01*
X0077590Y0088536D02*
X0083705Y0088536D01*
X0082403Y0086938D02*
X0075992Y0086938D01*
X0072893Y0087233D02*
X0084114Y0098454D01*
X0084310Y0098454D01*
X0089035Y0103178D01*
X0099468Y0103178D01*
X0108523Y0112233D01*
X0116988Y0112233D01*
X0117185Y0112036D01*
X0108301Y0107718D02*
X0107403Y0107718D01*
X0108301Y0106120D02*
X0105804Y0106120D01*
X0104206Y0104521D02*
X0108301Y0104521D01*
X0108301Y0102923D02*
X0102607Y0102923D01*
X0105973Y0099726D02*
X0106248Y0099726D01*
X0109098Y0096529D02*
X0110241Y0096529D01*
X0109993Y0094930D02*
X0109098Y0094930D01*
X0112943Y0094930D02*
X0113878Y0094930D01*
X0113878Y0093332D02*
X0113368Y0093332D01*
X0114009Y0091733D02*
X0112170Y0091733D01*
X0106496Y0091733D02*
X0105724Y0091733D01*
X0105810Y0091819D02*
X0105810Y0091819D01*
X0097822Y0086938D02*
X0088974Y0086938D01*
X0087672Y0088536D02*
X0096624Y0088536D01*
X0096868Y0085339D02*
X0094176Y0085339D01*
X0094178Y0083741D02*
X0095270Y0083741D01*
X0102587Y0080544D02*
X0114710Y0080544D01*
X0114100Y0078945D02*
X0103498Y0078945D01*
X0103553Y0077347D02*
X0114100Y0077347D01*
X0114100Y0075748D02*
X0102720Y0075748D01*
X0100954Y0074150D02*
X0114100Y0074150D01*
X0114100Y0072551D02*
X0102552Y0072551D01*
X0102552Y0070953D02*
X0114100Y0070953D01*
X0114100Y0069354D02*
X0102552Y0069354D01*
X0102552Y0067756D02*
X0113241Y0067756D01*
X0111643Y0066157D02*
X0102552Y0066157D01*
X0102552Y0064559D02*
X0110044Y0064559D01*
X0109671Y0062960D02*
X0102552Y0062960D01*
X0102552Y0061362D02*
X0109671Y0061362D01*
X0109671Y0059763D02*
X0104022Y0059763D01*
X0100821Y0057025D02*
X0100821Y0056029D01*
X0100676Y0056089D01*
X0099244Y0056089D01*
X0097921Y0055541D01*
X0096908Y0054528D01*
X0096360Y0053205D01*
X0096360Y0051773D01*
X0096583Y0051235D01*
X0095326Y0051235D01*
X0093202Y0053359D01*
X0093202Y0055403D01*
X0094154Y0056355D01*
X0094702Y0057678D01*
X0094702Y0059111D01*
X0094154Y0060434D01*
X0093141Y0061446D01*
X0091818Y0061994D01*
X0091766Y0061994D01*
X0096377Y0066606D01*
X0097723Y0066606D01*
X0098352Y0066866D01*
X0098352Y0059493D01*
X0099582Y0058263D01*
X0100821Y0057025D01*
X0100821Y0056566D02*
X0094241Y0056566D01*
X0094702Y0058165D02*
X0099681Y0058165D01*
X0098352Y0059763D02*
X0094432Y0059763D01*
X0093226Y0061362D02*
X0098352Y0061362D01*
X0098352Y0062960D02*
X0092732Y0062960D01*
X0094330Y0064559D02*
X0098352Y0064559D01*
X0098352Y0066157D02*
X0095929Y0066157D01*
X0089863Y0070953D02*
X0068275Y0070953D01*
X0069873Y0072551D02*
X0083687Y0072551D01*
X0082400Y0074150D02*
X0071472Y0074150D01*
X0073070Y0075748D02*
X0082088Y0075748D01*
X0082508Y0077347D02*
X0074669Y0077347D01*
X0075293Y0078945D02*
X0084312Y0078945D01*
X0084684Y0080544D02*
X0075293Y0080544D01*
X0075293Y0082142D02*
X0083588Y0082142D01*
X0082505Y0083741D02*
X0075293Y0083741D01*
X0075293Y0085339D02*
X0082088Y0085339D01*
X0072893Y0087233D02*
X0072893Y0078965D01*
X0061673Y0067745D01*
X0054389Y0067745D01*
X0051202Y0067756D02*
X0041062Y0067756D01*
X0042660Y0069354D02*
X0051622Y0069354D01*
X0051613Y0066157D02*
X0039463Y0066157D01*
X0037865Y0064559D02*
X0083469Y0064559D01*
X0081871Y0062960D02*
X0036317Y0062960D01*
X0036317Y0061362D02*
X0080272Y0061362D01*
X0079159Y0059763D02*
X0036317Y0059763D01*
X0036317Y0058165D02*
X0079159Y0058165D01*
X0079159Y0056566D02*
X0068986Y0056566D01*
X0069977Y0054968D02*
X0079159Y0054968D01*
X0079159Y0053369D02*
X0070096Y0053369D01*
X0072429Y0051771D02*
X0077294Y0051771D01*
X0083359Y0052416D02*
X0083359Y0055632D01*
X0083649Y0055343D01*
X0084972Y0054794D01*
X0085065Y0054794D01*
X0085065Y0052416D01*
X0084632Y0052416D01*
X0084114Y0051897D01*
X0083595Y0052416D01*
X0083359Y0052416D01*
X0083359Y0053369D02*
X0085065Y0053369D01*
X0084555Y0054968D02*
X0083359Y0054968D01*
X0091225Y0049396D02*
X0092159Y0048462D01*
X0092159Y0047378D01*
X0091326Y0047723D01*
X0091225Y0047723D01*
X0091225Y0049396D01*
X0091225Y0048574D02*
X0092047Y0048574D01*
X0094790Y0051771D02*
X0096361Y0051771D01*
X0096428Y0053369D02*
X0093202Y0053369D01*
X0093202Y0054968D02*
X0097348Y0054968D01*
X0103560Y0052562D02*
X0103560Y0051773D01*
X0103337Y0051235D01*
X0105446Y0051235D01*
X0106383Y0050297D01*
X0106383Y0047699D01*
X0108301Y0047699D01*
X0108301Y0048329D01*
X0109238Y0049266D01*
X0113116Y0049266D01*
X0113116Y0052562D01*
X0108451Y0052562D01*
X0107933Y0053081D01*
X0107414Y0052562D01*
X0103560Y0052562D01*
X0103559Y0051771D02*
X0113116Y0051771D01*
X0113116Y0050172D02*
X0106383Y0050172D01*
X0106383Y0048574D02*
X0108546Y0048574D01*
X0099633Y0044254D02*
X0098909Y0044254D01*
X0099271Y0044616D01*
X0099633Y0044254D01*
X0098441Y0044098D02*
X0097368Y0043024D01*
X0096326Y0041983D01*
X0093561Y0041983D01*
X0093662Y0042084D01*
X0094210Y0043407D01*
X0094210Y0044098D01*
X0098441Y0044098D01*
X0098122Y0043778D02*
X0094210Y0043778D01*
X0093701Y0042179D02*
X0096523Y0042179D01*
X0085065Y0042179D02*
X0064166Y0042179D01*
X0064166Y0041727D02*
X0064166Y0043499D01*
X0072287Y0043499D01*
X0073517Y0044729D01*
X0074501Y0045714D01*
X0074501Y0046452D01*
X0077002Y0046452D01*
X0077002Y0046216D01*
X0077939Y0045279D01*
X0083595Y0045279D01*
X0084114Y0045797D01*
X0084632Y0045279D01*
X0085065Y0045279D01*
X0085065Y0041786D01*
X0084238Y0041786D01*
X0083720Y0041267D01*
X0083202Y0041786D01*
X0077545Y0041786D01*
X0076608Y0040849D01*
X0076608Y0040317D01*
X0071737Y0040317D01*
X0071737Y0040849D01*
X0070800Y0041786D01*
X0065144Y0041786D01*
X0064625Y0041267D01*
X0064166Y0041727D01*
X0059966Y0042179D02*
X0042994Y0042179D01*
X0043797Y0040581D02*
X0057514Y0040581D01*
X0057514Y0038982D02*
X0043797Y0038982D01*
X0043797Y0037384D02*
X0047997Y0037384D01*
X0046609Y0035785D02*
X0043797Y0035785D01*
X0043797Y0034187D02*
X0046281Y0034187D01*
X0046686Y0032588D02*
X0043797Y0032588D01*
X0043797Y0030990D02*
X0048448Y0030990D01*
X0051276Y0030990D02*
X0056029Y0030990D01*
X0054089Y0029391D02*
X0043797Y0029391D01*
X0044389Y0027793D02*
X0053233Y0027793D01*
X0053057Y0026194D02*
X0045987Y0026194D01*
X0047586Y0024596D02*
X0053057Y0024596D01*
X0053057Y0022997D02*
X0049184Y0022997D01*
X0050783Y0021399D02*
X0053057Y0021399D01*
X0053057Y0019800D02*
X0052381Y0019800D01*
X0058775Y0013406D02*
X0083074Y0013406D01*
X0077467Y0018202D02*
X0071703Y0018202D01*
X0071691Y0018172D02*
X0072257Y0019539D01*
X0072257Y0024769D01*
X0076224Y0028735D01*
X0077391Y0028735D01*
X0076759Y0028474D01*
X0075747Y0027461D01*
X0075199Y0026138D01*
X0075199Y0024706D01*
X0075747Y0023383D01*
X0076759Y0022370D01*
X0078083Y0021822D01*
X0079515Y0021822D01*
X0080838Y0022370D01*
X0081790Y0023322D01*
X0082587Y0023322D01*
X0077437Y0018172D01*
X0071691Y0018172D01*
X0072257Y0019800D02*
X0079065Y0019800D01*
X0080664Y0021399D02*
X0072257Y0021399D01*
X0072257Y0022997D02*
X0076132Y0022997D01*
X0075244Y0024596D02*
X0072257Y0024596D01*
X0073683Y0026194D02*
X0075222Y0026194D01*
X0075281Y0027793D02*
X0076078Y0027793D01*
X0072538Y0030990D02*
X0068726Y0030990D01*
X0068572Y0031054D02*
X0070263Y0030353D01*
X0071082Y0029534D01*
X0073254Y0031705D01*
X0074484Y0032935D01*
X0078151Y0032935D01*
X0078151Y0033028D01*
X0078175Y0033085D01*
X0078175Y0034649D01*
X0077545Y0034649D01*
X0076608Y0035586D01*
X0076608Y0036117D01*
X0071737Y0036117D01*
X0071737Y0035586D01*
X0070800Y0034649D01*
X0065144Y0034649D01*
X0064625Y0035167D01*
X0064107Y0034649D01*
X0060976Y0034649D01*
X0060229Y0033903D01*
X0060229Y0033710D01*
X0060529Y0032986D01*
X0060529Y0032031D01*
X0060229Y0031307D01*
X0060229Y0030367D01*
X0060263Y0030353D01*
X0061557Y0029059D01*
X0062257Y0027369D01*
X0062257Y0019539D01*
X0061691Y0018172D01*
X0063623Y0018172D01*
X0063057Y0019539D01*
X0063057Y0027369D01*
X0063757Y0029059D01*
X0065051Y0030353D01*
X0066742Y0031054D01*
X0068572Y0031054D01*
X0066588Y0030990D02*
X0060229Y0030990D01*
X0061224Y0029391D02*
X0064089Y0029391D01*
X0063233Y0027793D02*
X0062081Y0027793D01*
X0062257Y0026194D02*
X0063057Y0026194D01*
X0063057Y0024596D02*
X0062257Y0024596D01*
X0062257Y0022997D02*
X0063057Y0022997D01*
X0063057Y0021399D02*
X0062257Y0021399D01*
X0062257Y0019800D02*
X0063057Y0019800D01*
X0063611Y0018202D02*
X0061703Y0018202D01*
X0081465Y0022997D02*
X0082262Y0022997D01*
X0087296Y0030984D02*
X0087296Y0034649D01*
X0088510Y0034649D01*
X0088510Y0032197D01*
X0087296Y0030984D01*
X0087296Y0030990D02*
X0087302Y0030990D01*
X0087296Y0032588D02*
X0088510Y0032588D01*
X0088510Y0034187D02*
X0087296Y0034187D01*
X0078175Y0034187D02*
X0060514Y0034187D01*
X0060529Y0032588D02*
X0074137Y0032588D01*
X0071737Y0035785D02*
X0076608Y0035785D01*
X0076608Y0040581D02*
X0071737Y0040581D01*
X0072565Y0043778D02*
X0085065Y0043778D01*
X0084534Y0045376D02*
X0083693Y0045376D01*
X0077841Y0045376D02*
X0074164Y0045376D01*
X0062896Y0053369D02*
X0036317Y0053369D01*
X0036317Y0054968D02*
X0063014Y0054968D01*
X0064005Y0056566D02*
X0036317Y0056566D01*
X0036317Y0051771D02*
X0058396Y0051771D01*
X0058301Y0050172D02*
X0036317Y0050172D01*
X0036600Y0048574D02*
X0058301Y0048574D01*
X0058301Y0046975D02*
X0038199Y0046975D01*
X0039797Y0045376D02*
X0059966Y0045376D01*
X0059966Y0043778D02*
X0041396Y0043778D01*
X0051727Y0037384D02*
X0057514Y0037384D01*
X0056358Y0034280D02*
X0058129Y0032509D01*
X0056358Y0034280D02*
X0049862Y0034280D01*
X0038997Y0030990D02*
X0038797Y0030990D01*
X0038997Y0029391D02*
X0036375Y0029391D01*
X0031853Y0029391D02*
X0021414Y0029391D01*
X0023836Y0030990D02*
X0029431Y0030990D01*
X0028297Y0032588D02*
X0024970Y0032588D01*
X0025626Y0034187D02*
X0027640Y0034187D01*
X0027640Y0035785D02*
X0025626Y0035785D01*
X0025363Y0037384D02*
X0027903Y0037384D01*
X0028566Y0038982D02*
X0024701Y0038982D01*
X0023188Y0040581D02*
X0030079Y0040581D01*
X0033917Y0064005D02*
X0042185Y0072272D01*
X0042185Y0093926D01*
X0039323Y0093332D02*
X0015501Y0093332D01*
X0015501Y0091733D02*
X0039785Y0091733D01*
X0039785Y0090135D02*
X0015501Y0090135D01*
X0015501Y0088536D02*
X0039785Y0088536D01*
X0039785Y0086938D02*
X0015501Y0086938D01*
X0015501Y0085339D02*
X0039785Y0085339D01*
X0039785Y0083741D02*
X0015501Y0083741D01*
X0015501Y0082142D02*
X0039785Y0082142D01*
X0039785Y0080544D02*
X0015501Y0080544D01*
X0015501Y0078945D02*
X0039785Y0078945D01*
X0039785Y0077347D02*
X0015501Y0077347D01*
X0015501Y0075748D02*
X0039785Y0075748D01*
X0039785Y0074150D02*
X0015501Y0074150D01*
X0015501Y0072551D02*
X0039069Y0072551D01*
X0037471Y0070953D02*
X0015501Y0070953D01*
X0015501Y0069354D02*
X0035872Y0069354D01*
X0034274Y0067756D02*
X0015501Y0067756D01*
X0015501Y0066157D02*
X0032675Y0066157D01*
X0044236Y0070953D02*
X0061486Y0070953D01*
X0063085Y0072551D02*
X0044584Y0072551D01*
X0044584Y0074150D02*
X0064683Y0074150D01*
X0066282Y0075748D02*
X0044584Y0075748D01*
X0044584Y0077347D02*
X0067880Y0077347D01*
X0069479Y0078945D02*
X0044584Y0078945D01*
X0044584Y0080544D02*
X0070493Y0080544D01*
X0070493Y0082142D02*
X0044584Y0082142D01*
X0044584Y0083741D02*
X0070493Y0083741D01*
X0070493Y0085339D02*
X0044584Y0085339D01*
X0044584Y0086938D02*
X0070493Y0086938D01*
X0070835Y0088536D02*
X0044584Y0088536D01*
X0044584Y0090135D02*
X0072401Y0090135D01*
X0073999Y0091733D02*
X0044584Y0091733D01*
X0044652Y0093332D02*
X0075598Y0093332D01*
X0077196Y0094930D02*
X0044978Y0094930D01*
X0045620Y0096529D02*
X0078795Y0096529D01*
X0080393Y0098127D02*
X0047219Y0098127D01*
X0048817Y0099726D02*
X0081992Y0099726D01*
X0083787Y0101324D02*
X0071924Y0101324D01*
X0072525Y0102923D02*
X0078630Y0102923D01*
X0076425Y0104521D02*
X0072525Y0104521D01*
X0072525Y0106120D02*
X0074827Y0106120D01*
X0073228Y0107718D02*
X0072525Y0107718D01*
X0050240Y0101324D02*
X0050220Y0101324D01*
X0087065Y0078945D02*
X0087343Y0078945D01*
X0094178Y0076710D02*
X0094178Y0075750D01*
X0096384Y0075750D01*
X0096384Y0077306D01*
X0096360Y0077363D01*
X0096360Y0078796D01*
X0096428Y0078959D01*
X0094178Y0076710D01*
X0094815Y0077347D02*
X0096367Y0077347D01*
X0096414Y0078945D02*
X0096422Y0078945D01*
X0101322Y0073782D02*
X0101322Y0073782D01*
X0088265Y0069354D02*
X0066676Y0069354D01*
X0065078Y0067756D02*
X0086666Y0067756D01*
X0085068Y0066157D02*
X0063479Y0066157D01*
X0105996Y0035396D02*
X0106226Y0035396D01*
X0106226Y0035626D01*
X0105996Y0035396D01*
X0135040Y0085339D02*
X0135466Y0085339D01*
X0135466Y0086938D02*
X0135033Y0086938D01*
X0116014Y0099726D02*
X0115543Y0099726D01*
D18*
X0189232Y0029556D03*
D19*
X0192381Y0032706D01*
X0192381Y0069517D01*
X0186948Y0074950D01*
X0186870Y0074950D01*
D20*
X0054192Y0067745D03*
X0041988Y0094713D03*
D21*
X0061082Y0112430D03*
X0119744Y0113217D03*
X0106948Y0018532D03*
M02*
