G75*
%MOIN*%
%OFA0B0*%
%FSLAX25Y25*%
%IPPOS*%
%LPD*%
%AMOC8*
5,1,8,0,0,1.08239X$1,22.5*
%
%ADD10R,0.05131X0.04737*%
%ADD11R,0.04737X0.05131*%
%ADD12C,0.06800*%
%ADD13C,0.03187*%
%ADD14C,0.04800*%
D10*
X0049040Y0062899D03*
X0055733Y0062899D03*
X0057032Y0074002D03*
X0050339Y0074002D03*
X0058922Y0083883D03*
X0065615Y0083883D03*
X0075142Y0083490D03*
X0081835Y0083490D03*
X0081363Y0094198D03*
X0074670Y0094198D03*
X0064670Y0093608D03*
X0057977Y0093608D03*
X0046087Y0091954D03*
X0039394Y0091954D03*
X0040497Y0101876D03*
X0047189Y0101876D03*
X0096993Y0097820D03*
X0103686Y0097820D03*
X0121245Y0103332D03*
X0127938Y0103332D03*
X0150418Y0104710D03*
X0157111Y0104710D03*
X0158449Y0080301D03*
X0151756Y0080301D03*
X0132623Y0079513D03*
X0125930Y0079513D03*
X0125693Y0068293D03*
X0132386Y0068293D03*
X0121717Y0052348D03*
X0115024Y0052348D03*
D11*
X0105418Y0051285D03*
X0105418Y0057978D03*
X0131441Y0057584D03*
X0131441Y0050891D03*
X0105772Y0083372D03*
X0105772Y0090065D03*
X0093646Y0090025D03*
X0093646Y0083332D03*
X0067229Y0068726D03*
X0067229Y0062033D03*
X0040339Y0077584D03*
X0040339Y0084277D03*
D12*
X0017867Y0087427D02*
X0011867Y0087427D01*
X0011867Y0097427D02*
X0017867Y0097427D01*
X0018221Y0073647D02*
X0012221Y0073647D01*
X0012221Y0063647D02*
X0018221Y0063647D01*
X0172615Y0071482D02*
X0178615Y0071482D01*
X0178615Y0081482D02*
X0172615Y0081482D01*
D13*
X0059867Y0055734D03*
X0054355Y0059080D03*
X0062229Y0065183D03*
X0053371Y0069710D03*
X0096875Y0057702D03*
X0114591Y0072663D03*
D14*
X0115772Y0079454D03*
X0106422Y0076009D03*
X0106422Y0066167D03*
X0115772Y0064691D03*
X0113804Y0057309D03*
X0136441Y0060261D03*
X0142347Y0059277D03*
X0151205Y0068628D03*
X0135949Y0073057D03*
X0150713Y0090773D03*
X0152189Y0095694D03*
X0155142Y0099631D03*
X0163508Y0091757D03*
X0163016Y0084376D03*
X0133489Y0098155D03*
X0116264Y0101600D03*
X0115772Y0094710D03*
X0114788Y0089789D03*
X0081323Y0088313D03*
X0081815Y0099139D03*
X0058686Y0078962D03*
X0052288Y0084376D03*
X0052288Y0089297D03*
X0052288Y0099139D03*
X0062130Y0070596D03*
X0077878Y0066659D03*
X0077386Y0060754D03*
X0080831Y0057309D03*
X0050812Y0056817D03*
X0039493Y0065675D03*
X0024729Y0060261D03*
M02*
