G75*
%MOIN*%
%OFA0B0*%
%FSLAX25Y25*%
%IPPOS*%
%LPD*%
%AMOC8*
5,1,8,0,0,1.08239X$1,22.5*
%
%ADD10C,0.01600*%
%ADD11C,0.02200*%
%ADD12C,0.00100*%
%ADD13R,0.01800X0.03000*%
%ADD14R,0.03000X0.01800*%
D10*
X0036638Y0007584D02*
X0036638Y0051206D01*
X0011441Y0051206D01*
X0007977Y0051206D01*
X0007837Y0051208D01*
X0007697Y0051214D01*
X0007557Y0051224D01*
X0007417Y0051237D01*
X0007278Y0051255D01*
X0007139Y0051277D01*
X0007002Y0051302D01*
X0006864Y0051331D01*
X0006728Y0051364D01*
X0006593Y0051401D01*
X0006459Y0051442D01*
X0006326Y0051487D01*
X0006194Y0051535D01*
X0006064Y0051587D01*
X0005935Y0051642D01*
X0005808Y0051701D01*
X0005682Y0051764D01*
X0005558Y0051830D01*
X0005437Y0051899D01*
X0005317Y0051972D01*
X0005199Y0052049D01*
X0005084Y0052128D01*
X0004970Y0052211D01*
X0004860Y0052297D01*
X0004751Y0052386D01*
X0004645Y0052478D01*
X0004542Y0052573D01*
X0004441Y0052670D01*
X0004344Y0052771D01*
X0004249Y0052874D01*
X0004157Y0052980D01*
X0004068Y0053089D01*
X0003982Y0053199D01*
X0003899Y0053313D01*
X0003820Y0053428D01*
X0003743Y0053546D01*
X0003670Y0053666D01*
X0003601Y0053787D01*
X0003535Y0053911D01*
X0003472Y0054037D01*
X0003413Y0054164D01*
X0003358Y0054293D01*
X0003306Y0054423D01*
X0003258Y0054555D01*
X0003213Y0054688D01*
X0003172Y0054822D01*
X0003135Y0054957D01*
X0003102Y0055093D01*
X0003073Y0055231D01*
X0003048Y0055368D01*
X0003026Y0055507D01*
X0003008Y0055646D01*
X0002995Y0055786D01*
X0002985Y0055926D01*
X0002979Y0056066D01*
X0002977Y0056206D01*
X0002977Y0102112D01*
X0002979Y0102252D01*
X0002985Y0102392D01*
X0002995Y0102532D01*
X0003008Y0102672D01*
X0003026Y0102811D01*
X0003048Y0102950D01*
X0003073Y0103087D01*
X0003102Y0103225D01*
X0003135Y0103361D01*
X0003172Y0103496D01*
X0003213Y0103630D01*
X0003258Y0103763D01*
X0003306Y0103895D01*
X0003358Y0104025D01*
X0003413Y0104154D01*
X0003472Y0104281D01*
X0003535Y0104407D01*
X0003601Y0104531D01*
X0003670Y0104652D01*
X0003743Y0104772D01*
X0003820Y0104890D01*
X0003899Y0105005D01*
X0003982Y0105119D01*
X0004068Y0105229D01*
X0004157Y0105338D01*
X0004249Y0105444D01*
X0004344Y0105547D01*
X0004441Y0105648D01*
X0004542Y0105745D01*
X0004645Y0105840D01*
X0004751Y0105932D01*
X0004860Y0106021D01*
X0004970Y0106107D01*
X0005084Y0106190D01*
X0005199Y0106269D01*
X0005317Y0106346D01*
X0005437Y0106419D01*
X0005558Y0106488D01*
X0005682Y0106554D01*
X0005808Y0106617D01*
X0005935Y0106676D01*
X0006064Y0106731D01*
X0006194Y0106783D01*
X0006326Y0106831D01*
X0006459Y0106876D01*
X0006593Y0106917D01*
X0006728Y0106954D01*
X0006864Y0106987D01*
X0007002Y0107016D01*
X0007139Y0107041D01*
X0007278Y0107063D01*
X0007417Y0107081D01*
X0007557Y0107094D01*
X0007697Y0107104D01*
X0007837Y0107110D01*
X0007977Y0107112D01*
X0037623Y0107112D01*
X0037623Y0149946D01*
X0037625Y0150086D01*
X0037631Y0150226D01*
X0037641Y0150366D01*
X0037654Y0150506D01*
X0037672Y0150645D01*
X0037694Y0150784D01*
X0037719Y0150921D01*
X0037748Y0151059D01*
X0037781Y0151195D01*
X0037818Y0151330D01*
X0037859Y0151464D01*
X0037904Y0151597D01*
X0037952Y0151729D01*
X0038004Y0151859D01*
X0038059Y0151988D01*
X0038118Y0152115D01*
X0038181Y0152241D01*
X0038247Y0152365D01*
X0038316Y0152486D01*
X0038389Y0152606D01*
X0038466Y0152724D01*
X0038545Y0152839D01*
X0038628Y0152953D01*
X0038714Y0153063D01*
X0038803Y0153172D01*
X0038895Y0153278D01*
X0038990Y0153381D01*
X0039087Y0153482D01*
X0039188Y0153579D01*
X0039291Y0153674D01*
X0039397Y0153766D01*
X0039506Y0153855D01*
X0039616Y0153941D01*
X0039730Y0154024D01*
X0039845Y0154103D01*
X0039963Y0154180D01*
X0040083Y0154253D01*
X0040204Y0154322D01*
X0040328Y0154388D01*
X0040454Y0154451D01*
X0040581Y0154510D01*
X0040710Y0154565D01*
X0040840Y0154617D01*
X0040972Y0154665D01*
X0041105Y0154710D01*
X0041239Y0154751D01*
X0041374Y0154788D01*
X0041510Y0154821D01*
X0041648Y0154850D01*
X0041785Y0154875D01*
X0041924Y0154897D01*
X0042063Y0154915D01*
X0042203Y0154928D01*
X0042343Y0154938D01*
X0042483Y0154944D01*
X0042623Y0154946D01*
X0090103Y0154946D01*
X0090243Y0154944D01*
X0090383Y0154938D01*
X0090523Y0154928D01*
X0090663Y0154915D01*
X0090802Y0154897D01*
X0090941Y0154875D01*
X0091078Y0154850D01*
X0091216Y0154821D01*
X0091352Y0154788D01*
X0091487Y0154751D01*
X0091621Y0154710D01*
X0091754Y0154665D01*
X0091886Y0154617D01*
X0092016Y0154565D01*
X0092145Y0154510D01*
X0092272Y0154451D01*
X0092398Y0154388D01*
X0092522Y0154322D01*
X0092643Y0154253D01*
X0092763Y0154180D01*
X0092881Y0154103D01*
X0092996Y0154024D01*
X0093110Y0153941D01*
X0093220Y0153855D01*
X0093329Y0153766D01*
X0093435Y0153674D01*
X0093538Y0153579D01*
X0093639Y0153482D01*
X0093736Y0153381D01*
X0093831Y0153278D01*
X0093923Y0153172D01*
X0094012Y0153063D01*
X0094098Y0152953D01*
X0094181Y0152839D01*
X0094260Y0152724D01*
X0094337Y0152606D01*
X0094410Y0152486D01*
X0094479Y0152365D01*
X0094545Y0152241D01*
X0094608Y0152115D01*
X0094667Y0151988D01*
X0094722Y0151859D01*
X0094774Y0151729D01*
X0094822Y0151597D01*
X0094867Y0151464D01*
X0094908Y0151330D01*
X0094945Y0151195D01*
X0094978Y0151059D01*
X0095007Y0150921D01*
X0095032Y0150784D01*
X0095054Y0150645D01*
X0095072Y0150506D01*
X0095085Y0150366D01*
X0095095Y0150226D01*
X0095101Y0150086D01*
X0095103Y0149946D01*
X0095103Y0112427D01*
X0178292Y0112427D01*
X0178432Y0112425D01*
X0178572Y0112419D01*
X0178712Y0112409D01*
X0178852Y0112396D01*
X0178991Y0112378D01*
X0179130Y0112356D01*
X0179267Y0112331D01*
X0179405Y0112302D01*
X0179541Y0112269D01*
X0179676Y0112232D01*
X0179810Y0112191D01*
X0179943Y0112146D01*
X0180075Y0112098D01*
X0180205Y0112046D01*
X0180334Y0111991D01*
X0180461Y0111932D01*
X0180587Y0111869D01*
X0180711Y0111803D01*
X0180832Y0111734D01*
X0180952Y0111661D01*
X0181070Y0111584D01*
X0181185Y0111505D01*
X0181299Y0111422D01*
X0181409Y0111336D01*
X0181518Y0111247D01*
X0181624Y0111155D01*
X0181727Y0111060D01*
X0181828Y0110963D01*
X0181925Y0110862D01*
X0182020Y0110759D01*
X0182112Y0110653D01*
X0182201Y0110544D01*
X0182287Y0110434D01*
X0182370Y0110320D01*
X0182449Y0110205D01*
X0182526Y0110087D01*
X0182599Y0109967D01*
X0182668Y0109846D01*
X0182734Y0109722D01*
X0182797Y0109596D01*
X0182856Y0109469D01*
X0182911Y0109340D01*
X0182963Y0109210D01*
X0183011Y0109078D01*
X0183056Y0108945D01*
X0183097Y0108811D01*
X0183134Y0108676D01*
X0183167Y0108540D01*
X0183196Y0108402D01*
X0183221Y0108265D01*
X0183243Y0108126D01*
X0183261Y0107987D01*
X0183274Y0107847D01*
X0183284Y0107707D01*
X0183290Y0107567D01*
X0183292Y0107427D01*
X0183292Y0049907D01*
X0183290Y0049767D01*
X0183284Y0049627D01*
X0183274Y0049487D01*
X0183261Y0049347D01*
X0183243Y0049208D01*
X0183221Y0049069D01*
X0183196Y0048932D01*
X0183167Y0048794D01*
X0183134Y0048658D01*
X0183097Y0048523D01*
X0183056Y0048389D01*
X0183011Y0048256D01*
X0182963Y0048124D01*
X0182911Y0047994D01*
X0182856Y0047865D01*
X0182797Y0047738D01*
X0182734Y0047612D01*
X0182668Y0047488D01*
X0182599Y0047367D01*
X0182526Y0047247D01*
X0182449Y0047129D01*
X0182370Y0047014D01*
X0182287Y0046900D01*
X0182201Y0046790D01*
X0182112Y0046681D01*
X0182020Y0046575D01*
X0181925Y0046472D01*
X0181828Y0046371D01*
X0181727Y0046274D01*
X0181624Y0046179D01*
X0181518Y0046087D01*
X0181409Y0045998D01*
X0181299Y0045912D01*
X0181185Y0045829D01*
X0181070Y0045750D01*
X0180952Y0045673D01*
X0180832Y0045600D01*
X0180711Y0045531D01*
X0180587Y0045465D01*
X0180461Y0045402D01*
X0180334Y0045343D01*
X0180205Y0045288D01*
X0180075Y0045236D01*
X0179943Y0045188D01*
X0179810Y0045143D01*
X0179676Y0045102D01*
X0179541Y0045065D01*
X0179405Y0045032D01*
X0179267Y0045003D01*
X0179130Y0044978D01*
X0178991Y0044956D01*
X0178852Y0044938D01*
X0178712Y0044925D01*
X0178572Y0044915D01*
X0178432Y0044909D01*
X0178292Y0044907D01*
X0092150Y0044907D01*
X0092150Y0007584D01*
X0092148Y0007444D01*
X0092142Y0007304D01*
X0092132Y0007164D01*
X0092119Y0007024D01*
X0092101Y0006885D01*
X0092079Y0006746D01*
X0092054Y0006609D01*
X0092025Y0006471D01*
X0091992Y0006335D01*
X0091955Y0006200D01*
X0091914Y0006066D01*
X0091869Y0005933D01*
X0091821Y0005801D01*
X0091769Y0005671D01*
X0091714Y0005542D01*
X0091655Y0005415D01*
X0091592Y0005289D01*
X0091526Y0005165D01*
X0091457Y0005044D01*
X0091384Y0004924D01*
X0091307Y0004806D01*
X0091228Y0004691D01*
X0091145Y0004577D01*
X0091059Y0004467D01*
X0090970Y0004358D01*
X0090878Y0004252D01*
X0090783Y0004149D01*
X0090686Y0004048D01*
X0090585Y0003951D01*
X0090482Y0003856D01*
X0090376Y0003764D01*
X0090267Y0003675D01*
X0090157Y0003589D01*
X0090043Y0003506D01*
X0089928Y0003427D01*
X0089810Y0003350D01*
X0089690Y0003277D01*
X0089569Y0003208D01*
X0089445Y0003142D01*
X0089319Y0003079D01*
X0089192Y0003020D01*
X0089063Y0002965D01*
X0088933Y0002913D01*
X0088801Y0002865D01*
X0088668Y0002820D01*
X0088534Y0002779D01*
X0088399Y0002742D01*
X0088263Y0002709D01*
X0088125Y0002680D01*
X0087988Y0002655D01*
X0087849Y0002633D01*
X0087710Y0002615D01*
X0087570Y0002602D01*
X0087430Y0002592D01*
X0087290Y0002586D01*
X0087150Y0002584D01*
X0041638Y0002584D01*
X0041498Y0002586D01*
X0041358Y0002592D01*
X0041218Y0002602D01*
X0041078Y0002615D01*
X0040939Y0002633D01*
X0040800Y0002655D01*
X0040663Y0002680D01*
X0040525Y0002709D01*
X0040389Y0002742D01*
X0040254Y0002779D01*
X0040120Y0002820D01*
X0039987Y0002865D01*
X0039855Y0002913D01*
X0039725Y0002965D01*
X0039596Y0003020D01*
X0039469Y0003079D01*
X0039343Y0003142D01*
X0039219Y0003208D01*
X0039098Y0003277D01*
X0038978Y0003350D01*
X0038860Y0003427D01*
X0038745Y0003506D01*
X0038631Y0003589D01*
X0038521Y0003675D01*
X0038412Y0003764D01*
X0038306Y0003856D01*
X0038203Y0003951D01*
X0038102Y0004048D01*
X0038005Y0004149D01*
X0037910Y0004252D01*
X0037818Y0004358D01*
X0037729Y0004467D01*
X0037643Y0004577D01*
X0037560Y0004691D01*
X0037481Y0004806D01*
X0037404Y0004924D01*
X0037331Y0005044D01*
X0037262Y0005165D01*
X0037196Y0005289D01*
X0037133Y0005415D01*
X0037074Y0005542D01*
X0037019Y0005671D01*
X0036967Y0005801D01*
X0036919Y0005933D01*
X0036874Y0006066D01*
X0036833Y0006200D01*
X0036796Y0006335D01*
X0036763Y0006471D01*
X0036734Y0006609D01*
X0036709Y0006746D01*
X0036687Y0006885D01*
X0036669Y0007024D01*
X0036656Y0007164D01*
X0036646Y0007304D01*
X0036640Y0007444D01*
X0036638Y0007584D01*
D11*
X0052386Y0062779D02*
X0052386Y0063019D01*
X0061323Y0093488D02*
X0061323Y0093728D01*
X0078016Y0094078D02*
X0078016Y0094319D01*
X0100339Y0097700D02*
X0100339Y0097941D01*
X0105652Y0086718D02*
X0105892Y0086718D01*
X0105538Y0054631D02*
X0105298Y0054631D01*
X0131321Y0054238D02*
X0131562Y0054238D01*
X0043843Y0101756D02*
X0043843Y0101996D01*
D12*
X0045069Y0104926D02*
X0044819Y0105176D01*
X0044819Y0106177D01*
X0045069Y0106427D01*
X0045570Y0106427D01*
X0045820Y0106177D01*
X0045820Y0105926D01*
X0045570Y0105676D01*
X0044819Y0105676D01*
X0045069Y0104926D02*
X0045570Y0104926D01*
X0045820Y0105176D01*
X0046292Y0105176D02*
X0046542Y0104926D01*
X0047043Y0104926D01*
X0047293Y0105176D01*
X0047293Y0106177D01*
X0047043Y0106427D01*
X0046542Y0106427D01*
X0046292Y0106177D01*
X0046191Y0096506D02*
X0045440Y0096506D01*
X0045190Y0096255D01*
X0045190Y0095755D01*
X0045440Y0095505D01*
X0046191Y0095505D01*
X0046191Y0095004D02*
X0046191Y0096506D01*
X0045690Y0095505D02*
X0045190Y0095004D01*
X0044717Y0095004D02*
X0043717Y0095004D01*
X0044217Y0095004D02*
X0044217Y0096506D01*
X0044717Y0096005D01*
X0043244Y0096005D02*
X0042994Y0095755D01*
X0042243Y0095755D01*
X0042243Y0096255D02*
X0042494Y0096506D01*
X0042994Y0096506D01*
X0043244Y0096255D01*
X0043244Y0096005D01*
X0043244Y0095255D02*
X0042994Y0095004D01*
X0042494Y0095004D01*
X0042243Y0095255D01*
X0042243Y0096255D01*
X0058246Y0090309D02*
X0058246Y0090059D01*
X0058496Y0089809D01*
X0058996Y0089809D01*
X0059247Y0090059D01*
X0059247Y0090309D01*
X0058996Y0090559D01*
X0058496Y0090559D01*
X0058246Y0090309D01*
X0058496Y0089809D02*
X0058246Y0089558D01*
X0058246Y0089308D01*
X0058496Y0089058D01*
X0058996Y0089058D01*
X0059247Y0089308D01*
X0059247Y0089558D01*
X0058996Y0089809D01*
X0059719Y0090309D02*
X0059969Y0090559D01*
X0060470Y0090559D01*
X0060720Y0090309D01*
X0060720Y0089308D01*
X0060470Y0089058D01*
X0059969Y0089058D01*
X0059719Y0089308D01*
X0060191Y0080835D02*
X0060191Y0080084D01*
X0059691Y0080334D01*
X0059441Y0080334D01*
X0059191Y0080084D01*
X0059191Y0079584D01*
X0059441Y0079333D01*
X0059941Y0079333D01*
X0060191Y0079584D01*
X0060664Y0079333D02*
X0061665Y0079333D01*
X0062137Y0079333D02*
X0062638Y0079834D01*
X0062387Y0079834D02*
X0063138Y0079834D01*
X0063138Y0079333D02*
X0063138Y0080835D01*
X0062387Y0080835D01*
X0062137Y0080585D01*
X0062137Y0080084D01*
X0062387Y0079834D01*
X0061665Y0080334D02*
X0061164Y0080835D01*
X0061164Y0079333D01*
X0060191Y0080835D02*
X0059191Y0080835D01*
X0054555Y0070953D02*
X0053805Y0070953D01*
X0053554Y0070703D01*
X0053554Y0070202D01*
X0053805Y0069952D01*
X0054555Y0069952D01*
X0054055Y0069952D02*
X0053554Y0069452D01*
X0053082Y0069452D02*
X0052081Y0069452D01*
X0052582Y0069452D02*
X0052582Y0070953D01*
X0053082Y0070452D01*
X0051609Y0070202D02*
X0050608Y0070202D01*
X0050858Y0069452D02*
X0050858Y0070953D01*
X0051609Y0070202D01*
X0054555Y0069452D02*
X0054555Y0070953D01*
X0055086Y0067450D02*
X0055586Y0067450D01*
X0055836Y0067200D01*
X0055836Y0066199D01*
X0055586Y0065949D01*
X0055086Y0065949D01*
X0054835Y0066199D01*
X0054363Y0066199D02*
X0054113Y0065949D01*
X0053612Y0065949D01*
X0053362Y0066199D01*
X0053362Y0066450D01*
X0053612Y0066700D01*
X0054363Y0066700D01*
X0054363Y0066199D01*
X0054363Y0066700D02*
X0053863Y0067200D01*
X0053362Y0067450D01*
X0054835Y0067200D02*
X0055086Y0067450D01*
X0062679Y0067706D02*
X0062679Y0068207D01*
X0062929Y0068457D01*
X0063179Y0068457D01*
X0063430Y0068207D01*
X0063430Y0067456D01*
X0062929Y0067456D01*
X0062679Y0067706D01*
X0062679Y0066984D02*
X0062679Y0065983D01*
X0062679Y0065511D02*
X0063179Y0065010D01*
X0063179Y0065260D02*
X0063179Y0064510D01*
X0062679Y0064510D02*
X0064180Y0064510D01*
X0064180Y0065260D01*
X0063930Y0065511D01*
X0063430Y0065511D01*
X0063179Y0065260D01*
X0063680Y0065983D02*
X0064180Y0066483D01*
X0062679Y0066483D01*
X0063430Y0067456D02*
X0063930Y0067957D01*
X0064180Y0068457D01*
X0044890Y0077481D02*
X0044890Y0078231D01*
X0044640Y0078482D01*
X0044140Y0078482D01*
X0043890Y0078231D01*
X0043890Y0077481D01*
X0043890Y0077981D02*
X0043389Y0078482D01*
X0043389Y0078954D02*
X0043389Y0079955D01*
X0043389Y0079454D02*
X0044890Y0079454D01*
X0044390Y0078954D01*
X0044390Y0080427D02*
X0044640Y0080427D01*
X0044890Y0080677D01*
X0044890Y0081178D01*
X0044640Y0081428D01*
X0044390Y0081428D01*
X0044140Y0081178D01*
X0044140Y0080677D01*
X0044390Y0080427D01*
X0044140Y0080677D02*
X0043890Y0080427D01*
X0043639Y0080427D01*
X0043389Y0080677D01*
X0043389Y0081178D01*
X0043639Y0081428D01*
X0043890Y0081428D01*
X0044140Y0081178D01*
X0043389Y0077481D02*
X0044890Y0077481D01*
X0077991Y0087791D02*
X0078992Y0086790D01*
X0078992Y0086540D01*
X0079465Y0086540D02*
X0080465Y0086540D01*
X0080938Y0086540D02*
X0081438Y0087040D01*
X0081188Y0087040D02*
X0081939Y0087040D01*
X0081939Y0086540D02*
X0081939Y0088041D01*
X0081188Y0088041D01*
X0080938Y0087791D01*
X0080938Y0087290D01*
X0081188Y0087040D01*
X0080465Y0087541D02*
X0079965Y0088041D01*
X0079965Y0086540D01*
X0078992Y0088041D02*
X0077991Y0088041D01*
X0077991Y0087791D01*
X0079993Y0097248D02*
X0079993Y0097499D01*
X0078992Y0098499D01*
X0078992Y0098750D01*
X0079993Y0098750D01*
X0080465Y0098499D02*
X0080716Y0098750D01*
X0081216Y0098750D01*
X0081466Y0098499D01*
X0081466Y0097499D01*
X0081216Y0097248D01*
X0080716Y0097248D01*
X0080465Y0097499D01*
X0096696Y0086926D02*
X0096946Y0087176D01*
X0097197Y0087176D01*
X0097447Y0086926D01*
X0097447Y0086175D01*
X0096946Y0086175D01*
X0096696Y0086425D01*
X0096696Y0086926D01*
X0097447Y0086175D02*
X0097947Y0086676D01*
X0098197Y0087176D01*
X0097947Y0085703D02*
X0098197Y0085453D01*
X0098197Y0084952D01*
X0097947Y0084702D01*
X0097947Y0084230D02*
X0097447Y0084230D01*
X0097197Y0083979D01*
X0097197Y0083229D01*
X0097197Y0083729D02*
X0096696Y0084230D01*
X0096696Y0084702D02*
X0097697Y0085703D01*
X0097947Y0085703D01*
X0096696Y0085703D02*
X0096696Y0084702D01*
X0097947Y0084230D02*
X0098197Y0083979D01*
X0098197Y0083229D01*
X0096696Y0083229D01*
X0097262Y0093270D02*
X0098262Y0093270D01*
X0097762Y0093270D02*
X0097762Y0094772D01*
X0098262Y0094271D01*
X0098735Y0094522D02*
X0098985Y0094772D01*
X0099485Y0094772D01*
X0099736Y0094522D01*
X0099736Y0093521D01*
X0099485Y0093270D01*
X0098985Y0093270D01*
X0098735Y0093521D01*
X0108822Y0085742D02*
X0108822Y0084741D01*
X0109823Y0085742D01*
X0110073Y0085742D01*
X0110323Y0085492D01*
X0110323Y0084992D01*
X0110073Y0084741D01*
X0110073Y0084269D02*
X0110323Y0084019D01*
X0110323Y0083518D01*
X0110073Y0083268D01*
X0109072Y0083268D01*
X0108822Y0083518D01*
X0108822Y0084019D01*
X0109072Y0084269D01*
X0121764Y0098782D02*
X0122264Y0098782D01*
X0122514Y0099032D01*
X0121513Y0100033D01*
X0121513Y0099032D01*
X0121764Y0098782D01*
X0122514Y0099032D02*
X0122514Y0100033D01*
X0122264Y0100284D01*
X0121764Y0100284D01*
X0121513Y0100033D01*
X0122987Y0098782D02*
X0123988Y0098782D01*
X0124460Y0098782D02*
X0124960Y0099283D01*
X0124710Y0099283D02*
X0125461Y0099283D01*
X0125461Y0098782D02*
X0125461Y0100284D01*
X0124710Y0100284D01*
X0124460Y0100033D01*
X0124460Y0099533D01*
X0124710Y0099283D01*
X0123988Y0099783D02*
X0123487Y0100284D01*
X0123487Y0098782D01*
X0130502Y0084065D02*
X0131003Y0084065D01*
X0131253Y0083814D01*
X0131253Y0083564D01*
X0131003Y0083314D01*
X0130252Y0083314D01*
X0130252Y0082814D02*
X0130252Y0083814D01*
X0130502Y0084065D01*
X0131725Y0083814D02*
X0131725Y0083314D01*
X0131975Y0083064D01*
X0132726Y0083064D01*
X0132226Y0083064D02*
X0131725Y0082563D01*
X0131253Y0082814D02*
X0131003Y0082563D01*
X0130502Y0082563D01*
X0130252Y0082814D01*
X0131725Y0083814D02*
X0131975Y0084065D01*
X0132726Y0084065D01*
X0132726Y0082563D01*
X0128436Y0065244D02*
X0127686Y0065244D01*
X0127436Y0064994D01*
X0127436Y0064494D01*
X0127686Y0064243D01*
X0128436Y0064243D01*
X0127936Y0064243D02*
X0127436Y0063743D01*
X0126963Y0063993D02*
X0126963Y0064243D01*
X0126713Y0064494D01*
X0126213Y0064494D01*
X0125962Y0064243D01*
X0125962Y0063993D01*
X0126213Y0063743D01*
X0126713Y0063743D01*
X0126963Y0063993D01*
X0126713Y0064494D02*
X0126963Y0064744D01*
X0126963Y0064994D01*
X0126713Y0065244D01*
X0126213Y0065244D01*
X0125962Y0064994D01*
X0125962Y0064744D01*
X0126213Y0064494D01*
X0128436Y0063743D02*
X0128436Y0065244D01*
X0134491Y0053012D02*
X0135993Y0053012D01*
X0135242Y0052261D01*
X0135242Y0053262D01*
X0134742Y0051789D02*
X0134491Y0051538D01*
X0134491Y0051038D01*
X0134742Y0050788D01*
X0135743Y0050788D01*
X0135993Y0051038D01*
X0135993Y0051538D01*
X0135743Y0051789D01*
X0117767Y0049299D02*
X0117767Y0047798D01*
X0117767Y0048298D02*
X0117016Y0048298D01*
X0116766Y0048549D01*
X0116766Y0049049D01*
X0117016Y0049299D01*
X0117767Y0049299D01*
X0117267Y0048298D02*
X0116766Y0047798D01*
X0116294Y0047798D02*
X0116294Y0048048D01*
X0115293Y0049049D01*
X0115293Y0049299D01*
X0116294Y0049299D01*
X0109969Y0051432D02*
X0109719Y0051181D01*
X0108718Y0051181D01*
X0108468Y0051432D01*
X0108468Y0051932D01*
X0108718Y0052182D01*
X0108718Y0052655D02*
X0108468Y0052905D01*
X0108468Y0053405D01*
X0108718Y0053656D01*
X0108968Y0053656D01*
X0109218Y0053405D01*
X0109218Y0053155D01*
X0109218Y0053405D02*
X0109469Y0053656D01*
X0109719Y0053656D01*
X0109969Y0053405D01*
X0109969Y0052905D01*
X0109719Y0052655D01*
X0109719Y0052182D02*
X0109969Y0051932D01*
X0109969Y0051432D01*
X0154606Y0083351D02*
X0155606Y0083351D01*
X0154606Y0084352D01*
X0154606Y0084602D01*
X0154856Y0084852D01*
X0155356Y0084852D01*
X0155606Y0084602D01*
X0156579Y0084852D02*
X0156579Y0083351D01*
X0156079Y0083351D02*
X0157080Y0083351D01*
X0157552Y0083351D02*
X0158052Y0083851D01*
X0157802Y0083851D02*
X0158553Y0083851D01*
X0158553Y0083351D02*
X0158553Y0084852D01*
X0157802Y0084852D01*
X0157552Y0084602D01*
X0157552Y0084101D01*
X0157802Y0083851D01*
X0157080Y0084352D02*
X0156579Y0084852D01*
X0154634Y0100160D02*
X0154634Y0101662D01*
X0153883Y0101662D01*
X0153633Y0101411D01*
X0153633Y0100911D01*
X0153883Y0100661D01*
X0154634Y0100661D01*
X0154134Y0100661D02*
X0153633Y0100160D01*
X0153161Y0100160D02*
X0152160Y0100160D01*
X0151688Y0100160D02*
X0150687Y0100160D01*
X0151187Y0100160D02*
X0151187Y0101662D01*
X0151688Y0101161D01*
X0152660Y0101662D02*
X0152660Y0100160D01*
X0153161Y0101161D02*
X0152660Y0101662D01*
D13*
X0153764Y0104710D03*
X0155103Y0080301D03*
X0129276Y0079513D03*
X0129040Y0068293D03*
X0118371Y0052348D03*
X0078489Y0083490D03*
X0062268Y0083883D03*
X0053686Y0074002D03*
X0042741Y0091954D03*
X0124591Y0103332D03*
D14*
X0093646Y0086679D03*
X0067229Y0065380D03*
X0040339Y0080931D03*
M02*
