%
M48
M72
T01C0.00787
T02C0.02400
T03C0.04000
%
T01
X59867Y55734
X54355Y59080
X62229Y65183
X53371Y69710
X96875Y57702
X114591Y72663
T02
X115772Y79454
X106422Y76009
X106422Y66167
X115772Y64691
X113804Y57309
X136441Y60261
X142347Y59277
X151205Y68628
X135949Y73057
X150713Y90773
X152189Y95694
X155142Y99631
X163508Y91757
X163016Y84376
X133489Y98155
X116264Y101600
X115772Y94710
X114788Y89789
X81323Y88313
X81815Y99139
X58686Y78962
X52288Y84376
X52288Y89297
X52288Y99139
X62130Y70596
X77878Y66659
X77386Y60754
X80831Y57309
X50812Y56817
X39493Y65675
X24729Y60261
T03
X15221Y63647
X15221Y73647
X14867Y87427
X14867Y97427
X175615Y81482
X175615Y71482
M30
