G75*
%MOIN*%
%OFA0B0*%
%FSLAX25Y25*%
%IPPOS*%
%LPD*%
%AMOC8*
5,1,8,0,0,1.08239X$1,22.5*
%
%ADD10R,0.04737X0.05131*%
%ADD11R,0.05131X0.04737*%
%ADD12R,0.09461X0.03162*%
%ADD13C,0.06800*%
%ADD14R,0.07690X0.02572*%
%ADD15R,0.48044X0.24816*%
%ADD16C,0.03187*%
%ADD17C,0.04800*%
D10*
X0045851Y0059435D03*
X0045851Y0066128D03*
X0058174Y0066128D03*
X0058174Y0059435D03*
X0030378Y0085419D03*
X0030378Y0092112D03*
X0158804Y0095025D03*
X0158804Y0088332D03*
X0159434Y0062545D03*
X0159434Y0055852D03*
D11*
X0109552Y0051915D03*
X0102859Y0051915D03*
X0102898Y0061561D03*
X0109591Y0061561D03*
X0109630Y0071403D03*
X0102938Y0071403D03*
X0102859Y0080655D03*
X0109552Y0080655D03*
X0109512Y0090498D03*
X0102819Y0090498D03*
X0102977Y0099946D03*
X0109670Y0099946D03*
X0133331Y0103254D03*
X0140024Y0103254D03*
X0153095Y0104710D03*
X0159788Y0104710D03*
X0036993Y0074159D03*
X0030300Y0074159D03*
X0030024Y0060852D03*
X0036717Y0060852D03*
D12*
X0070615Y0063372D03*
X0070615Y0068372D03*
X0070615Y0073372D03*
X0070615Y0078372D03*
X0070615Y0083372D03*
X0070615Y0088372D03*
X0070615Y0093372D03*
X0091087Y0093372D03*
X0091087Y0088372D03*
X0091087Y0083372D03*
X0091087Y0078372D03*
X0091087Y0073372D03*
X0091087Y0068372D03*
X0091087Y0063372D03*
X0123331Y0063372D03*
X0123331Y0068372D03*
X0123331Y0073372D03*
X0123331Y0078372D03*
X0123331Y0083372D03*
X0123331Y0088372D03*
X0123331Y0093372D03*
X0143804Y0093372D03*
X0143804Y0088372D03*
X0143804Y0083372D03*
X0143804Y0078372D03*
X0143804Y0073372D03*
X0143804Y0068372D03*
X0143804Y0063372D03*
D13*
X0172615Y0071482D02*
X0178615Y0071482D01*
X0178615Y0081482D02*
X0172615Y0081482D01*
X0018221Y0073647D02*
X0012221Y0073647D01*
X0012221Y0063647D02*
X0018221Y0063647D01*
X0017867Y0087427D02*
X0011867Y0087427D01*
X0011867Y0097427D02*
X0017867Y0097427D01*
D14*
X0041323Y0093017D03*
X0041323Y0090458D03*
X0041323Y0087899D03*
X0041323Y0085340D03*
X0058646Y0085340D03*
X0058646Y0087899D03*
X0058646Y0090458D03*
X0058646Y0093017D03*
D15*
X0064985Y0017939D03*
X0064985Y0041561D03*
X0065772Y0114002D03*
X0065772Y0137624D03*
D16*
X0114591Y0072663D03*
X0096875Y0057702D03*
X0062229Y0065183D03*
X0053371Y0069710D03*
X0054355Y0059080D03*
X0059867Y0055734D03*
D17*
X0050812Y0056817D03*
X0039493Y0065675D03*
X0024729Y0060261D03*
X0052288Y0084376D03*
X0052288Y0089297D03*
X0058686Y0078962D03*
X0062130Y0070596D03*
X0077878Y0066659D03*
X0077386Y0060754D03*
X0080831Y0057309D03*
X0106422Y0066167D03*
X0115772Y0064691D03*
X0113804Y0057309D03*
X0106422Y0076009D03*
X0115772Y0079454D03*
X0114788Y0089789D03*
X0115772Y0094710D03*
X0116264Y0101600D03*
X0133489Y0098155D03*
X0150713Y0090773D03*
X0152189Y0095694D03*
X0155142Y0099631D03*
X0163508Y0091757D03*
X0163016Y0084376D03*
X0151205Y0068628D03*
X0142347Y0059277D03*
X0136441Y0060261D03*
X0135949Y0073057D03*
X0081323Y0088313D03*
X0081815Y0099139D03*
X0052288Y0099139D03*
M02*
