G75*
%MOIN*%
%OFA0B0*%
%FSLAX25Y25*%
%IPPOS*%
%LPD*%
%AMOC8*
5,1,8,0,0,1.08239X$1,22.5*
%
%ADD10R,0.03937X0.04331*%
%ADD11R,0.04331X0.03937*%
%ADD12R,0.08661X0.02362*%
%ADD13C,0.06000*%
%ADD14R,0.06890X0.01772*%
%ADD15R,0.47244X0.24016*%
%ADD16C,0.01000*%
%ADD17C,0.01200*%
%ADD18C,0.02387*%
%ADD19C,0.04000*%
D10*
X0045851Y0059435D03*
X0045851Y0066128D03*
X0058174Y0066128D03*
X0058174Y0059435D03*
X0030378Y0085419D03*
X0030378Y0092112D03*
X0158804Y0095025D03*
X0158804Y0088332D03*
X0159434Y0062545D03*
X0159434Y0055852D03*
D11*
X0109552Y0051915D03*
X0102859Y0051915D03*
X0102898Y0061561D03*
X0109591Y0061561D03*
X0109630Y0071403D03*
X0102938Y0071403D03*
X0102859Y0080655D03*
X0109552Y0080655D03*
X0109512Y0090498D03*
X0102819Y0090498D03*
X0102977Y0099946D03*
X0109670Y0099946D03*
X0133331Y0103254D03*
X0140024Y0103254D03*
X0153095Y0104710D03*
X0159788Y0104710D03*
X0036993Y0074159D03*
X0030300Y0074159D03*
X0030024Y0060852D03*
X0036717Y0060852D03*
D12*
X0070615Y0063372D03*
X0070615Y0068372D03*
X0070615Y0073372D03*
X0070615Y0078372D03*
X0070615Y0083372D03*
X0070615Y0088372D03*
X0070615Y0093372D03*
X0091087Y0093372D03*
X0091087Y0088372D03*
X0091087Y0083372D03*
X0091087Y0078372D03*
X0091087Y0073372D03*
X0091087Y0068372D03*
X0091087Y0063372D03*
X0123331Y0063372D03*
X0123331Y0068372D03*
X0123331Y0073372D03*
X0123331Y0078372D03*
X0123331Y0083372D03*
X0123331Y0088372D03*
X0123331Y0093372D03*
X0143804Y0093372D03*
X0143804Y0088372D03*
X0143804Y0083372D03*
X0143804Y0078372D03*
X0143804Y0073372D03*
X0143804Y0068372D03*
X0143804Y0063372D03*
D13*
X0172615Y0071482D02*
X0178615Y0071482D01*
X0178615Y0081482D02*
X0172615Y0081482D01*
X0018221Y0073647D02*
X0012221Y0073647D01*
X0012221Y0063647D02*
X0018221Y0063647D01*
X0017867Y0087427D02*
X0011867Y0087427D01*
X0011867Y0097427D02*
X0017867Y0097427D01*
D14*
X0041323Y0093017D03*
X0041323Y0090458D03*
X0041323Y0087899D03*
X0041323Y0085340D03*
X0058646Y0085340D03*
X0058646Y0087899D03*
X0058646Y0090458D03*
X0058646Y0093017D03*
D15*
X0065772Y0114002D03*
X0065772Y0137624D03*
X0064985Y0041561D03*
X0064985Y0017939D03*
D16*
X0102859Y0051915D02*
X0102977Y0052387D01*
X0102977Y0061246D01*
X0102898Y0061561D01*
X0102977Y0061738D01*
X0106422Y0065183D01*
X0106422Y0066167D01*
X0109867Y0068135D02*
X0123154Y0068135D01*
X0123331Y0068372D01*
X0123154Y0064691D02*
X0123154Y0063706D01*
X0123331Y0063372D01*
X0123154Y0064691D02*
X0115772Y0064691D01*
X0109867Y0061738D02*
X0109591Y0061561D01*
X0109867Y0061738D02*
X0109867Y0068135D01*
X0109867Y0071088D01*
X0109630Y0071403D01*
X0106422Y0076009D02*
X0109375Y0078962D01*
X0109375Y0080439D01*
X0109552Y0080655D01*
X0109867Y0079946D01*
X0118233Y0088313D01*
X0123154Y0088313D01*
X0123331Y0088372D01*
X0123646Y0093234D02*
X0123331Y0093372D01*
X0123154Y0093726D01*
X0123154Y0094710D01*
X0115772Y0094710D01*
X0106914Y0094710D01*
X0102977Y0090773D01*
X0102819Y0090498D01*
X0099040Y0095694D02*
X0099040Y0084376D01*
X0102485Y0080931D01*
X0102859Y0080655D01*
X0102977Y0080439D01*
X0102977Y0078470D01*
X0091166Y0078470D01*
X0091087Y0078372D01*
X0102977Y0078470D02*
X0102977Y0071580D01*
X0102938Y0071403D01*
X0115772Y0079454D02*
X0119217Y0082899D01*
X0123154Y0082899D01*
X0123331Y0083372D01*
X0129060Y0090281D02*
X0126107Y0093234D01*
X0123646Y0093234D01*
X0129060Y0090281D02*
X0129060Y0073549D01*
X0123646Y0073549D01*
X0123331Y0073372D01*
X0132997Y0069612D02*
X0135949Y0072565D01*
X0135949Y0073057D01*
X0140871Y0077978D01*
X0143331Y0077978D01*
X0143804Y0078372D01*
X0140871Y0078470D01*
X0131028Y0088313D01*
X0131028Y0093234D01*
X0119217Y0105045D01*
X0103469Y0105045D01*
X0103469Y0100124D01*
X0102977Y0099946D01*
X0102977Y0099631D01*
X0099286Y0095941D01*
X0099040Y0096187D01*
X0086245Y0096187D01*
X0085752Y0095694D01*
X0080339Y0095694D01*
X0078371Y0097663D01*
X0078371Y0099631D01*
X0052288Y0099631D01*
X0052288Y0099139D01*
X0052288Y0099631D02*
X0021284Y0099631D01*
X0020300Y0098647D01*
X0020300Y0097663D01*
X0014886Y0097663D01*
X0014867Y0097427D01*
X0022268Y0097663D02*
X0022268Y0095202D01*
X0014886Y0087820D01*
X0014867Y0087427D01*
X0022268Y0097663D02*
X0043430Y0097663D01*
X0048351Y0092742D01*
X0048843Y0092742D01*
X0048843Y0082899D01*
X0056225Y0075517D01*
X0065083Y0075517D01*
X0067544Y0077978D01*
X0070497Y0077978D01*
X0070615Y0078372D01*
X0070989Y0082899D02*
X0070615Y0083372D01*
X0070989Y0082899D02*
X0073449Y0082899D01*
X0076402Y0079946D01*
X0076402Y0073549D01*
X0076402Y0073057D01*
X0077878Y0071580D01*
X0077878Y0066659D01*
X0081323Y0065183D02*
X0081323Y0088313D01*
X0084768Y0089789D02*
X0081323Y0093234D01*
X0070989Y0093234D01*
X0070615Y0093372D01*
X0070497Y0093234D01*
X0068036Y0093234D01*
X0064591Y0089789D01*
X0064591Y0087820D01*
X0058686Y0087820D01*
X0058646Y0087899D01*
X0058193Y0090281D02*
X0058646Y0090458D01*
X0058193Y0090281D02*
X0052288Y0090281D01*
X0052288Y0089297D01*
X0052288Y0084868D02*
X0052288Y0084376D01*
X0052288Y0084868D02*
X0058193Y0084868D01*
X0058646Y0085340D01*
X0058686Y0078962D02*
X0068036Y0088313D01*
X0070497Y0088313D01*
X0070615Y0088372D01*
X0058646Y0093017D02*
X0058193Y0092742D01*
X0048843Y0092742D01*
X0041323Y0093017D02*
X0040969Y0093234D01*
X0035064Y0093234D01*
X0035064Y0093726D01*
X0033095Y0095694D01*
X0026697Y0095694D01*
X0026697Y0082899D01*
X0032111Y0077486D01*
X0036540Y0077486D01*
X0036540Y0074533D01*
X0036993Y0074159D01*
X0036540Y0074041D01*
X0036540Y0067643D01*
X0030142Y0061246D01*
X0030024Y0060852D01*
X0024729Y0060261D02*
X0024729Y0074041D01*
X0030142Y0074041D01*
X0030300Y0074159D01*
X0024729Y0074041D02*
X0015378Y0074041D01*
X0015221Y0073647D01*
X0030378Y0085419D02*
X0030634Y0085852D01*
X0036540Y0085852D01*
X0036540Y0086836D01*
X0037524Y0087820D01*
X0040969Y0087820D01*
X0041323Y0087899D01*
X0041323Y0090458D02*
X0040969Y0090773D01*
X0034571Y0090773D01*
X0033587Y0091757D01*
X0030634Y0091757D01*
X0030378Y0092112D01*
X0041323Y0085340D02*
X0041461Y0084868D01*
X0045890Y0080439D01*
X0045890Y0066659D01*
X0045851Y0066128D01*
X0045890Y0066167D01*
X0057701Y0066167D01*
X0058174Y0066128D01*
X0062130Y0068628D02*
X0062130Y0070596D01*
X0062130Y0068628D02*
X0070497Y0068628D01*
X0070615Y0068372D01*
X0070615Y0073372D02*
X0070989Y0073549D01*
X0076402Y0073549D01*
X0081323Y0065183D02*
X0077386Y0061246D01*
X0077386Y0060754D01*
X0070989Y0060754D01*
X0070989Y0063214D01*
X0070615Y0063372D01*
X0080831Y0057309D02*
X0084768Y0061246D01*
X0084768Y0089789D01*
X0081815Y0099139D02*
X0067052Y0113903D01*
X0066067Y0113903D01*
X0065772Y0114002D01*
X0099040Y0095694D02*
X0099286Y0095941D01*
X0109670Y0099946D02*
X0109867Y0100124D01*
X0116264Y0100124D01*
X0116264Y0101600D01*
X0114788Y0090281D02*
X0109867Y0090281D01*
X0109512Y0090498D01*
X0114788Y0090281D02*
X0114788Y0089789D01*
X0133331Y0103254D02*
X0133489Y0103076D01*
X0133489Y0098155D01*
X0140024Y0103254D02*
X0140378Y0103076D01*
X0143331Y0100124D01*
X0143331Y0095694D01*
X0143823Y0095694D01*
X0148006Y0099878D01*
X0152189Y0095694D01*
X0155142Y0099631D02*
X0158587Y0096187D01*
X0158587Y0095202D01*
X0158804Y0095025D01*
X0158587Y0094710D01*
X0154158Y0090281D01*
X0154158Y0089297D01*
X0148252Y0083391D01*
X0143823Y0083391D01*
X0143804Y0083372D01*
X0143804Y0088372D02*
X0143823Y0088805D01*
X0143823Y0090773D01*
X0150713Y0090773D01*
X0143804Y0093372D02*
X0143331Y0093726D01*
X0143331Y0095694D01*
X0148006Y0099878D02*
X0152682Y0104553D01*
X0153095Y0104710D01*
X0159788Y0104710D02*
X0160064Y0104553D01*
X0163508Y0101108D01*
X0163508Y0091757D01*
X0159079Y0088313D02*
X0158804Y0088332D01*
X0159079Y0088313D02*
X0163016Y0084376D01*
X0163016Y0066167D01*
X0159571Y0062722D01*
X0159434Y0062545D01*
X0163016Y0058785D02*
X0163016Y0053372D01*
X0161540Y0051895D01*
X0132997Y0051895D01*
X0132997Y0069612D01*
X0136441Y0068628D02*
X0136441Y0060261D01*
X0142347Y0059277D02*
X0143823Y0059277D01*
X0143823Y0056324D01*
X0159079Y0056324D01*
X0159434Y0055852D01*
X0163016Y0058785D02*
X0175319Y0071088D01*
X0175615Y0071482D01*
X0151205Y0068628D02*
X0143823Y0068628D01*
X0143804Y0068372D01*
X0139394Y0071580D02*
X0136441Y0068628D01*
X0139394Y0071580D02*
X0139394Y0073057D01*
X0143331Y0073057D01*
X0143804Y0073372D01*
X0143804Y0063372D02*
X0143823Y0063214D01*
X0143823Y0059277D01*
X0113804Y0057309D02*
X0113804Y0056324D01*
X0109867Y0052387D01*
X0109552Y0051915D01*
X0058174Y0059435D02*
X0057701Y0059277D01*
X0057701Y0055832D01*
X0050812Y0055832D01*
X0050812Y0056817D01*
X0050812Y0055832D02*
X0041953Y0055832D01*
X0037032Y0060754D01*
X0036717Y0060852D01*
X0039493Y0065675D02*
X0045398Y0059769D01*
X0045851Y0059435D01*
D17*
X0060260Y0022663D02*
X0064985Y0017939D01*
X0060260Y0022663D02*
X0059867Y0055734D01*
X0062229Y0060065D02*
X0066953Y0055340D01*
X0077780Y0055340D01*
X0078567Y0054553D01*
X0093725Y0054553D01*
X0096875Y0057702D01*
X0097109Y0055109D02*
X0097390Y0055109D01*
X0098344Y0055504D01*
X0099073Y0056233D01*
X0099468Y0057186D01*
X0099468Y0058218D01*
X0099073Y0059172D01*
X0098344Y0059901D01*
X0097390Y0060296D01*
X0096359Y0060296D01*
X0095405Y0059901D01*
X0094676Y0059172D01*
X0094281Y0058218D01*
X0094281Y0057937D01*
X0092896Y0056553D01*
X0084198Y0056553D01*
X0084231Y0056632D01*
X0084231Y0057985D01*
X0084220Y0058011D01*
X0085555Y0059346D01*
X0086668Y0060459D01*
X0086668Y0060791D01*
X0095998Y0060791D01*
X0096818Y0061611D01*
X0096818Y0065133D01*
X0096079Y0065872D01*
X0096818Y0066611D01*
X0096818Y0070133D01*
X0096079Y0070872D01*
X0096818Y0071611D01*
X0096818Y0075133D01*
X0096172Y0075778D01*
X0096400Y0075910D01*
X0096698Y0076208D01*
X0096909Y0076573D01*
X0097018Y0076980D01*
X0097018Y0078372D01*
X0097018Y0079763D01*
X0096909Y0080170D01*
X0096698Y0080535D01*
X0096400Y0080833D01*
X0096172Y0080965D01*
X0096818Y0081611D01*
X0096818Y0085133D01*
X0096079Y0085872D01*
X0096818Y0086611D01*
X0096818Y0090133D01*
X0096079Y0090872D01*
X0096818Y0091611D01*
X0096818Y0095133D01*
X0095998Y0095953D01*
X0086177Y0095953D01*
X0085356Y0095133D01*
X0085356Y0091888D01*
X0083223Y0094021D01*
X0082110Y0095134D01*
X0076344Y0095134D01*
X0075525Y0095953D01*
X0065704Y0095953D01*
X0064884Y0095133D01*
X0064884Y0092769D01*
X0063491Y0091376D01*
X0063491Y0094483D01*
X0062671Y0095303D01*
X0054621Y0095303D01*
X0053960Y0094642D01*
X0049138Y0094642D01*
X0045330Y0098450D01*
X0044217Y0099563D01*
X0021941Y0099563D01*
X0021801Y0099838D01*
X0021375Y0100423D01*
X0020863Y0100935D01*
X0020278Y0101361D01*
X0019632Y0101690D01*
X0019565Y0101712D01*
X0038697Y0101712D01*
X0040681Y0102534D01*
X0040750Y0102603D01*
X0040750Y0101414D01*
X0041570Y0100594D01*
X0077674Y0100594D01*
X0078426Y0099842D01*
X0078415Y0099816D01*
X0078415Y0098463D01*
X0078933Y0097213D01*
X0079890Y0096257D01*
X0081139Y0095739D01*
X0082492Y0095739D01*
X0083741Y0096257D01*
X0084698Y0097213D01*
X0085215Y0098463D01*
X0085215Y0099816D01*
X0084893Y0100594D01*
X0089974Y0100594D01*
X0090794Y0101414D01*
X0090794Y0109099D01*
X0092044Y0107849D01*
X0094029Y0107027D01*
X0149530Y0107027D01*
X0149530Y0104088D01*
X0147219Y0101778D01*
X0146106Y0100665D01*
X0145231Y0099789D01*
X0145231Y0100911D01*
X0144118Y0102024D01*
X0143589Y0102552D01*
X0143589Y0105802D01*
X0142769Y0106622D01*
X0137279Y0106622D01*
X0136678Y0106021D01*
X0136076Y0106622D01*
X0130586Y0106622D01*
X0129766Y0105802D01*
X0129766Y0100705D01*
X0130543Y0099928D01*
X0130089Y0098831D01*
X0130089Y0097479D01*
X0130606Y0096229D01*
X0131563Y0095273D01*
X0132812Y0094755D01*
X0134165Y0094755D01*
X0135415Y0095273D01*
X0136371Y0096229D01*
X0136889Y0097479D01*
X0136889Y0098831D01*
X0136371Y0100081D01*
X0136322Y0100130D01*
X0136678Y0100486D01*
X0137279Y0099885D01*
X0140883Y0099885D01*
X0141431Y0099337D01*
X0141431Y0095953D01*
X0138893Y0095953D01*
X0138073Y0095133D01*
X0138073Y0091611D01*
X0138812Y0090872D01*
X0138073Y0090133D01*
X0138073Y0086611D01*
X0138812Y0085872D01*
X0138073Y0085133D01*
X0138073Y0081611D01*
X0138719Y0080965D01*
X0138491Y0080833D01*
X0138193Y0080535D01*
X0137982Y0080170D01*
X0137873Y0079763D01*
X0137873Y0078372D01*
X0143804Y0078372D01*
X0149734Y0078372D01*
X0149734Y0079763D01*
X0149625Y0080170D01*
X0149415Y0080535D01*
X0149117Y0080833D01*
X0148889Y0080965D01*
X0149534Y0081611D01*
X0149534Y0081986D01*
X0150152Y0082604D01*
X0155435Y0087887D01*
X0155435Y0085587D01*
X0156255Y0084767D01*
X0159616Y0084767D01*
X0159616Y0083699D01*
X0160134Y0082450D01*
X0161090Y0081493D01*
X0161116Y0081482D01*
X0161116Y0066954D01*
X0160273Y0066110D01*
X0156885Y0066110D01*
X0156065Y0065290D01*
X0156065Y0059800D01*
X0156666Y0059198D01*
X0156065Y0058597D01*
X0156065Y0058224D01*
X0145723Y0058224D01*
X0145723Y0058544D01*
X0145747Y0058601D01*
X0145747Y0059953D01*
X0145723Y0060010D01*
X0145723Y0060791D01*
X0148714Y0060791D01*
X0149534Y0061611D01*
X0149534Y0065133D01*
X0148795Y0065872D01*
X0148974Y0066050D01*
X0149279Y0065745D01*
X0150529Y0065228D01*
X0151882Y0065228D01*
X0153131Y0065745D01*
X0154088Y0066702D01*
X0154605Y0067951D01*
X0154605Y0069304D01*
X0154088Y0070553D01*
X0153131Y0071510D01*
X0151882Y0072028D01*
X0150529Y0072028D01*
X0149534Y0071616D01*
X0149534Y0075133D01*
X0148889Y0075778D01*
X0149117Y0075910D01*
X0149415Y0076208D01*
X0149625Y0076573D01*
X0149734Y0076980D01*
X0149734Y0078372D01*
X0143804Y0078372D01*
X0143804Y0078372D01*
X0143804Y0078372D01*
X0137873Y0078372D01*
X0137873Y0076980D01*
X0137982Y0076573D01*
X0138193Y0076208D01*
X0138491Y0075910D01*
X0138719Y0075778D01*
X0138073Y0075133D01*
X0138073Y0074422D01*
X0137494Y0073844D01*
X0137494Y0072367D01*
X0135654Y0070528D01*
X0134541Y0069415D01*
X0134541Y0063155D01*
X0134516Y0063144D01*
X0133559Y0062187D01*
X0133041Y0060938D01*
X0133041Y0059585D01*
X0133559Y0058335D01*
X0134516Y0057379D01*
X0135765Y0056861D01*
X0137118Y0056861D01*
X0138367Y0057379D01*
X0139135Y0058147D01*
X0139465Y0057351D01*
X0140421Y0056395D01*
X0141671Y0055877D01*
X0141923Y0055877D01*
X0141923Y0055537D01*
X0143036Y0054424D01*
X0156065Y0054424D01*
X0156065Y0053107D01*
X0156885Y0052287D01*
X0161982Y0052287D01*
X0162802Y0053107D01*
X0162802Y0058597D01*
X0162201Y0059198D01*
X0162802Y0059800D01*
X0162802Y0063266D01*
X0163803Y0064267D01*
X0164916Y0065380D01*
X0164916Y0081482D01*
X0164942Y0081493D01*
X0165899Y0082450D01*
X0166416Y0083699D01*
X0166416Y0085052D01*
X0165899Y0086302D01*
X0164942Y0087258D01*
X0163693Y0087776D01*
X0162340Y0087776D01*
X0162314Y0087765D01*
X0162172Y0087907D01*
X0162172Y0088631D01*
X0162832Y0088357D01*
X0164185Y0088357D01*
X0165434Y0088875D01*
X0166391Y0089832D01*
X0166908Y0091081D01*
X0166908Y0092434D01*
X0166391Y0093683D01*
X0165434Y0094640D01*
X0165408Y0094651D01*
X0165408Y0101895D01*
X0164295Y0103008D01*
X0163353Y0103950D01*
X0163353Y0107027D01*
X0177892Y0107027D01*
X0177892Y0085882D01*
X0171739Y0085882D01*
X0170122Y0085212D01*
X0168885Y0083974D01*
X0168215Y0082357D01*
X0168215Y0080607D01*
X0168885Y0078989D01*
X0170122Y0077752D01*
X0171739Y0077082D01*
X0177892Y0077082D01*
X0177892Y0076082D01*
X0176015Y0076082D01*
X0176015Y0071882D01*
X0175215Y0071882D01*
X0175215Y0076082D01*
X0172253Y0076082D01*
X0171538Y0075969D01*
X0170849Y0075745D01*
X0170204Y0075416D01*
X0169618Y0074991D01*
X0169106Y0074479D01*
X0168680Y0073893D01*
X0168352Y0073248D01*
X0168128Y0072559D01*
X0168021Y0071882D01*
X0175215Y0071882D01*
X0175215Y0071082D01*
X0176015Y0071082D01*
X0176015Y0066882D01*
X0177892Y0066882D01*
X0177892Y0050307D01*
X0113117Y0050307D01*
X0113117Y0052951D01*
X0114075Y0053909D01*
X0114480Y0053909D01*
X0115730Y0054426D01*
X0116686Y0055383D01*
X0117204Y0056632D01*
X0117204Y0057985D01*
X0116686Y0059235D01*
X0115730Y0060191D01*
X0114480Y0060709D01*
X0113156Y0060709D01*
X0113156Y0062498D01*
X0113846Y0061808D01*
X0115096Y0061291D01*
X0116448Y0061291D01*
X0117601Y0061768D01*
X0117601Y0061611D01*
X0118421Y0060791D01*
X0128242Y0060791D01*
X0129062Y0061611D01*
X0129062Y0065133D01*
X0128323Y0065872D01*
X0129062Y0066611D01*
X0129062Y0070133D01*
X0128323Y0070872D01*
X0129062Y0071611D01*
X0129062Y0071649D01*
X0129847Y0071649D01*
X0130960Y0072762D01*
X0130960Y0091068D01*
X0129062Y0092966D01*
X0129062Y0095133D01*
X0128242Y0095953D01*
X0124599Y0095953D01*
X0123941Y0096610D01*
X0118665Y0096610D01*
X0118655Y0096636D01*
X0117698Y0097593D01*
X0116448Y0098110D01*
X0115096Y0098110D01*
X0113846Y0097593D01*
X0112890Y0096636D01*
X0112879Y0096610D01*
X0112447Y0096610D01*
X0113235Y0097398D01*
X0113235Y0098224D01*
X0115531Y0098224D01*
X0115588Y0098200D01*
X0116941Y0098200D01*
X0116998Y0098224D01*
X0117051Y0098224D01*
X0117089Y0098262D01*
X0118190Y0098718D01*
X0119147Y0099674D01*
X0119664Y0100924D01*
X0119664Y0102276D01*
X0119147Y0103526D01*
X0118190Y0104482D01*
X0116941Y0105000D01*
X0115588Y0105000D01*
X0114338Y0104482D01*
X0113382Y0103526D01*
X0113037Y0102693D01*
X0112415Y0103315D01*
X0106925Y0103315D01*
X0106453Y0102844D01*
X0106423Y0102897D01*
X0106125Y0103195D01*
X0105760Y0103406D01*
X0105353Y0103515D01*
X0103361Y0103515D01*
X0103361Y0100331D01*
X0102593Y0100331D01*
X0102593Y0103515D01*
X0100601Y0103515D01*
X0100194Y0103406D01*
X0099829Y0103195D01*
X0099531Y0102897D01*
X0099321Y0102533D01*
X0099212Y0102126D01*
X0099212Y0100331D01*
X0102593Y0100331D01*
X0102593Y0099562D01*
X0103361Y0099562D01*
X0103361Y0096378D01*
X0105353Y0096378D01*
X0105760Y0096487D01*
X0106125Y0096698D01*
X0106423Y0096996D01*
X0106453Y0097049D01*
X0106892Y0096610D01*
X0106127Y0096610D01*
X0105014Y0095497D01*
X0103383Y0093866D01*
X0100074Y0093866D01*
X0099254Y0093046D01*
X0099254Y0087949D01*
X0100074Y0087129D01*
X0105565Y0087129D01*
X0106166Y0087730D01*
X0106767Y0087129D01*
X0112258Y0087129D01*
X0112449Y0087320D01*
X0112862Y0086907D01*
X0113766Y0086532D01*
X0111257Y0084024D01*
X0106806Y0084024D01*
X0106335Y0083553D01*
X0106304Y0083606D01*
X0106007Y0083904D01*
X0105642Y0084115D01*
X0105235Y0084224D01*
X0103243Y0084224D01*
X0103243Y0081039D01*
X0102475Y0081039D01*
X0102475Y0084224D01*
X0100483Y0084224D01*
X0100076Y0084115D01*
X0099711Y0083904D01*
X0099413Y0083606D01*
X0099202Y0083241D01*
X0099093Y0082834D01*
X0099093Y0081039D01*
X0102474Y0081039D01*
X0102474Y0080271D01*
X0099093Y0080271D01*
X0099093Y0078476D01*
X0099202Y0078069D01*
X0099413Y0077704D01*
X0099711Y0077406D01*
X0100076Y0077196D01*
X0100483Y0077087D01*
X0102475Y0077087D01*
X0102475Y0080271D01*
X0103243Y0080271D01*
X0103243Y0077220D01*
X0103022Y0076686D01*
X0103022Y0075333D01*
X0103322Y0074609D01*
X0103322Y0071787D01*
X0102553Y0071787D01*
X0102553Y0071019D01*
X0099172Y0071019D01*
X0099172Y0069224D01*
X0099281Y0068817D01*
X0099492Y0068452D01*
X0099790Y0068154D01*
X0100155Y0067944D01*
X0100562Y0067835D01*
X0102553Y0067835D01*
X0102553Y0071019D01*
X0103322Y0071019D01*
X0103322Y0067835D01*
X0103432Y0067835D01*
X0103022Y0066843D01*
X0103022Y0065491D01*
X0103254Y0064929D01*
X0100153Y0064929D01*
X0099333Y0064109D01*
X0099333Y0059012D01*
X0100153Y0058192D01*
X0101077Y0058192D01*
X0101077Y0055283D01*
X0100114Y0055283D01*
X0099293Y0054463D01*
X0099293Y0050307D01*
X0091076Y0050307D01*
X0090007Y0049864D01*
X0090007Y0052553D01*
X0094553Y0052553D01*
X0097109Y0055109D01*
X0096377Y0054376D02*
X0099293Y0054376D01*
X0099293Y0053178D02*
X0095178Y0053178D01*
X0098415Y0055575D02*
X0101077Y0055575D01*
X0101077Y0056773D02*
X0099297Y0056773D01*
X0099468Y0057972D02*
X0101077Y0057972D01*
X0099333Y0059170D02*
X0099074Y0059170D01*
X0099333Y0060369D02*
X0086578Y0060369D01*
X0085380Y0059170D02*
X0094675Y0059170D01*
X0094281Y0057972D02*
X0084231Y0057972D01*
X0084231Y0056773D02*
X0093117Y0056773D01*
X0090007Y0051979D02*
X0099293Y0051979D01*
X0099293Y0050780D02*
X0090007Y0050780D01*
X0096774Y0061567D02*
X0099333Y0061567D01*
X0099333Y0062766D02*
X0096818Y0062766D01*
X0096818Y0063964D02*
X0099333Y0063964D01*
X0096788Y0065163D02*
X0103158Y0065163D01*
X0103022Y0066361D02*
X0096568Y0066361D01*
X0096818Y0067560D02*
X0103319Y0067560D01*
X0103322Y0068758D02*
X0102553Y0068758D01*
X0102553Y0069957D02*
X0103322Y0069957D01*
X0102553Y0071155D02*
X0096362Y0071155D01*
X0096818Y0069957D02*
X0099172Y0069957D01*
X0099315Y0068758D02*
X0096818Y0068758D01*
X0099172Y0071787D02*
X0102553Y0071787D01*
X0102553Y0074972D01*
X0100562Y0074972D01*
X0100155Y0074863D01*
X0099790Y0074652D01*
X0099492Y0074354D01*
X0099281Y0073989D01*
X0099172Y0073582D01*
X0099172Y0071787D01*
X0099172Y0072354D02*
X0096818Y0072354D01*
X0096818Y0073552D02*
X0099172Y0073552D01*
X0099961Y0074751D02*
X0096818Y0074751D01*
X0096439Y0075949D02*
X0103022Y0075949D01*
X0103213Y0077148D02*
X0102475Y0077148D01*
X0102475Y0078346D02*
X0103243Y0078346D01*
X0103243Y0079545D02*
X0102475Y0079545D01*
X0102474Y0080743D02*
X0096490Y0080743D01*
X0096818Y0081942D02*
X0099093Y0081942D01*
X0099175Y0083140D02*
X0096818Y0083140D01*
X0096818Y0084339D02*
X0111572Y0084339D01*
X0112771Y0085537D02*
X0096413Y0085537D01*
X0096818Y0086736D02*
X0113274Y0086736D01*
X0103243Y0083140D02*
X0102475Y0083140D01*
X0102475Y0081942D02*
X0103243Y0081942D01*
X0099093Y0079545D02*
X0097018Y0079545D01*
X0097018Y0078372D02*
X0091087Y0078372D01*
X0091087Y0078372D01*
X0097018Y0078372D01*
X0097018Y0078346D02*
X0099128Y0078346D01*
X0100255Y0077148D02*
X0097018Y0077148D01*
X0102553Y0074751D02*
X0103263Y0074751D01*
X0103322Y0073552D02*
X0102553Y0073552D01*
X0102553Y0072354D02*
X0103322Y0072354D01*
X0114591Y0072663D02*
X0119709Y0077781D01*
X0122741Y0077781D01*
X0123331Y0078372D01*
X0130960Y0078346D02*
X0137873Y0078346D01*
X0137873Y0077148D02*
X0130960Y0077148D01*
X0130960Y0075949D02*
X0138452Y0075949D01*
X0138073Y0074751D02*
X0130960Y0074751D01*
X0130960Y0073552D02*
X0137494Y0073552D01*
X0137481Y0072354D02*
X0130551Y0072354D01*
X0128606Y0071155D02*
X0136282Y0071155D01*
X0135084Y0069957D02*
X0129062Y0069957D01*
X0129062Y0068758D02*
X0134541Y0068758D01*
X0134541Y0067560D02*
X0129062Y0067560D01*
X0128812Y0066361D02*
X0134541Y0066361D01*
X0134541Y0065163D02*
X0129032Y0065163D01*
X0129062Y0063964D02*
X0134541Y0063964D01*
X0134137Y0062766D02*
X0129062Y0062766D01*
X0129018Y0061567D02*
X0133302Y0061567D01*
X0133041Y0060369D02*
X0115301Y0060369D01*
X0114428Y0061567D02*
X0113156Y0061567D01*
X0117116Y0061567D02*
X0117644Y0061567D01*
X0116713Y0059170D02*
X0133213Y0059170D01*
X0133923Y0057972D02*
X0117204Y0057972D01*
X0117204Y0056773D02*
X0140043Y0056773D01*
X0139208Y0057972D02*
X0138960Y0057972D01*
X0141923Y0055575D02*
X0116765Y0055575D01*
X0115608Y0054376D02*
X0156065Y0054376D01*
X0156065Y0053178D02*
X0113344Y0053178D01*
X0113117Y0051979D02*
X0177892Y0051979D01*
X0177892Y0053178D02*
X0162802Y0053178D01*
X0162802Y0054376D02*
X0177892Y0054376D01*
X0177892Y0055575D02*
X0162802Y0055575D01*
X0162802Y0056773D02*
X0177892Y0056773D01*
X0177892Y0057972D02*
X0162802Y0057972D01*
X0162229Y0059170D02*
X0177892Y0059170D01*
X0177892Y0060369D02*
X0162802Y0060369D01*
X0162802Y0061567D02*
X0177892Y0061567D01*
X0177892Y0062766D02*
X0162802Y0062766D01*
X0163500Y0063964D02*
X0177892Y0063964D01*
X0177892Y0065163D02*
X0164699Y0065163D01*
X0164916Y0066361D02*
X0177892Y0066361D01*
X0176015Y0067560D02*
X0175215Y0067560D01*
X0175215Y0066882D02*
X0172253Y0066882D01*
X0171538Y0066995D01*
X0170849Y0067219D01*
X0170204Y0067548D01*
X0169618Y0067973D01*
X0169106Y0068485D01*
X0168680Y0069071D01*
X0168352Y0069716D01*
X0168128Y0070405D01*
X0168021Y0071082D01*
X0175215Y0071082D01*
X0175215Y0066882D01*
X0175215Y0068758D02*
X0176015Y0068758D01*
X0176015Y0069957D02*
X0175215Y0069957D01*
X0175215Y0071155D02*
X0164916Y0071155D01*
X0164916Y0069957D02*
X0168274Y0069957D01*
X0168908Y0068758D02*
X0164916Y0068758D01*
X0164916Y0067560D02*
X0170187Y0067560D01*
X0168095Y0072354D02*
X0164916Y0072354D01*
X0164916Y0073552D02*
X0168507Y0073552D01*
X0169378Y0074751D02*
X0164916Y0074751D01*
X0164916Y0075949D02*
X0171478Y0075949D01*
X0171580Y0077148D02*
X0164916Y0077148D01*
X0164916Y0078346D02*
X0169528Y0078346D01*
X0168655Y0079545D02*
X0164916Y0079545D01*
X0164916Y0080743D02*
X0168215Y0080743D01*
X0168215Y0081942D02*
X0165391Y0081942D01*
X0166185Y0083140D02*
X0168539Y0083140D01*
X0169249Y0084339D02*
X0166416Y0084339D01*
X0166215Y0085537D02*
X0170908Y0085537D01*
X0165464Y0086736D02*
X0177892Y0086736D01*
X0177892Y0087934D02*
X0162172Y0087934D01*
X0165692Y0089133D02*
X0177892Y0089133D01*
X0177892Y0090331D02*
X0166598Y0090331D01*
X0166908Y0091530D02*
X0177892Y0091530D01*
X0177892Y0092728D02*
X0166786Y0092728D01*
X0166147Y0093927D02*
X0177892Y0093927D01*
X0177892Y0095125D02*
X0165408Y0095125D01*
X0165408Y0096324D02*
X0177892Y0096324D01*
X0177892Y0097522D02*
X0165408Y0097522D01*
X0165408Y0098721D02*
X0177892Y0098721D01*
X0177892Y0099919D02*
X0165408Y0099919D01*
X0165408Y0101118D02*
X0177892Y0101118D01*
X0177892Y0102316D02*
X0164987Y0102316D01*
X0163788Y0103515D02*
X0177892Y0103515D01*
X0177892Y0104713D02*
X0163353Y0104713D01*
X0163353Y0105912D02*
X0177892Y0105912D01*
X0155435Y0086736D02*
X0154284Y0086736D01*
X0153085Y0085537D02*
X0155485Y0085537D01*
X0151887Y0084339D02*
X0159616Y0084339D01*
X0159848Y0083140D02*
X0150688Y0083140D01*
X0149534Y0081942D02*
X0160642Y0081942D01*
X0161116Y0080743D02*
X0149207Y0080743D01*
X0149734Y0079545D02*
X0161116Y0079545D01*
X0161116Y0078346D02*
X0149734Y0078346D01*
X0149734Y0077148D02*
X0161116Y0077148D01*
X0161116Y0075949D02*
X0149156Y0075949D01*
X0149534Y0074751D02*
X0161116Y0074751D01*
X0161116Y0073552D02*
X0149534Y0073552D01*
X0149534Y0072354D02*
X0161116Y0072354D01*
X0161116Y0071155D02*
X0153486Y0071155D01*
X0154335Y0069957D02*
X0161116Y0069957D01*
X0161116Y0068758D02*
X0154605Y0068758D01*
X0154443Y0067560D02*
X0161116Y0067560D01*
X0160523Y0066361D02*
X0153747Y0066361D01*
X0156065Y0065163D02*
X0149504Y0065163D01*
X0149534Y0063964D02*
X0156065Y0063964D01*
X0156065Y0062766D02*
X0149534Y0062766D01*
X0149491Y0061567D02*
X0156065Y0061567D01*
X0156065Y0060369D02*
X0145723Y0060369D01*
X0145747Y0059170D02*
X0156638Y0059170D01*
X0175215Y0072354D02*
X0176015Y0072354D01*
X0176015Y0073552D02*
X0175215Y0073552D01*
X0175215Y0074751D02*
X0176015Y0074751D01*
X0176015Y0075949D02*
X0175215Y0075949D01*
X0145361Y0099919D02*
X0145231Y0099919D01*
X0145024Y0101118D02*
X0146560Y0101118D01*
X0147758Y0102316D02*
X0143825Y0102316D01*
X0143589Y0103515D02*
X0148957Y0103515D01*
X0149530Y0104713D02*
X0143589Y0104713D01*
X0143479Y0105912D02*
X0149530Y0105912D01*
X0141431Y0098721D02*
X0136889Y0098721D01*
X0136889Y0097522D02*
X0141431Y0097522D01*
X0141431Y0096324D02*
X0136410Y0096324D01*
X0135059Y0095125D02*
X0138073Y0095125D01*
X0138073Y0093927D02*
X0129062Y0093927D01*
X0129062Y0095125D02*
X0131918Y0095125D01*
X0130567Y0096324D02*
X0124227Y0096324D01*
X0129299Y0092728D02*
X0138073Y0092728D01*
X0138154Y0091530D02*
X0130498Y0091530D01*
X0130960Y0090331D02*
X0138272Y0090331D01*
X0138073Y0089133D02*
X0130960Y0089133D01*
X0130960Y0087934D02*
X0138073Y0087934D01*
X0138073Y0086736D02*
X0130960Y0086736D01*
X0130960Y0085537D02*
X0138478Y0085537D01*
X0138073Y0084339D02*
X0130960Y0084339D01*
X0130960Y0083140D02*
X0138073Y0083140D01*
X0138073Y0081942D02*
X0130960Y0081942D01*
X0130960Y0080743D02*
X0138401Y0080743D01*
X0137873Y0079545D02*
X0130960Y0079545D01*
X0130089Y0097522D02*
X0117768Y0097522D01*
X0118194Y0098721D02*
X0130089Y0098721D01*
X0130539Y0099919D02*
X0119248Y0099919D01*
X0119664Y0101118D02*
X0129766Y0101118D01*
X0129766Y0102316D02*
X0119648Y0102316D01*
X0119151Y0103515D02*
X0129766Y0103515D01*
X0129766Y0104713D02*
X0117632Y0104713D01*
X0114896Y0104713D02*
X0090794Y0104713D01*
X0090794Y0103515D02*
X0113377Y0103515D01*
X0113235Y0097522D02*
X0113776Y0097522D01*
X0106104Y0099562D02*
X0103361Y0099562D01*
X0103361Y0100331D01*
X0106104Y0100331D01*
X0106104Y0099562D01*
X0106104Y0099919D02*
X0103361Y0099919D01*
X0102593Y0099919D02*
X0085172Y0099919D01*
X0085215Y0098721D02*
X0099212Y0098721D01*
X0099212Y0099562D02*
X0099212Y0097767D01*
X0099321Y0097360D01*
X0099531Y0096996D01*
X0099829Y0096698D01*
X0100194Y0096487D01*
X0100601Y0096378D01*
X0102593Y0096378D01*
X0102593Y0099562D01*
X0099212Y0099562D01*
X0099212Y0101118D02*
X0090498Y0101118D01*
X0090794Y0102316D02*
X0099263Y0102316D01*
X0102593Y0102316D02*
X0103361Y0102316D01*
X0103361Y0101118D02*
X0102593Y0101118D01*
X0102593Y0098721D02*
X0103361Y0098721D01*
X0103361Y0097522D02*
X0102593Y0097522D01*
X0099277Y0097522D02*
X0084826Y0097522D01*
X0083808Y0096324D02*
X0105841Y0096324D01*
X0104642Y0095125D02*
X0096818Y0095125D01*
X0096818Y0093927D02*
X0103444Y0093927D01*
X0099254Y0092728D02*
X0096818Y0092728D01*
X0096737Y0091530D02*
X0099254Y0091530D01*
X0099254Y0090331D02*
X0096619Y0090331D01*
X0096818Y0089133D02*
X0099254Y0089133D01*
X0099269Y0087934D02*
X0096818Y0087934D01*
X0085356Y0092728D02*
X0084516Y0092728D01*
X0085356Y0093927D02*
X0083317Y0093927D01*
X0082119Y0095125D02*
X0085356Y0095125D01*
X0079823Y0096324D02*
X0047456Y0096324D01*
X0048654Y0095125D02*
X0054444Y0095125D01*
X0062849Y0095125D02*
X0064884Y0095125D01*
X0064884Y0093927D02*
X0063491Y0093927D01*
X0063491Y0092728D02*
X0064843Y0092728D01*
X0063645Y0091530D02*
X0063491Y0091530D01*
X0058646Y0085340D02*
X0058646Y0085340D01*
X0053601Y0085340D01*
X0053601Y0084244D01*
X0053710Y0083837D01*
X0053921Y0083472D01*
X0054219Y0083174D01*
X0054584Y0082963D01*
X0054991Y0082854D01*
X0058646Y0082854D01*
X0058646Y0085340D01*
X0058646Y0085340D01*
X0053601Y0085340D01*
X0053601Y0086161D01*
X0052964Y0085897D01*
X0051612Y0085897D01*
X0050743Y0086257D01*
X0050743Y0083686D01*
X0055286Y0079144D01*
X0055286Y0079639D01*
X0055803Y0080888D01*
X0056760Y0081845D01*
X0058009Y0082362D01*
X0059362Y0082362D01*
X0059388Y0082351D01*
X0059891Y0082854D01*
X0058646Y0082854D01*
X0058646Y0085340D01*
X0058646Y0084339D02*
X0058646Y0084339D01*
X0058646Y0083140D02*
X0058646Y0083140D01*
X0056994Y0081942D02*
X0052487Y0081942D01*
X0051289Y0083140D02*
X0054277Y0083140D01*
X0053601Y0084339D02*
X0050743Y0084339D01*
X0050743Y0085537D02*
X0053601Y0085537D01*
X0053686Y0080743D02*
X0055743Y0080743D01*
X0055286Y0079545D02*
X0054884Y0079545D01*
X0057504Y0073844D02*
X0053371Y0069710D01*
X0057504Y0073844D02*
X0063213Y0073844D01*
X0067741Y0078372D01*
X0070615Y0078372D01*
X0062229Y0065183D02*
X0062229Y0060065D01*
X0054355Y0059080D02*
X0051402Y0062033D01*
X0050221Y0062033D01*
X0047623Y0059435D01*
X0045851Y0059435D01*
X0009374Y0091157D02*
X0008377Y0090160D01*
X0008377Y0094411D01*
X0008870Y0093918D01*
X0009456Y0093492D01*
X0010101Y0093164D01*
X0010789Y0092940D01*
X0011505Y0092827D01*
X0014467Y0092827D01*
X0014467Y0097027D01*
X0015267Y0097027D01*
X0020368Y0097027D01*
X0020368Y0097827D01*
X0015267Y0097827D01*
X0015267Y0097027D01*
X0015267Y0092827D01*
X0017206Y0092827D01*
X0016206Y0091827D01*
X0010991Y0091827D01*
X0009374Y0091157D01*
X0010275Y0091530D02*
X0008377Y0091530D01*
X0008377Y0092728D02*
X0017107Y0092728D01*
X0015267Y0093927D02*
X0014467Y0093927D01*
X0014467Y0095125D02*
X0015267Y0095125D01*
X0015267Y0096324D02*
X0014467Y0096324D01*
X0015267Y0097522D02*
X0020368Y0097522D01*
X0021742Y0099919D02*
X0078348Y0099919D01*
X0078415Y0098721D02*
X0045059Y0098721D01*
X0046257Y0097522D02*
X0078805Y0097522D01*
X0090794Y0105912D02*
X0129876Y0105912D01*
X0136438Y0099919D02*
X0137244Y0099919D01*
X0093827Y0107111D02*
X0090794Y0107111D01*
X0090794Y0108309D02*
X0091584Y0108309D01*
X0041046Y0101118D02*
X0020612Y0101118D01*
X0008861Y0093927D02*
X0008377Y0093927D01*
X0008377Y0090331D02*
X0008549Y0090331D01*
X0040156Y0102316D02*
X0040750Y0102316D01*
X0113117Y0050780D02*
X0177892Y0050780D01*
D18*
X0114591Y0072663D03*
X0096875Y0057702D03*
X0062229Y0065183D03*
X0053371Y0069710D03*
X0054355Y0059080D03*
X0059867Y0055734D03*
D19*
X0050812Y0056817D03*
X0039493Y0065675D03*
X0024729Y0060261D03*
X0052288Y0084376D03*
X0052288Y0089297D03*
X0058686Y0078962D03*
X0062130Y0070596D03*
X0077878Y0066659D03*
X0077386Y0060754D03*
X0080831Y0057309D03*
X0106422Y0066167D03*
X0115772Y0064691D03*
X0113804Y0057309D03*
X0106422Y0076009D03*
X0115772Y0079454D03*
X0114788Y0089789D03*
X0115772Y0094710D03*
X0116264Y0101600D03*
X0133489Y0098155D03*
X0150713Y0090773D03*
X0152189Y0095694D03*
X0155142Y0099631D03*
X0163508Y0091757D03*
X0163016Y0084376D03*
X0151205Y0068628D03*
X0142347Y0059277D03*
X0136441Y0060261D03*
X0135949Y0073057D03*
X0081323Y0088313D03*
X0081815Y0099139D03*
X0052288Y0099139D03*
M02*
