G75*
%MOIN*%
%OFA0B0*%
%FSLAX25Y25*%
%IPPOS*%
%LPD*%
%AMOC8*
5,1,8,0,0,1.08239X$1,22.5*
%
%ADD10R,0.05906X0.01181*%
%ADD11R,0.01181X0.05906*%
%ADD12R,0.05906X0.01378*%
%ADD13R,0.07087X0.05118*%
%ADD14R,0.05512X0.01575*%
%ADD15R,0.07000X0.46000*%
%ADD16R,0.07874X0.06693*%
%ADD17R,0.06890X0.01772*%
%ADD18R,0.47244X0.24016*%
%ADD19R,0.01378X0.05500*%
%ADD20R,0.02717X0.04724*%
%ADD21R,0.04724X0.01575*%
%ADD22R,0.01575X0.04724*%
%ADD23R,0.04331X0.03543*%
%ADD24R,0.04331X0.03937*%
%ADD25R,0.03150X0.03150*%
%ADD26C,0.00875*%
%ADD27R,0.06000X0.03000*%
%ADD28C,0.06000*%
%ADD29R,0.01575X0.15748*%
%ADD30C,0.01600*%
%ADD31C,0.03962*%
%ADD32C,0.01000*%
%ADD33C,0.04000*%
D10*
X0177627Y0061682D03*
X0177627Y0063650D03*
X0177627Y0065619D03*
X0177627Y0067587D03*
X0177627Y0069556D03*
X0177627Y0071524D03*
X0177627Y0073493D03*
X0177627Y0075461D03*
X0177627Y0077430D03*
X0177627Y0079398D03*
X0177627Y0081367D03*
X0177627Y0083335D03*
X0177627Y0085304D03*
X0177627Y0087272D03*
X0177627Y0089241D03*
X0177627Y0091209D03*
X0177627Y0093178D03*
X0177627Y0095146D03*
X0177627Y0097115D03*
X0177627Y0099083D03*
X0177627Y0101052D03*
X0177627Y0103020D03*
X0177627Y0104989D03*
X0177627Y0106957D03*
X0177627Y0108926D03*
X0240619Y0108926D03*
X0240619Y0106957D03*
X0240619Y0104989D03*
X0240619Y0103020D03*
X0240619Y0099083D03*
X0240619Y0097115D03*
X0240619Y0095146D03*
X0240619Y0093178D03*
X0240619Y0091209D03*
X0240619Y0089241D03*
X0240619Y0087272D03*
X0240619Y0085304D03*
X0240619Y0083335D03*
X0240619Y0079398D03*
X0240619Y0077430D03*
X0240619Y0075461D03*
X0240619Y0073493D03*
X0240619Y0071524D03*
X0240619Y0069556D03*
X0240619Y0067587D03*
X0240619Y0065619D03*
X0240619Y0063650D03*
X0240619Y0061682D03*
D11*
X0232745Y0053808D03*
X0230776Y0053808D03*
X0228808Y0053808D03*
X0226839Y0053808D03*
X0224871Y0053808D03*
X0222902Y0053808D03*
X0220934Y0053808D03*
X0218965Y0053808D03*
X0216997Y0053808D03*
X0215028Y0053808D03*
X0213060Y0053808D03*
X0211091Y0053808D03*
X0209123Y0053808D03*
X0207154Y0053808D03*
X0205186Y0053808D03*
X0203217Y0053808D03*
X0201249Y0053808D03*
X0199280Y0053808D03*
X0197312Y0053808D03*
X0195343Y0053808D03*
X0193375Y0053808D03*
X0191406Y0053808D03*
X0189438Y0053808D03*
X0187469Y0053808D03*
X0185501Y0053808D03*
X0185501Y0116800D03*
X0187469Y0116800D03*
X0189438Y0116800D03*
X0191406Y0116800D03*
X0193375Y0116800D03*
X0195343Y0116800D03*
X0197312Y0116800D03*
X0199280Y0116800D03*
X0201249Y0116800D03*
X0203217Y0116800D03*
X0205186Y0116800D03*
X0207154Y0116800D03*
X0209123Y0116800D03*
X0211091Y0116800D03*
X0213060Y0116800D03*
X0215028Y0116800D03*
X0216997Y0116800D03*
X0218965Y0116800D03*
X0220934Y0116800D03*
X0222902Y0116800D03*
X0224871Y0116800D03*
X0226839Y0116800D03*
X0228808Y0116800D03*
X0230776Y0116800D03*
X0232745Y0116800D03*
D12*
X0240619Y0101052D03*
X0240619Y0081367D03*
D13*
X0150304Y0102391D03*
X0150304Y0112233D03*
D14*
X0023296Y0112469D03*
X0023296Y0109910D03*
X0023296Y0107351D03*
X0023296Y0115028D03*
X0023296Y0117587D03*
D15*
X0012666Y0112469D03*
D16*
X0149713Y0070028D03*
X0149713Y0055461D03*
D17*
X0141406Y0170737D03*
X0141406Y0173296D03*
X0141406Y0175855D03*
X0141406Y0178414D03*
X0124083Y0178414D03*
X0124083Y0175855D03*
X0124083Y0173296D03*
X0124083Y0170737D03*
D18*
X0067076Y0143375D03*
X0067076Y0119753D03*
X0067469Y0059398D03*
X0067469Y0035776D03*
X0298532Y0035658D03*
X0298532Y0059280D03*
X0298532Y0119753D03*
X0298532Y0143375D03*
D19*
X0300068Y0095465D03*
X0303217Y0095465D03*
X0306367Y0095465D03*
X0309517Y0095465D03*
X0296918Y0095465D03*
X0293769Y0095465D03*
X0290619Y0095465D03*
X0290619Y0084001D03*
X0293769Y0084001D03*
X0296918Y0084001D03*
X0300068Y0084001D03*
X0303217Y0084001D03*
X0306367Y0084001D03*
X0309517Y0084001D03*
X0076091Y0084394D03*
X0072942Y0084394D03*
X0069792Y0084394D03*
X0066643Y0084394D03*
X0063493Y0084394D03*
X0060343Y0084394D03*
X0057194Y0084394D03*
X0057194Y0095859D03*
X0060343Y0095859D03*
X0063493Y0095859D03*
X0066643Y0095859D03*
X0069792Y0095859D03*
X0072942Y0095859D03*
X0076091Y0095859D03*
D20*
X0112194Y0081446D03*
X0119674Y0081446D03*
X0119674Y0071209D03*
X0115934Y0071209D03*
X0112194Y0071209D03*
X0111800Y0125343D03*
X0115540Y0125343D03*
X0119280Y0125343D03*
X0119280Y0135580D03*
X0111800Y0135580D03*
D21*
X0171229Y0155934D03*
X0171229Y0158690D03*
X0171229Y0161249D03*
X0171229Y0163808D03*
X0171229Y0166367D03*
X0171229Y0168926D03*
X0171229Y0171682D03*
X0194261Y0171682D03*
X0194261Y0168926D03*
X0194261Y0166367D03*
X0194261Y0163808D03*
X0194261Y0161249D03*
X0194261Y0158690D03*
X0194261Y0155934D03*
D22*
X0242666Y0169221D03*
X0245422Y0169221D03*
X0247981Y0169221D03*
X0250540Y0169221D03*
X0253099Y0169221D03*
X0255658Y0169221D03*
X0258414Y0169221D03*
X0258414Y0192253D03*
X0255658Y0192253D03*
X0253099Y0192253D03*
X0250540Y0192253D03*
X0247981Y0192253D03*
X0245422Y0192253D03*
X0242666Y0192253D03*
D23*
X0312666Y0165461D03*
X0319831Y0165461D03*
X0316249Y0176879D03*
X0106013Y0168611D03*
X0098847Y0168611D03*
X0102430Y0180028D03*
X0050580Y0169398D03*
X0043414Y0169398D03*
X0046997Y0180816D03*
D24*
X0111839Y0114005D03*
X0118532Y0114005D03*
X0177981Y0133729D03*
X0184674Y0133729D03*
X0198887Y0134241D03*
X0205580Y0134241D03*
X0220894Y0134438D03*
X0227587Y0134438D03*
X0119123Y0058887D03*
X0112430Y0058887D03*
X0181288Y0018965D03*
X0187981Y0018965D03*
D25*
X0172863Y0018572D03*
X0166957Y0018572D03*
D26*
X0154578Y0043822D02*
X0151952Y0043822D01*
X0154578Y0043822D02*
X0154578Y0041196D01*
X0151952Y0041196D01*
X0151952Y0043822D01*
X0151952Y0042070D02*
X0154578Y0042070D01*
X0154578Y0042944D02*
X0151952Y0042944D01*
X0151952Y0043818D02*
X0154578Y0043818D01*
X0148578Y0043822D02*
X0145952Y0043822D01*
X0148578Y0043822D02*
X0148578Y0041196D01*
X0145952Y0041196D01*
X0145952Y0043822D01*
X0145952Y0042070D02*
X0148578Y0042070D01*
X0148578Y0042944D02*
X0145952Y0042944D01*
X0145952Y0043818D02*
X0148578Y0043818D01*
X0147751Y0078991D02*
X0145125Y0078991D01*
X0145125Y0081617D01*
X0147751Y0081617D01*
X0147751Y0078991D01*
X0147751Y0079865D02*
X0145125Y0079865D01*
X0145125Y0080739D02*
X0147751Y0080739D01*
X0147751Y0081613D02*
X0145125Y0081613D01*
X0151125Y0078991D02*
X0153751Y0078991D01*
X0151125Y0078991D02*
X0151125Y0081617D01*
X0153751Y0081617D01*
X0153751Y0078991D01*
X0153751Y0079865D02*
X0151125Y0079865D01*
X0151125Y0080739D02*
X0153751Y0080739D01*
X0153751Y0081613D02*
X0151125Y0081613D01*
X0152030Y0090408D02*
X0154656Y0090408D01*
X0152030Y0090408D02*
X0152030Y0093034D01*
X0154656Y0093034D01*
X0154656Y0090408D01*
X0154656Y0091282D02*
X0152030Y0091282D01*
X0152030Y0092156D02*
X0154656Y0092156D01*
X0154656Y0093030D02*
X0152030Y0093030D01*
X0148656Y0090408D02*
X0146030Y0090408D01*
X0146030Y0093034D01*
X0148656Y0093034D01*
X0148656Y0090408D01*
X0148656Y0091282D02*
X0146030Y0091282D01*
X0146030Y0092156D02*
X0148656Y0092156D01*
X0148656Y0093030D02*
X0146030Y0093030D01*
X0145676Y0122219D02*
X0148302Y0122219D01*
X0145676Y0122219D02*
X0145676Y0124845D01*
X0148302Y0124845D01*
X0148302Y0122219D01*
X0148302Y0123093D02*
X0145676Y0123093D01*
X0145676Y0123967D02*
X0148302Y0123967D01*
X0148302Y0124841D02*
X0145676Y0124841D01*
X0151676Y0122219D02*
X0154302Y0122219D01*
X0151676Y0122219D02*
X0151676Y0124845D01*
X0154302Y0124845D01*
X0154302Y0122219D01*
X0154302Y0123093D02*
X0151676Y0123093D01*
X0151676Y0123967D02*
X0154302Y0123967D01*
X0154302Y0124841D02*
X0151676Y0124841D01*
X0108558Y0146542D02*
X0108558Y0149168D01*
X0111184Y0149168D01*
X0111184Y0146542D01*
X0108558Y0146542D01*
X0108558Y0147416D02*
X0111184Y0147416D01*
X0111184Y0148290D02*
X0108558Y0148290D01*
X0108558Y0149164D02*
X0111184Y0149164D01*
X0108558Y0152542D02*
X0108558Y0155168D01*
X0111184Y0155168D01*
X0111184Y0152542D01*
X0108558Y0152542D01*
X0108558Y0153416D02*
X0111184Y0153416D01*
X0111184Y0154290D02*
X0108558Y0154290D01*
X0108558Y0155164D02*
X0111184Y0155164D01*
X0253204Y0107570D02*
X0253204Y0104944D01*
X0253204Y0107570D02*
X0255830Y0107570D01*
X0255830Y0104944D01*
X0253204Y0104944D01*
X0253204Y0105818D02*
X0255830Y0105818D01*
X0255830Y0106692D02*
X0253204Y0106692D01*
X0253204Y0107566D02*
X0255830Y0107566D01*
X0253204Y0101570D02*
X0253204Y0098944D01*
X0253204Y0101570D02*
X0255830Y0101570D01*
X0255830Y0098944D01*
X0253204Y0098944D01*
X0253204Y0099818D02*
X0255830Y0099818D01*
X0255830Y0100692D02*
X0253204Y0100692D01*
X0253204Y0101566D02*
X0255830Y0101566D01*
X0230483Y0035763D02*
X0227857Y0035763D01*
X0227857Y0038389D01*
X0230483Y0038389D01*
X0230483Y0035763D01*
X0230483Y0036637D02*
X0227857Y0036637D01*
X0227857Y0037511D02*
X0230483Y0037511D01*
X0230483Y0038385D02*
X0227857Y0038385D01*
X0224483Y0035763D02*
X0221857Y0035763D01*
X0221857Y0038389D01*
X0224483Y0038389D01*
X0224483Y0035763D01*
X0224483Y0036637D02*
X0221857Y0036637D01*
X0221857Y0037511D02*
X0224483Y0037511D01*
X0224483Y0038385D02*
X0221857Y0038385D01*
D27*
X0147824Y0142371D03*
X0127824Y0142371D03*
X0127824Y0157371D03*
X0147824Y0157371D03*
D28*
X0120580Y0101257D02*
X0120580Y0095257D01*
X0110580Y0095257D02*
X0110580Y0101257D01*
X0112548Y0045942D02*
X0112548Y0039942D01*
X0122548Y0039942D02*
X0122548Y0045942D01*
X0120658Y0023304D02*
X0120658Y0017304D01*
X0130658Y0017304D02*
X0130658Y0023304D01*
X0140658Y0023304D02*
X0140658Y0017304D01*
X0150658Y0017304D02*
X0150658Y0023304D01*
X0205107Y0021729D02*
X0205107Y0015729D01*
X0215107Y0015729D02*
X0215107Y0021729D01*
X0225107Y0021729D02*
X0225107Y0015729D01*
X0235107Y0015729D02*
X0235107Y0021729D01*
D29*
X0218139Y0201603D03*
X0215383Y0201603D03*
X0212627Y0201603D03*
X0209871Y0201603D03*
X0207115Y0201603D03*
X0204359Y0201603D03*
X0201603Y0201603D03*
X0198847Y0201603D03*
X0196091Y0201603D03*
X0193335Y0201603D03*
X0190580Y0201603D03*
X0187824Y0201603D03*
X0185068Y0201603D03*
X0182312Y0201603D03*
X0179556Y0201603D03*
X0176800Y0201603D03*
X0174044Y0201603D03*
X0171288Y0201603D03*
X0168532Y0201603D03*
X0165776Y0201603D03*
X0163020Y0201603D03*
X0160265Y0201603D03*
X0157509Y0201603D03*
X0154753Y0201603D03*
X0151997Y0201603D03*
X0149241Y0201603D03*
X0146485Y0201603D03*
X0143729Y0201603D03*
X0140973Y0201603D03*
X0138217Y0201603D03*
D30*
X0009565Y0087669D02*
X0009565Y0012715D01*
X0119717Y0012715D01*
X0118053Y0013404D01*
X0116759Y0014698D01*
X0116058Y0016389D01*
X0116058Y0024219D01*
X0116759Y0025910D01*
X0118053Y0027204D01*
X0119743Y0027904D01*
X0121573Y0027904D01*
X0123264Y0027204D01*
X0124093Y0026374D01*
X0128318Y0030599D01*
X0128318Y0031945D01*
X0128866Y0033268D01*
X0129879Y0034281D01*
X0131202Y0034829D01*
X0132634Y0034829D01*
X0133957Y0034281D01*
X0134970Y0033268D01*
X0135518Y0031945D01*
X0135518Y0030513D01*
X0134970Y0029190D01*
X0133957Y0028177D01*
X0132634Y0027629D01*
X0132237Y0027629D01*
X0133264Y0027204D01*
X0134015Y0026453D01*
X0136192Y0028630D01*
X0136192Y0029977D01*
X0136740Y0031300D01*
X0137753Y0032313D01*
X0139076Y0032861D01*
X0140508Y0032861D01*
X0141831Y0032313D01*
X0142844Y0031300D01*
X0143392Y0029977D01*
X0143392Y0028545D01*
X0142966Y0027515D01*
X0143174Y0027409D01*
X0143785Y0026965D01*
X0144319Y0026431D01*
X0144764Y0025820D01*
X0145107Y0025146D01*
X0145340Y0024428D01*
X0145458Y0023682D01*
X0145458Y0020504D01*
X0140858Y0020504D01*
X0140858Y0020104D01*
X0145458Y0020104D01*
X0145458Y0016926D01*
X0145340Y0016180D01*
X0145107Y0015461D01*
X0144764Y0014788D01*
X0144319Y0014177D01*
X0143785Y0013643D01*
X0143174Y0013199D01*
X0142501Y0012856D01*
X0142068Y0012715D01*
X0149717Y0012715D01*
X0148053Y0013404D01*
X0146759Y0014698D01*
X0146058Y0016389D01*
X0146058Y0024219D01*
X0146759Y0025910D01*
X0148053Y0027204D01*
X0149743Y0027904D01*
X0151573Y0027904D01*
X0153264Y0027204D01*
X0154558Y0025910D01*
X0155258Y0024219D01*
X0155258Y0016389D01*
X0154558Y0014698D01*
X0153264Y0013404D01*
X0151600Y0012715D01*
X0201616Y0012715D01*
X0201207Y0013123D01*
X0200507Y0014814D01*
X0200507Y0022644D01*
X0201207Y0024335D01*
X0202501Y0025629D01*
X0204192Y0026329D01*
X0206022Y0026329D01*
X0207713Y0025629D01*
X0209007Y0024335D01*
X0209707Y0022644D01*
X0209707Y0014814D01*
X0209007Y0013123D01*
X0208598Y0012715D01*
X0211364Y0012715D01*
X0211002Y0013213D01*
X0210659Y0013887D01*
X0210425Y0014605D01*
X0210307Y0015351D01*
X0210307Y0018529D01*
X0214907Y0018529D01*
X0214907Y0018929D01*
X0210307Y0018929D01*
X0210307Y0022107D01*
X0210425Y0022853D01*
X0210659Y0023572D01*
X0211002Y0024245D01*
X0211446Y0024856D01*
X0211980Y0025390D01*
X0212591Y0025834D01*
X0213265Y0026177D01*
X0213983Y0026411D01*
X0214729Y0026529D01*
X0214907Y0026529D01*
X0214907Y0018929D01*
X0215307Y0018929D01*
X0219907Y0018929D01*
X0219907Y0022107D01*
X0219789Y0022853D01*
X0219555Y0023572D01*
X0219212Y0024245D01*
X0218768Y0024856D01*
X0218234Y0025390D01*
X0217623Y0025834D01*
X0216950Y0026177D01*
X0216231Y0026411D01*
X0215485Y0026529D01*
X0215307Y0026529D01*
X0215307Y0018929D01*
X0215307Y0018529D01*
X0219907Y0018529D01*
X0219907Y0015351D01*
X0219789Y0014605D01*
X0219555Y0013887D01*
X0219212Y0013213D01*
X0218850Y0012715D01*
X0221616Y0012715D01*
X0221207Y0013123D01*
X0220507Y0014814D01*
X0220507Y0022644D01*
X0221207Y0024335D01*
X0222501Y0025629D01*
X0224192Y0026329D01*
X0226022Y0026329D01*
X0227713Y0025629D01*
X0229007Y0024335D01*
X0229707Y0022644D01*
X0229707Y0014814D01*
X0229007Y0013123D01*
X0228598Y0012715D01*
X0231616Y0012715D01*
X0231207Y0013123D01*
X0230507Y0014814D01*
X0230507Y0022644D01*
X0231207Y0024335D01*
X0232501Y0025629D01*
X0234192Y0026329D01*
X0236022Y0026329D01*
X0237713Y0025629D01*
X0238355Y0024986D01*
X0247928Y0034560D01*
X0247928Y0067752D01*
X0247300Y0067491D01*
X0245867Y0067491D01*
X0245172Y0067780D01*
X0245172Y0060429D01*
X0244234Y0059491D01*
X0241207Y0059491D01*
X0241197Y0059484D01*
X0241140Y0059491D01*
X0237003Y0059491D01*
X0236854Y0059641D01*
X0235413Y0059641D01*
X0235888Y0059166D01*
X0236872Y0058182D01*
X0236872Y0048568D01*
X0235642Y0047338D01*
X0228930Y0040626D01*
X0229095Y0040626D01*
X0229095Y0037151D01*
X0229245Y0037151D01*
X0229245Y0040626D01*
X0230777Y0040626D01*
X0231346Y0040473D01*
X0231856Y0040179D01*
X0232273Y0039762D01*
X0232568Y0039252D01*
X0232720Y0038683D01*
X0232720Y0037151D01*
X0229245Y0037151D01*
X0229245Y0037001D01*
X0232720Y0037001D01*
X0232720Y0035469D01*
X0232568Y0034899D01*
X0232273Y0034389D01*
X0231856Y0033973D01*
X0231346Y0033678D01*
X0230777Y0033526D01*
X0229245Y0033526D01*
X0229245Y0037001D01*
X0229095Y0037001D01*
X0229095Y0033526D01*
X0227563Y0033526D01*
X0226994Y0033678D01*
X0226484Y0033973D01*
X0226067Y0034389D01*
X0226039Y0034438D01*
X0225327Y0033726D01*
X0221014Y0033726D01*
X0219820Y0034919D01*
X0219820Y0039232D01*
X0221014Y0040426D01*
X0222790Y0040426D01*
X0229703Y0047338D01*
X0190120Y0047338D01*
X0190120Y0022534D01*
X0190809Y0022534D01*
X0191746Y0021597D01*
X0191746Y0016334D01*
X0190809Y0015397D01*
X0185153Y0015397D01*
X0184635Y0015915D01*
X0184116Y0015397D01*
X0178460Y0015397D01*
X0177523Y0016334D01*
X0177523Y0016826D01*
X0176038Y0016826D01*
X0176038Y0016334D01*
X0175101Y0015397D01*
X0170625Y0015397D01*
X0170030Y0015992D01*
X0169973Y0015892D01*
X0169638Y0015556D01*
X0169227Y0015320D01*
X0168769Y0015197D01*
X0166958Y0015197D01*
X0166958Y0018572D01*
X0166957Y0018572D01*
X0166957Y0018572D01*
X0163583Y0018572D01*
X0163583Y0020383D01*
X0163705Y0020841D01*
X0163942Y0021252D01*
X0164277Y0021587D01*
X0164688Y0021824D01*
X0165146Y0021946D01*
X0166957Y0021946D01*
X0166957Y0018572D01*
X0163583Y0018572D01*
X0163583Y0016760D01*
X0163705Y0016302D01*
X0163942Y0015892D01*
X0164277Y0015556D01*
X0164688Y0015320D01*
X0165146Y0015197D01*
X0166957Y0015197D01*
X0166957Y0018572D01*
X0166958Y0018572D02*
X0166958Y0021946D01*
X0168769Y0021946D01*
X0169227Y0021824D01*
X0169638Y0021587D01*
X0169973Y0021252D01*
X0170030Y0021151D01*
X0170625Y0021746D01*
X0175101Y0021746D01*
X0175821Y0021026D01*
X0177523Y0021026D01*
X0177523Y0021597D01*
X0178460Y0022534D01*
X0184116Y0022534D01*
X0184635Y0022015D01*
X0185153Y0022534D01*
X0185920Y0022534D01*
X0185920Y0049255D01*
X0184247Y0049255D01*
X0184083Y0049420D01*
X0169967Y0035304D01*
X0169967Y0033958D01*
X0169419Y0032635D01*
X0168406Y0031622D01*
X0167083Y0031074D01*
X0165651Y0031074D01*
X0164328Y0031622D01*
X0163315Y0032635D01*
X0162767Y0033958D01*
X0162767Y0035390D01*
X0163315Y0036713D01*
X0164328Y0037726D01*
X0165651Y0038274D01*
X0166997Y0038274D01*
X0183310Y0054587D01*
X0183310Y0057423D01*
X0184247Y0058361D01*
X0186050Y0058361D01*
X0186184Y0058438D01*
X0186642Y0058561D01*
X0187397Y0058561D01*
X0187397Y0065300D01*
X0182475Y0070222D01*
X0182299Y0070398D01*
X0182257Y0070239D01*
X0182180Y0070105D01*
X0182180Y0060429D01*
X0181242Y0059491D01*
X0178406Y0059491D01*
X0178064Y0059149D01*
X0165913Y0059149D01*
X0164961Y0058197D01*
X0163638Y0057649D01*
X0162206Y0057649D01*
X0160883Y0058197D01*
X0160095Y0058985D01*
X0159576Y0057733D01*
X0158564Y0056721D01*
X0157240Y0056172D01*
X0155808Y0056172D01*
X0155250Y0056404D01*
X0155250Y0051452D01*
X0154313Y0050515D01*
X0149766Y0050515D01*
X0149766Y0045514D01*
X0150133Y0045146D01*
X0150162Y0045195D01*
X0150578Y0045612D01*
X0151088Y0045906D01*
X0151657Y0046059D01*
X0153190Y0046059D01*
X0153190Y0042584D01*
X0153340Y0042584D01*
X0156815Y0042584D01*
X0156815Y0044116D01*
X0156662Y0044685D01*
X0156368Y0045195D01*
X0155951Y0045612D01*
X0155441Y0045906D01*
X0154872Y0046059D01*
X0153340Y0046059D01*
X0153340Y0042584D01*
X0153340Y0042434D01*
X0156815Y0042434D01*
X0156815Y0040902D01*
X0156662Y0040333D01*
X0156368Y0039822D01*
X0155951Y0039406D01*
X0155441Y0039111D01*
X0154872Y0038959D01*
X0153340Y0038959D01*
X0153340Y0042434D01*
X0153190Y0042434D01*
X0153190Y0038959D01*
X0151657Y0038959D01*
X0151088Y0039111D01*
X0150578Y0039406D01*
X0150162Y0039822D01*
X0150133Y0039871D01*
X0149421Y0039159D01*
X0145108Y0039159D01*
X0143915Y0040352D01*
X0143915Y0044665D01*
X0145108Y0045859D01*
X0145566Y0045859D01*
X0145566Y0050515D01*
X0145114Y0050515D01*
X0144176Y0051452D01*
X0144176Y0059471D01*
X0145114Y0060408D01*
X0149269Y0060408D01*
X0153943Y0065082D01*
X0145114Y0065082D01*
X0144176Y0066019D01*
X0144176Y0074038D01*
X0145114Y0074975D01*
X0149995Y0074975D01*
X0149995Y0077240D01*
X0149569Y0077666D01*
X0149541Y0077618D01*
X0149124Y0077201D01*
X0148614Y0076906D01*
X0148045Y0076754D01*
X0146513Y0076754D01*
X0146513Y0080229D01*
X0146363Y0080229D01*
X0146363Y0076754D01*
X0144831Y0076754D01*
X0144262Y0076906D01*
X0143751Y0077201D01*
X0143335Y0077618D01*
X0143040Y0078128D01*
X0142888Y0078697D01*
X0142888Y0080229D01*
X0146363Y0080229D01*
X0146363Y0080379D01*
X0146363Y0083854D01*
X0144831Y0083854D01*
X0144262Y0083701D01*
X0143751Y0083407D01*
X0143335Y0082990D01*
X0143040Y0082480D01*
X0142888Y0081911D01*
X0142888Y0080379D01*
X0146363Y0080379D01*
X0146513Y0080379D01*
X0146513Y0083854D01*
X0148045Y0083854D01*
X0148614Y0083701D01*
X0149124Y0083407D01*
X0149541Y0082990D01*
X0149569Y0082941D01*
X0150281Y0083654D01*
X0152830Y0083654D01*
X0152924Y0083749D01*
X0152924Y0085095D01*
X0153472Y0086418D01*
X0154485Y0087431D01*
X0155808Y0087979D01*
X0157240Y0087979D01*
X0158564Y0087431D01*
X0159576Y0086418D01*
X0160124Y0085095D01*
X0160124Y0083663D01*
X0159576Y0082339D01*
X0158564Y0081327D01*
X0157240Y0080779D01*
X0155894Y0080779D01*
X0155788Y0080672D01*
X0155788Y0078147D01*
X0154594Y0076954D01*
X0154195Y0076954D01*
X0154195Y0074975D01*
X0154313Y0074975D01*
X0155250Y0074038D01*
X0155250Y0066390D01*
X0166520Y0077659D01*
X0165776Y0078402D01*
X0165228Y0079726D01*
X0165228Y0081158D01*
X0165776Y0082481D01*
X0166788Y0083494D01*
X0167452Y0083769D01*
X0165029Y0086192D01*
X0163682Y0086192D01*
X0162359Y0086740D01*
X0161346Y0087753D01*
X0160798Y0089076D01*
X0160798Y0090508D01*
X0161059Y0091137D01*
X0156693Y0091137D01*
X0156693Y0089565D01*
X0155500Y0088371D01*
X0151187Y0088371D01*
X0150474Y0089084D01*
X0150446Y0089035D01*
X0150030Y0088618D01*
X0149519Y0088324D01*
X0148950Y0088171D01*
X0147418Y0088171D01*
X0147418Y0091646D01*
X0147268Y0091646D01*
X0147268Y0088171D01*
X0145736Y0088171D01*
X0145167Y0088324D01*
X0144657Y0088618D01*
X0144240Y0089035D01*
X0143946Y0089545D01*
X0143793Y0090114D01*
X0143793Y0091646D01*
X0147268Y0091646D01*
X0147268Y0091796D01*
X0143793Y0091796D01*
X0143793Y0093328D01*
X0143946Y0093897D01*
X0144240Y0094408D01*
X0144657Y0094824D01*
X0145167Y0095119D01*
X0145736Y0095271D01*
X0147268Y0095271D01*
X0147268Y0091796D01*
X0147418Y0091796D01*
X0147418Y0095271D01*
X0148950Y0095271D01*
X0149519Y0095119D01*
X0150030Y0094824D01*
X0150446Y0094408D01*
X0150474Y0094359D01*
X0150980Y0094864D01*
X0150980Y0098231D01*
X0146098Y0098231D01*
X0145161Y0099169D01*
X0145161Y0102865D01*
X0144813Y0102025D01*
X0143800Y0101012D01*
X0142477Y0100464D01*
X0141045Y0100464D01*
X0139721Y0101012D01*
X0138709Y0102025D01*
X0138161Y0103348D01*
X0138161Y0104694D01*
X0121388Y0121467D01*
X0121301Y0121381D01*
X0117727Y0121381D01*
X0117593Y0121303D01*
X0117135Y0121181D01*
X0115540Y0121181D01*
X0115540Y0125343D01*
X0115540Y0129505D01*
X0113945Y0129505D01*
X0113487Y0129382D01*
X0113353Y0129305D01*
X0112885Y0129305D01*
X0113841Y0130261D01*
X0113841Y0131638D01*
X0114758Y0132555D01*
X0114758Y0138605D01*
X0113821Y0139542D01*
X0109779Y0139542D01*
X0108842Y0138605D01*
X0108842Y0132555D01*
X0109519Y0131878D01*
X0098814Y0121174D01*
X0098814Y0110885D01*
X0098553Y0111516D01*
X0097540Y0112529D01*
X0096217Y0113077D01*
X0094785Y0113077D01*
X0093462Y0112529D01*
X0092449Y0111516D01*
X0092298Y0111151D01*
X0092298Y0156045D01*
X0091360Y0156983D01*
X0069057Y0156983D01*
X0069057Y0166941D01*
X0067827Y0168172D01*
X0053556Y0182443D01*
X0050762Y0182443D01*
X0050762Y0183250D01*
X0049825Y0184187D01*
X0044169Y0184187D01*
X0043231Y0183250D01*
X0043231Y0178381D01*
X0044169Y0177444D01*
X0048235Y0177444D01*
X0048102Y0177122D01*
X0048102Y0175776D01*
X0045095Y0172770D01*
X0040586Y0172770D01*
X0039649Y0171833D01*
X0039649Y0166964D01*
X0040586Y0166027D01*
X0046242Y0166027D01*
X0046997Y0166781D01*
X0047751Y0166027D01*
X0053408Y0166027D01*
X0054345Y0166964D01*
X0054345Y0171833D01*
X0053408Y0172770D01*
X0051035Y0172770D01*
X0051071Y0172806D01*
X0052418Y0172806D01*
X0053741Y0173354D01*
X0054753Y0174367D01*
X0055028Y0175031D01*
X0064857Y0165202D01*
X0064857Y0156983D01*
X0042791Y0156983D01*
X0041854Y0156045D01*
X0041854Y0113054D01*
X0037960Y0113054D01*
X0037009Y0114005D01*
X0035685Y0114554D01*
X0034253Y0114554D01*
X0032930Y0114005D01*
X0031917Y0112993D01*
X0031369Y0111670D01*
X0031369Y0110237D01*
X0031917Y0108914D01*
X0032930Y0107902D01*
X0034253Y0107354D01*
X0035685Y0107354D01*
X0037009Y0107902D01*
X0037960Y0108854D01*
X0041854Y0108854D01*
X0041854Y0107082D01*
X0042791Y0106145D01*
X0088214Y0106145D01*
X0087249Y0105180D01*
X0070517Y0105180D01*
X0066088Y0100750D01*
X0065546Y0100209D01*
X0065291Y0100209D01*
X0065188Y0100106D01*
X0064877Y0100286D01*
X0064419Y0100409D01*
X0063493Y0100409D01*
X0063493Y0095859D01*
X0063493Y0095859D01*
X0063493Y0100409D01*
X0062567Y0100409D01*
X0062109Y0100286D01*
X0061798Y0100106D01*
X0061695Y0100209D01*
X0061479Y0100209D01*
X0060938Y0100750D01*
X0059461Y0102227D01*
X0055261Y0102227D01*
X0054031Y0100997D01*
X0049602Y0096567D01*
X0049602Y0080590D01*
X0038569Y0091623D01*
X0038569Y0092969D01*
X0038021Y0094292D01*
X0037009Y0095305D01*
X0035685Y0095853D01*
X0034253Y0095853D01*
X0032930Y0095305D01*
X0031917Y0094292D01*
X0031369Y0092969D01*
X0031369Y0091537D01*
X0031917Y0090214D01*
X0032930Y0089201D01*
X0034253Y0088653D01*
X0035599Y0088653D01*
X0051246Y0073006D01*
X0043184Y0073006D01*
X0042247Y0072069D01*
X0042247Y0023106D01*
X0043184Y0022169D01*
X0091754Y0022169D01*
X0092691Y0023106D01*
X0092691Y0068962D01*
X0099798Y0061855D01*
X0099798Y0040202D01*
X0107672Y0032328D01*
X0108903Y0031098D01*
X0122945Y0031098D01*
X0127867Y0036019D01*
X0129097Y0037249D01*
X0129097Y0048831D01*
X0122280Y0055648D01*
X0122888Y0056255D01*
X0122888Y0061518D01*
X0121951Y0062455D01*
X0116295Y0062455D01*
X0115918Y0062078D01*
X0115700Y0062295D01*
X0115290Y0062532D01*
X0114832Y0062655D01*
X0112614Y0062655D01*
X0112614Y0059071D01*
X0112246Y0059071D01*
X0112246Y0062655D01*
X0110028Y0062655D01*
X0109570Y0062532D01*
X0109159Y0062295D01*
X0108824Y0061960D01*
X0108587Y0061550D01*
X0108465Y0061092D01*
X0108465Y0059071D01*
X0112246Y0059071D01*
X0112246Y0058702D01*
X0112614Y0058702D01*
X0112614Y0055118D01*
X0114832Y0055118D01*
X0115290Y0055241D01*
X0115700Y0055478D01*
X0115918Y0055695D01*
X0116295Y0055318D01*
X0117023Y0055318D01*
X0117023Y0050308D01*
X0115855Y0049140D01*
X0115154Y0049841D01*
X0113463Y0050542D01*
X0111633Y0050542D01*
X0109942Y0049841D01*
X0108648Y0048547D01*
X0107948Y0046857D01*
X0107948Y0040945D01*
X0105967Y0042926D01*
X0105967Y0080751D01*
X0107088Y0080287D01*
X0108520Y0080287D01*
X0109235Y0080583D01*
X0109235Y0078421D01*
X0110173Y0077484D01*
X0111227Y0077484D01*
X0110133Y0076390D01*
X0110133Y0075132D01*
X0109235Y0074234D01*
X0109235Y0068184D01*
X0110173Y0067247D01*
X0113747Y0067247D01*
X0113881Y0067170D01*
X0114339Y0067047D01*
X0115934Y0067047D01*
X0117529Y0067047D01*
X0117987Y0067170D01*
X0118121Y0067247D01*
X0121695Y0067247D01*
X0122632Y0068184D01*
X0122632Y0069483D01*
X0123271Y0069483D01*
X0123328Y0069460D01*
X0124760Y0069460D01*
X0126083Y0070008D01*
X0127096Y0071021D01*
X0127644Y0072344D01*
X0127644Y0073776D01*
X0127096Y0075099D01*
X0126083Y0076112D01*
X0125135Y0076505D01*
X0126083Y0076898D01*
X0127096Y0077910D01*
X0127644Y0079234D01*
X0127644Y0080666D01*
X0127096Y0081989D01*
X0126083Y0083002D01*
X0124760Y0083550D01*
X0123328Y0083550D01*
X0122632Y0083261D01*
X0122632Y0084471D01*
X0121695Y0085408D01*
X0120169Y0085408D01*
X0125898Y0091137D01*
X0127128Y0092367D01*
X0127128Y0103949D01*
X0120731Y0110347D01*
X0120641Y0110436D01*
X0121360Y0110436D01*
X0122298Y0111373D01*
X0122298Y0116636D01*
X0121360Y0117573D01*
X0115704Y0117573D01*
X0115327Y0117196D01*
X0115110Y0117414D01*
X0114699Y0117651D01*
X0114242Y0117773D01*
X0112180Y0117773D01*
X0113841Y0119434D01*
X0113841Y0121209D01*
X0113945Y0121181D01*
X0115540Y0121181D01*
X0115540Y0125343D01*
X0115540Y0125343D01*
X0115540Y0129505D01*
X0117135Y0129505D01*
X0117515Y0129403D01*
X0117515Y0131618D01*
X0117259Y0131618D01*
X0116322Y0132555D01*
X0116322Y0138605D01*
X0117259Y0139542D01*
X0121301Y0139542D01*
X0122239Y0138605D01*
X0122239Y0132555D01*
X0121715Y0132031D01*
X0121715Y0128891D01*
X0122239Y0128368D01*
X0122239Y0126556D01*
X0141130Y0107664D01*
X0142477Y0107664D01*
X0143800Y0107116D01*
X0144813Y0106103D01*
X0145161Y0105263D01*
X0145161Y0105612D01*
X0146098Y0106550D01*
X0153037Y0106550D01*
X0151513Y0108074D01*
X0146098Y0108074D01*
X0145161Y0109011D01*
X0145161Y0115455D01*
X0146098Y0116392D01*
X0150487Y0116392D01*
X0150487Y0120527D01*
X0150120Y0120895D01*
X0150092Y0120846D01*
X0149675Y0120429D01*
X0149165Y0120135D01*
X0148596Y0119982D01*
X0147064Y0119982D01*
X0147064Y0123457D01*
X0146914Y0123457D01*
X0146914Y0119982D01*
X0145382Y0119982D01*
X0144813Y0120135D01*
X0144303Y0120429D01*
X0143886Y0120846D01*
X0143591Y0121356D01*
X0143439Y0121925D01*
X0143439Y0123457D01*
X0146914Y0123457D01*
X0146914Y0123607D01*
X0143439Y0123607D01*
X0143439Y0125139D01*
X0143591Y0125708D01*
X0143886Y0126219D01*
X0144303Y0126635D01*
X0144813Y0126930D01*
X0145382Y0127082D01*
X0146914Y0127082D01*
X0146914Y0123607D01*
X0147064Y0123607D01*
X0147064Y0127082D01*
X0148596Y0127082D01*
X0149165Y0126930D01*
X0149675Y0126635D01*
X0150092Y0126219D01*
X0150120Y0126170D01*
X0150833Y0126882D01*
X0155145Y0126882D01*
X0156339Y0125689D01*
X0156339Y0121376D01*
X0155145Y0120182D01*
X0154687Y0120182D01*
X0154687Y0116215D01*
X0155447Y0115455D01*
X0155447Y0110079D01*
X0157863Y0107664D01*
X0159209Y0107664D01*
X0160532Y0107116D01*
X0161545Y0106103D01*
X0161806Y0105472D01*
X0161806Y0109931D01*
X0160854Y0110883D01*
X0160306Y0112206D01*
X0160306Y0113638D01*
X0160854Y0114961D01*
X0161867Y0115974D01*
X0163190Y0116522D01*
X0164622Y0116522D01*
X0165251Y0116262D01*
X0165251Y0132985D01*
X0165347Y0133080D01*
X0165228Y0133367D01*
X0165228Y0134800D01*
X0165776Y0136123D01*
X0166788Y0137135D01*
X0168111Y0137683D01*
X0169544Y0137683D01*
X0170867Y0137135D01*
X0171819Y0136183D01*
X0174216Y0136183D01*
X0174216Y0136360D01*
X0175153Y0137298D01*
X0180809Y0137298D01*
X0181328Y0136779D01*
X0181846Y0137298D01*
X0186296Y0137298D01*
X0188627Y0139628D01*
X0209560Y0139628D01*
X0210790Y0138398D01*
X0212512Y0136676D01*
X0217129Y0136676D01*
X0217129Y0137069D01*
X0218066Y0138006D01*
X0223723Y0138006D01*
X0224241Y0137488D01*
X0224759Y0138006D01*
X0230415Y0138006D01*
X0231353Y0137069D01*
X0231353Y0131807D01*
X0230415Y0130869D01*
X0227146Y0130869D01*
X0226538Y0130261D01*
X0225308Y0129031D01*
X0207345Y0129031D01*
X0207345Y0128292D01*
X0205144Y0126091D01*
X0205808Y0125816D01*
X0206820Y0124804D01*
X0207368Y0123481D01*
X0207368Y0122048D01*
X0207080Y0121353D01*
X0232672Y0121353D01*
X0232672Y0138135D01*
X0198223Y0172584D01*
X0198223Y0165424D01*
X0198300Y0165290D01*
X0198423Y0164832D01*
X0198423Y0163808D01*
X0194261Y0163808D01*
X0194261Y0163808D01*
X0198423Y0163808D01*
X0198423Y0162783D01*
X0198300Y0162326D01*
X0198223Y0162192D01*
X0198223Y0154484D01*
X0197286Y0153546D01*
X0191236Y0153546D01*
X0190298Y0154484D01*
X0190298Y0157353D01*
X0190060Y0157114D01*
X0188737Y0156566D01*
X0187390Y0156566D01*
X0178825Y0148001D01*
X0178825Y0146655D01*
X0178277Y0145332D01*
X0177264Y0144319D01*
X0175941Y0143771D01*
X0174509Y0143771D01*
X0173186Y0144319D01*
X0172173Y0145332D01*
X0171625Y0146655D01*
X0171625Y0148087D01*
X0172053Y0149120D01*
X0171020Y0148692D01*
X0169588Y0148692D01*
X0168265Y0149240D01*
X0167252Y0150253D01*
X0166704Y0151576D01*
X0166704Y0153008D01*
X0167252Y0154331D01*
X0167336Y0154415D01*
X0167267Y0154484D01*
X0167267Y0156788D01*
X0165521Y0158535D01*
X0164174Y0158535D01*
X0162851Y0159083D01*
X0161839Y0160095D01*
X0161564Y0160759D01*
X0155672Y0154867D01*
X0155672Y0150438D01*
X0152743Y0147509D01*
X0152743Y0146163D01*
X0152255Y0144985D01*
X0152264Y0144976D01*
X0152501Y0144566D01*
X0152624Y0144108D01*
X0152624Y0142371D01*
X0147824Y0142371D01*
X0147824Y0142371D01*
X0152624Y0142371D01*
X0152624Y0140634D01*
X0152501Y0140176D01*
X0152264Y0139766D01*
X0151929Y0139430D01*
X0151518Y0139194D01*
X0151061Y0139071D01*
X0147824Y0139071D01*
X0147824Y0142371D01*
X0147824Y0142371D01*
X0147823Y0142371D02*
X0147823Y0142371D01*
X0143024Y0142371D01*
X0143024Y0144108D01*
X0143146Y0144566D01*
X0143383Y0144976D01*
X0143718Y0145311D01*
X0144129Y0145548D01*
X0144587Y0145671D01*
X0145746Y0145671D01*
X0145543Y0146163D01*
X0145543Y0147595D01*
X0146091Y0148918D01*
X0147103Y0149931D01*
X0147659Y0150161D01*
X0147075Y0150745D01*
X0146527Y0152068D01*
X0146527Y0153500D01*
X0146846Y0154271D01*
X0144161Y0154271D01*
X0143224Y0155208D01*
X0143224Y0159534D01*
X0144161Y0160471D01*
X0151486Y0160471D01*
X0152424Y0159534D01*
X0152424Y0157559D01*
X0152702Y0157837D01*
X0162167Y0167302D01*
X0153194Y0176275D01*
X0150767Y0176275D01*
X0153211Y0173831D01*
X0153211Y0173339D01*
X0155402Y0171148D01*
X0156748Y0171148D01*
X0158072Y0170600D01*
X0159084Y0169587D01*
X0159632Y0168264D01*
X0159632Y0166832D01*
X0159084Y0165509D01*
X0158072Y0164496D01*
X0156748Y0163948D01*
X0155316Y0163948D01*
X0153993Y0164496D01*
X0152980Y0165509D01*
X0152432Y0166832D01*
X0152432Y0168178D01*
X0150849Y0169762D01*
X0150718Y0169446D01*
X0149705Y0168433D01*
X0148382Y0167885D01*
X0146950Y0167885D01*
X0145841Y0168344D01*
X0145546Y0168174D01*
X0145088Y0168051D01*
X0141406Y0168051D01*
X0141406Y0170737D01*
X0141406Y0170737D01*
X0141406Y0168051D01*
X0140416Y0168051D01*
X0140416Y0167586D01*
X0141368Y0166635D01*
X0141916Y0165311D01*
X0141916Y0163879D01*
X0141368Y0162556D01*
X0140355Y0161543D01*
X0139032Y0160995D01*
X0137600Y0160995D01*
X0136277Y0161543D01*
X0135264Y0162556D01*
X0134716Y0163879D01*
X0134716Y0165311D01*
X0135264Y0166635D01*
X0135762Y0167132D01*
X0129128Y0173766D01*
X0129128Y0169188D01*
X0128191Y0168251D01*
X0121739Y0168251D01*
X0121739Y0167816D01*
X0121191Y0166493D01*
X0120178Y0165480D01*
X0118855Y0164932D01*
X0117422Y0164932D01*
X0116099Y0165480D01*
X0115087Y0166493D01*
X0114812Y0167157D01*
X0114579Y0166924D01*
X0109778Y0166924D01*
X0109778Y0166177D01*
X0108841Y0165239D01*
X0103184Y0165239D01*
X0102430Y0165994D01*
X0101675Y0165239D01*
X0096019Y0165239D01*
X0095082Y0166177D01*
X0095082Y0171045D01*
X0096019Y0171983D01*
X0101675Y0171983D01*
X0102430Y0171228D01*
X0103184Y0171983D01*
X0108841Y0171983D01*
X0109699Y0171124D01*
X0112840Y0171124D01*
X0115546Y0173831D01*
X0116777Y0175061D01*
X0117990Y0175061D01*
X0115300Y0177751D01*
X0106195Y0177751D01*
X0106195Y0177594D01*
X0105258Y0176657D01*
X0099602Y0176657D01*
X0098665Y0177594D01*
X0098665Y0179553D01*
X0097132Y0178021D01*
X0097132Y0176674D01*
X0096584Y0175351D01*
X0095572Y0174339D01*
X0094248Y0173791D01*
X0092816Y0173791D01*
X0091493Y0174339D01*
X0090480Y0175351D01*
X0089932Y0176674D01*
X0089932Y0178107D01*
X0090480Y0179430D01*
X0090747Y0179696D01*
X0090356Y0179696D01*
X0089032Y0180244D01*
X0088020Y0181257D01*
X0087472Y0182580D01*
X0087472Y0184012D01*
X0088020Y0185335D01*
X0089032Y0186348D01*
X0090356Y0186896D01*
X0091702Y0186896D01*
X0111842Y0207036D01*
X0111178Y0207311D01*
X0110226Y0208263D01*
X0088989Y0208263D01*
X0074225Y0193499D01*
X0073394Y0193499D01*
X0072442Y0192547D01*
X0071118Y0191999D01*
X0069686Y0191999D01*
X0068363Y0192547D01*
X0067350Y0193560D01*
X0066802Y0194883D01*
X0066802Y0196315D01*
X0067350Y0197638D01*
X0068363Y0198651D01*
X0069686Y0199199D01*
X0071118Y0199199D01*
X0072442Y0198651D01*
X0072939Y0198153D01*
X0079012Y0204226D01*
X0078008Y0203810D01*
X0076576Y0203810D01*
X0075253Y0204358D01*
X0074240Y0205371D01*
X0073692Y0206694D01*
X0073692Y0208126D01*
X0074240Y0209449D01*
X0075253Y0210462D01*
X0076576Y0211010D01*
X0078008Y0211010D01*
X0079331Y0210462D01*
X0079337Y0210456D01*
X0086931Y0218050D01*
X0009565Y0218050D01*
X0009565Y0137269D01*
X0011866Y0137269D01*
X0011866Y0113269D01*
X0013466Y0113269D01*
X0017966Y0113269D01*
X0017966Y0114335D01*
X0018940Y0113932D01*
X0018940Y0111007D01*
X0017966Y0110603D01*
X0017966Y0111669D01*
X0013466Y0111669D01*
X0013466Y0087669D01*
X0016403Y0087669D01*
X0016861Y0087792D01*
X0017271Y0088029D01*
X0017606Y0088364D01*
X0017843Y0088775D01*
X0017966Y0089232D01*
X0017966Y0099375D01*
X0020040Y0098516D01*
X0022615Y0098516D01*
X0024994Y0099501D01*
X0026815Y0101322D01*
X0027801Y0103701D01*
X0027801Y0106136D01*
X0027852Y0106327D01*
X0027852Y0107351D01*
X0027356Y0107351D01*
X0027356Y0107351D01*
X0027852Y0107351D01*
X0027852Y0108376D01*
X0027729Y0108833D01*
X0027652Y0108967D01*
X0027652Y0118303D01*
X0027801Y0118662D01*
X0027801Y0121237D01*
X0026959Y0123269D01*
X0027363Y0123102D01*
X0028796Y0123102D01*
X0030119Y0123650D01*
X0031131Y0124662D01*
X0031680Y0125985D01*
X0031680Y0127418D01*
X0031131Y0128741D01*
X0030119Y0129753D01*
X0028796Y0130302D01*
X0027363Y0130302D01*
X0026040Y0129753D01*
X0025696Y0129409D01*
X0025696Y0141301D01*
X0026489Y0142094D01*
X0027035Y0143410D01*
X0027035Y0144835D01*
X0026489Y0146151D01*
X0025482Y0147159D01*
X0024166Y0147704D01*
X0022741Y0147704D01*
X0021425Y0147159D01*
X0020418Y0146151D01*
X0019872Y0144835D01*
X0019872Y0143410D01*
X0020418Y0142094D01*
X0020896Y0141616D01*
X0020896Y0126423D01*
X0020040Y0126423D01*
X0017966Y0125564D01*
X0017966Y0135706D01*
X0017843Y0136164D01*
X0017606Y0136575D01*
X0017271Y0136910D01*
X0016861Y0137147D01*
X0016403Y0137269D01*
X0013466Y0137269D01*
X0013466Y0113269D01*
X0013466Y0111669D01*
X0011866Y0111669D01*
X0011866Y0087669D01*
X0009565Y0087669D01*
X0009565Y0087041D02*
X0037212Y0087041D01*
X0035613Y0088639D02*
X0017765Y0088639D01*
X0017966Y0090238D02*
X0031907Y0090238D01*
X0031369Y0091836D02*
X0017966Y0091836D01*
X0017966Y0093435D02*
X0031562Y0093435D01*
X0032658Y0095033D02*
X0017966Y0095033D01*
X0017966Y0096632D02*
X0049666Y0096632D01*
X0049602Y0095033D02*
X0037280Y0095033D01*
X0038376Y0093435D02*
X0049602Y0093435D01*
X0049602Y0091836D02*
X0038569Y0091836D01*
X0039954Y0090238D02*
X0049602Y0090238D01*
X0049602Y0088639D02*
X0041553Y0088639D01*
X0043151Y0087041D02*
X0049602Y0087041D01*
X0049602Y0085442D02*
X0044750Y0085442D01*
X0046348Y0083844D02*
X0049602Y0083844D01*
X0049602Y0082245D02*
X0047947Y0082245D01*
X0049545Y0080646D02*
X0049602Y0080646D01*
X0045204Y0079048D02*
X0009565Y0079048D01*
X0009565Y0080646D02*
X0043606Y0080646D01*
X0042007Y0082245D02*
X0009565Y0082245D01*
X0009565Y0083844D02*
X0040409Y0083844D01*
X0038810Y0085442D02*
X0009565Y0085442D01*
X0011866Y0088639D02*
X0013466Y0088639D01*
X0013466Y0090238D02*
X0011866Y0090238D01*
X0011866Y0091836D02*
X0013466Y0091836D01*
X0013466Y0093435D02*
X0011866Y0093435D01*
X0011866Y0095033D02*
X0013466Y0095033D01*
X0013466Y0096632D02*
X0011866Y0096632D01*
X0011866Y0098230D02*
X0013466Y0098230D01*
X0013466Y0099829D02*
X0011866Y0099829D01*
X0011866Y0101427D02*
X0013466Y0101427D01*
X0013466Y0103026D02*
X0011866Y0103026D01*
X0011866Y0104624D02*
X0013466Y0104624D01*
X0013466Y0106223D02*
X0011866Y0106223D01*
X0011866Y0107821D02*
X0013466Y0107821D01*
X0013466Y0109420D02*
X0011866Y0109420D01*
X0011866Y0111018D02*
X0013466Y0111018D01*
X0014854Y0110281D02*
X0012666Y0112469D01*
X0013466Y0112617D02*
X0018940Y0112617D01*
X0018940Y0111018D02*
X0017966Y0111018D01*
X0017966Y0114215D02*
X0018256Y0114215D01*
X0014854Y0110281D02*
X0014854Y0102308D01*
X0018646Y0098516D01*
X0024009Y0098516D01*
X0032844Y0107351D01*
X0035461Y0107351D01*
X0038650Y0107351D01*
X0038808Y0107509D01*
X0036814Y0107821D02*
X0041854Y0107821D01*
X0042713Y0106223D02*
X0027824Y0106223D01*
X0027095Y0107351D02*
X0023296Y0107351D01*
X0027095Y0107351D02*
X0032844Y0107351D01*
X0033124Y0107821D02*
X0027852Y0107821D01*
X0027652Y0109420D02*
X0031708Y0109420D01*
X0031369Y0111018D02*
X0027652Y0111018D01*
X0027652Y0112617D02*
X0031762Y0112617D01*
X0033436Y0114215D02*
X0027652Y0114215D01*
X0027652Y0115814D02*
X0041854Y0115814D01*
X0041854Y0117412D02*
X0027652Y0117412D01*
X0027801Y0119011D02*
X0041854Y0119011D01*
X0041854Y0120609D02*
X0027801Y0120609D01*
X0027399Y0122208D02*
X0041854Y0122208D01*
X0041854Y0123806D02*
X0030275Y0123806D01*
X0031439Y0125405D02*
X0041854Y0125405D01*
X0041854Y0127003D02*
X0031680Y0127003D01*
X0031189Y0128602D02*
X0041854Y0128602D01*
X0041854Y0130200D02*
X0029040Y0130200D01*
X0027119Y0130200D02*
X0025696Y0130200D01*
X0025696Y0131799D02*
X0041854Y0131799D01*
X0041854Y0133397D02*
X0025696Y0133397D01*
X0025696Y0134996D02*
X0041854Y0134996D01*
X0041854Y0136594D02*
X0025696Y0136594D01*
X0025696Y0138193D02*
X0041854Y0138193D01*
X0041854Y0139791D02*
X0025696Y0139791D01*
X0025785Y0141390D02*
X0041854Y0141390D01*
X0041854Y0142988D02*
X0026860Y0142988D01*
X0027035Y0144587D02*
X0041854Y0144587D01*
X0041854Y0146185D02*
X0026455Y0146185D01*
X0023454Y0144123D02*
X0023454Y0143139D01*
X0023296Y0142981D01*
X0023296Y0126702D01*
X0023296Y0117587D01*
X0013466Y0117412D02*
X0011866Y0117412D01*
X0011866Y0115814D02*
X0013466Y0115814D01*
X0013466Y0114215D02*
X0011866Y0114215D01*
X0011866Y0119011D02*
X0013466Y0119011D01*
X0013466Y0120609D02*
X0011866Y0120609D01*
X0011866Y0122208D02*
X0013466Y0122208D01*
X0013466Y0123806D02*
X0011866Y0123806D01*
X0011866Y0125405D02*
X0013466Y0125405D01*
X0013466Y0127003D02*
X0011866Y0127003D01*
X0011866Y0128602D02*
X0013466Y0128602D01*
X0013466Y0130200D02*
X0011866Y0130200D01*
X0011866Y0131799D02*
X0013466Y0131799D01*
X0013466Y0133397D02*
X0011866Y0133397D01*
X0011866Y0134996D02*
X0013466Y0134996D01*
X0013466Y0136594D02*
X0011866Y0136594D01*
X0009565Y0138193D02*
X0020896Y0138193D01*
X0020896Y0139791D02*
X0009565Y0139791D01*
X0009565Y0141390D02*
X0020896Y0141390D01*
X0020047Y0142988D02*
X0009565Y0142988D01*
X0009565Y0144587D02*
X0019872Y0144587D01*
X0020452Y0146185D02*
X0009565Y0146185D01*
X0009565Y0147784D02*
X0041854Y0147784D01*
X0041854Y0149382D02*
X0009565Y0149382D01*
X0009565Y0150981D02*
X0041854Y0150981D01*
X0041854Y0152579D02*
X0009565Y0152579D01*
X0009565Y0154178D02*
X0041854Y0154178D01*
X0041854Y0155777D02*
X0009565Y0155777D01*
X0009565Y0157375D02*
X0064857Y0157375D01*
X0064857Y0158974D02*
X0009565Y0158974D01*
X0009565Y0160572D02*
X0064857Y0160572D01*
X0064857Y0162171D02*
X0009565Y0162171D01*
X0009565Y0163769D02*
X0064857Y0163769D01*
X0064692Y0165368D02*
X0009565Y0165368D01*
X0009565Y0166966D02*
X0039649Y0166966D01*
X0039649Y0168565D02*
X0009565Y0168565D01*
X0009565Y0170163D02*
X0039649Y0170163D01*
X0039649Y0171762D02*
X0009565Y0171762D01*
X0009565Y0173360D02*
X0045686Y0173360D01*
X0047284Y0174959D02*
X0009565Y0174959D01*
X0009565Y0176557D02*
X0048102Y0176557D01*
X0043457Y0178156D02*
X0009565Y0178156D01*
X0009565Y0179754D02*
X0043231Y0179754D01*
X0043231Y0181353D02*
X0009565Y0181353D01*
X0009565Y0182951D02*
X0043231Y0182951D01*
X0050762Y0182951D02*
X0087472Y0182951D01*
X0087694Y0184550D02*
X0009565Y0184550D01*
X0009565Y0186148D02*
X0088833Y0186148D01*
X0092552Y0187747D02*
X0009565Y0187747D01*
X0009565Y0189345D02*
X0094151Y0189345D01*
X0095750Y0190944D02*
X0009565Y0190944D01*
X0009565Y0192542D02*
X0068375Y0192542D01*
X0067110Y0194141D02*
X0009565Y0194141D01*
X0009565Y0195739D02*
X0066802Y0195739D01*
X0067226Y0197338D02*
X0009565Y0197338D01*
X0009565Y0198936D02*
X0069052Y0198936D01*
X0071753Y0198936D02*
X0073722Y0198936D01*
X0075321Y0200535D02*
X0009565Y0200535D01*
X0009565Y0202133D02*
X0076919Y0202133D01*
X0078518Y0203732D02*
X0009565Y0203732D01*
X0009565Y0205330D02*
X0074281Y0205330D01*
X0073692Y0206929D02*
X0009565Y0206929D01*
X0009565Y0208527D02*
X0073858Y0208527D01*
X0074917Y0210126D02*
X0009565Y0210126D01*
X0009565Y0211724D02*
X0080605Y0211724D01*
X0082203Y0213323D02*
X0009565Y0213323D01*
X0009565Y0214921D02*
X0083802Y0214921D01*
X0085401Y0216520D02*
X0009565Y0216520D01*
X0054646Y0181353D02*
X0087980Y0181353D01*
X0090215Y0179754D02*
X0056245Y0179754D01*
X0057843Y0178156D02*
X0089953Y0178156D01*
X0089981Y0176557D02*
X0059442Y0176557D01*
X0061040Y0174959D02*
X0090873Y0174959D01*
X0096192Y0174959D02*
X0116674Y0174959D01*
X0116494Y0176557D02*
X0097084Y0176557D01*
X0097267Y0178156D02*
X0098665Y0178156D01*
X0095798Y0171762D02*
X0064237Y0171762D01*
X0062639Y0173360D02*
X0115075Y0173360D01*
X0113477Y0171762D02*
X0109062Y0171762D01*
X0102963Y0171762D02*
X0101896Y0171762D01*
X0095082Y0170163D02*
X0065836Y0170163D01*
X0067434Y0168565D02*
X0095082Y0168565D01*
X0095082Y0166966D02*
X0069033Y0166966D01*
X0069057Y0165368D02*
X0095891Y0165368D01*
X0101804Y0165368D02*
X0103056Y0165368D01*
X0108969Y0165368D02*
X0116372Y0165368D01*
X0114891Y0166966D02*
X0114621Y0166966D01*
X0119906Y0165368D02*
X0134739Y0165368D01*
X0134761Y0163769D02*
X0069057Y0163769D01*
X0069057Y0162171D02*
X0135649Y0162171D01*
X0136277Y0160265D02*
X0135325Y0159313D01*
X0132424Y0159313D01*
X0132424Y0159534D01*
X0131486Y0160471D01*
X0124161Y0160471D01*
X0123224Y0159534D01*
X0123224Y0156361D01*
X0112872Y0156361D01*
X0112027Y0157205D01*
X0107714Y0157205D01*
X0106521Y0156012D01*
X0106521Y0151699D01*
X0107233Y0150986D01*
X0107184Y0150958D01*
X0106768Y0150541D01*
X0106473Y0150031D01*
X0106321Y0149462D01*
X0106321Y0147930D01*
X0109796Y0147930D01*
X0109796Y0147780D01*
X0109946Y0147780D01*
X0109946Y0147930D01*
X0113421Y0147930D01*
X0113421Y0149462D01*
X0113268Y0150031D01*
X0112974Y0150541D01*
X0112557Y0150958D01*
X0112508Y0150986D01*
X0113221Y0151699D01*
X0113221Y0152161D01*
X0125406Y0152161D01*
X0127516Y0154271D01*
X0131486Y0154271D01*
X0132329Y0155113D01*
X0135325Y0155113D01*
X0136277Y0154161D01*
X0137600Y0153613D01*
X0139032Y0153613D01*
X0140355Y0154161D01*
X0141368Y0155174D01*
X0141916Y0156497D01*
X0141916Y0157929D01*
X0141368Y0159253D01*
X0140355Y0160265D01*
X0139032Y0160813D01*
X0137600Y0160813D01*
X0136277Y0160265D01*
X0137017Y0160572D02*
X0069057Y0160572D01*
X0069057Y0158974D02*
X0123224Y0158974D01*
X0123224Y0157375D02*
X0069057Y0157375D01*
X0063093Y0166966D02*
X0054345Y0166966D01*
X0054345Y0168565D02*
X0061495Y0168565D01*
X0059896Y0170163D02*
X0054345Y0170163D01*
X0054345Y0171762D02*
X0058298Y0171762D01*
X0056699Y0173360D02*
X0053747Y0173360D01*
X0054999Y0174959D02*
X0055101Y0174959D01*
X0072430Y0192542D02*
X0097348Y0192542D01*
X0098947Y0194141D02*
X0074867Y0194141D01*
X0076465Y0195739D02*
X0100545Y0195739D01*
X0102144Y0197338D02*
X0078064Y0197338D01*
X0079662Y0198936D02*
X0103742Y0198936D01*
X0105341Y0200535D02*
X0081261Y0200535D01*
X0082859Y0202133D02*
X0106939Y0202133D01*
X0108538Y0203732D02*
X0084458Y0203732D01*
X0086056Y0205330D02*
X0110136Y0205330D01*
X0111735Y0206929D02*
X0087655Y0206929D01*
X0129128Y0173360D02*
X0129534Y0173360D01*
X0129128Y0171762D02*
X0131132Y0171762D01*
X0132731Y0170163D02*
X0129128Y0170163D01*
X0128505Y0168565D02*
X0134329Y0168565D01*
X0135595Y0166966D02*
X0121386Y0166966D01*
X0127423Y0154178D02*
X0136260Y0154178D01*
X0140372Y0154178D02*
X0146807Y0154178D01*
X0146527Y0152579D02*
X0125825Y0152579D01*
X0124587Y0145671D02*
X0124129Y0145548D01*
X0123718Y0145311D01*
X0123383Y0144976D01*
X0123146Y0144566D01*
X0123024Y0144108D01*
X0123024Y0142371D01*
X0127823Y0142371D01*
X0127823Y0142371D01*
X0123024Y0142371D01*
X0123024Y0140634D01*
X0123146Y0140176D01*
X0123383Y0139766D01*
X0123718Y0139430D01*
X0124129Y0139194D01*
X0124587Y0139071D01*
X0127824Y0139071D01*
X0131061Y0139071D01*
X0131518Y0139194D01*
X0131929Y0139430D01*
X0132264Y0139766D01*
X0132501Y0140176D01*
X0132624Y0140634D01*
X0132624Y0142371D01*
X0132624Y0144108D01*
X0132501Y0144566D01*
X0132264Y0144976D01*
X0131929Y0145311D01*
X0131518Y0145548D01*
X0131061Y0145671D01*
X0127824Y0145671D01*
X0127824Y0142371D01*
X0132624Y0142371D01*
X0127824Y0142371D01*
X0127824Y0142371D01*
X0127824Y0142371D01*
X0127824Y0139071D01*
X0127824Y0142371D01*
X0127824Y0142371D01*
X0127824Y0145671D01*
X0124587Y0145671D01*
X0123159Y0144587D02*
X0112271Y0144587D01*
X0112047Y0144458D02*
X0112557Y0144752D01*
X0112974Y0145169D01*
X0113268Y0145679D01*
X0113421Y0146248D01*
X0113421Y0147780D01*
X0109946Y0147780D01*
X0109946Y0144305D01*
X0111478Y0144305D01*
X0112047Y0144458D01*
X0109946Y0144587D02*
X0109796Y0144587D01*
X0109796Y0144305D02*
X0109796Y0147780D01*
X0106321Y0147780D01*
X0106321Y0146248D01*
X0106473Y0145679D01*
X0106768Y0145169D01*
X0107184Y0144752D01*
X0107695Y0144458D01*
X0108264Y0144305D01*
X0109796Y0144305D01*
X0109796Y0146185D02*
X0109946Y0146185D01*
X0109946Y0147784D02*
X0145621Y0147784D01*
X0145543Y0146185D02*
X0113404Y0146185D01*
X0109796Y0147784D02*
X0092298Y0147784D01*
X0092298Y0149382D02*
X0106321Y0149382D01*
X0107224Y0150981D02*
X0092298Y0150981D01*
X0092298Y0152579D02*
X0106521Y0152579D01*
X0106521Y0154178D02*
X0092298Y0154178D01*
X0092298Y0155777D02*
X0106521Y0155777D01*
X0112518Y0150981D02*
X0146977Y0150981D01*
X0146555Y0149382D02*
X0113421Y0149382D01*
X0107471Y0144587D02*
X0092298Y0144587D01*
X0092298Y0146185D02*
X0106338Y0146185D01*
X0108842Y0138193D02*
X0092298Y0138193D01*
X0092298Y0139791D02*
X0123368Y0139791D01*
X0123024Y0141390D02*
X0092298Y0141390D01*
X0092298Y0142988D02*
X0123024Y0142988D01*
X0127824Y0142988D02*
X0127824Y0142988D01*
X0127824Y0141390D02*
X0127824Y0141390D01*
X0127824Y0139791D02*
X0127824Y0139791D01*
X0132279Y0139791D02*
X0143368Y0139791D01*
X0143383Y0139766D02*
X0143718Y0139430D01*
X0144129Y0139194D01*
X0144587Y0139071D01*
X0147824Y0139071D01*
X0147824Y0142371D01*
X0147823Y0142371D02*
X0143024Y0142371D01*
X0143024Y0140634D01*
X0143146Y0140176D01*
X0143383Y0139766D01*
X0143024Y0141390D02*
X0132624Y0141390D01*
X0132624Y0142988D02*
X0143024Y0142988D01*
X0143159Y0144587D02*
X0132489Y0144587D01*
X0127824Y0144587D02*
X0127824Y0144587D01*
X0122239Y0138193D02*
X0187192Y0138193D01*
X0190367Y0135428D02*
X0194921Y0135428D01*
X0194921Y0134425D01*
X0198702Y0134425D01*
X0198702Y0134057D01*
X0194921Y0134057D01*
X0194921Y0132035D01*
X0195044Y0131578D01*
X0195281Y0131167D01*
X0195616Y0130832D01*
X0196026Y0130595D01*
X0196484Y0130472D01*
X0198702Y0130472D01*
X0198702Y0134057D01*
X0199071Y0134057D01*
X0199071Y0130472D01*
X0201289Y0130472D01*
X0201747Y0130595D01*
X0202157Y0130832D01*
X0202374Y0131049D01*
X0202751Y0130672D01*
X0203145Y0130672D01*
X0203145Y0130032D01*
X0196501Y0123388D01*
X0195271Y0122158D01*
X0195271Y0121353D01*
X0194628Y0121353D01*
X0188889Y0121353D01*
X0188755Y0121430D01*
X0188297Y0121553D01*
X0187469Y0121553D01*
X0187168Y0121553D01*
X0187168Y0130161D01*
X0187502Y0130161D01*
X0188439Y0131098D01*
X0188439Y0133501D01*
X0190367Y0135428D01*
X0189934Y0134996D02*
X0194921Y0134996D01*
X0194921Y0133397D02*
X0188439Y0133397D01*
X0188439Y0131799D02*
X0194985Y0131799D01*
X0198702Y0131799D02*
X0199071Y0131799D01*
X0199071Y0133397D02*
X0198702Y0133397D01*
X0203145Y0130200D02*
X0187542Y0130200D01*
X0187168Y0128602D02*
X0201715Y0128602D01*
X0200116Y0127003D02*
X0187168Y0127003D01*
X0187168Y0125405D02*
X0198518Y0125405D01*
X0196919Y0123806D02*
X0187168Y0123806D01*
X0187168Y0122208D02*
X0195321Y0122208D01*
X0187469Y0121553D02*
X0187469Y0120638D01*
X0187469Y0121553D01*
X0187469Y0120638D02*
X0187469Y0120638D01*
X0187469Y0120638D01*
X0206219Y0125405D02*
X0232672Y0125405D01*
X0232672Y0127003D02*
X0206056Y0127003D01*
X0207345Y0128602D02*
X0232672Y0128602D01*
X0232672Y0130200D02*
X0226477Y0130200D01*
X0231345Y0131799D02*
X0232672Y0131799D01*
X0232672Y0133397D02*
X0231353Y0133397D01*
X0231353Y0134996D02*
X0232672Y0134996D01*
X0232672Y0136594D02*
X0231353Y0136594D01*
X0232614Y0138193D02*
X0210995Y0138193D01*
X0211374Y0140818D02*
X0209942Y0140818D01*
X0208619Y0141366D01*
X0207606Y0142379D01*
X0207058Y0143702D01*
X0207058Y0145134D01*
X0207606Y0146457D01*
X0208558Y0147409D01*
X0208558Y0148317D01*
X0207606Y0149269D01*
X0207058Y0150592D01*
X0207058Y0152024D01*
X0207606Y0153347D01*
X0208619Y0154360D01*
X0209942Y0154908D01*
X0211374Y0154908D01*
X0212698Y0154360D01*
X0213710Y0153347D01*
X0214258Y0152024D01*
X0214258Y0150592D01*
X0213710Y0149269D01*
X0212758Y0148317D01*
X0212758Y0147409D01*
X0213710Y0146457D01*
X0214258Y0145134D01*
X0214258Y0143702D01*
X0213710Y0142379D01*
X0212698Y0141366D01*
X0211374Y0140818D01*
X0212721Y0141390D02*
X0229417Y0141390D01*
X0227819Y0142988D02*
X0213963Y0142988D01*
X0214258Y0144587D02*
X0226220Y0144587D01*
X0224622Y0146185D02*
X0213823Y0146185D01*
X0212758Y0147784D02*
X0223023Y0147784D01*
X0221425Y0149382D02*
X0213757Y0149382D01*
X0214258Y0150981D02*
X0219826Y0150981D01*
X0218228Y0152579D02*
X0214028Y0152579D01*
X0212879Y0154178D02*
X0216629Y0154178D01*
X0215031Y0155777D02*
X0198223Y0155777D01*
X0198223Y0157375D02*
X0213432Y0157375D01*
X0211834Y0158974D02*
X0198223Y0158974D01*
X0198223Y0160572D02*
X0210235Y0160572D01*
X0208637Y0162171D02*
X0198223Y0162171D01*
X0198423Y0163769D02*
X0207038Y0163769D01*
X0205440Y0165368D02*
X0198255Y0165368D01*
X0198223Y0166966D02*
X0203841Y0166966D01*
X0202243Y0168565D02*
X0198223Y0168565D01*
X0198223Y0170163D02*
X0200644Y0170163D01*
X0199046Y0171762D02*
X0198223Y0171762D01*
X0196738Y0174069D02*
X0191236Y0174069D01*
X0190298Y0173132D01*
X0190298Y0165424D01*
X0190221Y0165290D01*
X0190098Y0164832D01*
X0190098Y0163808D01*
X0194260Y0163808D01*
X0194260Y0163808D01*
X0190098Y0163808D01*
X0190098Y0163179D01*
X0190060Y0163218D01*
X0188737Y0163766D01*
X0187304Y0163766D01*
X0185981Y0163218D01*
X0184969Y0162205D01*
X0184420Y0160882D01*
X0184420Y0159536D01*
X0175855Y0150971D01*
X0174509Y0150971D01*
X0173476Y0150543D01*
X0173904Y0151576D01*
X0173904Y0153008D01*
X0173681Y0153546D01*
X0174254Y0153546D01*
X0175191Y0154484D01*
X0175191Y0159623D01*
X0176341Y0160773D01*
X0177325Y0161757D01*
X0177325Y0165957D01*
X0176965Y0166318D01*
X0186406Y0175759D01*
X0187752Y0175759D01*
X0189075Y0176307D01*
X0190088Y0177320D01*
X0190636Y0178643D01*
X0190636Y0180075D01*
X0190568Y0180239D01*
X0191580Y0179228D01*
X0196738Y0174069D01*
X0195849Y0174959D02*
X0185606Y0174959D01*
X0184007Y0173360D02*
X0190527Y0173360D01*
X0190298Y0171762D02*
X0182409Y0171762D01*
X0180810Y0170163D02*
X0190298Y0170163D01*
X0190298Y0168565D02*
X0179212Y0168565D01*
X0177613Y0166966D02*
X0190298Y0166966D01*
X0190266Y0165368D02*
X0177325Y0165368D01*
X0177325Y0163769D02*
X0190098Y0163769D01*
X0184954Y0162171D02*
X0177325Y0162171D01*
X0176341Y0160773D02*
X0176341Y0160773D01*
X0176140Y0160572D02*
X0184420Y0160572D01*
X0183858Y0158974D02*
X0175191Y0158974D01*
X0175191Y0157375D02*
X0182260Y0157375D01*
X0180661Y0155777D02*
X0175191Y0155777D01*
X0174886Y0154178D02*
X0179062Y0154178D01*
X0177464Y0152579D02*
X0173904Y0152579D01*
X0173657Y0150981D02*
X0175865Y0150981D01*
X0178825Y0147784D02*
X0208558Y0147784D01*
X0207559Y0149382D02*
X0180207Y0149382D01*
X0181805Y0150981D02*
X0207058Y0150981D01*
X0207288Y0152579D02*
X0183404Y0152579D01*
X0185002Y0154178D02*
X0190604Y0154178D01*
X0190298Y0155777D02*
X0186601Y0155777D01*
X0197917Y0154178D02*
X0208437Y0154178D01*
X0216175Y0160572D02*
X0229720Y0160572D01*
X0229720Y0158974D02*
X0217773Y0158974D01*
X0219372Y0157375D02*
X0229720Y0157375D01*
X0229720Y0155777D02*
X0220970Y0155777D01*
X0222569Y0154178D02*
X0229720Y0154178D01*
X0229720Y0152579D02*
X0224167Y0152579D01*
X0225766Y0150981D02*
X0229720Y0150981D01*
X0229720Y0150854D02*
X0228768Y0149902D01*
X0228220Y0148579D01*
X0228220Y0148527D01*
X0204509Y0172238D01*
X0205513Y0171822D01*
X0206945Y0171822D01*
X0208268Y0172370D01*
X0209281Y0173383D01*
X0209829Y0174706D01*
X0209829Y0176138D01*
X0209566Y0176773D01*
X0211504Y0178712D01*
X0212851Y0178712D01*
X0214174Y0179260D01*
X0215187Y0180273D01*
X0215735Y0181596D01*
X0215735Y0183028D01*
X0215187Y0184351D01*
X0214174Y0185364D01*
X0212851Y0185912D01*
X0211419Y0185912D01*
X0210095Y0185364D01*
X0209083Y0184351D01*
X0208535Y0183028D01*
X0208535Y0181682D01*
X0205875Y0179022D01*
X0205513Y0179022D01*
X0204190Y0178474D01*
X0203924Y0178208D01*
X0203924Y0179091D01*
X0203376Y0180414D01*
X0202424Y0181366D01*
X0202424Y0185871D01*
X0207591Y0191039D01*
X0208198Y0191645D01*
X0208535Y0191308D01*
X0208535Y0189962D01*
X0209083Y0188639D01*
X0210095Y0187626D01*
X0211419Y0187078D01*
X0212851Y0187078D01*
X0214174Y0187626D01*
X0215187Y0188639D01*
X0215735Y0189962D01*
X0215735Y0191394D01*
X0215513Y0191929D01*
X0216407Y0191929D01*
X0216865Y0192052D01*
X0216999Y0192129D01*
X0219589Y0192129D01*
X0220526Y0193066D01*
X0220526Y0210140D01*
X0219589Y0211077D01*
X0216999Y0211077D01*
X0216865Y0211154D01*
X0216407Y0211277D01*
X0215383Y0211277D01*
X0215383Y0201603D01*
X0215383Y0201603D01*
X0215383Y0211277D01*
X0214358Y0211277D01*
X0213900Y0211154D01*
X0213850Y0211125D01*
X0213497Y0211479D01*
X0213274Y0211701D01*
X0213274Y0213048D01*
X0212726Y0214371D01*
X0211713Y0215383D01*
X0210390Y0215931D01*
X0208958Y0215931D01*
X0207635Y0215383D01*
X0206622Y0214371D01*
X0206074Y0213048D01*
X0206074Y0211615D01*
X0206297Y0211077D01*
X0205975Y0211077D01*
X0205841Y0211154D01*
X0205383Y0211277D01*
X0204359Y0211277D01*
X0203335Y0211277D01*
X0202981Y0211182D01*
X0202628Y0211277D01*
X0201603Y0211277D01*
X0200579Y0211277D01*
X0200225Y0211182D01*
X0199872Y0211277D01*
X0198847Y0211277D01*
X0197823Y0211277D01*
X0197469Y0211182D01*
X0197116Y0211277D01*
X0196091Y0211277D01*
X0195067Y0211277D01*
X0194713Y0211182D01*
X0194360Y0211277D01*
X0193335Y0211277D01*
X0192311Y0211277D01*
X0191853Y0211154D01*
X0191719Y0211077D01*
X0189628Y0211077D01*
X0189628Y0212709D01*
X0188398Y0213939D01*
X0184287Y0218050D01*
X0333011Y0218050D01*
X0333011Y0012715D01*
X0238598Y0012715D01*
X0239007Y0013123D01*
X0239707Y0014814D01*
X0239707Y0020399D01*
X0252128Y0032820D01*
X0252128Y0096982D01*
X0252340Y0096859D01*
X0252909Y0096707D01*
X0254442Y0096707D01*
X0254442Y0100182D01*
X0254592Y0100182D01*
X0254592Y0100332D01*
X0258067Y0100332D01*
X0258067Y0101864D01*
X0257914Y0102433D01*
X0257619Y0102943D01*
X0257203Y0103360D01*
X0257154Y0103388D01*
X0257867Y0104100D01*
X0257867Y0108413D01*
X0256673Y0109607D01*
X0252360Y0109607D01*
X0251167Y0108413D01*
X0251167Y0108132D01*
X0245279Y0108132D01*
X0245249Y0108243D01*
X0245172Y0108377D01*
X0245172Y0110179D01*
X0245007Y0110344D01*
X0247945Y0113283D01*
X0254572Y0113283D01*
X0261192Y0106662D01*
X0261192Y0105316D01*
X0261740Y0103993D01*
X0262753Y0102980D01*
X0264076Y0102432D01*
X0265508Y0102432D01*
X0266831Y0102980D01*
X0267844Y0103993D01*
X0268392Y0105316D01*
X0268392Y0106748D01*
X0267844Y0108072D01*
X0266831Y0109084D01*
X0265508Y0109632D01*
X0264162Y0109632D01*
X0256312Y0117483D01*
X0249176Y0117483D01*
X0249176Y0143132D01*
X0249958Y0142350D01*
X0251281Y0141802D01*
X0252713Y0141802D01*
X0254036Y0142350D01*
X0255049Y0143363D01*
X0255597Y0144686D01*
X0255597Y0146118D01*
X0255049Y0147442D01*
X0254097Y0148394D01*
X0254097Y0154570D01*
X0255218Y0154106D01*
X0256650Y0154106D01*
X0257973Y0154654D01*
X0258986Y0155666D01*
X0259534Y0156989D01*
X0259534Y0158422D01*
X0258986Y0159745D01*
X0258034Y0160697D01*
X0258034Y0165259D01*
X0259864Y0165259D01*
X0260802Y0166196D01*
X0260802Y0167417D01*
X0261801Y0167417D01*
X0262261Y0166957D01*
X0263584Y0166409D01*
X0265016Y0166409D01*
X0266339Y0166957D01*
X0267352Y0167969D01*
X0267900Y0169293D01*
X0267900Y0170725D01*
X0267352Y0172048D01*
X0266339Y0173061D01*
X0265016Y0173609D01*
X0263584Y0173609D01*
X0262261Y0173061D01*
X0261248Y0172048D01*
X0261069Y0171617D01*
X0260802Y0171617D01*
X0260802Y0172246D01*
X0259864Y0173183D01*
X0254745Y0173183D01*
X0253851Y0174077D01*
X0252867Y0175061D01*
X0243253Y0175061D01*
X0242023Y0173831D01*
X0241375Y0173183D01*
X0241216Y0173183D01*
X0240809Y0172777D01*
X0240809Y0188697D01*
X0241216Y0188291D01*
X0248924Y0188291D01*
X0249058Y0188213D01*
X0249516Y0188091D01*
X0250540Y0188091D01*
X0250540Y0192253D01*
X0250540Y0196415D01*
X0250160Y0196415D01*
X0250160Y0199006D01*
X0251112Y0199958D01*
X0251660Y0201281D01*
X0251660Y0202713D01*
X0251196Y0203834D01*
X0263430Y0203834D01*
X0265170Y0203834D01*
X0271567Y0210231D01*
X0272781Y0210231D01*
X0274125Y0208887D01*
X0260659Y0195420D01*
X0259864Y0196215D01*
X0252156Y0196215D01*
X0252022Y0196292D01*
X0251565Y0196415D01*
X0250540Y0196415D01*
X0250540Y0192253D01*
X0250540Y0192253D01*
X0250540Y0192253D01*
X0250540Y0188091D01*
X0250881Y0188091D01*
X0250881Y0186779D01*
X0249929Y0185827D01*
X0249381Y0184504D01*
X0249381Y0183072D01*
X0249929Y0181749D01*
X0250942Y0180736D01*
X0252265Y0180188D01*
X0253697Y0180188D01*
X0255020Y0180736D01*
X0256033Y0181749D01*
X0256294Y0182380D01*
X0256294Y0181366D01*
X0255343Y0180414D01*
X0254794Y0179091D01*
X0254794Y0177659D01*
X0255343Y0176336D01*
X0256355Y0175323D01*
X0257678Y0174775D01*
X0259111Y0174775D01*
X0260434Y0175323D01*
X0261446Y0176336D01*
X0261994Y0177659D01*
X0261994Y0179091D01*
X0261446Y0180414D01*
X0260494Y0181366D01*
X0260494Y0186134D01*
X0259264Y0187365D01*
X0258338Y0188291D01*
X0259864Y0188291D01*
X0260802Y0189228D01*
X0260802Y0190546D01*
X0261725Y0190546D01*
X0262955Y0191777D01*
X0276981Y0205802D01*
X0285423Y0205802D01*
X0286375Y0204850D01*
X0287698Y0204302D01*
X0289130Y0204302D01*
X0290453Y0204850D01*
X0291466Y0205863D01*
X0292014Y0207186D01*
X0292014Y0208618D01*
X0291466Y0209942D01*
X0290453Y0210954D01*
X0289130Y0211502D01*
X0287698Y0211502D01*
X0286375Y0210954D01*
X0285423Y0210002D01*
X0278949Y0210002D01*
X0278457Y0210494D01*
X0274520Y0214431D01*
X0269828Y0214431D01*
X0268598Y0213201D01*
X0263430Y0208034D01*
X0242685Y0208034D01*
X0241733Y0208986D01*
X0240410Y0209534D01*
X0238978Y0209534D01*
X0237654Y0208986D01*
X0236642Y0207973D01*
X0236094Y0206650D01*
X0236094Y0205218D01*
X0236213Y0204931D01*
X0233165Y0201882D01*
X0233165Y0175953D01*
X0232213Y0175001D01*
X0231665Y0173677D01*
X0231665Y0172245D01*
X0232213Y0170922D01*
X0233225Y0169909D01*
X0233889Y0169635D01*
X0229720Y0165465D01*
X0229720Y0150854D01*
X0228552Y0149382D02*
X0227365Y0149382D01*
X0231016Y0139791D02*
X0152279Y0139791D01*
X0152624Y0141390D02*
X0208595Y0141390D01*
X0207354Y0142988D02*
X0152624Y0142988D01*
X0152489Y0144587D02*
X0172918Y0144587D01*
X0171820Y0146185D02*
X0152743Y0146185D01*
X0153018Y0147784D02*
X0171625Y0147784D01*
X0168122Y0149382D02*
X0154616Y0149382D01*
X0155672Y0150981D02*
X0166950Y0150981D01*
X0166704Y0152579D02*
X0155672Y0152579D01*
X0155672Y0154178D02*
X0167188Y0154178D01*
X0167267Y0155777D02*
X0156581Y0155777D01*
X0158180Y0157375D02*
X0166680Y0157375D01*
X0163115Y0158974D02*
X0159778Y0158974D01*
X0161377Y0160572D02*
X0161641Y0160572D01*
X0158634Y0163769D02*
X0141870Y0163769D01*
X0141892Y0165368D02*
X0153122Y0165368D01*
X0152432Y0166966D02*
X0141036Y0166966D01*
X0141406Y0168565D02*
X0141406Y0168565D01*
X0141406Y0170163D02*
X0141406Y0170163D01*
X0149837Y0168565D02*
X0152046Y0168565D01*
X0158508Y0170163D02*
X0159306Y0170163D01*
X0159508Y0168565D02*
X0160904Y0168565D01*
X0161831Y0166966D02*
X0159632Y0166966D01*
X0160232Y0165368D02*
X0158943Y0165368D01*
X0157035Y0162171D02*
X0140982Y0162171D01*
X0139614Y0160572D02*
X0155437Y0160572D01*
X0153838Y0158974D02*
X0152424Y0158974D01*
X0143224Y0158974D02*
X0141483Y0158974D01*
X0141916Y0157375D02*
X0143224Y0157375D01*
X0143224Y0155777D02*
X0141617Y0155777D01*
X0165245Y0170163D02*
X0167267Y0170163D01*
X0166006Y0169402D02*
X0156788Y0178621D01*
X0164814Y0186647D01*
X0164820Y0186642D01*
X0166143Y0186094D01*
X0167575Y0186094D01*
X0168898Y0186642D01*
X0169911Y0187654D01*
X0170459Y0188978D01*
X0170459Y0190410D01*
X0169911Y0191733D01*
X0169681Y0191963D01*
X0169910Y0192024D01*
X0170264Y0191929D01*
X0171288Y0191929D01*
X0171288Y0201603D01*
X0168701Y0201603D01*
X0168532Y0201603D01*
X0168532Y0201603D01*
X0171288Y0201603D01*
X0171288Y0201603D01*
X0171288Y0201603D01*
X0171288Y0191929D01*
X0172313Y0191929D01*
X0172770Y0192052D01*
X0172904Y0192129D01*
X0175184Y0192129D01*
X0175318Y0192052D01*
X0175776Y0191929D01*
X0176800Y0191929D01*
X0177824Y0191929D01*
X0178178Y0192024D01*
X0178532Y0191929D01*
X0179556Y0191929D01*
X0180580Y0191929D01*
X0180934Y0192024D01*
X0181287Y0191929D01*
X0182312Y0191929D01*
X0183336Y0191929D01*
X0183794Y0192052D01*
X0183928Y0192129D01*
X0189013Y0192129D01*
X0190103Y0191039D01*
X0190350Y0190792D01*
X0190350Y0180767D01*
X0190088Y0181398D01*
X0189075Y0182411D01*
X0187752Y0182959D01*
X0186320Y0182959D01*
X0184997Y0182411D01*
X0183984Y0181398D01*
X0183436Y0180075D01*
X0183436Y0178729D01*
X0177817Y0173110D01*
X0177817Y0178336D01*
X0178769Y0179288D01*
X0179317Y0180611D01*
X0179317Y0182044D01*
X0178769Y0183367D01*
X0177757Y0184379D01*
X0176433Y0184928D01*
X0175001Y0184928D01*
X0173678Y0184379D01*
X0172665Y0183367D01*
X0172117Y0182044D01*
X0172117Y0181483D01*
X0171556Y0181483D01*
X0170233Y0180935D01*
X0169221Y0179922D01*
X0168672Y0178599D01*
X0168672Y0177167D01*
X0169221Y0175843D01*
X0170172Y0174891D01*
X0170172Y0174069D01*
X0168204Y0174069D01*
X0167267Y0173132D01*
X0167267Y0168141D01*
X0166006Y0169402D01*
X0166844Y0168565D02*
X0167267Y0168565D01*
X0167267Y0171762D02*
X0163647Y0171762D01*
X0162048Y0173360D02*
X0167495Y0173360D01*
X0170105Y0174959D02*
X0160450Y0174959D01*
X0158851Y0176557D02*
X0168925Y0176557D01*
X0168672Y0178156D02*
X0157253Y0178156D01*
X0157921Y0179754D02*
X0169151Y0179754D01*
X0171243Y0181353D02*
X0159519Y0181353D01*
X0161118Y0182951D02*
X0172493Y0182951D01*
X0174089Y0184550D02*
X0162716Y0184550D01*
X0164315Y0186148D02*
X0166011Y0186148D01*
X0167707Y0186148D02*
X0190350Y0186148D01*
X0190350Y0184550D02*
X0177346Y0184550D01*
X0178941Y0182951D02*
X0186301Y0182951D01*
X0187771Y0182951D02*
X0190350Y0182951D01*
X0190350Y0181353D02*
X0190107Y0181353D01*
X0190636Y0179754D02*
X0191053Y0179754D01*
X0190434Y0178156D02*
X0192652Y0178156D01*
X0194250Y0176557D02*
X0189325Y0176557D01*
X0182863Y0178156D02*
X0177817Y0178156D01*
X0177817Y0176557D02*
X0181264Y0176557D01*
X0179666Y0174959D02*
X0177817Y0174959D01*
X0177817Y0173360D02*
X0178067Y0173360D01*
X0178962Y0179754D02*
X0183436Y0179754D01*
X0183965Y0181353D02*
X0179317Y0181353D01*
X0169949Y0187747D02*
X0190350Y0187747D01*
X0190350Y0189345D02*
X0170459Y0189345D01*
X0170238Y0190944D02*
X0190198Y0190944D01*
X0194550Y0190944D02*
X0201557Y0190944D01*
X0201603Y0191929D02*
X0202542Y0191929D01*
X0198224Y0187611D01*
X0198224Y0181366D01*
X0197272Y0180414D01*
X0196997Y0179750D01*
X0194550Y0182197D01*
X0194550Y0191980D01*
X0194713Y0192024D01*
X0195067Y0191929D01*
X0196091Y0191929D01*
X0196091Y0201603D01*
X0193504Y0201603D01*
X0193336Y0201603D01*
X0193336Y0201603D01*
X0196091Y0201603D01*
X0196091Y0201603D01*
X0196091Y0201603D01*
X0196091Y0211277D01*
X0196091Y0201603D01*
X0196091Y0201603D01*
X0196091Y0191929D01*
X0197116Y0191929D01*
X0197469Y0192024D01*
X0197823Y0191929D01*
X0198847Y0191929D01*
X0198847Y0201603D01*
X0196260Y0201603D01*
X0196091Y0201603D01*
X0196091Y0201603D01*
X0198847Y0201603D01*
X0198847Y0201603D01*
X0198847Y0201603D01*
X0198847Y0191929D01*
X0199872Y0191929D01*
X0200225Y0192024D01*
X0200579Y0191929D01*
X0201603Y0191929D01*
X0201603Y0201603D01*
X0201603Y0201603D01*
X0201435Y0201603D01*
X0198847Y0201603D01*
X0198847Y0211277D01*
X0198847Y0201603D01*
X0198847Y0201603D01*
X0198847Y0201603D01*
X0201603Y0201603D01*
X0201603Y0201603D01*
X0201603Y0191929D01*
X0201603Y0192542D02*
X0201603Y0192542D01*
X0201603Y0194141D02*
X0201603Y0194141D01*
X0201603Y0195739D02*
X0201603Y0195739D01*
X0201603Y0197338D02*
X0201603Y0197338D01*
X0201603Y0198936D02*
X0201603Y0198936D01*
X0201603Y0200535D02*
X0201603Y0200535D01*
X0201603Y0201603D02*
X0201603Y0201603D01*
X0201603Y0211277D01*
X0201603Y0201603D01*
X0201603Y0201603D01*
X0201772Y0201603D01*
X0204359Y0201603D01*
X0204359Y0201603D01*
X0201603Y0201603D01*
X0201603Y0202133D02*
X0201603Y0202133D01*
X0201603Y0203732D02*
X0201603Y0203732D01*
X0201603Y0205330D02*
X0201603Y0205330D01*
X0201603Y0206929D02*
X0201603Y0206929D01*
X0201603Y0208527D02*
X0201603Y0208527D01*
X0201603Y0210126D02*
X0201603Y0210126D01*
X0198847Y0210126D02*
X0198847Y0210126D01*
X0198847Y0208527D02*
X0198847Y0208527D01*
X0198847Y0206929D02*
X0198847Y0206929D01*
X0198847Y0205330D02*
X0198847Y0205330D01*
X0198847Y0203732D02*
X0198847Y0203732D01*
X0198847Y0202133D02*
X0198847Y0202133D01*
X0198847Y0200535D02*
X0198847Y0200535D01*
X0198847Y0198936D02*
X0198847Y0198936D01*
X0198847Y0197338D02*
X0198847Y0197338D01*
X0198847Y0195739D02*
X0198847Y0195739D01*
X0198847Y0194141D02*
X0198847Y0194141D01*
X0198847Y0192542D02*
X0198847Y0192542D01*
X0196091Y0192542D02*
X0196091Y0192542D01*
X0196091Y0194141D02*
X0196091Y0194141D01*
X0196091Y0195739D02*
X0196091Y0195739D01*
X0196091Y0197338D02*
X0196091Y0197338D01*
X0196091Y0198936D02*
X0196091Y0198936D01*
X0196091Y0200535D02*
X0196091Y0200535D01*
X0196091Y0202133D02*
X0196091Y0202133D01*
X0196091Y0203732D02*
X0196091Y0203732D01*
X0196091Y0205330D02*
X0196091Y0205330D01*
X0196091Y0206929D02*
X0196091Y0206929D01*
X0196091Y0208527D02*
X0196091Y0208527D01*
X0196091Y0210126D02*
X0196091Y0210126D01*
X0193335Y0210126D02*
X0193335Y0210126D01*
X0193335Y0211277D02*
X0193335Y0201603D01*
X0193335Y0201603D01*
X0193335Y0211277D01*
X0193335Y0208527D02*
X0193335Y0208527D01*
X0193335Y0206929D02*
X0193335Y0206929D01*
X0193335Y0205330D02*
X0193335Y0205330D01*
X0193335Y0203732D02*
X0193335Y0203732D01*
X0193335Y0202133D02*
X0193335Y0202133D01*
X0204359Y0202133D02*
X0204359Y0202133D01*
X0204359Y0201603D02*
X0204359Y0211277D01*
X0204359Y0201603D01*
X0204359Y0201603D01*
X0204359Y0203732D02*
X0204359Y0203732D01*
X0204359Y0205330D02*
X0204359Y0205330D01*
X0204359Y0206929D02*
X0204359Y0206929D01*
X0204359Y0208527D02*
X0204359Y0208527D01*
X0204359Y0210126D02*
X0204359Y0210126D01*
X0206074Y0211724D02*
X0189628Y0211724D01*
X0189015Y0213323D02*
X0206188Y0213323D01*
X0207173Y0214921D02*
X0187416Y0214921D01*
X0185818Y0216520D02*
X0333011Y0216520D01*
X0333011Y0214921D02*
X0212175Y0214921D01*
X0213160Y0213323D02*
X0268719Y0213323D01*
X0267121Y0211724D02*
X0213274Y0211724D01*
X0215383Y0210126D02*
X0215383Y0210126D01*
X0215383Y0208527D02*
X0215383Y0208527D01*
X0215383Y0206929D02*
X0215383Y0206929D01*
X0215383Y0205330D02*
X0215383Y0205330D01*
X0215383Y0203732D02*
X0215383Y0203732D01*
X0215383Y0202133D02*
X0215383Y0202133D01*
X0220526Y0202133D02*
X0233415Y0202133D01*
X0233165Y0200535D02*
X0220526Y0200535D01*
X0220526Y0198936D02*
X0233165Y0198936D01*
X0233165Y0197338D02*
X0220526Y0197338D01*
X0220526Y0195739D02*
X0233165Y0195739D01*
X0233165Y0194141D02*
X0220526Y0194141D01*
X0220002Y0192542D02*
X0233165Y0192542D01*
X0233165Y0190944D02*
X0215735Y0190944D01*
X0215479Y0189345D02*
X0233165Y0189345D01*
X0233165Y0187747D02*
X0214295Y0187747D01*
X0214988Y0184550D02*
X0233165Y0184550D01*
X0233165Y0186148D02*
X0202701Y0186148D01*
X0202424Y0184550D02*
X0209281Y0184550D01*
X0208535Y0182951D02*
X0202424Y0182951D01*
X0202437Y0181353D02*
X0208206Y0181353D01*
X0206607Y0179754D02*
X0203649Y0179754D01*
X0209656Y0176557D02*
X0233165Y0176557D01*
X0233165Y0178156D02*
X0210948Y0178156D01*
X0209829Y0174959D02*
X0232195Y0174959D01*
X0231665Y0173360D02*
X0209258Y0173360D01*
X0206584Y0170163D02*
X0232972Y0170163D01*
X0232819Y0168565D02*
X0208182Y0168565D01*
X0209781Y0166966D02*
X0231221Y0166966D01*
X0229720Y0165368D02*
X0211379Y0165368D01*
X0212978Y0163769D02*
X0229720Y0163769D01*
X0229720Y0162171D02*
X0214576Y0162171D01*
X0204985Y0171762D02*
X0231865Y0171762D01*
X0240809Y0173360D02*
X0241552Y0173360D01*
X0240809Y0174959D02*
X0243150Y0174959D01*
X0240809Y0176557D02*
X0255251Y0176557D01*
X0254794Y0178156D02*
X0240809Y0178156D01*
X0240809Y0179754D02*
X0255069Y0179754D01*
X0255637Y0181353D02*
X0256281Y0181353D01*
X0260508Y0181353D02*
X0333011Y0181353D01*
X0333011Y0182951D02*
X0260494Y0182951D01*
X0260494Y0184550D02*
X0333011Y0184550D01*
X0333011Y0186148D02*
X0260481Y0186148D01*
X0258882Y0187747D02*
X0333011Y0187747D01*
X0333011Y0189345D02*
X0260802Y0189345D01*
X0262122Y0190944D02*
X0333011Y0190944D01*
X0333011Y0192542D02*
X0263721Y0192542D01*
X0265319Y0194141D02*
X0333011Y0194141D01*
X0333011Y0195739D02*
X0266918Y0195739D01*
X0268516Y0197338D02*
X0333011Y0197338D01*
X0333011Y0198936D02*
X0270115Y0198936D01*
X0271713Y0200535D02*
X0333011Y0200535D01*
X0333011Y0202133D02*
X0273312Y0202133D01*
X0274910Y0203732D02*
X0333011Y0203732D01*
X0333011Y0205330D02*
X0290933Y0205330D01*
X0291908Y0206929D02*
X0333011Y0206929D01*
X0333011Y0208527D02*
X0292014Y0208527D01*
X0291282Y0210126D02*
X0333011Y0210126D01*
X0333011Y0211724D02*
X0277227Y0211724D01*
X0278826Y0210126D02*
X0285547Y0210126D01*
X0285895Y0205330D02*
X0276509Y0205330D01*
X0273766Y0208527D02*
X0269863Y0208527D01*
X0268265Y0206929D02*
X0272168Y0206929D01*
X0270569Y0205330D02*
X0266666Y0205330D01*
X0268971Y0203732D02*
X0251238Y0203732D01*
X0251660Y0202133D02*
X0267372Y0202133D01*
X0265774Y0200535D02*
X0251351Y0200535D01*
X0250160Y0198936D02*
X0264175Y0198936D01*
X0262577Y0197338D02*
X0250160Y0197338D01*
X0250540Y0195739D02*
X0250540Y0195739D01*
X0250540Y0194141D02*
X0250540Y0194141D01*
X0250540Y0192542D02*
X0250540Y0192542D01*
X0250540Y0190944D02*
X0250540Y0190944D01*
X0250540Y0189345D02*
X0250540Y0189345D01*
X0250881Y0187747D02*
X0240809Y0187747D01*
X0240809Y0186148D02*
X0250250Y0186148D01*
X0249400Y0184550D02*
X0240809Y0184550D01*
X0240809Y0182951D02*
X0249431Y0182951D01*
X0250325Y0181353D02*
X0240809Y0181353D01*
X0233165Y0181353D02*
X0215634Y0181353D01*
X0215735Y0182951D02*
X0233165Y0182951D01*
X0233165Y0179754D02*
X0214668Y0179754D01*
X0209975Y0187747D02*
X0204299Y0187747D01*
X0205898Y0189345D02*
X0208790Y0189345D01*
X0208535Y0190944D02*
X0207496Y0190944D01*
X0199958Y0189345D02*
X0194550Y0189345D01*
X0194550Y0187747D02*
X0198360Y0187747D01*
X0198224Y0186148D02*
X0194550Y0186148D01*
X0194550Y0184550D02*
X0198224Y0184550D01*
X0198224Y0182951D02*
X0194550Y0182951D01*
X0195394Y0181353D02*
X0198210Y0181353D01*
X0196998Y0179754D02*
X0196993Y0179754D01*
X0182312Y0191929D02*
X0182312Y0201603D01*
X0182312Y0201603D01*
X0182312Y0191929D01*
X0182312Y0192542D02*
X0182312Y0192542D01*
X0182312Y0194141D02*
X0182312Y0194141D01*
X0182312Y0195739D02*
X0182312Y0195739D01*
X0182312Y0197338D02*
X0182312Y0197338D01*
X0182312Y0198936D02*
X0182312Y0198936D01*
X0182312Y0200535D02*
X0182312Y0200535D01*
X0182312Y0201603D02*
X0179724Y0201603D01*
X0179556Y0201603D01*
X0179556Y0191929D01*
X0179556Y0201603D01*
X0179556Y0201603D01*
X0179556Y0201603D01*
X0182312Y0201603D01*
X0182312Y0201603D01*
X0179556Y0201603D02*
X0176969Y0201603D01*
X0176800Y0201603D01*
X0176800Y0191929D01*
X0176800Y0201603D01*
X0176800Y0201603D01*
X0176800Y0201603D01*
X0179556Y0201603D01*
X0179556Y0201603D01*
X0179556Y0200535D02*
X0179556Y0200535D01*
X0179556Y0198936D02*
X0179556Y0198936D01*
X0179556Y0197338D02*
X0179556Y0197338D01*
X0179556Y0195739D02*
X0179556Y0195739D01*
X0179556Y0194141D02*
X0179556Y0194141D01*
X0179556Y0192542D02*
X0179556Y0192542D01*
X0176800Y0192542D02*
X0176800Y0192542D01*
X0176800Y0194141D02*
X0176800Y0194141D01*
X0176800Y0195739D02*
X0176800Y0195739D01*
X0176800Y0197338D02*
X0176800Y0197338D01*
X0176800Y0198936D02*
X0176800Y0198936D01*
X0176800Y0200535D02*
X0176800Y0200535D01*
X0176800Y0201603D02*
X0176800Y0211277D01*
X0176800Y0201603D01*
X0176800Y0201603D01*
X0176800Y0202133D02*
X0176800Y0202133D01*
X0176800Y0203732D02*
X0176800Y0203732D01*
X0176800Y0205330D02*
X0176800Y0205330D01*
X0176800Y0206929D02*
X0176800Y0206929D01*
X0176800Y0208527D02*
X0176800Y0208527D01*
X0176800Y0210126D02*
X0176800Y0210126D01*
X0176800Y0211277D02*
X0175776Y0211277D01*
X0175410Y0211179D01*
X0174619Y0211971D01*
X0173412Y0213178D01*
X0173412Y0214524D01*
X0172947Y0215645D01*
X0177503Y0215645D01*
X0177039Y0214524D01*
X0177039Y0213092D01*
X0177587Y0211769D01*
X0178171Y0211184D01*
X0177824Y0211277D01*
X0176800Y0211277D01*
X0177631Y0211724D02*
X0174865Y0211724D01*
X0173412Y0213323D02*
X0177039Y0213323D01*
X0177203Y0214921D02*
X0173247Y0214921D01*
X0166676Y0215645D02*
X0166212Y0214524D01*
X0166212Y0213092D01*
X0166760Y0211769D01*
X0167306Y0211223D01*
X0167050Y0211154D01*
X0166916Y0211077D01*
X0164637Y0211077D01*
X0164503Y0211154D01*
X0164045Y0211277D01*
X0163021Y0211277D01*
X0163021Y0201603D01*
X0163020Y0201603D01*
X0163020Y0211277D01*
X0161996Y0211277D01*
X0161631Y0211179D01*
X0160839Y0211971D01*
X0159855Y0212955D01*
X0152210Y0212955D01*
X0151849Y0212595D01*
X0148799Y0215645D01*
X0166676Y0215645D01*
X0166376Y0214921D02*
X0149522Y0214921D01*
X0151121Y0213323D02*
X0166212Y0213323D01*
X0166804Y0211724D02*
X0161086Y0211724D01*
X0163020Y0210126D02*
X0163021Y0210126D01*
X0163020Y0208527D02*
X0163021Y0208527D01*
X0163020Y0206929D02*
X0163021Y0206929D01*
X0163020Y0205330D02*
X0163021Y0205330D01*
X0163020Y0203732D02*
X0163021Y0203732D01*
X0163020Y0202133D02*
X0163021Y0202133D01*
X0157509Y0201603D02*
X0157509Y0192286D01*
X0157509Y0192286D01*
X0157509Y0201603D01*
X0157509Y0201603D01*
X0157509Y0200535D02*
X0157509Y0200535D01*
X0157509Y0198936D02*
X0157509Y0198936D01*
X0157509Y0197338D02*
X0157509Y0197338D01*
X0157509Y0195739D02*
X0157509Y0195739D01*
X0157509Y0194141D02*
X0157509Y0194141D01*
X0157509Y0192542D02*
X0157509Y0192542D01*
X0171288Y0192542D02*
X0171288Y0192542D01*
X0171288Y0194141D02*
X0171288Y0194141D01*
X0171288Y0195739D02*
X0171288Y0195739D01*
X0171288Y0197338D02*
X0171288Y0197338D01*
X0171288Y0198936D02*
X0171288Y0198936D01*
X0171288Y0200535D02*
X0171288Y0200535D01*
X0154510Y0174959D02*
X0152084Y0174959D01*
X0153211Y0173360D02*
X0156109Y0173360D01*
X0154789Y0171762D02*
X0157707Y0171762D01*
X0178631Y0146185D02*
X0207494Y0146185D01*
X0207058Y0144587D02*
X0177532Y0144587D01*
X0174450Y0136594D02*
X0171408Y0136594D01*
X0166247Y0136594D02*
X0122239Y0136594D01*
X0122239Y0134996D02*
X0165309Y0134996D01*
X0165228Y0133397D02*
X0122239Y0133397D01*
X0121715Y0131799D02*
X0165251Y0131799D01*
X0165251Y0130200D02*
X0121715Y0130200D01*
X0122005Y0128602D02*
X0165251Y0128602D01*
X0165251Y0127003D02*
X0148891Y0127003D01*
X0147064Y0127003D02*
X0146914Y0127003D01*
X0146914Y0125405D02*
X0147064Y0125405D01*
X0147064Y0123806D02*
X0146914Y0123806D01*
X0146914Y0122208D02*
X0147064Y0122208D01*
X0147064Y0120609D02*
X0146914Y0120609D01*
X0144123Y0120609D02*
X0128185Y0120609D01*
X0129783Y0119011D02*
X0150487Y0119011D01*
X0150487Y0117412D02*
X0131382Y0117412D01*
X0132980Y0115814D02*
X0145520Y0115814D01*
X0145161Y0114215D02*
X0134579Y0114215D01*
X0136178Y0112617D02*
X0145161Y0112617D01*
X0145161Y0111018D02*
X0137776Y0111018D01*
X0139375Y0109420D02*
X0145161Y0109420D01*
X0144693Y0106223D02*
X0145771Y0106223D01*
X0140973Y0107821D02*
X0151766Y0107821D01*
X0156107Y0109420D02*
X0161806Y0109420D01*
X0161806Y0107821D02*
X0157705Y0107821D01*
X0155447Y0111018D02*
X0160798Y0111018D01*
X0160306Y0112617D02*
X0155447Y0112617D01*
X0155447Y0114215D02*
X0160545Y0114215D01*
X0161707Y0115814D02*
X0155088Y0115814D01*
X0154687Y0117412D02*
X0165251Y0117412D01*
X0165251Y0119011D02*
X0154687Y0119011D01*
X0155572Y0120609D02*
X0165251Y0120609D01*
X0165251Y0122208D02*
X0156339Y0122208D01*
X0156339Y0123806D02*
X0165251Y0123806D01*
X0165251Y0125405D02*
X0156339Y0125405D01*
X0150406Y0120609D02*
X0149855Y0120609D01*
X0143439Y0122208D02*
X0126586Y0122208D01*
X0124988Y0123806D02*
X0143439Y0123806D01*
X0143510Y0125405D02*
X0123389Y0125405D01*
X0122239Y0127003D02*
X0145087Y0127003D01*
X0147824Y0139791D02*
X0147824Y0139791D01*
X0147824Y0141390D02*
X0147824Y0141390D01*
X0117515Y0130200D02*
X0113780Y0130200D01*
X0114002Y0131799D02*
X0117078Y0131799D01*
X0116322Y0133397D02*
X0114758Y0133397D01*
X0114758Y0134996D02*
X0116322Y0134996D01*
X0116322Y0136594D02*
X0114758Y0136594D01*
X0114758Y0138193D02*
X0116322Y0138193D01*
X0108842Y0136594D02*
X0092298Y0136594D01*
X0092298Y0134996D02*
X0108842Y0134996D01*
X0108842Y0133397D02*
X0092298Y0133397D01*
X0092298Y0131799D02*
X0109439Y0131799D01*
X0107841Y0130200D02*
X0092298Y0130200D01*
X0092298Y0128602D02*
X0106242Y0128602D01*
X0104644Y0127003D02*
X0092298Y0127003D01*
X0092298Y0125405D02*
X0103045Y0125405D01*
X0101447Y0123806D02*
X0092298Y0123806D01*
X0092298Y0122208D02*
X0099848Y0122208D01*
X0098814Y0120609D02*
X0092298Y0120609D01*
X0092298Y0119011D02*
X0098814Y0119011D01*
X0098814Y0117412D02*
X0092298Y0117412D01*
X0092298Y0115814D02*
X0098814Y0115814D01*
X0098814Y0114215D02*
X0092298Y0114215D01*
X0092298Y0112617D02*
X0093673Y0112617D01*
X0097328Y0112617D02*
X0098814Y0112617D01*
X0098759Y0111018D02*
X0098814Y0111018D01*
X0106951Y0111018D02*
X0108183Y0111018D01*
X0108234Y0110931D02*
X0108569Y0110596D01*
X0108979Y0110359D01*
X0109437Y0110236D01*
X0111655Y0110236D01*
X0111655Y0113820D01*
X0112024Y0113820D01*
X0112024Y0110236D01*
X0114242Y0110236D01*
X0114699Y0110359D01*
X0115110Y0110596D01*
X0115327Y0110813D01*
X0115704Y0110436D01*
X0116039Y0110436D01*
X0116039Y0106902D01*
X0113739Y0104603D01*
X0113185Y0105156D01*
X0111495Y0105857D01*
X0109665Y0105857D01*
X0107974Y0105156D01*
X0106951Y0104134D01*
X0106951Y0112544D01*
X0107874Y0113467D01*
X0107874Y0111799D01*
X0107997Y0111341D01*
X0108234Y0110931D01*
X0107874Y0112617D02*
X0107024Y0112617D01*
X0111655Y0112617D02*
X0112024Y0112617D01*
X0112024Y0111018D02*
X0111655Y0111018D01*
X0116039Y0109420D02*
X0106951Y0109420D01*
X0106951Y0107821D02*
X0116039Y0107821D01*
X0115359Y0106223D02*
X0106951Y0106223D01*
X0106951Y0104624D02*
X0107442Y0104624D01*
X0113717Y0104624D02*
X0113761Y0104624D01*
X0121658Y0109420D02*
X0133435Y0109420D01*
X0131836Y0111018D02*
X0121942Y0111018D01*
X0122298Y0112617D02*
X0130238Y0112617D01*
X0128639Y0114215D02*
X0122298Y0114215D01*
X0122298Y0115814D02*
X0127041Y0115814D01*
X0125442Y0117412D02*
X0121521Y0117412D01*
X0123844Y0119011D02*
X0113418Y0119011D01*
X0113841Y0120609D02*
X0122245Y0120609D01*
X0115540Y0122208D02*
X0115540Y0122208D01*
X0115540Y0123806D02*
X0115540Y0123806D01*
X0115540Y0125343D02*
X0115540Y0125343D01*
X0115540Y0125405D02*
X0115540Y0125405D01*
X0115540Y0127003D02*
X0115540Y0127003D01*
X0115540Y0128602D02*
X0115540Y0128602D01*
X0115543Y0117412D02*
X0115111Y0117412D01*
X0123257Y0107821D02*
X0135033Y0107821D01*
X0136632Y0106223D02*
X0124855Y0106223D01*
X0126454Y0104624D02*
X0138161Y0104624D01*
X0138294Y0103026D02*
X0127128Y0103026D01*
X0127128Y0101427D02*
X0139306Y0101427D01*
X0144215Y0101427D02*
X0145161Y0101427D01*
X0145161Y0099829D02*
X0127128Y0099829D01*
X0127128Y0098230D02*
X0150980Y0098230D01*
X0150980Y0096632D02*
X0127128Y0096632D01*
X0127128Y0095033D02*
X0145019Y0095033D01*
X0143822Y0093435D02*
X0127128Y0093435D01*
X0126597Y0091836D02*
X0143793Y0091836D01*
X0143793Y0090238D02*
X0124999Y0090238D01*
X0123400Y0088639D02*
X0144636Y0088639D01*
X0147268Y0088639D02*
X0147418Y0088639D01*
X0147418Y0090238D02*
X0147268Y0090238D01*
X0147268Y0091836D02*
X0147418Y0091836D01*
X0147418Y0093435D02*
X0147268Y0093435D01*
X0147268Y0095033D02*
X0147418Y0095033D01*
X0149668Y0095033D02*
X0150980Y0095033D01*
X0156693Y0090238D02*
X0160798Y0090238D01*
X0160979Y0088639D02*
X0155768Y0088639D01*
X0154095Y0087041D02*
X0121802Y0087041D01*
X0120203Y0085442D02*
X0153068Y0085442D01*
X0152924Y0083844D02*
X0148084Y0083844D01*
X0146513Y0083844D02*
X0146363Y0083844D01*
X0144792Y0083844D02*
X0122632Y0083844D01*
X0126840Y0082245D02*
X0142977Y0082245D01*
X0142888Y0080646D02*
X0127644Y0080646D01*
X0127567Y0079048D02*
X0142888Y0079048D01*
X0143503Y0077449D02*
X0126635Y0077449D01*
X0126344Y0075851D02*
X0149995Y0075851D01*
X0149786Y0077449D02*
X0149373Y0077449D01*
X0146513Y0077449D02*
X0146363Y0077449D01*
X0146363Y0079048D02*
X0146513Y0079048D01*
X0146513Y0080646D02*
X0146363Y0080646D01*
X0146363Y0082245D02*
X0146513Y0082245D01*
X0155090Y0077449D02*
X0166310Y0077449D01*
X0165508Y0079048D02*
X0155788Y0079048D01*
X0155788Y0080646D02*
X0165228Y0080646D01*
X0165678Y0082245D02*
X0159482Y0082245D01*
X0160124Y0083844D02*
X0167377Y0083844D01*
X0165779Y0085442D02*
X0159981Y0085442D01*
X0158954Y0087041D02*
X0162059Y0087041D01*
X0150919Y0088639D02*
X0150050Y0088639D01*
X0154195Y0075851D02*
X0164712Y0075851D01*
X0163113Y0074252D02*
X0155035Y0074252D01*
X0155250Y0072654D02*
X0161515Y0072654D01*
X0159916Y0071055D02*
X0155250Y0071055D01*
X0155250Y0069457D02*
X0158318Y0069457D01*
X0156719Y0067858D02*
X0155250Y0067858D01*
X0153522Y0064661D02*
X0105967Y0064661D01*
X0105967Y0063063D02*
X0151924Y0063063D01*
X0150325Y0061464D02*
X0122888Y0061464D01*
X0122888Y0059866D02*
X0144572Y0059866D01*
X0144176Y0058267D02*
X0122888Y0058267D01*
X0122888Y0056669D02*
X0144176Y0056669D01*
X0144176Y0055070D02*
X0122858Y0055070D01*
X0124456Y0053472D02*
X0144176Y0053472D01*
X0144176Y0051873D02*
X0126055Y0051873D01*
X0127653Y0050275D02*
X0145566Y0050275D01*
X0145566Y0048676D02*
X0129097Y0048676D01*
X0129097Y0047078D02*
X0145566Y0047078D01*
X0144729Y0045479D02*
X0129097Y0045479D01*
X0129097Y0043881D02*
X0143915Y0043881D01*
X0143915Y0042282D02*
X0129097Y0042282D01*
X0129097Y0040684D02*
X0143915Y0040684D01*
X0151185Y0039085D02*
X0129097Y0039085D01*
X0129097Y0037487D02*
X0164088Y0037487D01*
X0162973Y0035888D02*
X0127736Y0035888D01*
X0126137Y0034290D02*
X0129900Y0034290D01*
X0128627Y0032691D02*
X0124539Y0032691D01*
X0128318Y0031093D02*
X0092691Y0031093D01*
X0092691Y0032691D02*
X0107309Y0032691D01*
X0105711Y0034290D02*
X0092691Y0034290D01*
X0092691Y0035888D02*
X0104112Y0035888D01*
X0102514Y0037487D02*
X0092691Y0037487D01*
X0092691Y0039085D02*
X0100915Y0039085D01*
X0099798Y0040684D02*
X0092691Y0040684D01*
X0092691Y0042282D02*
X0099798Y0042282D01*
X0099798Y0043881D02*
X0092691Y0043881D01*
X0092691Y0045479D02*
X0099798Y0045479D01*
X0099798Y0047078D02*
X0092691Y0047078D01*
X0092691Y0048676D02*
X0099798Y0048676D01*
X0099798Y0050275D02*
X0092691Y0050275D01*
X0092691Y0051873D02*
X0099798Y0051873D01*
X0099798Y0053472D02*
X0092691Y0053472D01*
X0092691Y0055070D02*
X0099798Y0055070D01*
X0099798Y0056669D02*
X0092691Y0056669D01*
X0092691Y0058267D02*
X0099798Y0058267D01*
X0099798Y0059866D02*
X0092691Y0059866D01*
X0092691Y0061464D02*
X0099798Y0061464D01*
X0098591Y0063063D02*
X0092691Y0063063D01*
X0092691Y0064661D02*
X0096992Y0064661D01*
X0095394Y0066260D02*
X0092691Y0066260D01*
X0092691Y0067858D02*
X0093795Y0067858D01*
X0105967Y0067858D02*
X0109561Y0067858D01*
X0109235Y0069457D02*
X0105967Y0069457D01*
X0105967Y0071055D02*
X0109235Y0071055D01*
X0109235Y0072654D02*
X0105967Y0072654D01*
X0105967Y0074252D02*
X0109254Y0074252D01*
X0110133Y0075851D02*
X0105967Y0075851D01*
X0105967Y0077449D02*
X0111192Y0077449D01*
X0109235Y0079048D02*
X0105967Y0079048D01*
X0105967Y0080646D02*
X0106219Y0080646D01*
X0115054Y0075371D02*
X0117410Y0077727D01*
X0117653Y0077484D01*
X0121419Y0077484D01*
X0122005Y0076898D01*
X0122954Y0076505D01*
X0122005Y0076112D01*
X0121064Y0075171D01*
X0118121Y0075171D01*
X0117987Y0075249D01*
X0117529Y0075371D01*
X0115934Y0075371D01*
X0115934Y0071209D01*
X0115934Y0067047D01*
X0115934Y0071209D01*
X0115934Y0071209D01*
X0115934Y0071209D01*
X0115934Y0075371D01*
X0115054Y0075371D01*
X0115533Y0075851D02*
X0121744Y0075851D01*
X0121453Y0077449D02*
X0117132Y0077449D01*
X0115934Y0074252D02*
X0115934Y0074252D01*
X0115934Y0072654D02*
X0115934Y0072654D01*
X0115934Y0071055D02*
X0115934Y0071055D01*
X0115934Y0069457D02*
X0115934Y0069457D01*
X0115934Y0067858D02*
X0115934Y0067858D01*
X0122307Y0067858D02*
X0144176Y0067858D01*
X0144176Y0066260D02*
X0105967Y0066260D01*
X0105967Y0061464D02*
X0108564Y0061464D01*
X0108465Y0059866D02*
X0105967Y0059866D01*
X0105967Y0058267D02*
X0108465Y0058267D01*
X0108465Y0058702D02*
X0108465Y0056681D01*
X0108587Y0056223D01*
X0108824Y0055813D01*
X0109159Y0055478D01*
X0109570Y0055241D01*
X0110028Y0055118D01*
X0112246Y0055118D01*
X0112246Y0058702D01*
X0108465Y0058702D01*
X0108468Y0056669D02*
X0105967Y0056669D01*
X0105967Y0055070D02*
X0117023Y0055070D01*
X0117023Y0053472D02*
X0105967Y0053472D01*
X0105967Y0051873D02*
X0117023Y0051873D01*
X0116990Y0050275D02*
X0114108Y0050275D01*
X0110989Y0050275D02*
X0105967Y0050275D01*
X0105967Y0048676D02*
X0108777Y0048676D01*
X0108040Y0047078D02*
X0105967Y0047078D01*
X0105967Y0045479D02*
X0107948Y0045479D01*
X0107948Y0043881D02*
X0105967Y0043881D01*
X0106610Y0042282D02*
X0107948Y0042282D01*
X0112246Y0056669D02*
X0112614Y0056669D01*
X0112614Y0058267D02*
X0112246Y0058267D01*
X0112246Y0059866D02*
X0112614Y0059866D01*
X0112614Y0061464D02*
X0112246Y0061464D01*
X0122632Y0069457D02*
X0144176Y0069457D01*
X0144176Y0071055D02*
X0127110Y0071055D01*
X0127644Y0072654D02*
X0144176Y0072654D01*
X0144391Y0074252D02*
X0127447Y0074252D01*
X0155250Y0055070D02*
X0183310Y0055070D01*
X0183310Y0056669D02*
X0158439Y0056669D01*
X0159798Y0058267D02*
X0160812Y0058267D01*
X0165032Y0058267D02*
X0184154Y0058267D01*
X0181617Y0059866D02*
X0187397Y0059866D01*
X0187397Y0061464D02*
X0182180Y0061464D01*
X0182180Y0063063D02*
X0187397Y0063063D01*
X0187397Y0064661D02*
X0182180Y0064661D01*
X0182180Y0066260D02*
X0186437Y0066260D01*
X0184839Y0067858D02*
X0182180Y0067858D01*
X0182180Y0069457D02*
X0183240Y0069457D01*
X0182195Y0053472D02*
X0155250Y0053472D01*
X0155250Y0051873D02*
X0180596Y0051873D01*
X0178998Y0050275D02*
X0149766Y0050275D01*
X0149766Y0048676D02*
X0177399Y0048676D01*
X0175801Y0047078D02*
X0149766Y0047078D01*
X0149800Y0045479D02*
X0150446Y0045479D01*
X0153190Y0045479D02*
X0153340Y0045479D01*
X0153340Y0043881D02*
X0153190Y0043881D01*
X0153190Y0042282D02*
X0153340Y0042282D01*
X0153340Y0040684D02*
X0153190Y0040684D01*
X0153190Y0039085D02*
X0153340Y0039085D01*
X0155344Y0039085D02*
X0167808Y0039085D01*
X0169407Y0040684D02*
X0156756Y0040684D01*
X0156815Y0042282D02*
X0171005Y0042282D01*
X0172604Y0043881D02*
X0156815Y0043881D01*
X0156083Y0045479D02*
X0174202Y0045479D01*
X0176945Y0042282D02*
X0185920Y0042282D01*
X0185920Y0040684D02*
X0175346Y0040684D01*
X0173748Y0039085D02*
X0185920Y0039085D01*
X0185920Y0037487D02*
X0172149Y0037487D01*
X0170551Y0035888D02*
X0185920Y0035888D01*
X0185920Y0034290D02*
X0169967Y0034290D01*
X0169442Y0032691D02*
X0185920Y0032691D01*
X0185920Y0031093D02*
X0167128Y0031093D01*
X0165606Y0031093D02*
X0142930Y0031093D01*
X0143392Y0029494D02*
X0185920Y0029494D01*
X0185920Y0027896D02*
X0151593Y0027896D01*
X0149723Y0027896D02*
X0143123Y0027896D01*
X0144417Y0026297D02*
X0147146Y0026297D01*
X0146257Y0024699D02*
X0145252Y0024699D01*
X0145458Y0023100D02*
X0146058Y0023100D01*
X0146058Y0021502D02*
X0145458Y0021502D01*
X0145458Y0019903D02*
X0146058Y0019903D01*
X0146058Y0018305D02*
X0145458Y0018305D01*
X0145423Y0016706D02*
X0146058Y0016706D01*
X0146589Y0015108D02*
X0144926Y0015108D01*
X0143601Y0013509D02*
X0147948Y0013509D01*
X0153369Y0013509D02*
X0201048Y0013509D01*
X0200507Y0015108D02*
X0154727Y0015108D01*
X0155258Y0016706D02*
X0163597Y0016706D01*
X0163583Y0018305D02*
X0155258Y0018305D01*
X0155258Y0019903D02*
X0163583Y0019903D01*
X0164192Y0021502D02*
X0155258Y0021502D01*
X0155258Y0023100D02*
X0185920Y0023100D01*
X0185920Y0024699D02*
X0155060Y0024699D01*
X0154170Y0026297D02*
X0185920Y0026297D01*
X0190120Y0026297D02*
X0204115Y0026297D01*
X0206099Y0026297D02*
X0213633Y0026297D01*
X0214907Y0026297D02*
X0215307Y0026297D01*
X0216581Y0026297D02*
X0224115Y0026297D01*
X0226099Y0026297D02*
X0234115Y0026297D01*
X0236099Y0026297D02*
X0239666Y0026297D01*
X0241264Y0027896D02*
X0190120Y0027896D01*
X0190120Y0029494D02*
X0242863Y0029494D01*
X0244461Y0031093D02*
X0190120Y0031093D01*
X0190120Y0032691D02*
X0246060Y0032691D01*
X0247658Y0034290D02*
X0232173Y0034290D01*
X0232720Y0035888D02*
X0247928Y0035888D01*
X0247928Y0037487D02*
X0232720Y0037487D01*
X0232612Y0039085D02*
X0247928Y0039085D01*
X0247928Y0040684D02*
X0228988Y0040684D01*
X0229095Y0039085D02*
X0229245Y0039085D01*
X0229245Y0037487D02*
X0229095Y0037487D01*
X0229095Y0035888D02*
X0229245Y0035888D01*
X0229245Y0034290D02*
X0229095Y0034290D01*
X0226167Y0034290D02*
X0225891Y0034290D01*
X0220450Y0034290D02*
X0190120Y0034290D01*
X0190120Y0035888D02*
X0219820Y0035888D01*
X0219820Y0037487D02*
X0190120Y0037487D01*
X0190120Y0039085D02*
X0219820Y0039085D01*
X0223049Y0040684D02*
X0190120Y0040684D01*
X0190120Y0042282D02*
X0224647Y0042282D01*
X0226246Y0043881D02*
X0190120Y0043881D01*
X0190120Y0045479D02*
X0227844Y0045479D01*
X0229443Y0047078D02*
X0190120Y0047078D01*
X0185920Y0047078D02*
X0181740Y0047078D01*
X0180142Y0045479D02*
X0185920Y0045479D01*
X0185920Y0043881D02*
X0178543Y0043881D01*
X0183339Y0048676D02*
X0185920Y0048676D01*
X0162767Y0034290D02*
X0133937Y0034290D01*
X0135209Y0032691D02*
X0138667Y0032691D01*
X0140917Y0032691D02*
X0163292Y0032691D01*
X0166957Y0021502D02*
X0166958Y0021502D01*
X0166957Y0019903D02*
X0166958Y0019903D01*
X0166957Y0018572D02*
X0166958Y0018572D01*
X0166957Y0018305D02*
X0166958Y0018305D01*
X0166957Y0016706D02*
X0166958Y0016706D01*
X0169723Y0021502D02*
X0170381Y0021502D01*
X0175345Y0021502D02*
X0177523Y0021502D01*
X0177523Y0016706D02*
X0176038Y0016706D01*
X0190120Y0023100D02*
X0200696Y0023100D01*
X0200507Y0021502D02*
X0191746Y0021502D01*
X0191746Y0019903D02*
X0200507Y0019903D01*
X0200507Y0018305D02*
X0191746Y0018305D01*
X0191746Y0016706D02*
X0200507Y0016706D01*
X0209707Y0016706D02*
X0210307Y0016706D01*
X0210307Y0018305D02*
X0209707Y0018305D01*
X0209707Y0019903D02*
X0210307Y0019903D01*
X0210307Y0021502D02*
X0209707Y0021502D01*
X0209518Y0023100D02*
X0210506Y0023100D01*
X0211331Y0024699D02*
X0208643Y0024699D01*
X0214907Y0024699D02*
X0215307Y0024699D01*
X0215307Y0023100D02*
X0214907Y0023100D01*
X0214907Y0021502D02*
X0215307Y0021502D01*
X0215307Y0019903D02*
X0214907Y0019903D01*
X0219907Y0019903D02*
X0220507Y0019903D01*
X0220507Y0018305D02*
X0219907Y0018305D01*
X0219907Y0016706D02*
X0220507Y0016706D01*
X0220507Y0015108D02*
X0219868Y0015108D01*
X0219363Y0013509D02*
X0221048Y0013509D01*
X0229166Y0013509D02*
X0231048Y0013509D01*
X0230507Y0015108D02*
X0229707Y0015108D01*
X0229707Y0016706D02*
X0230507Y0016706D01*
X0230507Y0018305D02*
X0229707Y0018305D01*
X0229707Y0019903D02*
X0230507Y0019903D01*
X0230507Y0021502D02*
X0229707Y0021502D01*
X0229518Y0023100D02*
X0230696Y0023100D01*
X0231571Y0024699D02*
X0228643Y0024699D01*
X0221571Y0024699D02*
X0218883Y0024699D01*
X0219709Y0023100D02*
X0220696Y0023100D01*
X0220507Y0021502D02*
X0219907Y0021502D01*
X0210346Y0015108D02*
X0209707Y0015108D01*
X0209166Y0013509D02*
X0210851Y0013509D01*
X0201571Y0024699D02*
X0190120Y0024699D01*
X0230587Y0042282D02*
X0247928Y0042282D01*
X0247928Y0043881D02*
X0232185Y0043881D01*
X0233784Y0045479D02*
X0247928Y0045479D01*
X0247928Y0047078D02*
X0235382Y0047078D01*
X0236872Y0048676D02*
X0247928Y0048676D01*
X0247928Y0050275D02*
X0236872Y0050275D01*
X0236872Y0051873D02*
X0247928Y0051873D01*
X0247928Y0053472D02*
X0236872Y0053472D01*
X0236872Y0055070D02*
X0247928Y0055070D01*
X0247928Y0056669D02*
X0236872Y0056669D01*
X0236787Y0058267D02*
X0247928Y0058267D01*
X0247928Y0059866D02*
X0244609Y0059866D01*
X0245172Y0061464D02*
X0247928Y0061464D01*
X0247928Y0063063D02*
X0245172Y0063063D01*
X0245172Y0064661D02*
X0247928Y0064661D01*
X0247928Y0066260D02*
X0245172Y0066260D01*
X0252128Y0066260D02*
X0273310Y0066260D01*
X0273310Y0067858D02*
X0252128Y0067858D01*
X0252128Y0069457D02*
X0273310Y0069457D01*
X0273310Y0071055D02*
X0252128Y0071055D01*
X0252128Y0072654D02*
X0274013Y0072654D01*
X0274247Y0072888D02*
X0273310Y0071951D01*
X0273310Y0022988D01*
X0274247Y0022050D01*
X0322817Y0022050D01*
X0323754Y0022988D01*
X0323754Y0071951D01*
X0322817Y0072888D01*
X0306960Y0072888D01*
X0312414Y0078342D01*
X0313644Y0079572D01*
X0313644Y0106145D01*
X0322817Y0106145D01*
X0323754Y0107082D01*
X0323754Y0156045D01*
X0322817Y0156983D01*
X0300849Y0156983D01*
X0300849Y0163725D01*
X0305264Y0168141D01*
X0305539Y0167477D01*
X0306552Y0166465D01*
X0307875Y0165917D01*
X0308901Y0165917D01*
X0308901Y0163027D01*
X0309838Y0162090D01*
X0315494Y0162090D01*
X0316249Y0162844D01*
X0317003Y0162090D01*
X0322660Y0162090D01*
X0323597Y0163027D01*
X0323597Y0167896D01*
X0322660Y0168833D01*
X0317003Y0168833D01*
X0316249Y0168078D01*
X0315494Y0168833D01*
X0312245Y0168833D01*
X0312191Y0168886D01*
X0312191Y0170233D01*
X0311643Y0171556D01*
X0310631Y0172568D01*
X0309967Y0172843D01*
X0311430Y0174306D01*
X0312622Y0174306D01*
X0313421Y0173507D01*
X0319077Y0173507D01*
X0320014Y0174444D01*
X0320014Y0179313D01*
X0319077Y0180250D01*
X0313421Y0180250D01*
X0312483Y0179313D01*
X0312483Y0178506D01*
X0309690Y0178506D01*
X0297879Y0166695D01*
X0296649Y0165465D01*
X0296649Y0156983D01*
X0274247Y0156983D01*
X0273310Y0156045D01*
X0273310Y0107082D01*
X0274247Y0106145D01*
X0290097Y0106145D01*
X0289735Y0105272D01*
X0289735Y0103840D01*
X0290284Y0102517D01*
X0291296Y0101504D01*
X0292619Y0100956D01*
X0293966Y0100956D01*
X0295106Y0099815D01*
X0292417Y0099815D01*
X0292194Y0099592D01*
X0291971Y0099815D01*
X0289267Y0099815D01*
X0288330Y0098878D01*
X0288330Y0092053D01*
X0288756Y0091627D01*
X0283631Y0086502D01*
X0282285Y0086502D01*
X0280962Y0085954D01*
X0279949Y0084942D01*
X0279674Y0084278D01*
X0278457Y0085494D01*
X0278118Y0085494D01*
X0277166Y0086446D01*
X0275843Y0086994D01*
X0274411Y0086994D01*
X0273088Y0086446D01*
X0272420Y0085779D01*
X0272245Y0085954D01*
X0270922Y0086502D01*
X0269489Y0086502D01*
X0268166Y0085954D01*
X0267154Y0084942D01*
X0266606Y0083618D01*
X0266606Y0082186D01*
X0267154Y0080863D01*
X0268166Y0079850D01*
X0269489Y0079302D01*
X0270836Y0079302D01*
X0273519Y0076619D01*
X0274749Y0075389D01*
X0293713Y0075389D01*
X0297650Y0079326D01*
X0297975Y0079651D01*
X0298270Y0079651D01*
X0298372Y0079753D01*
X0298684Y0079573D01*
X0299142Y0079451D01*
X0300068Y0079451D01*
X0300994Y0079451D01*
X0301451Y0079573D01*
X0301763Y0079753D01*
X0301866Y0079651D01*
X0304569Y0079651D01*
X0304792Y0079874D01*
X0305015Y0079651D01*
X0307719Y0079651D01*
X0307942Y0079874D01*
X0307974Y0079842D01*
X0301021Y0072888D01*
X0274247Y0072888D01*
X0274287Y0075851D02*
X0252128Y0075851D01*
X0252128Y0077449D02*
X0272689Y0077449D01*
X0271090Y0079048D02*
X0252128Y0079048D01*
X0252128Y0080646D02*
X0267370Y0080646D01*
X0266606Y0082245D02*
X0252128Y0082245D01*
X0252128Y0083844D02*
X0266699Y0083844D01*
X0267654Y0085442D02*
X0252128Y0085442D01*
X0252128Y0087041D02*
X0284169Y0087041D01*
X0285768Y0088639D02*
X0252128Y0088639D01*
X0252128Y0090238D02*
X0287366Y0090238D01*
X0288546Y0091836D02*
X0252128Y0091836D01*
X0252128Y0093435D02*
X0288330Y0093435D01*
X0288330Y0095033D02*
X0252128Y0095033D01*
X0252128Y0096632D02*
X0288330Y0096632D01*
X0288330Y0098230D02*
X0257954Y0098230D01*
X0257914Y0098081D02*
X0258067Y0098650D01*
X0258067Y0100182D01*
X0254592Y0100182D01*
X0254592Y0096707D01*
X0256124Y0096707D01*
X0256693Y0096859D01*
X0257203Y0097154D01*
X0257619Y0097570D01*
X0257914Y0098081D01*
X0258067Y0099829D02*
X0295093Y0099829D01*
X0291482Y0101427D02*
X0258067Y0101427D01*
X0257537Y0103026D02*
X0262708Y0103026D01*
X0261479Y0104624D02*
X0257867Y0104624D01*
X0257867Y0106223D02*
X0261192Y0106223D01*
X0260033Y0107821D02*
X0257867Y0107821D01*
X0258435Y0109420D02*
X0256860Y0109420D01*
X0256836Y0111018D02*
X0245681Y0111018D01*
X0245172Y0109420D02*
X0252173Y0109420D01*
X0255238Y0112617D02*
X0247279Y0112617D01*
X0249176Y0119011D02*
X0273310Y0119011D01*
X0273310Y0120609D02*
X0249176Y0120609D01*
X0249176Y0122208D02*
X0273310Y0122208D01*
X0273310Y0123806D02*
X0249176Y0123806D01*
X0249176Y0125405D02*
X0273310Y0125405D01*
X0273310Y0127003D02*
X0249176Y0127003D01*
X0249176Y0128602D02*
X0273310Y0128602D01*
X0273310Y0130200D02*
X0249176Y0130200D01*
X0249176Y0131799D02*
X0273310Y0131799D01*
X0273310Y0133397D02*
X0249176Y0133397D01*
X0249176Y0134996D02*
X0273310Y0134996D01*
X0273310Y0136594D02*
X0249176Y0136594D01*
X0249176Y0138193D02*
X0273310Y0138193D01*
X0273310Y0139791D02*
X0249176Y0139791D01*
X0249176Y0141390D02*
X0273310Y0141390D01*
X0273310Y0142988D02*
X0254674Y0142988D01*
X0255556Y0144587D02*
X0273310Y0144587D01*
X0273310Y0146185D02*
X0255569Y0146185D01*
X0254706Y0147784D02*
X0273310Y0147784D01*
X0273310Y0149382D02*
X0254097Y0149382D01*
X0254097Y0150981D02*
X0273310Y0150981D01*
X0273310Y0152579D02*
X0254097Y0152579D01*
X0254097Y0154178D02*
X0255043Y0154178D01*
X0256825Y0154178D02*
X0273310Y0154178D01*
X0273310Y0155777D02*
X0259031Y0155777D01*
X0259534Y0157375D02*
X0296649Y0157375D01*
X0296649Y0158974D02*
X0259305Y0158974D01*
X0258158Y0160572D02*
X0296649Y0160572D01*
X0296649Y0162171D02*
X0258034Y0162171D01*
X0258034Y0163769D02*
X0296649Y0163769D01*
X0296649Y0165368D02*
X0259973Y0165368D01*
X0260802Y0166966D02*
X0262251Y0166966D01*
X0266349Y0166966D02*
X0298150Y0166966D01*
X0299748Y0168565D02*
X0267598Y0168565D01*
X0267900Y0170163D02*
X0301347Y0170163D01*
X0302945Y0171762D02*
X0267470Y0171762D01*
X0265616Y0173360D02*
X0304544Y0173360D01*
X0306142Y0174959D02*
X0259554Y0174959D01*
X0257235Y0174959D02*
X0252969Y0174959D01*
X0254568Y0173360D02*
X0262984Y0173360D01*
X0261130Y0171762D02*
X0260802Y0171762D01*
X0261538Y0176557D02*
X0307741Y0176557D01*
X0309339Y0178156D02*
X0261994Y0178156D01*
X0261720Y0179754D02*
X0312925Y0179754D01*
X0319573Y0179754D02*
X0333011Y0179754D01*
X0333011Y0178156D02*
X0320014Y0178156D01*
X0320014Y0176557D02*
X0333011Y0176557D01*
X0333011Y0174959D02*
X0320014Y0174959D01*
X0311437Y0171762D02*
X0333011Y0171762D01*
X0333011Y0173360D02*
X0310484Y0173360D01*
X0312191Y0170163D02*
X0333011Y0170163D01*
X0333011Y0168565D02*
X0322928Y0168565D01*
X0323597Y0166966D02*
X0333011Y0166966D01*
X0333011Y0165368D02*
X0323597Y0165368D01*
X0323597Y0163769D02*
X0333011Y0163769D01*
X0333011Y0162171D02*
X0322740Y0162171D01*
X0316923Y0162171D02*
X0315575Y0162171D01*
X0309757Y0162171D02*
X0300849Y0162171D01*
X0300892Y0163769D02*
X0308901Y0163769D01*
X0308901Y0165368D02*
X0302491Y0165368D01*
X0304089Y0166966D02*
X0306051Y0166966D01*
X0300849Y0160572D02*
X0333011Y0160572D01*
X0333011Y0158974D02*
X0300849Y0158974D01*
X0300849Y0157375D02*
X0333011Y0157375D01*
X0333011Y0155777D02*
X0323754Y0155777D01*
X0323754Y0154178D02*
X0333011Y0154178D01*
X0333011Y0152579D02*
X0323754Y0152579D01*
X0323754Y0150981D02*
X0333011Y0150981D01*
X0333011Y0149382D02*
X0323754Y0149382D01*
X0323754Y0147784D02*
X0333011Y0147784D01*
X0333011Y0146185D02*
X0323754Y0146185D01*
X0323754Y0144587D02*
X0333011Y0144587D01*
X0333011Y0142988D02*
X0323754Y0142988D01*
X0323754Y0141390D02*
X0333011Y0141390D01*
X0333011Y0139791D02*
X0323754Y0139791D01*
X0323754Y0138193D02*
X0333011Y0138193D01*
X0333011Y0136594D02*
X0323754Y0136594D01*
X0323754Y0134996D02*
X0333011Y0134996D01*
X0333011Y0133397D02*
X0323754Y0133397D01*
X0323754Y0131799D02*
X0333011Y0131799D01*
X0333011Y0130200D02*
X0323754Y0130200D01*
X0323754Y0128602D02*
X0333011Y0128602D01*
X0333011Y0127003D02*
X0323754Y0127003D01*
X0323754Y0125405D02*
X0333011Y0125405D01*
X0333011Y0123806D02*
X0323754Y0123806D01*
X0323754Y0122208D02*
X0333011Y0122208D01*
X0333011Y0120609D02*
X0323754Y0120609D01*
X0323754Y0119011D02*
X0333011Y0119011D01*
X0333011Y0117412D02*
X0323754Y0117412D01*
X0323754Y0115814D02*
X0333011Y0115814D01*
X0333011Y0114215D02*
X0323754Y0114215D01*
X0323754Y0112617D02*
X0333011Y0112617D01*
X0333011Y0111018D02*
X0323754Y0111018D01*
X0323754Y0109420D02*
X0333011Y0109420D01*
X0333011Y0107821D02*
X0323754Y0107821D01*
X0322895Y0106223D02*
X0333011Y0106223D01*
X0333011Y0104624D02*
X0313644Y0104624D01*
X0313644Y0103026D02*
X0333011Y0103026D01*
X0333011Y0101427D02*
X0313644Y0101427D01*
X0313644Y0099829D02*
X0333011Y0099829D01*
X0333011Y0098230D02*
X0313644Y0098230D01*
X0313644Y0096632D02*
X0333011Y0096632D01*
X0333011Y0095033D02*
X0313644Y0095033D01*
X0313644Y0093435D02*
X0333011Y0093435D01*
X0333011Y0091836D02*
X0313644Y0091836D01*
X0313644Y0090238D02*
X0333011Y0090238D01*
X0333011Y0088639D02*
X0313644Y0088639D01*
X0313644Y0087041D02*
X0333011Y0087041D01*
X0333011Y0085442D02*
X0313644Y0085442D01*
X0313644Y0083844D02*
X0333011Y0083844D01*
X0333011Y0082245D02*
X0313644Y0082245D01*
X0313644Y0080646D02*
X0333011Y0080646D01*
X0333011Y0079048D02*
X0313120Y0079048D01*
X0311522Y0077449D02*
X0333011Y0077449D01*
X0333011Y0075851D02*
X0309923Y0075851D01*
X0308325Y0074252D02*
X0333011Y0074252D01*
X0333011Y0072654D02*
X0323051Y0072654D01*
X0323754Y0071055D02*
X0333011Y0071055D01*
X0333011Y0069457D02*
X0323754Y0069457D01*
X0323754Y0067858D02*
X0333011Y0067858D01*
X0333011Y0066260D02*
X0323754Y0066260D01*
X0323754Y0064661D02*
X0333011Y0064661D01*
X0333011Y0063063D02*
X0323754Y0063063D01*
X0323754Y0061464D02*
X0333011Y0061464D01*
X0333011Y0059866D02*
X0323754Y0059866D01*
X0323754Y0058267D02*
X0333011Y0058267D01*
X0333011Y0056669D02*
X0323754Y0056669D01*
X0323754Y0055070D02*
X0333011Y0055070D01*
X0333011Y0053472D02*
X0323754Y0053472D01*
X0323754Y0051873D02*
X0333011Y0051873D01*
X0333011Y0050275D02*
X0323754Y0050275D01*
X0323754Y0048676D02*
X0333011Y0048676D01*
X0333011Y0047078D02*
X0323754Y0047078D01*
X0323754Y0045479D02*
X0333011Y0045479D01*
X0333011Y0043881D02*
X0323754Y0043881D01*
X0323754Y0042282D02*
X0333011Y0042282D01*
X0333011Y0040684D02*
X0323754Y0040684D01*
X0323754Y0039085D02*
X0333011Y0039085D01*
X0333011Y0037487D02*
X0323754Y0037487D01*
X0323754Y0035888D02*
X0333011Y0035888D01*
X0333011Y0034290D02*
X0323754Y0034290D01*
X0323754Y0032691D02*
X0333011Y0032691D01*
X0333011Y0031093D02*
X0323754Y0031093D01*
X0323754Y0029494D02*
X0333011Y0029494D01*
X0333011Y0027896D02*
X0323754Y0027896D01*
X0323754Y0026297D02*
X0333011Y0026297D01*
X0333011Y0024699D02*
X0323754Y0024699D01*
X0323754Y0023100D02*
X0333011Y0023100D01*
X0333011Y0021502D02*
X0240810Y0021502D01*
X0239707Y0019903D02*
X0333011Y0019903D01*
X0333011Y0018305D02*
X0239707Y0018305D01*
X0239707Y0016706D02*
X0333011Y0016706D01*
X0333011Y0015108D02*
X0239707Y0015108D01*
X0239166Y0013509D02*
X0333011Y0013509D01*
X0273310Y0023100D02*
X0242409Y0023100D01*
X0244007Y0024699D02*
X0273310Y0024699D01*
X0273310Y0026297D02*
X0245606Y0026297D01*
X0247204Y0027896D02*
X0273310Y0027896D01*
X0273310Y0029494D02*
X0248803Y0029494D01*
X0250401Y0031093D02*
X0273310Y0031093D01*
X0273310Y0032691D02*
X0252000Y0032691D01*
X0252128Y0034290D02*
X0273310Y0034290D01*
X0273310Y0035888D02*
X0252128Y0035888D01*
X0252128Y0037487D02*
X0273310Y0037487D01*
X0273310Y0039085D02*
X0252128Y0039085D01*
X0252128Y0040684D02*
X0273310Y0040684D01*
X0273310Y0042282D02*
X0252128Y0042282D01*
X0252128Y0043881D02*
X0273310Y0043881D01*
X0273310Y0045479D02*
X0252128Y0045479D01*
X0252128Y0047078D02*
X0273310Y0047078D01*
X0273310Y0048676D02*
X0252128Y0048676D01*
X0252128Y0050275D02*
X0273310Y0050275D01*
X0273310Y0051873D02*
X0252128Y0051873D01*
X0252128Y0053472D02*
X0273310Y0053472D01*
X0273310Y0055070D02*
X0252128Y0055070D01*
X0252128Y0056669D02*
X0273310Y0056669D01*
X0273310Y0058267D02*
X0252128Y0058267D01*
X0252128Y0059866D02*
X0273310Y0059866D01*
X0273310Y0061464D02*
X0252128Y0061464D01*
X0252128Y0063063D02*
X0273310Y0063063D01*
X0273310Y0064661D02*
X0252128Y0064661D01*
X0252128Y0074252D02*
X0302385Y0074252D01*
X0303983Y0075851D02*
X0294175Y0075851D01*
X0295774Y0077449D02*
X0305582Y0077449D01*
X0307180Y0079048D02*
X0297372Y0079048D01*
X0300068Y0079451D02*
X0300068Y0084001D01*
X0300068Y0079451D01*
X0300068Y0080646D02*
X0300068Y0080646D01*
X0300068Y0082245D02*
X0300068Y0082245D01*
X0300068Y0083844D02*
X0300068Y0083844D01*
X0300068Y0084001D02*
X0300068Y0084001D01*
X0299796Y0088551D02*
X0299142Y0088551D01*
X0298684Y0088428D01*
X0298372Y0088248D01*
X0298270Y0088351D01*
X0295566Y0088351D01*
X0295343Y0088128D01*
X0295120Y0088351D01*
X0292417Y0088351D01*
X0292194Y0088128D01*
X0291971Y0088351D01*
X0291419Y0088351D01*
X0292237Y0089169D01*
X0292729Y0089169D01*
X0294205Y0090645D01*
X0294676Y0091115D01*
X0295120Y0091115D01*
X0295223Y0091218D01*
X0295534Y0091038D01*
X0295992Y0090915D01*
X0296918Y0090915D01*
X0296918Y0095465D01*
X0296918Y0095465D01*
X0296918Y0090915D01*
X0297844Y0090915D01*
X0298302Y0091038D01*
X0298613Y0091218D01*
X0298716Y0091115D01*
X0299829Y0091115D01*
X0299578Y0090508D01*
X0299578Y0089076D01*
X0299796Y0088551D01*
X0299759Y0088639D02*
X0291707Y0088639D01*
X0293798Y0090238D02*
X0299578Y0090238D01*
X0296918Y0091836D02*
X0296918Y0091836D01*
X0296918Y0093435D02*
X0296918Y0093435D01*
X0296918Y0095033D02*
X0296918Y0095033D01*
X0290073Y0103026D02*
X0266877Y0103026D01*
X0268105Y0104624D02*
X0289735Y0104624D01*
X0274170Y0106223D02*
X0268392Y0106223D01*
X0267948Y0107821D02*
X0273310Y0107821D01*
X0273310Y0109420D02*
X0266021Y0109420D01*
X0262776Y0111018D02*
X0273310Y0111018D01*
X0273310Y0112617D02*
X0261178Y0112617D01*
X0259579Y0114215D02*
X0273310Y0114215D01*
X0273310Y0115814D02*
X0257981Y0115814D01*
X0256382Y0117412D02*
X0273310Y0117412D01*
X0251879Y0103388D02*
X0251830Y0103360D01*
X0251414Y0102943D01*
X0251119Y0102433D01*
X0250967Y0101864D01*
X0250967Y0100332D01*
X0254441Y0100332D01*
X0254441Y0100182D01*
X0250967Y0100182D01*
X0250967Y0099206D01*
X0250898Y0099274D01*
X0246240Y0103932D01*
X0251334Y0103932D01*
X0251879Y0103388D01*
X0251496Y0103026D02*
X0247147Y0103026D01*
X0248745Y0101427D02*
X0250967Y0101427D01*
X0250967Y0099829D02*
X0250344Y0099829D01*
X0254442Y0099829D02*
X0254592Y0099829D01*
X0254592Y0098230D02*
X0254442Y0098230D01*
X0236066Y0098230D02*
X0233428Y0098230D01*
X0233428Y0097552D02*
X0233428Y0106639D01*
X0235642Y0108854D01*
X0236066Y0109277D01*
X0236066Y0108377D01*
X0235989Y0108243D01*
X0235866Y0107785D01*
X0235866Y0106958D01*
X0236781Y0106958D01*
X0236781Y0106957D01*
X0235866Y0106957D01*
X0235866Y0106130D01*
X0235989Y0105672D01*
X0236066Y0105538D01*
X0236066Y0094913D01*
X0233428Y0097552D01*
X0234348Y0096632D02*
X0236066Y0096632D01*
X0236066Y0095033D02*
X0235946Y0095033D01*
X0236066Y0099829D02*
X0233428Y0099829D01*
X0233428Y0101427D02*
X0236066Y0101427D01*
X0236066Y0103026D02*
X0233428Y0103026D01*
X0233428Y0104624D02*
X0236066Y0104624D01*
X0235866Y0106223D02*
X0233428Y0106223D01*
X0234610Y0107821D02*
X0235876Y0107821D01*
X0236781Y0106957D02*
X0236781Y0106957D01*
X0232672Y0122208D02*
X0207368Y0122208D01*
X0207234Y0123806D02*
X0232672Y0123806D01*
X0249176Y0142988D02*
X0249320Y0142988D01*
X0315763Y0168565D02*
X0316735Y0168565D01*
X0260978Y0195739D02*
X0260340Y0195739D01*
X0263924Y0208527D02*
X0242191Y0208527D01*
X0237196Y0208527D02*
X0220526Y0208527D01*
X0220526Y0206929D02*
X0236209Y0206929D01*
X0236094Y0205330D02*
X0220526Y0205330D01*
X0220526Y0203732D02*
X0235014Y0203732D01*
X0220526Y0210126D02*
X0265522Y0210126D01*
X0271462Y0210126D02*
X0272886Y0210126D01*
X0275629Y0213323D02*
X0333011Y0213323D01*
X0161806Y0106223D02*
X0161425Y0106223D01*
X0069961Y0104624D02*
X0027801Y0104624D01*
X0027521Y0103026D02*
X0068363Y0103026D01*
X0066764Y0101427D02*
X0060261Y0101427D01*
X0063493Y0099829D02*
X0063493Y0099829D01*
X0063493Y0098230D02*
X0063493Y0098230D01*
X0063493Y0096632D02*
X0063493Y0096632D01*
X0054461Y0101427D02*
X0026859Y0101427D01*
X0025322Y0099829D02*
X0052863Y0099829D01*
X0051264Y0098230D02*
X0017966Y0098230D01*
X0036502Y0114215D02*
X0041854Y0114215D01*
X0020896Y0127003D02*
X0017966Y0127003D01*
X0017966Y0128602D02*
X0020896Y0128602D01*
X0020896Y0130200D02*
X0017966Y0130200D01*
X0017966Y0131799D02*
X0020896Y0131799D01*
X0020896Y0133397D02*
X0017966Y0133397D01*
X0017966Y0134996D02*
X0020896Y0134996D01*
X0020896Y0136594D02*
X0017587Y0136594D01*
X0009565Y0077449D02*
X0046803Y0077449D01*
X0048401Y0075851D02*
X0009565Y0075851D01*
X0009565Y0074252D02*
X0050000Y0074252D01*
X0042832Y0072654D02*
X0009565Y0072654D01*
X0009565Y0071055D02*
X0042247Y0071055D01*
X0042247Y0069457D02*
X0009565Y0069457D01*
X0009565Y0067858D02*
X0042247Y0067858D01*
X0042247Y0066260D02*
X0009565Y0066260D01*
X0009565Y0064661D02*
X0042247Y0064661D01*
X0042247Y0063063D02*
X0009565Y0063063D01*
X0009565Y0061464D02*
X0042247Y0061464D01*
X0042247Y0059866D02*
X0009565Y0059866D01*
X0009565Y0058267D02*
X0042247Y0058267D01*
X0042247Y0056669D02*
X0009565Y0056669D01*
X0009565Y0055070D02*
X0042247Y0055070D01*
X0042247Y0053472D02*
X0009565Y0053472D01*
X0009565Y0051873D02*
X0042247Y0051873D01*
X0042247Y0050275D02*
X0009565Y0050275D01*
X0009565Y0048676D02*
X0042247Y0048676D01*
X0042247Y0047078D02*
X0009565Y0047078D01*
X0009565Y0045479D02*
X0042247Y0045479D01*
X0042247Y0043881D02*
X0009565Y0043881D01*
X0009565Y0042282D02*
X0042247Y0042282D01*
X0042247Y0040684D02*
X0009565Y0040684D01*
X0009565Y0039085D02*
X0042247Y0039085D01*
X0042247Y0037487D02*
X0009565Y0037487D01*
X0009565Y0035888D02*
X0042247Y0035888D01*
X0042247Y0034290D02*
X0009565Y0034290D01*
X0009565Y0032691D02*
X0042247Y0032691D01*
X0042247Y0031093D02*
X0009565Y0031093D01*
X0009565Y0029494D02*
X0042247Y0029494D01*
X0042247Y0027896D02*
X0009565Y0027896D01*
X0009565Y0026297D02*
X0042247Y0026297D01*
X0042247Y0024699D02*
X0009565Y0024699D01*
X0009565Y0023100D02*
X0042253Y0023100D01*
X0009565Y0021502D02*
X0116058Y0021502D01*
X0116058Y0023100D02*
X0092686Y0023100D01*
X0092691Y0024699D02*
X0116257Y0024699D01*
X0117146Y0026297D02*
X0092691Y0026297D01*
X0092691Y0027896D02*
X0119723Y0027896D01*
X0121593Y0027896D02*
X0125615Y0027896D01*
X0127213Y0029494D02*
X0092691Y0029494D01*
X0116058Y0019903D02*
X0009565Y0019903D01*
X0009565Y0018305D02*
X0116058Y0018305D01*
X0116058Y0016706D02*
X0009565Y0016706D01*
X0009565Y0015108D02*
X0116589Y0015108D01*
X0117948Y0013509D02*
X0009565Y0013509D01*
X0131600Y0012715D02*
X0133264Y0013404D01*
X0134558Y0014698D01*
X0135258Y0016389D01*
X0135258Y0021757D01*
X0135858Y0022357D01*
X0135858Y0020504D01*
X0140458Y0020504D01*
X0140458Y0020104D01*
X0135858Y0020104D01*
X0135858Y0016926D01*
X0135976Y0016180D01*
X0136210Y0015461D01*
X0136553Y0014788D01*
X0136997Y0014177D01*
X0137531Y0013643D01*
X0138143Y0013199D01*
X0138816Y0012856D01*
X0139249Y0012715D01*
X0131600Y0012715D01*
X0133369Y0013509D02*
X0137715Y0013509D01*
X0136390Y0015108D02*
X0134727Y0015108D01*
X0135258Y0016706D02*
X0135893Y0016706D01*
X0135858Y0018305D02*
X0135258Y0018305D01*
X0135258Y0019903D02*
X0135858Y0019903D01*
X0135858Y0021502D02*
X0135258Y0021502D01*
X0135457Y0027896D02*
X0133278Y0027896D01*
X0135096Y0029494D02*
X0136192Y0029494D01*
X0136654Y0031093D02*
X0135518Y0031093D01*
X0278510Y0085442D02*
X0280449Y0085442D01*
D31*
X0038808Y0107509D03*
X0023454Y0144123D03*
D32*
X0033493Y0155737D02*
X0033985Y0155737D01*
X0033985Y0169517D01*
X0033985Y0173946D01*
X0044320Y0184280D01*
X0087627Y0184280D01*
X0087627Y0184772D01*
X0089841Y0186987D01*
X0079753Y0197076D01*
X0073355Y0195599D02*
X0088119Y0210363D01*
X0113217Y0210363D01*
X0105835Y0214792D02*
X0104851Y0213808D01*
X0105835Y0214792D02*
X0122076Y0214792D01*
X0122076Y0214300D01*
X0091072Y0183296D01*
X0087627Y0184280D02*
X0087627Y0170501D01*
X0087135Y0170501D01*
X0087627Y0170501D02*
X0109772Y0148355D01*
X0109871Y0147855D01*
X0110265Y0147371D01*
X0115678Y0147371D01*
X0115678Y0125717D01*
X0115540Y0125343D01*
X0115678Y0123257D01*
X0147174Y0091761D01*
X0147343Y0091721D01*
X0147174Y0091269D01*
X0146682Y0090776D01*
X0146682Y0080442D01*
X0146438Y0080304D01*
X0146190Y0079950D01*
X0142745Y0076505D01*
X0119123Y0076505D01*
X0116170Y0073552D01*
X0116170Y0071583D01*
X0115934Y0071209D01*
X0115678Y0071091D01*
X0115678Y0069123D01*
X0115432Y0068877D01*
X0152341Y0031967D01*
X0140776Y0020402D01*
X0140658Y0020304D01*
X0139792Y0029261D02*
X0130934Y0020402D01*
X0130658Y0020304D01*
X0121091Y0020402D02*
X0120658Y0020304D01*
X0121091Y0020402D02*
X0131918Y0031229D01*
X0126997Y0038119D02*
X0126997Y0047961D01*
X0119615Y0055343D01*
X0119123Y0055343D01*
X0119123Y0058887D01*
X0119123Y0055343D02*
X0119123Y0049438D01*
X0112725Y0043040D01*
X0112548Y0042942D01*
X0110757Y0035166D02*
X0103867Y0042056D01*
X0103867Y0087824D01*
X0104113Y0088070D01*
X0100914Y0091269D01*
X0100914Y0094221D01*
X0100914Y0101111D01*
X0075816Y0101111D01*
X0072863Y0098158D01*
X0072863Y0096682D01*
X0072942Y0095859D01*
X0072863Y0096190D01*
X0069910Y0096190D01*
X0069792Y0095859D01*
X0066957Y0095698D02*
X0066643Y0095859D01*
X0066957Y0096190D01*
X0066957Y0098650D01*
X0071387Y0103080D01*
X0088119Y0103080D01*
X0094517Y0109477D01*
X0095501Y0109477D01*
X0100914Y0104556D02*
X0101406Y0104556D01*
X0100914Y0104556D02*
X0100914Y0120304D01*
X0111741Y0131131D01*
X0111741Y0135560D01*
X0111800Y0135580D01*
X0119280Y0135580D02*
X0119615Y0135560D01*
X0119615Y0125717D01*
X0119280Y0125343D01*
X0120107Y0125717D01*
X0141761Y0104064D01*
X0150304Y0102391D02*
X0150619Y0102095D01*
X0153080Y0099635D01*
X0153080Y0091761D01*
X0153343Y0091721D01*
X0153572Y0093237D01*
X0177194Y0093237D01*
X0177627Y0093178D01*
X0177686Y0091269D02*
X0177627Y0091209D01*
X0177686Y0091269D02*
X0183591Y0091269D01*
X0187528Y0095206D01*
X0187528Y0116367D01*
X0187469Y0116800D01*
X0187528Y0116859D01*
X0187528Y0120304D01*
X0198109Y0130885D01*
X0199831Y0129162D01*
X0198109Y0130885D02*
X0198847Y0131623D01*
X0198847Y0134083D01*
X0198887Y0134241D01*
X0205245Y0134083D02*
X0205245Y0131131D01*
X0224438Y0131131D01*
X0227391Y0134083D01*
X0227587Y0134438D01*
X0220894Y0134438D02*
X0220501Y0134576D01*
X0211643Y0134576D01*
X0208690Y0137528D01*
X0189497Y0137528D01*
X0185560Y0133591D01*
X0184674Y0133729D01*
X0185068Y0133591D01*
X0185068Y0116859D01*
X0185501Y0116800D01*
X0185068Y0116367D01*
X0185068Y0103080D01*
X0181131Y0099143D01*
X0181623Y0099143D01*
X0183591Y0097174D01*
X0183591Y0096190D01*
X0181131Y0099143D02*
X0177686Y0099143D01*
X0177627Y0099083D01*
X0177194Y0095206D02*
X0173749Y0095206D01*
X0170796Y0098158D01*
X0170796Y0103572D01*
X0163906Y0104064D02*
X0163906Y0112922D01*
X0152587Y0114398D02*
X0150619Y0112430D01*
X0150304Y0112233D01*
X0150619Y0111938D01*
X0158493Y0104064D01*
X0163906Y0104064D02*
X0157509Y0097666D01*
X0157509Y0096682D01*
X0164398Y0089792D02*
X0172765Y0081426D01*
X0177194Y0081426D01*
X0177627Y0081367D01*
X0177194Y0079457D02*
X0174241Y0079457D01*
X0170304Y0075520D01*
X0170304Y0073552D01*
X0168828Y0076997D02*
X0150127Y0058296D01*
X0150127Y0055835D01*
X0149713Y0055461D01*
X0149635Y0055343D01*
X0147666Y0053375D01*
X0147666Y0042548D01*
X0147265Y0042509D01*
X0153265Y0042509D02*
X0153572Y0042056D01*
X0158001Y0037627D01*
X0152341Y0031967D01*
X0158001Y0037627D02*
X0160707Y0034920D01*
X0184083Y0058296D01*
X0187528Y0058296D01*
X0187528Y0065186D01*
X0181131Y0071583D01*
X0177686Y0071583D01*
X0177627Y0071524D01*
X0177627Y0069556D02*
X0177686Y0069123D01*
X0177686Y0067646D01*
X0177627Y0067587D01*
X0177194Y0067646D01*
X0164398Y0067646D01*
X0156524Y0059772D01*
X0162922Y0061249D02*
X0177194Y0061249D01*
X0177627Y0061682D01*
X0187528Y0058296D02*
X0187528Y0053867D01*
X0187469Y0053808D01*
X0185501Y0053808D02*
X0166367Y0034674D01*
X0160707Y0034920D02*
X0166859Y0028769D01*
X0166859Y0018926D01*
X0166957Y0018572D01*
X0167351Y0018434D01*
X0170304Y0015481D01*
X0190481Y0015481D01*
X0201308Y0026308D01*
X0206721Y0026308D01*
X0214103Y0018926D01*
X0215087Y0018926D01*
X0215107Y0018729D01*
X0215580Y0018926D01*
X0228867Y0032213D01*
X0228867Y0036643D01*
X0229170Y0037076D01*
X0223454Y0037135D02*
X0223170Y0037076D01*
X0223454Y0037135D02*
X0223454Y0038119D01*
X0234772Y0049438D01*
X0234772Y0057312D01*
X0233788Y0058296D01*
X0231820Y0058296D01*
X0230835Y0057312D01*
X0230835Y0053867D01*
X0230776Y0053808D01*
X0228867Y0053867D02*
X0228808Y0053808D01*
X0228867Y0053867D02*
X0228867Y0060757D01*
X0212627Y0076997D01*
X0224930Y0069615D02*
X0232804Y0061741D01*
X0240186Y0061741D01*
X0240619Y0061682D01*
X0232745Y0053808D02*
X0232804Y0053375D01*
X0232804Y0050422D01*
X0231820Y0049438D01*
X0189005Y0049438D01*
X0188759Y0049684D01*
X0188020Y0048946D01*
X0188020Y0019418D01*
X0187981Y0018965D01*
X0181288Y0018965D02*
X0181131Y0018926D01*
X0173257Y0018926D01*
X0172863Y0018572D01*
X0188759Y0049684D02*
X0189497Y0050422D01*
X0189497Y0053375D01*
X0189438Y0053808D01*
X0189497Y0053867D01*
X0189497Y0066170D01*
X0183345Y0072322D01*
X0193434Y0082410D01*
X0189989Y0081918D02*
X0189989Y0092745D01*
X0193434Y0091269D02*
X0193434Y0096190D01*
X0193434Y0091269D02*
X0226898Y0057804D01*
X0226898Y0053867D01*
X0226839Y0053808D01*
X0229359Y0072076D02*
X0229359Y0108493D01*
X0232804Y0111938D01*
X0232804Y0116367D01*
X0232745Y0116800D01*
X0234772Y0110954D02*
X0234772Y0139005D01*
X0192450Y0181328D01*
X0192450Y0191662D01*
X0190973Y0193139D01*
X0190973Y0201505D01*
X0190580Y0201603D01*
X0190481Y0201505D01*
X0188020Y0201505D01*
X0187824Y0201603D01*
X0187528Y0201997D01*
X0187528Y0211839D01*
X0181623Y0217745D01*
X0089595Y0217745D01*
X0079261Y0207410D01*
X0077292Y0207410D01*
X0073355Y0195599D02*
X0070402Y0195599D01*
X0089841Y0186987D02*
X0103867Y0201013D01*
X0108788Y0191170D02*
X0113217Y0191170D01*
X0134871Y0212824D01*
X0143237Y0212824D01*
X0146190Y0209871D01*
X0146190Y0201997D01*
X0146485Y0201603D01*
X0149143Y0201505D02*
X0149241Y0201603D01*
X0149143Y0201505D02*
X0149143Y0189694D01*
X0148158Y0188709D01*
X0148158Y0181820D01*
X0153572Y0178375D02*
X0141761Y0178375D01*
X0141406Y0178414D01*
X0141269Y0175914D02*
X0137331Y0175914D01*
X0136347Y0176898D01*
X0136347Y0180343D01*
X0139792Y0183788D01*
X0134379Y0187725D02*
X0114694Y0187725D01*
X0119615Y0183296D02*
X0124044Y0178867D01*
X0124083Y0178414D01*
X0124536Y0178375D01*
X0127981Y0178375D01*
X0128965Y0177391D01*
X0128965Y0176898D01*
X0138316Y0167548D01*
X0138316Y0164595D01*
X0141761Y0170501D02*
X0141406Y0170737D01*
X0141761Y0170501D02*
X0141761Y0149339D01*
X0134871Y0149339D01*
X0127981Y0142450D01*
X0127824Y0142371D01*
X0127489Y0142450D01*
X0122568Y0147371D01*
X0115678Y0147371D01*
X0109871Y0153855D02*
X0110265Y0154261D01*
X0124536Y0154261D01*
X0127489Y0157213D01*
X0127824Y0157371D01*
X0127981Y0157213D01*
X0138316Y0157213D01*
X0147824Y0157371D02*
X0148158Y0157213D01*
X0150127Y0155245D01*
X0150127Y0152784D01*
X0153572Y0151308D02*
X0149143Y0146879D01*
X0148158Y0142942D02*
X0147824Y0142371D01*
X0148158Y0142450D01*
X0165383Y0142450D01*
X0186544Y0163611D01*
X0190481Y0163611D01*
X0190481Y0180835D01*
X0180639Y0190678D01*
X0179162Y0190678D01*
X0178670Y0192154D01*
X0172765Y0192154D01*
X0171288Y0193631D01*
X0171288Y0201603D01*
X0171288Y0201505D01*
X0168828Y0201505D01*
X0168532Y0201603D01*
X0168335Y0201997D01*
X0168335Y0209871D01*
X0167351Y0210855D01*
X0164398Y0210855D01*
X0163414Y0209871D01*
X0163414Y0201997D01*
X0163020Y0201603D01*
X0162922Y0201505D01*
X0162922Y0193631D01*
X0161446Y0192154D01*
X0158985Y0192154D01*
X0157509Y0193631D01*
X0157509Y0201603D01*
X0159969Y0201997D02*
X0160265Y0201603D01*
X0159969Y0201997D02*
X0159969Y0209871D01*
X0158985Y0210855D01*
X0153080Y0210855D01*
X0152095Y0209871D01*
X0151603Y0209871D01*
X0146682Y0214792D01*
X0122076Y0214792D01*
X0131426Y0205442D02*
X0136839Y0210855D01*
X0142253Y0210855D01*
X0143729Y0209379D01*
X0143729Y0201603D01*
X0140973Y0201603D02*
X0140776Y0201505D01*
X0140776Y0193631D01*
X0139300Y0192154D01*
X0136347Y0192154D01*
X0133394Y0195107D01*
X0131426Y0204457D02*
X0131426Y0205442D01*
X0151997Y0201603D02*
X0152095Y0201505D01*
X0152095Y0193631D01*
X0155540Y0190186D01*
X0162430Y0190186D01*
X0165383Y0193139D01*
X0165383Y0201505D01*
X0165776Y0201603D01*
X0173749Y0201997D02*
X0174044Y0201603D01*
X0173749Y0201997D02*
X0173749Y0209871D01*
X0169812Y0213808D01*
X0180639Y0213808D02*
X0185068Y0209379D01*
X0185068Y0201603D01*
X0182312Y0201603D02*
X0182115Y0201505D01*
X0179654Y0201505D01*
X0179556Y0201603D01*
X0179162Y0201013D01*
X0179162Y0190678D01*
X0166859Y0189694D02*
X0164891Y0189694D01*
X0153818Y0178621D01*
X0165137Y0167302D01*
X0153572Y0155737D01*
X0153572Y0151308D01*
X0148158Y0142942D02*
X0141761Y0149339D01*
X0147824Y0142371D02*
X0147666Y0141957D01*
X0147174Y0141465D01*
X0147174Y0123749D01*
X0146989Y0123532D01*
X0152587Y0123257D02*
X0152989Y0123532D01*
X0152587Y0123257D02*
X0152587Y0114398D01*
X0167351Y0097174D02*
X0167351Y0132115D01*
X0168828Y0133591D01*
X0168828Y0134083D01*
X0177686Y0134083D01*
X0177981Y0133729D01*
X0175225Y0147371D02*
X0188020Y0160166D01*
X0190481Y0163611D02*
X0193926Y0163611D01*
X0194261Y0163808D01*
X0194418Y0163611D01*
X0197371Y0163611D01*
X0198847Y0162135D01*
X0199831Y0162135D01*
X0210658Y0151308D02*
X0210658Y0144418D01*
X0205580Y0134241D02*
X0205245Y0134083D01*
X0205245Y0131131D02*
X0205245Y0129162D01*
X0197371Y0121288D01*
X0197371Y0116859D01*
X0197312Y0116800D01*
X0199280Y0116800D02*
X0199339Y0116367D01*
X0199339Y0106032D01*
X0203276Y0112922D02*
X0225914Y0090284D01*
X0231328Y0096682D02*
X0231328Y0107509D01*
X0234772Y0110954D01*
X0240619Y0108926D02*
X0247076Y0115383D01*
X0255442Y0115383D01*
X0264792Y0106032D01*
X0268237Y0100127D02*
X0259379Y0100127D01*
X0259379Y0100619D01*
X0259379Y0100127D02*
X0254950Y0100127D01*
X0254517Y0100257D01*
X0250028Y0097174D02*
X0250028Y0033690D01*
X0235265Y0018926D01*
X0235107Y0018729D01*
X0298532Y0035658D02*
X0298749Y0035658D01*
X0298749Y0059280D01*
X0298532Y0059280D01*
X0298749Y0059772D01*
X0298749Y0067646D01*
X0311544Y0080442D01*
X0311544Y0106524D01*
X0298749Y0119320D01*
X0298532Y0119753D01*
X0298749Y0119812D01*
X0298749Y0142942D01*
X0298532Y0143375D01*
X0298749Y0143434D01*
X0298749Y0164595D01*
X0310560Y0176406D01*
X0315973Y0176406D01*
X0316249Y0176879D01*
X0308591Y0169517D02*
X0312528Y0165580D01*
X0312666Y0165461D01*
X0268237Y0170993D02*
X0268237Y0152784D01*
X0255442Y0152784D01*
X0255934Y0157706D02*
X0255934Y0169024D01*
X0255658Y0169221D01*
X0253099Y0169221D02*
X0252981Y0169517D01*
X0252981Y0171977D01*
X0251997Y0172961D01*
X0244123Y0172961D01*
X0243139Y0171977D01*
X0243139Y0169517D01*
X0242666Y0169221D01*
X0245107Y0169024D02*
X0245107Y0166564D01*
X0241662Y0163119D01*
X0241662Y0156229D01*
X0235757Y0156229D01*
X0241662Y0156229D02*
X0241662Y0149339D01*
X0245107Y0157706D02*
X0245107Y0134083D01*
X0242154Y0131131D01*
X0251997Y0145402D02*
X0251997Y0158690D01*
X0252981Y0159674D01*
X0252981Y0169024D01*
X0253099Y0169221D01*
X0250540Y0169221D02*
X0250520Y0169024D01*
X0250520Y0160166D01*
X0247076Y0156721D01*
X0247076Y0115383D01*
X0245107Y0106032D02*
X0244123Y0105048D01*
X0240678Y0105048D01*
X0240619Y0104989D01*
X0240678Y0103080D02*
X0240619Y0103020D01*
X0240678Y0103080D02*
X0244123Y0103080D01*
X0250028Y0097174D01*
X0244123Y0093237D02*
X0246583Y0090776D01*
X0246583Y0071091D01*
X0270206Y0082902D02*
X0275619Y0077489D01*
X0292843Y0077489D01*
X0296780Y0081426D01*
X0296780Y0083887D01*
X0296918Y0084001D01*
X0299733Y0084379D02*
X0300068Y0084001D01*
X0299733Y0084379D02*
X0299733Y0090284D01*
X0297272Y0092745D01*
X0297272Y0095206D01*
X0296918Y0095465D01*
X0296780Y0095698D01*
X0296780Y0098158D01*
X0294812Y0100127D01*
X0268237Y0100127D01*
X0268237Y0116859D01*
X0267745Y0116859D01*
X0268237Y0116859D02*
X0268237Y0152784D01*
X0247568Y0160166D02*
X0245107Y0157706D01*
X0247568Y0160166D02*
X0247568Y0169024D01*
X0247981Y0169221D01*
X0245422Y0169221D02*
X0245107Y0169024D01*
X0238709Y0171485D02*
X0238709Y0192646D01*
X0242646Y0192646D01*
X0242666Y0192253D01*
X0245107Y0192646D02*
X0245107Y0195107D01*
X0244615Y0195599D01*
X0244615Y0197568D01*
X0245107Y0192646D02*
X0245422Y0192253D01*
X0247981Y0192253D02*
X0248060Y0192646D01*
X0248060Y0201997D01*
X0239694Y0205442D02*
X0239694Y0205934D01*
X0264300Y0205934D01*
X0270698Y0212331D01*
X0273650Y0212331D01*
X0277587Y0208394D01*
X0277587Y0207902D01*
X0288414Y0207902D01*
X0277587Y0207902D02*
X0276111Y0207902D01*
X0260855Y0192646D01*
X0258887Y0192646D01*
X0258414Y0192253D01*
X0255934Y0192154D02*
X0255658Y0192253D01*
X0255934Y0192154D02*
X0255934Y0187725D01*
X0258394Y0185265D01*
X0258394Y0178375D01*
X0258394Y0173454D02*
X0265776Y0173454D01*
X0268237Y0170993D01*
X0264300Y0170009D02*
X0263808Y0169517D01*
X0258887Y0169517D01*
X0258414Y0169221D01*
X0258394Y0173454D02*
X0246337Y0185511D01*
X0243631Y0182804D01*
X0242646Y0182804D01*
X0246337Y0185511D02*
X0250520Y0189694D01*
X0250520Y0192154D01*
X0250540Y0192253D01*
X0250520Y0192646D01*
X0250520Y0195107D01*
X0251505Y0196091D01*
X0257410Y0196091D01*
X0270206Y0208887D01*
X0272174Y0208887D01*
X0253099Y0192253D02*
X0252981Y0192154D01*
X0252981Y0183788D01*
X0235265Y0172961D02*
X0235265Y0201013D01*
X0239694Y0205442D01*
X0215383Y0201603D02*
X0215087Y0201997D01*
X0215087Y0211839D01*
X0211150Y0215776D01*
X0208198Y0215776D01*
X0194418Y0201997D01*
X0194418Y0201505D01*
X0193434Y0201505D01*
X0193335Y0201603D01*
X0194418Y0201505D02*
X0195894Y0201505D01*
X0196091Y0201603D01*
X0195894Y0201013D01*
X0195894Y0190678D01*
X0200324Y0186741D02*
X0206721Y0193139D01*
X0206721Y0201505D01*
X0207115Y0201603D01*
X0209871Y0201603D02*
X0210166Y0201505D01*
X0210166Y0192646D01*
X0212135Y0190678D01*
X0200324Y0186741D02*
X0200324Y0178375D01*
X0206229Y0176406D02*
X0206229Y0175422D01*
X0206229Y0176406D02*
X0212135Y0182312D01*
X0187036Y0179359D02*
X0174241Y0166564D01*
X0174241Y0166072D01*
X0171288Y0166072D01*
X0171229Y0166367D01*
X0170796Y0164103D02*
X0168335Y0164103D01*
X0165137Y0167302D01*
X0171229Y0168926D02*
X0171288Y0169024D01*
X0173749Y0169024D01*
X0175717Y0170993D01*
X0175717Y0181328D01*
X0172272Y0177883D02*
X0172272Y0172961D01*
X0171288Y0171977D01*
X0171229Y0171682D01*
X0174241Y0166072D02*
X0175225Y0165087D01*
X0175225Y0162627D01*
X0174241Y0161643D01*
X0171288Y0161643D01*
X0171229Y0161249D01*
X0171229Y0163808D02*
X0170796Y0164103D01*
X0171229Y0158690D02*
X0168335Y0158690D01*
X0164891Y0162135D01*
X0170796Y0155737D02*
X0171229Y0155934D01*
X0170796Y0155737D02*
X0170796Y0152784D01*
X0170304Y0152292D01*
X0156032Y0167548D02*
X0151111Y0172469D01*
X0151111Y0172961D01*
X0148158Y0175914D01*
X0141761Y0175914D01*
X0141406Y0175855D01*
X0141269Y0175914D01*
X0141406Y0173296D02*
X0141761Y0172961D01*
X0146190Y0172961D01*
X0147666Y0171485D01*
X0153572Y0178375D02*
X0153818Y0178621D01*
X0124083Y0175855D02*
X0124044Y0175914D01*
X0120107Y0175914D01*
X0116170Y0179851D01*
X0102883Y0179851D01*
X0102430Y0180028D01*
X0099438Y0183296D02*
X0119615Y0183296D01*
X0117646Y0172961D02*
X0124044Y0172961D01*
X0124083Y0173296D01*
X0124083Y0170737D02*
X0124044Y0170501D01*
X0120107Y0170501D01*
X0118139Y0168532D01*
X0117646Y0172961D02*
X0113709Y0169024D01*
X0106328Y0169024D01*
X0106013Y0168611D01*
X0093532Y0177391D02*
X0099438Y0183296D01*
X0066957Y0166072D02*
X0066957Y0143434D01*
X0067076Y0143375D01*
X0067450Y0142942D01*
X0067450Y0119812D01*
X0067076Y0119753D01*
X0066957Y0119320D01*
X0058591Y0110954D01*
X0034969Y0110954D01*
X0033985Y0114891D02*
X0027095Y0108001D01*
X0027095Y0107351D01*
X0033985Y0114891D02*
X0033985Y0155737D01*
X0043414Y0169398D02*
X0043828Y0169517D01*
X0044812Y0169517D01*
X0051702Y0176406D01*
X0052686Y0180343D02*
X0047272Y0180343D01*
X0046997Y0180816D01*
X0052686Y0180343D02*
X0066957Y0166072D01*
X0028080Y0126702D02*
X0023296Y0126702D01*
X0038808Y0107509D02*
X0039398Y0107017D01*
X0040383Y0106032D01*
X0055639Y0106032D01*
X0063020Y0098650D01*
X0063020Y0096190D01*
X0063493Y0095859D01*
X0063513Y0095698D01*
X0063513Y0089792D01*
X0066465Y0086839D01*
X0066465Y0084871D01*
X0066643Y0084394D01*
X0063493Y0084394D02*
X0063020Y0084871D01*
X0063020Y0087331D01*
X0060068Y0090284D01*
X0055146Y0090284D02*
X0055146Y0080934D01*
X0056131Y0079950D01*
X0058099Y0079950D01*
X0060068Y0081918D01*
X0060068Y0084379D01*
X0060343Y0084394D01*
X0055146Y0077981D02*
X0051702Y0081426D01*
X0051702Y0095698D01*
X0056131Y0100127D01*
X0058591Y0100127D01*
X0060068Y0098650D01*
X0060068Y0096190D01*
X0060343Y0095859D01*
X0066957Y0095698D02*
X0066957Y0091269D01*
X0067942Y0090284D01*
X0079753Y0082410D02*
X0075324Y0077981D01*
X0055146Y0077981D01*
X0067450Y0059772D02*
X0034969Y0092253D01*
X0067450Y0059772D02*
X0067469Y0059398D01*
X0067942Y0059280D01*
X0067942Y0036150D01*
X0067469Y0035776D01*
X0101898Y0041072D02*
X0109772Y0033198D01*
X0122076Y0033198D01*
X0126997Y0038119D01*
X0122548Y0042942D02*
X0122076Y0042548D01*
X0114694Y0035166D01*
X0110757Y0035166D01*
X0101898Y0041072D02*
X0101898Y0062725D01*
X0084182Y0080442D01*
X0084182Y0097666D01*
X0100914Y0101111D02*
X0100914Y0104556D01*
X0104851Y0098158D02*
X0104359Y0097666D01*
X0104851Y0098158D02*
X0104851Y0113414D01*
X0111741Y0120304D01*
X0111741Y0125225D01*
X0111800Y0125343D01*
X0115186Y0125225D02*
X0115540Y0125343D01*
X0115186Y0125225D02*
X0115186Y0120796D01*
X0112233Y0117843D01*
X0112233Y0114398D01*
X0111839Y0114005D01*
X0118139Y0113906D02*
X0118139Y0109477D01*
X0118631Y0109477D01*
X0125028Y0103080D01*
X0125028Y0093237D01*
X0116662Y0084871D01*
X0116662Y0079950D01*
X0112233Y0075520D01*
X0112233Y0071583D01*
X0112194Y0071209D01*
X0115432Y0068877D02*
X0112725Y0066170D01*
X0112725Y0059280D01*
X0112430Y0058887D01*
X0119674Y0071209D02*
X0120107Y0071583D01*
X0122568Y0071583D01*
X0124044Y0073060D01*
X0124044Y0079950D02*
X0121583Y0079950D01*
X0120107Y0081426D01*
X0119674Y0081446D01*
X0112194Y0081446D02*
X0111741Y0081918D01*
X0109772Y0083887D01*
X0107804Y0083887D01*
X0109772Y0084379D01*
X0109772Y0087824D01*
X0120107Y0098158D01*
X0120580Y0098257D01*
X0118139Y0106032D02*
X0110757Y0098650D01*
X0110580Y0098257D01*
X0118139Y0106032D02*
X0118139Y0109477D01*
X0118139Y0113906D02*
X0118532Y0114005D01*
X0104113Y0088070D02*
X0107804Y0084379D01*
X0107804Y0083887D01*
X0149713Y0070028D02*
X0150127Y0070107D01*
X0152095Y0072076D01*
X0152095Y0079950D01*
X0152438Y0080304D01*
X0152587Y0080442D01*
X0156524Y0084379D01*
X0168828Y0080442D02*
X0168828Y0076997D01*
X0173749Y0083394D02*
X0171780Y0085363D01*
X0171780Y0089792D01*
X0177627Y0089241D02*
X0177686Y0089300D01*
X0186544Y0089300D01*
X0183591Y0087331D02*
X0186544Y0084379D01*
X0183099Y0083394D02*
X0183099Y0080934D01*
X0183591Y0080442D01*
X0183099Y0083394D02*
X0181131Y0085363D01*
X0177686Y0085363D01*
X0177627Y0085304D01*
X0177194Y0083394D02*
X0173749Y0083394D01*
X0177194Y0083394D02*
X0177627Y0083335D01*
X0177194Y0079457D02*
X0177627Y0079398D01*
X0177686Y0077489D02*
X0177627Y0077430D01*
X0177686Y0077489D02*
X0181623Y0077489D01*
X0182115Y0076997D01*
X0185068Y0076997D01*
X0189989Y0081918D01*
X0183591Y0087331D02*
X0177686Y0087331D01*
X0177627Y0087272D01*
X0177627Y0095146D02*
X0177194Y0095206D01*
X0203276Y0112922D02*
X0203276Y0116367D01*
X0203217Y0116800D01*
X0201308Y0116859D02*
X0201249Y0116800D01*
X0201308Y0116859D02*
X0201308Y0120304D01*
X0203769Y0122765D01*
X0234772Y0106032D02*
X0235757Y0107017D01*
X0240186Y0107017D01*
X0240619Y0106957D01*
X0245107Y0106032D02*
X0254457Y0106032D01*
X0254517Y0106257D01*
X0244123Y0093237D02*
X0240678Y0093237D01*
X0240619Y0093178D01*
X0240186Y0091269D02*
X0236741Y0091269D01*
X0231328Y0096682D01*
X0240186Y0091269D02*
X0240619Y0091209D01*
X0275127Y0083394D02*
X0277587Y0083394D01*
X0281524Y0079457D01*
X0291367Y0079457D01*
X0293335Y0081426D01*
X0293335Y0083887D01*
X0293769Y0084001D01*
X0291859Y0091269D02*
X0293335Y0092745D01*
X0293335Y0095206D01*
X0293769Y0095465D01*
X0299733Y0095698D02*
X0299733Y0098158D01*
X0293335Y0104556D01*
X0301702Y0101111D02*
X0301702Y0100127D01*
X0304900Y0096928D01*
X0303670Y0095698D01*
X0303217Y0095465D01*
X0303178Y0095206D01*
X0303178Y0089792D01*
X0300068Y0095465D02*
X0299733Y0095698D01*
X0304900Y0096928D02*
X0306131Y0095698D01*
X0306367Y0095465D01*
X0291859Y0091269D02*
X0291367Y0091269D01*
X0283001Y0082902D01*
X0231820Y0147863D02*
X0231820Y0164595D01*
X0238709Y0171485D01*
X0212627Y0201603D02*
X0212627Y0209379D01*
X0209674Y0212331D01*
X0204359Y0201603D02*
X0204261Y0201505D01*
X0201800Y0201505D01*
X0201603Y0201603D01*
X0201308Y0201505D01*
X0199339Y0201505D01*
X0198847Y0201603D01*
X0198847Y0201505D01*
X0196387Y0201505D01*
X0196091Y0201603D01*
X0179556Y0201603D02*
X0179162Y0201505D01*
X0177194Y0201505D01*
X0176800Y0201603D01*
X0152095Y0201997D02*
X0151997Y0201603D01*
X0152095Y0201997D02*
X0152095Y0209871D01*
X0177686Y0073552D02*
X0177627Y0073493D01*
X0177686Y0073552D02*
X0182115Y0073552D01*
X0183345Y0072322D01*
D33*
X0183591Y0080442D03*
X0186544Y0084379D03*
X0193434Y0082410D03*
X0186544Y0089300D03*
X0189989Y0092745D03*
X0193434Y0096190D03*
X0183591Y0096190D03*
X0171780Y0089792D03*
X0164398Y0089792D03*
X0167351Y0097174D03*
X0170796Y0103572D03*
X0163906Y0112922D03*
X0158493Y0104064D03*
X0157509Y0096682D03*
X0141761Y0104064D03*
X0156524Y0084379D03*
X0168828Y0080442D03*
X0170304Y0073552D03*
X0162922Y0061249D03*
X0156524Y0059772D03*
X0124044Y0073060D03*
X0124044Y0079950D03*
X0107804Y0083887D03*
X0100914Y0094221D03*
X0104359Y0097666D03*
X0101406Y0104556D03*
X0095501Y0109477D03*
X0084182Y0097666D03*
X0067942Y0090284D03*
X0060068Y0090284D03*
X0055146Y0090284D03*
X0034969Y0092253D03*
X0034969Y0110954D03*
X0028080Y0126702D03*
X0033493Y0155737D03*
X0033985Y0169517D03*
X0051702Y0176406D03*
X0070402Y0195599D03*
X0079753Y0197076D03*
X0077292Y0207410D03*
X0103867Y0201013D03*
X0108788Y0191170D03*
X0114694Y0187725D03*
X0134379Y0187725D03*
X0139792Y0183788D03*
X0148158Y0181820D03*
X0147666Y0171485D03*
X0156032Y0167548D03*
X0164891Y0162135D03*
X0170304Y0152292D03*
X0175225Y0147371D03*
X0168828Y0134083D03*
X0149143Y0146879D03*
X0150127Y0152784D03*
X0138316Y0157213D03*
X0138316Y0164595D03*
X0118139Y0168532D03*
X0093532Y0177391D03*
X0091072Y0183296D03*
X0087135Y0170501D03*
X0133394Y0195107D03*
X0131426Y0204457D03*
X0113217Y0210363D03*
X0104851Y0213808D03*
X0166859Y0189694D03*
X0175717Y0181328D03*
X0172272Y0177883D03*
X0187036Y0179359D03*
X0200324Y0178375D03*
X0206229Y0175422D03*
X0212135Y0182312D03*
X0212135Y0190678D03*
X0195894Y0190678D03*
X0179162Y0190678D03*
X0209674Y0212331D03*
X0180639Y0213808D03*
X0169812Y0213808D03*
X0235265Y0172961D03*
X0242646Y0182804D03*
X0252981Y0183788D03*
X0258394Y0178375D03*
X0264300Y0170009D03*
X0255934Y0157706D03*
X0255442Y0152784D03*
X0251997Y0145402D03*
X0241662Y0149339D03*
X0235757Y0156229D03*
X0231820Y0147863D03*
X0210658Y0144418D03*
X0210658Y0151308D03*
X0199831Y0162135D03*
X0188020Y0160166D03*
X0199831Y0129162D03*
X0203769Y0122765D03*
X0199339Y0106032D03*
X0225914Y0090284D03*
X0212627Y0076997D03*
X0224930Y0069615D03*
X0229359Y0072076D03*
X0246583Y0071091D03*
X0270206Y0082902D03*
X0275127Y0083394D03*
X0283001Y0082902D03*
X0303178Y0089792D03*
X0301702Y0101111D03*
X0293335Y0104556D03*
X0267745Y0116859D03*
X0264792Y0106032D03*
X0259379Y0100619D03*
X0234772Y0106032D03*
X0242154Y0131131D03*
X0308591Y0169517D03*
X0288414Y0207902D03*
X0272174Y0208887D03*
X0248060Y0201997D03*
X0244615Y0197568D03*
X0238709Y0192646D03*
X0239694Y0205934D03*
X0079753Y0082410D03*
X0131918Y0031229D03*
X0139792Y0029261D03*
X0166367Y0034674D03*
M02*
