G75*
%MOIN*%
%OFA0B0*%
%FSLAX25Y25*%
%IPPOS*%
%LPD*%
%AMOC8*
5,1,8,0,0,1.08239X$1,22.5*
%
%ADD10C,0.01600*%
%ADD11C,0.00600*%
%ADD12C,0.01000*%
%ADD13C,0.00400*%
%ADD14C,0.00500*%
%ADD15C,0.01200*%
%ADD16C,0.00000*%
%ADD17C,0.00100*%
%ADD18C,0.00200*%
%ADD19C,0.02000*%
%ADD20C,0.00300*%
%ADD21C,0.00800*%
%ADD22C,0.00394*%
D10*
X0007902Y0007115D02*
X0334674Y0007115D01*
X0334798Y0007117D01*
X0334921Y0007123D01*
X0335045Y0007132D01*
X0335167Y0007146D01*
X0335290Y0007163D01*
X0335412Y0007185D01*
X0335533Y0007210D01*
X0335653Y0007239D01*
X0335772Y0007271D01*
X0335891Y0007308D01*
X0336008Y0007348D01*
X0336123Y0007391D01*
X0336238Y0007439D01*
X0336350Y0007490D01*
X0336461Y0007544D01*
X0336571Y0007602D01*
X0336678Y0007663D01*
X0336784Y0007728D01*
X0336887Y0007796D01*
X0336988Y0007867D01*
X0337087Y0007941D01*
X0337184Y0008018D01*
X0337278Y0008099D01*
X0337369Y0008182D01*
X0337458Y0008268D01*
X0337544Y0008357D01*
X0337627Y0008448D01*
X0337708Y0008542D01*
X0337785Y0008639D01*
X0337859Y0008738D01*
X0337930Y0008839D01*
X0337998Y0008942D01*
X0338063Y0009048D01*
X0338124Y0009155D01*
X0338182Y0009265D01*
X0338236Y0009376D01*
X0338287Y0009488D01*
X0338335Y0009603D01*
X0338378Y0009718D01*
X0338418Y0009835D01*
X0338455Y0009954D01*
X0338487Y0010073D01*
X0338516Y0010193D01*
X0338541Y0010314D01*
X0338563Y0010436D01*
X0338580Y0010559D01*
X0338594Y0010681D01*
X0338603Y0010805D01*
X0338609Y0010928D01*
X0338611Y0011052D01*
X0338611Y0219713D01*
X0338609Y0219837D01*
X0338603Y0219960D01*
X0338594Y0220084D01*
X0338580Y0220206D01*
X0338563Y0220329D01*
X0338541Y0220451D01*
X0338516Y0220572D01*
X0338487Y0220692D01*
X0338455Y0220811D01*
X0338418Y0220930D01*
X0338378Y0221047D01*
X0338335Y0221162D01*
X0338287Y0221277D01*
X0338236Y0221389D01*
X0338182Y0221500D01*
X0338124Y0221610D01*
X0338063Y0221717D01*
X0337998Y0221823D01*
X0337930Y0221926D01*
X0337859Y0222027D01*
X0337785Y0222126D01*
X0337708Y0222223D01*
X0337627Y0222317D01*
X0337544Y0222408D01*
X0337458Y0222497D01*
X0337369Y0222583D01*
X0337278Y0222666D01*
X0337184Y0222747D01*
X0337087Y0222824D01*
X0336988Y0222898D01*
X0336887Y0222969D01*
X0336784Y0223037D01*
X0336678Y0223102D01*
X0336571Y0223163D01*
X0336461Y0223221D01*
X0336350Y0223275D01*
X0336238Y0223326D01*
X0336123Y0223374D01*
X0336008Y0223417D01*
X0335891Y0223457D01*
X0335772Y0223494D01*
X0335653Y0223526D01*
X0335533Y0223555D01*
X0335412Y0223580D01*
X0335290Y0223602D01*
X0335167Y0223619D01*
X0335045Y0223633D01*
X0334921Y0223642D01*
X0334798Y0223648D01*
X0334674Y0223650D01*
X0007902Y0223650D01*
X0007778Y0223648D01*
X0007655Y0223642D01*
X0007531Y0223633D01*
X0007409Y0223619D01*
X0007286Y0223602D01*
X0007164Y0223580D01*
X0007043Y0223555D01*
X0006923Y0223526D01*
X0006804Y0223494D01*
X0006685Y0223457D01*
X0006568Y0223417D01*
X0006453Y0223374D01*
X0006338Y0223326D01*
X0006226Y0223275D01*
X0006115Y0223221D01*
X0006005Y0223163D01*
X0005898Y0223102D01*
X0005792Y0223037D01*
X0005689Y0222969D01*
X0005588Y0222898D01*
X0005489Y0222824D01*
X0005392Y0222747D01*
X0005298Y0222666D01*
X0005207Y0222583D01*
X0005118Y0222497D01*
X0005032Y0222408D01*
X0004949Y0222317D01*
X0004868Y0222223D01*
X0004791Y0222126D01*
X0004717Y0222027D01*
X0004646Y0221926D01*
X0004578Y0221823D01*
X0004513Y0221717D01*
X0004452Y0221610D01*
X0004394Y0221500D01*
X0004340Y0221389D01*
X0004289Y0221277D01*
X0004241Y0221162D01*
X0004198Y0221047D01*
X0004158Y0220930D01*
X0004121Y0220811D01*
X0004089Y0220692D01*
X0004060Y0220572D01*
X0004035Y0220451D01*
X0004013Y0220329D01*
X0003996Y0220206D01*
X0003982Y0220084D01*
X0003973Y0219960D01*
X0003967Y0219837D01*
X0003965Y0219713D01*
X0003965Y0011052D01*
X0003967Y0010928D01*
X0003973Y0010805D01*
X0003982Y0010681D01*
X0003996Y0010559D01*
X0004013Y0010436D01*
X0004035Y0010314D01*
X0004060Y0010193D01*
X0004089Y0010073D01*
X0004121Y0009954D01*
X0004158Y0009835D01*
X0004198Y0009718D01*
X0004241Y0009603D01*
X0004289Y0009488D01*
X0004340Y0009376D01*
X0004394Y0009265D01*
X0004452Y0009155D01*
X0004513Y0009048D01*
X0004578Y0008942D01*
X0004646Y0008839D01*
X0004717Y0008738D01*
X0004791Y0008639D01*
X0004868Y0008542D01*
X0004949Y0008448D01*
X0005032Y0008357D01*
X0005118Y0008268D01*
X0005207Y0008182D01*
X0005298Y0008099D01*
X0005392Y0008018D01*
X0005489Y0007941D01*
X0005588Y0007867D01*
X0005689Y0007796D01*
X0005792Y0007728D01*
X0005898Y0007663D01*
X0006005Y0007602D01*
X0006115Y0007544D01*
X0006226Y0007490D01*
X0006338Y0007439D01*
X0006453Y0007391D01*
X0006568Y0007348D01*
X0006685Y0007308D01*
X0006804Y0007271D01*
X0006923Y0007239D01*
X0007043Y0007210D01*
X0007164Y0007185D01*
X0007286Y0007163D01*
X0007409Y0007146D01*
X0007531Y0007132D01*
X0007655Y0007123D01*
X0007778Y0007117D01*
X0007902Y0007115D01*
D11*
X0107548Y0040442D02*
X0110048Y0037942D01*
X0115048Y0037942D01*
X0117548Y0040442D01*
X0120048Y0037942D01*
X0125048Y0037942D01*
X0127548Y0040442D01*
X0127548Y0045442D01*
X0125048Y0047942D01*
X0120048Y0047942D01*
X0117548Y0045442D01*
X0117548Y0040442D01*
X0117548Y0045442D02*
X0115048Y0047942D01*
X0110048Y0047942D01*
X0107548Y0045442D01*
X0107548Y0040442D01*
X0118158Y0025304D02*
X0123158Y0025304D01*
X0125658Y0022804D01*
X0128158Y0025304D01*
X0133158Y0025304D01*
X0135658Y0022804D01*
X0138158Y0025304D01*
X0143158Y0025304D01*
X0145658Y0022804D01*
X0148158Y0025304D01*
X0153158Y0025304D01*
X0155658Y0022804D01*
X0155658Y0017804D01*
X0153158Y0015304D01*
X0148158Y0015304D01*
X0145658Y0017804D01*
X0143158Y0015304D01*
X0138158Y0015304D01*
X0135658Y0017804D01*
X0135658Y0022804D01*
X0135658Y0017804D02*
X0133158Y0015304D01*
X0128158Y0015304D01*
X0125658Y0017804D01*
X0123158Y0015304D01*
X0118158Y0015304D01*
X0115658Y0017804D01*
X0115658Y0022804D01*
X0118158Y0025304D01*
X0125658Y0022804D02*
X0125658Y0017804D01*
X0145658Y0017804D02*
X0145658Y0022804D01*
X0200107Y0021229D02*
X0200107Y0016229D01*
X0202607Y0013729D01*
X0207607Y0013729D01*
X0210107Y0016229D01*
X0212607Y0013729D01*
X0217607Y0013729D01*
X0220107Y0016229D01*
X0220107Y0021229D01*
X0217607Y0023729D01*
X0212607Y0023729D01*
X0210107Y0021229D01*
X0210107Y0016229D01*
X0210107Y0021229D02*
X0207607Y0023729D01*
X0202607Y0023729D01*
X0200107Y0021229D01*
X0220107Y0021229D02*
X0222607Y0023729D01*
X0227607Y0023729D01*
X0230107Y0021229D01*
X0232607Y0023729D01*
X0237607Y0023729D01*
X0240107Y0021229D01*
X0240107Y0016229D01*
X0237607Y0013729D01*
X0232607Y0013729D01*
X0230107Y0016229D01*
X0227607Y0013729D01*
X0222607Y0013729D01*
X0220107Y0016229D01*
X0230107Y0016229D02*
X0230107Y0021229D01*
X0121643Y0073137D02*
X0121161Y0073137D01*
X0121643Y0073137D02*
X0121643Y0079518D01*
X0121161Y0079518D01*
X0117991Y0079518D02*
X0113877Y0079518D01*
X0110707Y0079518D02*
X0110225Y0079518D01*
X0110225Y0073137D01*
X0110707Y0073137D01*
X0113877Y0073137D02*
X0114250Y0073137D01*
X0117617Y0073137D02*
X0117991Y0073137D01*
X0118080Y0093257D02*
X0115580Y0095757D01*
X0113080Y0093257D01*
X0108080Y0093257D01*
X0105580Y0095757D01*
X0105580Y0100757D01*
X0108080Y0103257D01*
X0113080Y0103257D01*
X0115580Y0100757D01*
X0118080Y0103257D01*
X0123080Y0103257D01*
X0125580Y0100757D01*
X0125580Y0095757D01*
X0123080Y0093257D01*
X0118080Y0093257D01*
X0115580Y0095757D02*
X0115580Y0100757D01*
X0117224Y0127271D02*
X0117597Y0127271D01*
X0120767Y0127271D02*
X0121249Y0127271D01*
X0121249Y0133652D01*
X0120767Y0133652D01*
X0117597Y0133652D02*
X0113483Y0133652D01*
X0110313Y0133652D02*
X0109831Y0133652D01*
X0109831Y0127271D01*
X0110313Y0127271D01*
X0113483Y0127271D02*
X0113857Y0127271D01*
X0077879Y0186155D02*
X0077879Y0192561D01*
X0074676Y0189358D01*
X0078947Y0189358D01*
X0072501Y0191493D02*
X0072501Y0187223D01*
X0071434Y0186155D01*
X0069298Y0186155D01*
X0068231Y0187223D01*
X0072501Y0191493D01*
X0071434Y0192561D01*
X0069298Y0192561D01*
X0068231Y0191493D01*
X0068231Y0187223D01*
X0066056Y0192561D02*
X0061785Y0186155D01*
X0059610Y0187223D02*
X0059610Y0191493D01*
X0058543Y0192561D01*
X0056407Y0192561D01*
X0055340Y0191493D01*
X0055340Y0190425D01*
X0056407Y0189358D01*
X0059610Y0189358D01*
X0059610Y0187223D02*
X0058543Y0186155D01*
X0056407Y0186155D01*
X0055340Y0187223D01*
X0053165Y0187223D02*
X0052097Y0186155D01*
X0049962Y0186155D01*
X0048894Y0187223D01*
X0053165Y0191493D01*
X0053165Y0187223D01*
X0048894Y0187223D02*
X0048894Y0191493D01*
X0049962Y0192561D01*
X0052097Y0192561D01*
X0053165Y0191493D01*
X0052097Y0196655D02*
X0049962Y0196655D01*
X0048894Y0197723D01*
X0048894Y0203061D01*
X0046719Y0201993D02*
X0045652Y0203061D01*
X0043516Y0203061D01*
X0042449Y0201993D01*
X0042449Y0197723D01*
X0043516Y0196655D01*
X0045652Y0196655D01*
X0046719Y0197723D01*
X0046719Y0199858D01*
X0044584Y0199858D01*
X0040274Y0200925D02*
X0040274Y0195588D01*
X0039206Y0194520D01*
X0038139Y0194520D01*
X0037071Y0196655D02*
X0040274Y0196655D01*
X0037071Y0196655D02*
X0036003Y0197723D01*
X0036003Y0200925D01*
X0033828Y0199858D02*
X0033828Y0196655D01*
X0029558Y0196655D02*
X0029558Y0200925D01*
X0032761Y0200925D01*
X0033828Y0199858D01*
X0027383Y0199858D02*
X0027383Y0197723D01*
X0026315Y0196655D01*
X0024180Y0196655D01*
X0023112Y0197723D01*
X0023112Y0199858D01*
X0024180Y0200925D01*
X0026315Y0200925D01*
X0027383Y0199858D01*
X0020937Y0203061D02*
X0016667Y0203061D01*
X0018802Y0203061D02*
X0018802Y0196655D01*
X0017734Y0192561D02*
X0016667Y0191493D01*
X0017734Y0192561D02*
X0019870Y0192561D01*
X0020937Y0191493D01*
X0020937Y0190425D01*
X0016667Y0186155D01*
X0020937Y0186155D01*
X0023112Y0187223D02*
X0027383Y0191493D01*
X0027383Y0187223D01*
X0026315Y0186155D01*
X0024180Y0186155D01*
X0023112Y0187223D01*
X0023112Y0191493D01*
X0024180Y0192561D01*
X0026315Y0192561D01*
X0027383Y0191493D01*
X0029558Y0190425D02*
X0031693Y0192561D01*
X0031693Y0186155D01*
X0029558Y0186155D02*
X0033828Y0186155D01*
X0036003Y0186155D02*
X0036003Y0187223D01*
X0040274Y0191493D01*
X0040274Y0192561D01*
X0036003Y0192561D01*
X0042449Y0186155D02*
X0046719Y0192561D01*
X0052097Y0196655D02*
X0053165Y0197723D01*
X0053165Y0203061D01*
X0055340Y0201993D02*
X0055340Y0197723D01*
X0056407Y0196655D01*
X0058543Y0196655D01*
X0059610Y0197723D01*
X0059610Y0201993D01*
X0058543Y0203061D01*
X0056407Y0203061D01*
X0055340Y0201993D01*
X0055327Y0207155D02*
X0057462Y0209290D01*
X0057462Y0213561D01*
X0059637Y0211425D02*
X0061772Y0213561D01*
X0061772Y0207155D01*
X0059637Y0207155D02*
X0063907Y0207155D01*
X0055327Y0207155D02*
X0053191Y0209290D01*
X0053191Y0213561D01*
X0044571Y0212493D02*
X0044571Y0210358D01*
X0043503Y0209290D01*
X0040300Y0209290D01*
X0040300Y0207155D02*
X0040300Y0213561D01*
X0043503Y0213561D01*
X0044571Y0212493D01*
X0038125Y0212493D02*
X0038125Y0211425D01*
X0037058Y0210358D01*
X0033855Y0210358D01*
X0031680Y0212493D02*
X0030612Y0213561D01*
X0028477Y0213561D01*
X0027409Y0212493D01*
X0027409Y0208223D01*
X0028477Y0207155D01*
X0030612Y0207155D01*
X0031680Y0208223D01*
X0033855Y0207155D02*
X0037058Y0207155D01*
X0038125Y0208223D01*
X0038125Y0209290D01*
X0037058Y0210358D01*
X0038125Y0212493D02*
X0037058Y0213561D01*
X0033855Y0213561D01*
X0033855Y0207155D01*
X0025248Y0207155D02*
X0023112Y0207155D01*
X0024180Y0207155D02*
X0024180Y0213561D01*
X0023112Y0213561D02*
X0025248Y0213561D01*
X0020937Y0213561D02*
X0020937Y0207155D01*
X0016667Y0213561D01*
X0016667Y0207155D01*
D12*
X0181564Y0109910D02*
X0181564Y0058729D01*
X0182548Y0057745D01*
X0235698Y0057745D01*
X0236682Y0058729D01*
X0236682Y0111879D01*
X0235698Y0112863D01*
X0184517Y0112863D01*
X0181564Y0109910D01*
X0184517Y0108926D02*
X0184519Y0108988D01*
X0184525Y0109051D01*
X0184535Y0109112D01*
X0184549Y0109173D01*
X0184566Y0109233D01*
X0184587Y0109292D01*
X0184613Y0109349D01*
X0184641Y0109404D01*
X0184673Y0109458D01*
X0184709Y0109509D01*
X0184747Y0109559D01*
X0184789Y0109605D01*
X0184833Y0109649D01*
X0184881Y0109690D01*
X0184930Y0109728D01*
X0184982Y0109762D01*
X0185036Y0109793D01*
X0185092Y0109821D01*
X0185150Y0109845D01*
X0185209Y0109866D01*
X0185269Y0109882D01*
X0185330Y0109895D01*
X0185392Y0109904D01*
X0185454Y0109909D01*
X0185517Y0109910D01*
X0185579Y0109907D01*
X0185641Y0109900D01*
X0185703Y0109889D01*
X0185763Y0109874D01*
X0185823Y0109856D01*
X0185881Y0109834D01*
X0185938Y0109808D01*
X0185993Y0109778D01*
X0186046Y0109745D01*
X0186097Y0109709D01*
X0186145Y0109670D01*
X0186191Y0109627D01*
X0186234Y0109582D01*
X0186274Y0109534D01*
X0186311Y0109484D01*
X0186345Y0109431D01*
X0186376Y0109377D01*
X0186402Y0109321D01*
X0186426Y0109263D01*
X0186445Y0109203D01*
X0186461Y0109143D01*
X0186473Y0109081D01*
X0186481Y0109020D01*
X0186485Y0108957D01*
X0186485Y0108895D01*
X0186481Y0108832D01*
X0186473Y0108771D01*
X0186461Y0108709D01*
X0186445Y0108649D01*
X0186426Y0108589D01*
X0186402Y0108531D01*
X0186376Y0108475D01*
X0186345Y0108421D01*
X0186311Y0108368D01*
X0186274Y0108318D01*
X0186234Y0108270D01*
X0186191Y0108225D01*
X0186145Y0108182D01*
X0186097Y0108143D01*
X0186046Y0108107D01*
X0185993Y0108074D01*
X0185938Y0108044D01*
X0185881Y0108018D01*
X0185823Y0107996D01*
X0185763Y0107978D01*
X0185703Y0107963D01*
X0185641Y0107952D01*
X0185579Y0107945D01*
X0185517Y0107942D01*
X0185454Y0107943D01*
X0185392Y0107948D01*
X0185330Y0107957D01*
X0185269Y0107970D01*
X0185209Y0107986D01*
X0185150Y0108007D01*
X0185092Y0108031D01*
X0185036Y0108059D01*
X0184982Y0108090D01*
X0184930Y0108124D01*
X0184881Y0108162D01*
X0184833Y0108203D01*
X0184789Y0108247D01*
X0184747Y0108293D01*
X0184709Y0108343D01*
X0184673Y0108394D01*
X0184641Y0108448D01*
X0184613Y0108503D01*
X0184587Y0108560D01*
X0184566Y0108619D01*
X0184549Y0108679D01*
X0184535Y0108740D01*
X0184525Y0108801D01*
X0184519Y0108864D01*
X0184517Y0108926D01*
D13*
X0192784Y0121135D02*
X0192784Y0127273D01*
X0192017Y0126506D02*
X0193552Y0126506D01*
X0194319Y0125739D01*
X0195854Y0124971D02*
X0197388Y0126506D01*
X0197388Y0121902D01*
X0195854Y0121902D02*
X0198923Y0121902D01*
X0194319Y0122669D02*
X0194319Y0123437D01*
X0193552Y0124204D01*
X0192017Y0124204D01*
X0191250Y0124971D01*
X0191250Y0125739D01*
X0192017Y0126506D01*
X0189715Y0126506D02*
X0189715Y0122669D01*
X0188948Y0121902D01*
X0187413Y0121902D01*
X0186646Y0122669D01*
X0186646Y0126506D01*
X0191250Y0122669D02*
X0192017Y0121902D01*
X0193552Y0121902D01*
X0194319Y0122669D01*
X0153703Y0127749D02*
X0153703Y0129818D01*
X0153186Y0130335D01*
X0152152Y0130335D01*
X0151634Y0129818D01*
X0151634Y0129301D01*
X0152152Y0128784D01*
X0153703Y0128784D01*
X0153703Y0127749D02*
X0153186Y0127232D01*
X0152152Y0127232D01*
X0151634Y0127749D01*
X0150480Y0127232D02*
X0148412Y0127232D01*
X0149446Y0127232D02*
X0149446Y0130335D01*
X0148412Y0129301D01*
X0147257Y0129818D02*
X0146740Y0130335D01*
X0145706Y0130335D01*
X0145189Y0129818D01*
X0145189Y0127749D01*
X0145706Y0127232D01*
X0146740Y0127232D01*
X0147257Y0127749D01*
X0116671Y0146904D02*
X0116671Y0147938D01*
X0116154Y0148455D01*
X0116671Y0149610D02*
X0114602Y0151678D01*
X0114085Y0151678D01*
X0113568Y0151161D01*
X0113568Y0150127D01*
X0114085Y0149610D01*
X0114085Y0148455D02*
X0113568Y0147938D01*
X0113568Y0146904D01*
X0114085Y0146387D01*
X0116154Y0146387D01*
X0116671Y0146904D01*
X0116671Y0149610D02*
X0116671Y0151678D01*
X0116154Y0152832D02*
X0114085Y0154901D01*
X0116154Y0154901D01*
X0116671Y0154384D01*
X0116671Y0153349D01*
X0116154Y0152832D01*
X0114085Y0152832D01*
X0113568Y0153349D01*
X0113568Y0154384D01*
X0114085Y0154901D01*
X0107840Y0130953D02*
X0107840Y0128884D01*
X0107840Y0129918D02*
X0104738Y0129918D01*
X0105772Y0128884D01*
X0104738Y0127730D02*
X0107323Y0127730D01*
X0107840Y0127213D01*
X0107840Y0126179D01*
X0107323Y0125661D01*
X0104738Y0125661D01*
X0145543Y0098007D02*
X0145543Y0095938D01*
X0146060Y0095421D01*
X0147095Y0095421D01*
X0147612Y0095938D01*
X0148766Y0095421D02*
X0150834Y0095421D01*
X0149800Y0095421D02*
X0149800Y0098524D01*
X0148766Y0097490D01*
X0147612Y0098007D02*
X0147095Y0098524D01*
X0146060Y0098524D01*
X0145543Y0098007D01*
X0151989Y0098007D02*
X0151989Y0097490D01*
X0152506Y0096973D01*
X0153540Y0096973D01*
X0154057Y0096455D01*
X0154057Y0095938D01*
X0153540Y0095421D01*
X0152506Y0095421D01*
X0151989Y0095938D01*
X0151989Y0096455D01*
X0152506Y0096973D01*
X0153540Y0096973D02*
X0154057Y0097490D01*
X0154057Y0098007D01*
X0153540Y0098524D01*
X0152506Y0098524D01*
X0151989Y0098007D01*
X0151083Y0087107D02*
X0153152Y0087107D01*
X0153152Y0086589D01*
X0151083Y0084521D01*
X0151083Y0084004D01*
X0149929Y0084004D02*
X0147861Y0084004D01*
X0148895Y0084004D02*
X0148895Y0087107D01*
X0147861Y0086072D01*
X0146706Y0086589D02*
X0146189Y0087107D01*
X0145155Y0087107D01*
X0144638Y0086589D01*
X0144638Y0084521D01*
X0145155Y0084004D01*
X0146189Y0084004D01*
X0146706Y0084521D01*
X0108234Y0076302D02*
X0108234Y0075267D01*
X0107717Y0074750D01*
X0107717Y0073596D02*
X0105131Y0073596D01*
X0105648Y0074750D02*
X0105131Y0075267D01*
X0105131Y0076302D01*
X0105648Y0076819D01*
X0106165Y0076819D01*
X0106683Y0076302D01*
X0107200Y0076819D01*
X0107717Y0076819D01*
X0108234Y0076302D01*
X0106683Y0076302D02*
X0106683Y0075785D01*
X0107717Y0073596D02*
X0108234Y0073079D01*
X0108234Y0072045D01*
X0107717Y0071528D01*
X0105131Y0071528D01*
X0145796Y0038294D02*
X0145796Y0036226D01*
X0146313Y0035709D01*
X0147348Y0035709D01*
X0147865Y0036226D01*
X0149019Y0035709D02*
X0151087Y0035709D01*
X0150053Y0035709D02*
X0150053Y0038811D01*
X0149019Y0037777D01*
X0147865Y0038294D02*
X0147348Y0038811D01*
X0146313Y0038811D01*
X0145796Y0038294D01*
X0152242Y0037260D02*
X0152242Y0036226D01*
X0152759Y0035709D01*
X0153793Y0035709D01*
X0154310Y0036226D01*
X0154310Y0036743D01*
X0153793Y0037260D01*
X0152242Y0037260D01*
X0153276Y0038294D01*
X0154310Y0038811D01*
X0221370Y0041293D02*
X0221887Y0040776D01*
X0222921Y0040776D01*
X0223439Y0041293D01*
X0224593Y0040776D02*
X0226661Y0040776D01*
X0225627Y0040776D02*
X0225627Y0043878D01*
X0224593Y0042844D01*
X0223439Y0043361D02*
X0222921Y0043878D01*
X0221887Y0043878D01*
X0221370Y0043361D01*
X0221370Y0041293D01*
X0227816Y0041293D02*
X0228333Y0040776D01*
X0229367Y0040776D01*
X0229884Y0041293D01*
X0229884Y0042327D01*
X0229367Y0042844D01*
X0228850Y0042844D01*
X0227816Y0042327D01*
X0227816Y0043878D01*
X0229884Y0043878D01*
X0258731Y0098788D02*
X0258214Y0099306D01*
X0258214Y0100340D01*
X0258731Y0100857D01*
X0259248Y0102011D02*
X0258214Y0103045D01*
X0261317Y0103045D01*
X0261317Y0102011D02*
X0261317Y0104080D01*
X0259765Y0105234D02*
X0259765Y0107302D01*
X0258214Y0106785D02*
X0261317Y0106785D01*
X0259765Y0105234D02*
X0258214Y0106785D01*
X0260799Y0100857D02*
X0261317Y0100340D01*
X0261317Y0099306D01*
X0260799Y0098788D01*
X0258731Y0098788D01*
X0237323Y0173437D02*
X0237840Y0173954D01*
X0237840Y0174988D01*
X0237323Y0175505D01*
X0234738Y0175505D01*
X0234738Y0176660D02*
X0236289Y0176660D01*
X0235772Y0177694D01*
X0235772Y0178211D01*
X0236289Y0178728D01*
X0237323Y0178728D01*
X0237840Y0178211D01*
X0237840Y0177177D01*
X0237323Y0176660D01*
X0234738Y0176660D02*
X0234738Y0178728D01*
X0234738Y0173437D02*
X0237323Y0173437D01*
X0180736Y0178059D02*
X0178668Y0178059D01*
X0180219Y0179611D01*
X0180219Y0176508D01*
X0177513Y0177025D02*
X0177513Y0179611D01*
X0175445Y0179611D02*
X0175445Y0177025D01*
X0175962Y0176508D01*
X0176996Y0176508D01*
X0177513Y0177025D01*
D14*
X0175583Y0173650D02*
X0191406Y0173650D01*
X0191406Y0153965D01*
X0174083Y0153965D01*
X0174083Y0172150D01*
X0175583Y0173650D01*
X0138894Y0168603D02*
X0138894Y0180603D01*
X0126894Y0180603D01*
X0126894Y0168603D01*
X0138894Y0168603D01*
X0112371Y0156355D02*
X0107371Y0156355D01*
X0107371Y0145355D01*
X0112371Y0145355D01*
X0112371Y0156355D01*
X0108532Y0167824D02*
X0108532Y0180028D01*
X0105383Y0180028D01*
X0099477Y0180028D02*
X0096328Y0180028D01*
X0096328Y0167824D01*
X0096524Y0167824D01*
X0101249Y0167824D02*
X0103611Y0167824D01*
X0108335Y0167824D02*
X0108532Y0167824D01*
X0091485Y0155973D02*
X0091485Y0107154D01*
X0043060Y0107154D01*
X0043060Y0155973D01*
X0091485Y0155973D01*
X0053099Y0168611D02*
X0053099Y0180816D01*
X0049950Y0180816D01*
X0044044Y0180816D02*
X0040894Y0180816D01*
X0040894Y0168611D01*
X0041091Y0168611D01*
X0045816Y0168611D02*
X0048178Y0168611D01*
X0052902Y0168611D02*
X0053099Y0168611D01*
X0107031Y0110211D02*
X0108532Y0110211D01*
X0107781Y0110211D02*
X0107781Y0106457D01*
X0107031Y0105707D01*
X0106280Y0105707D01*
X0105530Y0106457D01*
X0110133Y0105707D02*
X0110133Y0110211D01*
X0112385Y0110211D01*
X0113136Y0109460D01*
X0113136Y0107959D01*
X0112385Y0107208D01*
X0110133Y0107208D01*
X0114737Y0107959D02*
X0116989Y0110211D01*
X0116989Y0105707D01*
X0117740Y0107959D02*
X0114737Y0107959D01*
X0144489Y0121032D02*
X0144489Y0126032D01*
X0155489Y0126032D01*
X0155489Y0121032D01*
X0144489Y0121032D01*
X0146761Y0114005D02*
X0153847Y0114005D01*
X0153847Y0100619D01*
X0146761Y0100619D01*
X0146761Y0114005D01*
X0144843Y0094221D02*
X0144843Y0089221D01*
X0155843Y0089221D01*
X0155843Y0094221D01*
X0144843Y0094221D01*
X0143938Y0082804D02*
X0143938Y0077804D01*
X0154938Y0077804D01*
X0154938Y0082804D01*
X0143938Y0082804D01*
X0143808Y0071997D02*
X0143808Y0053493D01*
X0155619Y0053493D01*
X0155619Y0071997D01*
X0143808Y0071997D01*
X0119708Y0054145D02*
X0119708Y0053394D01*
X0118958Y0052644D01*
X0119708Y0051893D01*
X0119708Y0051142D01*
X0118958Y0050392D01*
X0117457Y0050392D01*
X0116706Y0051142D01*
X0118207Y0052644D02*
X0118958Y0052644D01*
X0119708Y0054145D02*
X0118958Y0054896D01*
X0117457Y0054896D01*
X0116706Y0054145D01*
X0115105Y0054145D02*
X0115105Y0052644D01*
X0114354Y0051893D01*
X0112102Y0051893D01*
X0112102Y0050392D02*
X0112102Y0054896D01*
X0114354Y0054896D01*
X0115105Y0054145D01*
X0110501Y0054896D02*
X0108999Y0054896D01*
X0109750Y0054896D02*
X0109750Y0051142D01*
X0108999Y0050392D01*
X0108249Y0050392D01*
X0107498Y0051142D01*
X0091879Y0071997D02*
X0091879Y0023178D01*
X0043454Y0023178D01*
X0043454Y0071997D01*
X0091879Y0071997D01*
X0077666Y0085107D02*
X0055619Y0085107D01*
X0055619Y0095343D01*
X0077666Y0095343D01*
X0077666Y0085107D01*
X0057115Y0089044D02*
X0057117Y0089062D01*
X0057123Y0089078D01*
X0057132Y0089093D01*
X0057145Y0089106D01*
X0057160Y0089115D01*
X0057176Y0089121D01*
X0057194Y0089123D01*
X0057212Y0089121D01*
X0057228Y0089115D01*
X0057243Y0089106D01*
X0057256Y0089093D01*
X0057265Y0089078D01*
X0057271Y0089062D01*
X0057273Y0089044D01*
X0057271Y0089026D01*
X0057265Y0089010D01*
X0057256Y0088995D01*
X0057243Y0088982D01*
X0057228Y0088973D01*
X0057212Y0088967D01*
X0057194Y0088965D01*
X0057176Y0088967D01*
X0057160Y0088973D01*
X0057145Y0088982D01*
X0057132Y0088995D01*
X0057123Y0089010D01*
X0057117Y0089026D01*
X0057115Y0089044D01*
X0144765Y0045009D02*
X0144765Y0040009D01*
X0155765Y0040009D01*
X0155765Y0045009D01*
X0144765Y0045009D01*
X0144648Y0012858D02*
X0144648Y0009105D01*
X0143898Y0008354D01*
X0143147Y0008354D01*
X0142396Y0009105D01*
X0147000Y0009855D02*
X0149252Y0009855D01*
X0150003Y0010606D01*
X0150003Y0012107D01*
X0149252Y0012858D01*
X0147000Y0012858D01*
X0147000Y0008354D01*
X0151604Y0008354D02*
X0154607Y0008354D01*
X0153106Y0008354D02*
X0153106Y0012858D01*
X0151604Y0011356D01*
X0145399Y0012858D02*
X0143898Y0012858D01*
X0200057Y0026930D02*
X0200808Y0026179D01*
X0201558Y0026179D01*
X0202309Y0026930D01*
X0202309Y0030683D01*
X0201558Y0030683D02*
X0203060Y0030683D01*
X0204661Y0030683D02*
X0206913Y0030683D01*
X0207664Y0029932D01*
X0207664Y0028431D01*
X0206913Y0027680D01*
X0204661Y0027680D01*
X0204661Y0026179D02*
X0204661Y0030683D01*
X0209265Y0029932D02*
X0210016Y0030683D01*
X0211517Y0030683D01*
X0212267Y0029932D01*
X0212267Y0029182D01*
X0209265Y0026179D01*
X0212267Y0026179D01*
X0220670Y0034576D02*
X0220670Y0039576D01*
X0231670Y0039576D01*
X0231670Y0034576D01*
X0220670Y0034576D01*
X0274517Y0023060D02*
X0274517Y0071879D01*
X0322942Y0071879D01*
X0322942Y0023060D01*
X0274517Y0023060D01*
X0289044Y0084713D02*
X0311091Y0084713D01*
X0311091Y0094950D01*
X0289044Y0094950D01*
X0289044Y0084713D01*
X0290540Y0088650D02*
X0290542Y0088668D01*
X0290548Y0088684D01*
X0290557Y0088699D01*
X0290570Y0088712D01*
X0290585Y0088721D01*
X0290601Y0088727D01*
X0290619Y0088729D01*
X0290637Y0088727D01*
X0290653Y0088721D01*
X0290668Y0088712D01*
X0290681Y0088699D01*
X0290690Y0088684D01*
X0290696Y0088668D01*
X0290698Y0088650D01*
X0290696Y0088632D01*
X0290690Y0088616D01*
X0290681Y0088601D01*
X0290668Y0088588D01*
X0290653Y0088579D01*
X0290637Y0088573D01*
X0290619Y0088571D01*
X0290601Y0088573D01*
X0290585Y0088579D01*
X0290570Y0088588D01*
X0290557Y0088601D01*
X0290548Y0088616D01*
X0290542Y0088632D01*
X0290540Y0088650D01*
X0274517Y0107154D02*
X0274517Y0155973D01*
X0322942Y0155973D01*
X0322942Y0107154D01*
X0274517Y0107154D01*
X0257017Y0108757D02*
X0257017Y0097757D01*
X0252017Y0097757D01*
X0252017Y0108757D01*
X0257017Y0108757D01*
X0310146Y0164674D02*
X0310343Y0164674D01*
X0310146Y0164674D02*
X0310146Y0176879D01*
X0313296Y0176879D01*
X0319202Y0176879D02*
X0322351Y0176879D01*
X0322351Y0164674D01*
X0322154Y0164674D01*
X0317430Y0164674D02*
X0315068Y0164674D01*
X0260383Y0172076D02*
X0242198Y0172076D01*
X0240698Y0173576D01*
X0240698Y0189398D01*
X0260383Y0189398D01*
X0260383Y0172076D01*
D15*
X0024477Y0128217D02*
X0024477Y0124280D01*
X0024406Y0128189D02*
X0020540Y0128189D01*
X0020540Y0128217D01*
X0008729Y0128217D02*
X0004792Y0128217D01*
X0024477Y0100658D02*
X0024477Y0096721D01*
X0020540Y0096721D01*
X0008729Y0096721D02*
X0004792Y0096721D01*
D16*
X0019655Y0104989D02*
X0019657Y0105070D01*
X0019663Y0105152D01*
X0019673Y0105233D01*
X0019687Y0105313D01*
X0019704Y0105392D01*
X0019726Y0105471D01*
X0019751Y0105548D01*
X0019780Y0105625D01*
X0019813Y0105699D01*
X0019850Y0105772D01*
X0019889Y0105843D01*
X0019933Y0105912D01*
X0019979Y0105979D01*
X0020029Y0106043D01*
X0020082Y0106105D01*
X0020138Y0106165D01*
X0020196Y0106221D01*
X0020258Y0106275D01*
X0020322Y0106326D01*
X0020388Y0106373D01*
X0020456Y0106417D01*
X0020527Y0106458D01*
X0020599Y0106495D01*
X0020674Y0106529D01*
X0020749Y0106559D01*
X0020827Y0106585D01*
X0020905Y0106608D01*
X0020984Y0106626D01*
X0021064Y0106641D01*
X0021145Y0106652D01*
X0021226Y0106659D01*
X0021308Y0106662D01*
X0021389Y0106661D01*
X0021470Y0106656D01*
X0021551Y0106647D01*
X0021632Y0106634D01*
X0021712Y0106617D01*
X0021790Y0106597D01*
X0021868Y0106572D01*
X0021945Y0106544D01*
X0022020Y0106512D01*
X0022093Y0106477D01*
X0022164Y0106438D01*
X0022234Y0106395D01*
X0022301Y0106350D01*
X0022367Y0106301D01*
X0022429Y0106249D01*
X0022489Y0106193D01*
X0022546Y0106135D01*
X0022601Y0106075D01*
X0022652Y0106011D01*
X0022700Y0105946D01*
X0022745Y0105878D01*
X0022787Y0105808D01*
X0022825Y0105736D01*
X0022860Y0105662D01*
X0022891Y0105587D01*
X0022918Y0105510D01*
X0022941Y0105432D01*
X0022961Y0105353D01*
X0022977Y0105273D01*
X0022989Y0105192D01*
X0022997Y0105111D01*
X0023001Y0105030D01*
X0023001Y0104948D01*
X0022997Y0104867D01*
X0022989Y0104786D01*
X0022977Y0104705D01*
X0022961Y0104625D01*
X0022941Y0104546D01*
X0022918Y0104468D01*
X0022891Y0104391D01*
X0022860Y0104316D01*
X0022825Y0104242D01*
X0022787Y0104170D01*
X0022745Y0104100D01*
X0022700Y0104032D01*
X0022652Y0103967D01*
X0022601Y0103903D01*
X0022546Y0103843D01*
X0022489Y0103785D01*
X0022429Y0103729D01*
X0022367Y0103677D01*
X0022301Y0103628D01*
X0022234Y0103583D01*
X0022165Y0103540D01*
X0022093Y0103501D01*
X0022020Y0103466D01*
X0021945Y0103434D01*
X0021868Y0103406D01*
X0021790Y0103381D01*
X0021712Y0103361D01*
X0021632Y0103344D01*
X0021551Y0103331D01*
X0021470Y0103322D01*
X0021389Y0103317D01*
X0021308Y0103316D01*
X0021226Y0103319D01*
X0021145Y0103326D01*
X0021064Y0103337D01*
X0020984Y0103352D01*
X0020905Y0103370D01*
X0020827Y0103393D01*
X0020749Y0103419D01*
X0020674Y0103449D01*
X0020599Y0103483D01*
X0020527Y0103520D01*
X0020456Y0103561D01*
X0020388Y0103605D01*
X0020322Y0103652D01*
X0020258Y0103703D01*
X0020196Y0103757D01*
X0020138Y0103813D01*
X0020082Y0103873D01*
X0020029Y0103935D01*
X0019979Y0103999D01*
X0019933Y0104066D01*
X0019889Y0104135D01*
X0019850Y0104206D01*
X0019813Y0104279D01*
X0019780Y0104353D01*
X0019751Y0104430D01*
X0019726Y0104507D01*
X0019704Y0104586D01*
X0019687Y0104665D01*
X0019673Y0104745D01*
X0019663Y0104826D01*
X0019657Y0104908D01*
X0019655Y0104989D01*
X0020146Y0118769D02*
X0022506Y0118769D01*
X0019655Y0119950D02*
X0019657Y0120031D01*
X0019663Y0120113D01*
X0019673Y0120194D01*
X0019687Y0120274D01*
X0019704Y0120353D01*
X0019726Y0120432D01*
X0019751Y0120509D01*
X0019780Y0120586D01*
X0019813Y0120660D01*
X0019850Y0120733D01*
X0019889Y0120804D01*
X0019933Y0120873D01*
X0019979Y0120940D01*
X0020029Y0121004D01*
X0020082Y0121066D01*
X0020138Y0121126D01*
X0020196Y0121182D01*
X0020258Y0121236D01*
X0020322Y0121287D01*
X0020388Y0121334D01*
X0020456Y0121378D01*
X0020527Y0121419D01*
X0020599Y0121456D01*
X0020674Y0121490D01*
X0020749Y0121520D01*
X0020827Y0121546D01*
X0020905Y0121569D01*
X0020984Y0121587D01*
X0021064Y0121602D01*
X0021145Y0121613D01*
X0021226Y0121620D01*
X0021308Y0121623D01*
X0021389Y0121622D01*
X0021470Y0121617D01*
X0021551Y0121608D01*
X0021632Y0121595D01*
X0021712Y0121578D01*
X0021790Y0121558D01*
X0021868Y0121533D01*
X0021945Y0121505D01*
X0022020Y0121473D01*
X0022093Y0121438D01*
X0022164Y0121399D01*
X0022234Y0121356D01*
X0022301Y0121311D01*
X0022367Y0121262D01*
X0022429Y0121210D01*
X0022489Y0121154D01*
X0022546Y0121096D01*
X0022601Y0121036D01*
X0022652Y0120972D01*
X0022700Y0120907D01*
X0022745Y0120839D01*
X0022787Y0120769D01*
X0022825Y0120697D01*
X0022860Y0120623D01*
X0022891Y0120548D01*
X0022918Y0120471D01*
X0022941Y0120393D01*
X0022961Y0120314D01*
X0022977Y0120234D01*
X0022989Y0120153D01*
X0022997Y0120072D01*
X0023001Y0119991D01*
X0023001Y0119909D01*
X0022997Y0119828D01*
X0022989Y0119747D01*
X0022977Y0119666D01*
X0022961Y0119586D01*
X0022941Y0119507D01*
X0022918Y0119429D01*
X0022891Y0119352D01*
X0022860Y0119277D01*
X0022825Y0119203D01*
X0022787Y0119131D01*
X0022745Y0119061D01*
X0022700Y0118993D01*
X0022652Y0118928D01*
X0022601Y0118864D01*
X0022546Y0118804D01*
X0022489Y0118746D01*
X0022429Y0118690D01*
X0022367Y0118638D01*
X0022301Y0118589D01*
X0022234Y0118544D01*
X0022165Y0118501D01*
X0022093Y0118462D01*
X0022020Y0118427D01*
X0021945Y0118395D01*
X0021868Y0118367D01*
X0021790Y0118342D01*
X0021712Y0118322D01*
X0021632Y0118305D01*
X0021551Y0118292D01*
X0021470Y0118283D01*
X0021389Y0118278D01*
X0021308Y0118277D01*
X0021226Y0118280D01*
X0021145Y0118287D01*
X0021064Y0118298D01*
X0020984Y0118313D01*
X0020905Y0118331D01*
X0020827Y0118354D01*
X0020749Y0118380D01*
X0020674Y0118410D01*
X0020599Y0118444D01*
X0020527Y0118481D01*
X0020456Y0118522D01*
X0020388Y0118566D01*
X0020322Y0118613D01*
X0020258Y0118664D01*
X0020196Y0118718D01*
X0020138Y0118774D01*
X0020082Y0118834D01*
X0020029Y0118896D01*
X0019979Y0118960D01*
X0019933Y0119027D01*
X0019889Y0119096D01*
X0019850Y0119167D01*
X0019813Y0119240D01*
X0019780Y0119314D01*
X0019751Y0119391D01*
X0019726Y0119468D01*
X0019704Y0119547D01*
X0019687Y0119626D01*
X0019673Y0119706D01*
X0019663Y0119787D01*
X0019657Y0119869D01*
X0019655Y0119950D01*
D17*
X0010190Y0136019D02*
X0009189Y0136019D01*
X0010190Y0137020D01*
X0010190Y0137270D01*
X0009940Y0137521D01*
X0009440Y0137521D01*
X0009189Y0137270D01*
X0008717Y0137521D02*
X0008717Y0136270D01*
X0008467Y0136019D01*
X0007966Y0136019D01*
X0007716Y0136270D01*
X0007716Y0137521D01*
X0111736Y0118556D02*
X0112486Y0118556D01*
X0112737Y0118306D01*
X0112737Y0117805D01*
X0112486Y0117555D01*
X0111736Y0117555D01*
X0112236Y0117555D02*
X0112737Y0117055D01*
X0113209Y0117055D02*
X0114210Y0117055D01*
X0113709Y0117055D02*
X0113709Y0118556D01*
X0113209Y0118056D01*
X0114682Y0117805D02*
X0115183Y0118056D01*
X0115433Y0118056D01*
X0115683Y0117805D01*
X0115683Y0117305D01*
X0115433Y0117055D01*
X0114933Y0117055D01*
X0114682Y0117305D01*
X0114682Y0117805D02*
X0114682Y0118556D01*
X0115683Y0118556D01*
X0111736Y0118556D02*
X0111736Y0117055D01*
X0134624Y0156921D02*
X0134374Y0157171D01*
X0134624Y0156921D02*
X0135124Y0156921D01*
X0135374Y0157171D01*
X0135374Y0157421D01*
X0135124Y0157672D01*
X0134624Y0157672D01*
X0134374Y0157922D01*
X0134374Y0158172D01*
X0134624Y0158422D01*
X0135124Y0158422D01*
X0135374Y0158172D01*
X0135847Y0157922D02*
X0136347Y0158422D01*
X0136347Y0156921D01*
X0135847Y0156921D02*
X0136848Y0156921D01*
X0177878Y0138280D02*
X0177878Y0136779D01*
X0177878Y0137280D02*
X0178628Y0137280D01*
X0178878Y0137530D01*
X0178878Y0138030D01*
X0178628Y0138280D01*
X0177878Y0138280D01*
X0178378Y0137280D02*
X0178878Y0136779D01*
X0179351Y0136779D02*
X0179351Y0137029D01*
X0180352Y0138030D01*
X0180352Y0138280D01*
X0179351Y0138280D01*
X0198783Y0137791D02*
X0199534Y0137791D01*
X0199784Y0138042D01*
X0199784Y0138542D01*
X0199534Y0138792D01*
X0198783Y0138792D01*
X0198783Y0137291D01*
X0199283Y0137791D02*
X0199784Y0137291D01*
X0200256Y0137541D02*
X0200507Y0137291D01*
X0201007Y0137291D01*
X0201257Y0137541D01*
X0201257Y0138042D01*
X0201007Y0138292D01*
X0200757Y0138292D01*
X0200256Y0138042D01*
X0200256Y0138792D01*
X0201257Y0138792D01*
X0220791Y0138989D02*
X0221542Y0138989D01*
X0221792Y0138739D01*
X0221792Y0138238D01*
X0221542Y0137988D01*
X0220791Y0137988D01*
X0220791Y0137488D02*
X0220791Y0138989D01*
X0221291Y0137988D02*
X0221792Y0137488D01*
X0222264Y0137738D02*
X0222514Y0137488D01*
X0223015Y0137488D01*
X0223265Y0137738D01*
X0223265Y0137988D01*
X0223015Y0138238D01*
X0222264Y0138238D01*
X0222264Y0137738D01*
X0222264Y0138238D02*
X0222765Y0138739D01*
X0223265Y0138989D01*
X0116024Y0063438D02*
X0115273Y0062687D01*
X0116274Y0062687D01*
X0116024Y0061937D02*
X0116024Y0063438D01*
X0114300Y0063438D02*
X0114300Y0061937D01*
X0113800Y0061937D02*
X0114800Y0061937D01*
X0113800Y0062937D02*
X0114300Y0063438D01*
X0113327Y0063188D02*
X0113327Y0062687D01*
X0113077Y0062437D01*
X0112326Y0062437D01*
X0112326Y0061937D02*
X0112326Y0063438D01*
X0113077Y0063438D01*
X0113327Y0063188D01*
X0112827Y0062437D02*
X0113327Y0061937D01*
X0181185Y0023517D02*
X0181185Y0022015D01*
X0181185Y0022516D02*
X0181935Y0022516D01*
X0182185Y0022766D01*
X0182185Y0023266D01*
X0181935Y0023517D01*
X0181185Y0023517D01*
X0181685Y0022516D02*
X0182185Y0022015D01*
X0182658Y0022766D02*
X0183659Y0022766D01*
X0183409Y0022015D02*
X0183409Y0023517D01*
X0182658Y0022766D01*
X0172988Y0015523D02*
X0172738Y0015773D01*
X0172237Y0015773D01*
X0171987Y0015523D01*
X0171515Y0015523D02*
X0171264Y0015773D01*
X0170514Y0015773D01*
X0170514Y0014272D01*
X0171264Y0014272D01*
X0171515Y0014522D01*
X0171515Y0015523D01*
X0171987Y0014272D02*
X0172988Y0015273D01*
X0172988Y0015523D01*
X0172988Y0014272D02*
X0171987Y0014272D01*
D18*
X0133794Y0169703D02*
X0133794Y0170437D01*
X0133794Y0170070D02*
X0131593Y0170070D01*
X0131593Y0169703D02*
X0131593Y0170437D01*
X0131593Y0171176D02*
X0133794Y0172644D01*
X0131593Y0172644D01*
X0132327Y0173386D02*
X0131593Y0174120D01*
X0132327Y0174854D01*
X0133794Y0174854D01*
X0133428Y0175596D02*
X0133061Y0175596D01*
X0132694Y0175963D01*
X0132694Y0176697D01*
X0133061Y0177064D01*
X0133428Y0177064D01*
X0133794Y0176697D01*
X0133794Y0175963D01*
X0133428Y0175596D01*
X0132694Y0175963D02*
X0132327Y0175596D01*
X0131960Y0175596D01*
X0131593Y0175963D01*
X0131593Y0176697D01*
X0131960Y0177064D01*
X0132327Y0177064D01*
X0132694Y0176697D01*
X0131960Y0177806D02*
X0131593Y0178173D01*
X0131593Y0178907D01*
X0131960Y0179274D01*
X0132327Y0179274D01*
X0133794Y0177806D01*
X0133794Y0179274D01*
X0133794Y0180016D02*
X0133428Y0180016D01*
X0131960Y0181484D01*
X0131593Y0181484D01*
X0131593Y0180016D01*
X0132694Y0174854D02*
X0132694Y0173386D01*
X0132327Y0173386D02*
X0133794Y0173386D01*
X0133794Y0171176D02*
X0131593Y0171176D01*
D19*
X0172745Y0173808D03*
X0240540Y0170737D03*
D20*
X0324273Y0167149D02*
X0324273Y0163446D01*
X0324273Y0164680D02*
X0326124Y0164680D01*
X0326742Y0165298D01*
X0326742Y0166532D01*
X0326124Y0167149D01*
X0324273Y0167149D01*
X0327956Y0166532D02*
X0328573Y0167149D01*
X0329808Y0167149D01*
X0330425Y0166532D01*
X0330425Y0165915D01*
X0327956Y0163446D01*
X0330425Y0163446D01*
X0326742Y0163446D02*
X0325507Y0164680D01*
X0116606Y0167213D02*
X0115989Y0166596D01*
X0114754Y0166596D01*
X0114137Y0167213D01*
X0112923Y0166596D02*
X0111688Y0167830D01*
X0112306Y0167830D02*
X0110454Y0167830D01*
X0110454Y0166596D02*
X0110454Y0170299D01*
X0112306Y0170299D01*
X0112923Y0169682D01*
X0112923Y0168447D01*
X0112306Y0167830D01*
X0114137Y0169682D02*
X0114754Y0170299D01*
X0115989Y0170299D01*
X0116606Y0169682D01*
X0116606Y0169064D01*
X0115989Y0168447D01*
X0116606Y0167830D01*
X0116606Y0167213D01*
X0115989Y0168447D02*
X0115371Y0168447D01*
X0061173Y0167383D02*
X0058704Y0167383D01*
X0057490Y0167383D02*
X0056255Y0168617D01*
X0056872Y0168617D02*
X0055021Y0168617D01*
X0055021Y0167383D02*
X0055021Y0171086D01*
X0056872Y0171086D01*
X0057490Y0170469D01*
X0057490Y0169235D01*
X0056872Y0168617D01*
X0058704Y0169852D02*
X0059938Y0171086D01*
X0059938Y0167383D01*
D21*
X0127824Y0154871D02*
X0127824Y0144989D01*
X0131761Y0139871D02*
X0143887Y0139871D01*
X0147824Y0144989D02*
X0147824Y0154753D01*
X0143887Y0159871D02*
X0131761Y0159871D01*
X0132824Y0149871D02*
X0132826Y0150012D01*
X0132832Y0150153D01*
X0132842Y0150293D01*
X0132856Y0150433D01*
X0132874Y0150573D01*
X0132895Y0150712D01*
X0132921Y0150851D01*
X0132950Y0150989D01*
X0132984Y0151125D01*
X0133021Y0151261D01*
X0133062Y0151396D01*
X0133107Y0151530D01*
X0133156Y0151662D01*
X0133208Y0151793D01*
X0133264Y0151922D01*
X0133324Y0152049D01*
X0133387Y0152175D01*
X0133453Y0152299D01*
X0133524Y0152422D01*
X0133597Y0152542D01*
X0133674Y0152660D01*
X0133754Y0152776D01*
X0133838Y0152889D01*
X0133924Y0153000D01*
X0134014Y0153109D01*
X0134107Y0153215D01*
X0134202Y0153318D01*
X0134301Y0153419D01*
X0134402Y0153517D01*
X0134506Y0153612D01*
X0134613Y0153704D01*
X0134722Y0153793D01*
X0134834Y0153878D01*
X0134948Y0153961D01*
X0135064Y0154041D01*
X0135183Y0154117D01*
X0135304Y0154189D01*
X0135426Y0154259D01*
X0135551Y0154324D01*
X0135677Y0154387D01*
X0135805Y0154445D01*
X0135935Y0154500D01*
X0136066Y0154552D01*
X0136199Y0154599D01*
X0136333Y0154643D01*
X0136468Y0154684D01*
X0136604Y0154720D01*
X0136741Y0154752D01*
X0136879Y0154781D01*
X0137017Y0154806D01*
X0137157Y0154826D01*
X0137297Y0154843D01*
X0137437Y0154856D01*
X0137578Y0154865D01*
X0137718Y0154870D01*
X0137859Y0154871D01*
X0138000Y0154868D01*
X0138141Y0154861D01*
X0138281Y0154850D01*
X0138421Y0154835D01*
X0138561Y0154816D01*
X0138700Y0154794D01*
X0138838Y0154767D01*
X0138976Y0154737D01*
X0139112Y0154702D01*
X0139248Y0154664D01*
X0139382Y0154622D01*
X0139516Y0154576D01*
X0139648Y0154527D01*
X0139778Y0154473D01*
X0139907Y0154416D01*
X0140034Y0154356D01*
X0140160Y0154292D01*
X0140283Y0154224D01*
X0140405Y0154153D01*
X0140525Y0154079D01*
X0140642Y0154001D01*
X0140757Y0153920D01*
X0140870Y0153836D01*
X0140981Y0153749D01*
X0141089Y0153658D01*
X0141194Y0153565D01*
X0141297Y0153468D01*
X0141397Y0153369D01*
X0141494Y0153267D01*
X0141588Y0153162D01*
X0141679Y0153055D01*
X0141767Y0152945D01*
X0141852Y0152833D01*
X0141934Y0152718D01*
X0142013Y0152601D01*
X0142088Y0152482D01*
X0142160Y0152361D01*
X0142228Y0152238D01*
X0142293Y0152113D01*
X0142355Y0151986D01*
X0142412Y0151857D01*
X0142467Y0151727D01*
X0142517Y0151596D01*
X0142564Y0151463D01*
X0142607Y0151329D01*
X0142646Y0151193D01*
X0142681Y0151057D01*
X0142713Y0150920D01*
X0142740Y0150782D01*
X0142764Y0150643D01*
X0142784Y0150503D01*
X0142800Y0150363D01*
X0142812Y0150223D01*
X0142820Y0150082D01*
X0142824Y0149941D01*
X0142824Y0149801D01*
X0142820Y0149660D01*
X0142812Y0149519D01*
X0142800Y0149379D01*
X0142784Y0149239D01*
X0142764Y0149099D01*
X0142740Y0148960D01*
X0142713Y0148822D01*
X0142681Y0148685D01*
X0142646Y0148549D01*
X0142607Y0148413D01*
X0142564Y0148279D01*
X0142517Y0148146D01*
X0142467Y0148015D01*
X0142412Y0147885D01*
X0142355Y0147756D01*
X0142293Y0147629D01*
X0142228Y0147504D01*
X0142160Y0147381D01*
X0142088Y0147260D01*
X0142013Y0147141D01*
X0141934Y0147024D01*
X0141852Y0146909D01*
X0141767Y0146797D01*
X0141679Y0146687D01*
X0141588Y0146580D01*
X0141494Y0146475D01*
X0141397Y0146373D01*
X0141297Y0146274D01*
X0141194Y0146177D01*
X0141089Y0146084D01*
X0140981Y0145993D01*
X0140870Y0145906D01*
X0140757Y0145822D01*
X0140642Y0145741D01*
X0140525Y0145663D01*
X0140405Y0145589D01*
X0140283Y0145518D01*
X0140160Y0145450D01*
X0140034Y0145386D01*
X0139907Y0145326D01*
X0139778Y0145269D01*
X0139648Y0145215D01*
X0139516Y0145166D01*
X0139382Y0145120D01*
X0139248Y0145078D01*
X0139112Y0145040D01*
X0138976Y0145005D01*
X0138838Y0144975D01*
X0138700Y0144948D01*
X0138561Y0144926D01*
X0138421Y0144907D01*
X0138281Y0144892D01*
X0138141Y0144881D01*
X0138000Y0144874D01*
X0137859Y0144871D01*
X0137718Y0144872D01*
X0137578Y0144877D01*
X0137437Y0144886D01*
X0137297Y0144899D01*
X0137157Y0144916D01*
X0137017Y0144936D01*
X0136879Y0144961D01*
X0136741Y0144990D01*
X0136604Y0145022D01*
X0136468Y0145058D01*
X0136333Y0145099D01*
X0136199Y0145143D01*
X0136066Y0145190D01*
X0135935Y0145242D01*
X0135805Y0145297D01*
X0135677Y0145355D01*
X0135551Y0145418D01*
X0135426Y0145483D01*
X0135304Y0145553D01*
X0135183Y0145625D01*
X0135064Y0145701D01*
X0134948Y0145781D01*
X0134834Y0145864D01*
X0134722Y0145949D01*
X0134613Y0146038D01*
X0134506Y0146130D01*
X0134402Y0146225D01*
X0134301Y0146323D01*
X0134202Y0146424D01*
X0134107Y0146527D01*
X0134014Y0146633D01*
X0133924Y0146742D01*
X0133838Y0146853D01*
X0133754Y0146966D01*
X0133674Y0147082D01*
X0133597Y0147200D01*
X0133524Y0147320D01*
X0133453Y0147443D01*
X0133387Y0147567D01*
X0133324Y0147693D01*
X0133264Y0147820D01*
X0133208Y0147949D01*
X0133156Y0148080D01*
X0133107Y0148212D01*
X0133062Y0148346D01*
X0133021Y0148481D01*
X0132984Y0148617D01*
X0132950Y0148753D01*
X0132921Y0148891D01*
X0132895Y0149030D01*
X0132874Y0149169D01*
X0132856Y0149309D01*
X0132842Y0149449D01*
X0132832Y0149589D01*
X0132826Y0149730D01*
X0132824Y0149871D01*
X0169241Y0020383D02*
X0169241Y0018572D01*
X0170461Y0019492D01*
X0169241Y0018572D02*
X0169241Y0016761D01*
X0170461Y0017712D02*
X0169302Y0018472D01*
D22*
X0134871Y0193729D02*
X0134871Y0212430D01*
X0221485Y0212430D01*
X0221485Y0193729D01*
X0134871Y0193729D01*
X0135763Y0210658D02*
X0135765Y0210717D01*
X0135771Y0210775D01*
X0135781Y0210833D01*
X0135794Y0210890D01*
X0135812Y0210947D01*
X0135833Y0211002D01*
X0135858Y0211055D01*
X0135886Y0211106D01*
X0135917Y0211156D01*
X0135952Y0211203D01*
X0135990Y0211248D01*
X0136031Y0211291D01*
X0136075Y0211330D01*
X0136121Y0211366D01*
X0136169Y0211400D01*
X0136220Y0211430D01*
X0136273Y0211456D01*
X0136327Y0211479D01*
X0136382Y0211498D01*
X0136439Y0211514D01*
X0136497Y0211526D01*
X0136555Y0211534D01*
X0136614Y0211538D01*
X0136672Y0211538D01*
X0136731Y0211534D01*
X0136789Y0211526D01*
X0136847Y0211514D01*
X0136904Y0211498D01*
X0136959Y0211479D01*
X0137013Y0211456D01*
X0137066Y0211430D01*
X0137117Y0211400D01*
X0137165Y0211366D01*
X0137211Y0211330D01*
X0137255Y0211291D01*
X0137296Y0211248D01*
X0137334Y0211203D01*
X0137369Y0211156D01*
X0137400Y0211106D01*
X0137428Y0211055D01*
X0137453Y0211002D01*
X0137474Y0210947D01*
X0137492Y0210890D01*
X0137505Y0210833D01*
X0137515Y0210775D01*
X0137521Y0210717D01*
X0137523Y0210658D01*
X0137521Y0210599D01*
X0137515Y0210541D01*
X0137505Y0210483D01*
X0137492Y0210426D01*
X0137474Y0210369D01*
X0137453Y0210314D01*
X0137428Y0210261D01*
X0137400Y0210210D01*
X0137369Y0210160D01*
X0137334Y0210113D01*
X0137296Y0210068D01*
X0137255Y0210025D01*
X0137211Y0209986D01*
X0137165Y0209950D01*
X0137117Y0209916D01*
X0137066Y0209886D01*
X0137013Y0209860D01*
X0136959Y0209837D01*
X0136904Y0209818D01*
X0136847Y0209802D01*
X0136789Y0209790D01*
X0136731Y0209782D01*
X0136672Y0209778D01*
X0136614Y0209778D01*
X0136555Y0209782D01*
X0136497Y0209790D01*
X0136439Y0209802D01*
X0136382Y0209818D01*
X0136327Y0209837D01*
X0136273Y0209860D01*
X0136220Y0209886D01*
X0136169Y0209916D01*
X0136121Y0209950D01*
X0136075Y0209986D01*
X0136031Y0210025D01*
X0135990Y0210068D01*
X0135952Y0210113D01*
X0135917Y0210160D01*
X0135886Y0210210D01*
X0135858Y0210261D01*
X0135833Y0210314D01*
X0135812Y0210369D01*
X0135794Y0210426D01*
X0135781Y0210483D01*
X0135771Y0210541D01*
X0135765Y0210599D01*
X0135763Y0210658D01*
X0219030Y0210855D02*
X0219032Y0210914D01*
X0219038Y0210972D01*
X0219048Y0211030D01*
X0219061Y0211087D01*
X0219079Y0211144D01*
X0219100Y0211199D01*
X0219125Y0211252D01*
X0219153Y0211303D01*
X0219184Y0211353D01*
X0219219Y0211400D01*
X0219257Y0211445D01*
X0219298Y0211488D01*
X0219342Y0211527D01*
X0219388Y0211563D01*
X0219436Y0211597D01*
X0219487Y0211627D01*
X0219540Y0211653D01*
X0219594Y0211676D01*
X0219649Y0211695D01*
X0219706Y0211711D01*
X0219764Y0211723D01*
X0219822Y0211731D01*
X0219881Y0211735D01*
X0219939Y0211735D01*
X0219998Y0211731D01*
X0220056Y0211723D01*
X0220114Y0211711D01*
X0220171Y0211695D01*
X0220226Y0211676D01*
X0220280Y0211653D01*
X0220333Y0211627D01*
X0220384Y0211597D01*
X0220432Y0211563D01*
X0220478Y0211527D01*
X0220522Y0211488D01*
X0220563Y0211445D01*
X0220601Y0211400D01*
X0220636Y0211353D01*
X0220667Y0211303D01*
X0220695Y0211252D01*
X0220720Y0211199D01*
X0220741Y0211144D01*
X0220759Y0211087D01*
X0220772Y0211030D01*
X0220782Y0210972D01*
X0220788Y0210914D01*
X0220790Y0210855D01*
X0220788Y0210796D01*
X0220782Y0210738D01*
X0220772Y0210680D01*
X0220759Y0210623D01*
X0220741Y0210566D01*
X0220720Y0210511D01*
X0220695Y0210458D01*
X0220667Y0210407D01*
X0220636Y0210357D01*
X0220601Y0210310D01*
X0220563Y0210265D01*
X0220522Y0210222D01*
X0220478Y0210183D01*
X0220432Y0210147D01*
X0220384Y0210113D01*
X0220333Y0210083D01*
X0220280Y0210057D01*
X0220226Y0210034D01*
X0220171Y0210015D01*
X0220114Y0209999D01*
X0220056Y0209987D01*
X0219998Y0209979D01*
X0219939Y0209975D01*
X0219881Y0209975D01*
X0219822Y0209979D01*
X0219764Y0209987D01*
X0219706Y0209999D01*
X0219649Y0210015D01*
X0219594Y0210034D01*
X0219540Y0210057D01*
X0219487Y0210083D01*
X0219436Y0210113D01*
X0219388Y0210147D01*
X0219342Y0210183D01*
X0219298Y0210222D01*
X0219257Y0210265D01*
X0219219Y0210310D01*
X0219184Y0210357D01*
X0219153Y0210407D01*
X0219125Y0210458D01*
X0219100Y0210511D01*
X0219079Y0210566D01*
X0219061Y0210623D01*
X0219048Y0210680D01*
X0219038Y0210738D01*
X0219032Y0210796D01*
X0219030Y0210855D01*
M02*
