%
M48
M72
T01C0.02362
T02C0.02400
T03C0.03346
T04C0.04000
%
T01
X38808Y107509
X23454Y144123
T02
X33493Y155737
X33985Y169517
X51702Y176406
X70402Y195599
X79753Y197076
X77292Y207410
X103867Y201013
X108788Y191170
X114694Y187725
X134379Y187725
X139792Y183788
X148158Y181820
X147666Y171485
X156032Y167548
X164891Y162135
X170304Y152292
X175225Y147371
X168828Y134083
X149143Y146879
X150127Y152784
X138316Y157213
X138316Y164595
X118139Y168532
X93532Y177391
X91072Y183296
X87135Y170501
X133394Y195107
X131426Y204457
X113217Y210363
X104851Y213808
X166859Y189694
X175717Y181328
X172272Y177883
X187036Y179359
X200324Y178375
X206229Y175422
X212135Y182312
X212135Y190678
X195894Y190678
X179162Y190678
X209674Y212331
X180639Y213808
X169812Y213808
X235265Y172961
X242646Y182804
X252981Y183788
X258394Y178375
X264300Y170009
X255934Y157706
X255442Y152784
X251997Y145402
X241662Y149339
X235757Y156229
X231820Y147863
X210658Y144418
X210658Y151308
X199831Y162135
X188020Y160166
X199831Y129162
X203769Y122765
X199339Y106032
X193434Y96190
X189989Y92745
X186544Y89300
X186544Y84379
X183591Y80442
X193434Y82410
X212627Y76997
X224930Y69615
X229359Y72076
X246583Y71091
X270206Y82902
X275127Y83394
X283001Y82902
X303178Y89792
X301702Y101111
X293335Y104556
X267745Y116859
X264792Y106032
X259379Y100619
X234772Y106032
X225914Y90284
X183591Y96190
X171780Y89792
X164398Y89792
X167351Y97174
X170796Y103572
X163906Y112922
X158493Y104064
X157509Y96682
X141761Y104064
X156524Y84379
X168828Y80442
X170304Y73552
X162922Y61249
X156524Y59772
X124044Y73060
X124044Y79950
X107804Y83887
X100914Y94221
X104359Y97666
X101406Y104556
X95501Y109477
X84182Y97666
X67942Y90284
X60068Y90284
X55146Y90284
X34969Y92253
X34969Y110954
X28080Y126702
X79753Y82410
X131918Y31229
X139792Y29261
X166367Y34674
X242154Y131131
X308591Y169517
X288414Y207902
X272174Y208887
X248060Y201997
X244615Y197568
X238709Y192646
X239694Y205934
T03
X21328Y119950
X21328Y104989
T04
X112548Y42942
X122548Y42942
X120658Y20304
X130658Y20304
X140658Y20304
X150658Y20304
X205107Y18729
X215107Y18729
X225107Y18729
X235107Y18729
X120580Y98257
X110580Y98257
M30
